<svg viewBox="0 0 24 24" xmlns="http://www.w3.org/2000/svg" id="Multiple-Users-Network--Streamline-Ultimate" height="24" width="24">
  <desc>
    Multiple Users Network Streamline Icon: https://streamlinehq.com
  </desc>
  <path d="M18.5 6.976a6.521 6.521 0 0 1 -6.518 6.524A6.592 6.592 0 0 1 5.5 6.858 6.356 6.356 0 0 1 11.721 0.506C11.815 0.5 11.908 0.5 12 0.5a6.462 6.462 0 0 1 6.5 6.476" fill="none" stroke="#000000" stroke-linecap="round" stroke-linejoin="round" stroke-width="1"></path>
  <path d="M11.721 0.506c-3.392 3.674 -3.392 8.467 0 12.989" fill="none" stroke="#000000" stroke-linecap="round" stroke-linejoin="round" stroke-width="1"></path>
  <path d="M12.285 0.506c3.392 3.674 3.392 8.466 0 12.987" fill="none" stroke="#000000" stroke-linecap="round" stroke-linejoin="round" stroke-width="1"></path>
  <path d="m6.574 10.5 10.894 0" fill="none" stroke="#000000" stroke-linecap="round" stroke-linejoin="round" stroke-width="1"></path>
  <path d="m6.453 3.5 11.043 0" fill="none" stroke="#000000" stroke-linecap="round" stroke-linejoin="round" stroke-width="1"></path>
  <path d="m5.5 7 13 0" fill="none" stroke="#000000" stroke-linecap="round" stroke-linejoin="round" stroke-width="1"></path>
  <path d="M9.736 18.35a2.35 2.35 0 1 0 4.7 0 2.35 2.35 0 1 0 -4.7 0" fill="none" stroke="#000000" stroke-linecap="round" stroke-linejoin="round" stroke-width="1"></path>
  <path d="M2.344 18.35a2.35 2.35 0 1 0 4.7 0 2.35 2.35 0 1 0 -4.7 0" fill="none" stroke="#000000" stroke-linecap="round" stroke-linejoin="round" stroke-width="1"></path>
  <path d="M16.964 18.35a2.35 2.35 0 1 0 4.7 0 2.35 2.35 0 1 0 -4.7 0" fill="none" stroke="#000000" stroke-linecap="round" stroke-linejoin="round" stroke-width="1"></path>
  <path d="M23 23.5a4.683 4.683 0 0 0 -7.292 0A4.861 4.861 0 0 0 12 21.76" fill="none" stroke="#000000" stroke-linecap="round" stroke-linejoin="round" stroke-width="1"></path>
  <path d="M1 23.5a4.683 4.683 0 0 1 7.292 0A4.861 4.861 0 0 1 12 21.76" fill="none" stroke="#000000" stroke-linecap="round" stroke-linejoin="round" stroke-width="1"></path>
</svg>