<svg width="48" height="48" viewBox="0 0 48 48" fill="none" xmlns="http://www.w3.org/2000/svg">
<g clip-path="url(#clip0_31_602)">
<path d="M1 34.24C1 34.9447 1.1388 35.6425 1.40846 36.2935C1.67813 36.9445 2.07339 37.5361 2.57167 38.0344C3.06994 38.5326 3.66149 38.9279 4.31252 39.1976C4.96355 39.4672 5.66133 39.606 6.366 39.606C7.07067 39.606 7.76845 39.4672 8.41948 39.1976C9.07051 38.9279 9.66206 38.5326 10.1603 38.0344C10.6586 37.5361 11.0539 36.9445 11.3235 36.2935C11.5932 35.6425 11.732 34.9447 11.732 34.24C11.732 33.5354 11.5932 32.8376 11.3235 32.1865C11.0539 31.5355 10.6586 30.944 10.1603 30.4457C9.66206 29.9474 9.07051 29.5522 8.41948 29.2825C7.76845 29.0128 7.07067 28.874 6.366 28.874C5.66133 28.874 4.96355 29.0128 4.31252 29.2825C3.66149 29.5522 3.06994 29.9474 2.57167 30.4457C2.07339 30.944 1.67813 31.5355 1.40846 32.1865C1.1388 32.8376 1 33.5354 1 34.24Z" stroke="black" stroke-width="2" stroke-linecap="round" stroke-linejoin="round"/>
<path d="M14.83 46.728C14.2887 45.4604 13.4695 44.3306 12.4329 43.4221C11.3963 42.5136 10.1688 41.8496 8.8411 41.4792C7.51341 41.1088 6.11946 41.0415 4.76226 41.2823C3.40507 41.523 2.11931 42.0656 1 42.87" stroke="black" stroke-width="2" stroke-linecap="round" stroke-linejoin="round"/>
<path d="M36.2679 34.24C36.2679 35.6632 36.8333 37.028 37.8396 38.0344C38.8459 39.0407 40.2108 39.606 41.6339 39.606C43.0571 39.606 44.422 39.0407 45.4283 38.0344C46.4346 37.028 46.9999 35.6632 46.9999 34.24C46.9999 32.8169 46.4346 31.452 45.4283 30.4457C44.422 29.4394 43.0571 28.874 41.6339 28.874C40.2108 28.874 38.8459 29.4394 37.8396 30.4457C36.8333 31.452 36.2679 32.8169 36.2679 34.24Z" stroke="black" stroke-width="2" stroke-linecap="round" stroke-linejoin="round"/>
<path d="M33.17 46.728C33.7113 45.4604 34.5305 44.3306 35.5672 43.4221C36.6038 42.5136 37.8313 41.8496 39.1589 41.4792C40.4866 41.1088 41.8806 41.0415 43.2378 41.2823C44.595 41.523 45.8807 42.0656 47 42.87" stroke="black" stroke-width="2" stroke-linecap="round" stroke-linejoin="round"/>
<path d="M17.1 32.7059C17.1 34.5359 17.8269 36.2909 19.1209 37.5849C20.4149 38.8789 22.17 39.6059 24 39.6059C25.83 39.6059 27.585 38.8789 28.879 37.5849C30.173 36.2909 30.9 34.5359 30.9 32.7059C30.9 30.8759 30.173 29.1209 28.879 27.8269C27.585 26.5329 25.83 25.8059 24 25.8059C22.17 25.8059 20.4149 26.5329 19.1209 27.8269C17.8269 29.1209 17.1 30.8759 17.1 32.7059Z" stroke="black" stroke-width="2" stroke-linecap="round" stroke-linejoin="round"/>
<path d="M33.17 46.7279C32.0078 45.4512 30.5919 44.4312 29.0128 43.7332C27.4338 43.0353 25.7264 42.6748 24 42.6748C22.2735 42.6748 20.5661 43.0353 18.9871 43.7332C17.408 44.4312 15.9921 45.4512 14.83 46.7279" stroke="black" stroke-width="2" stroke-linecap="round" stroke-linejoin="round"/>
<path d="M25.084 1.93795L27.638 6.96395H31.986C32.2215 6.9649 32.4514 7.03509 32.6472 7.16576C32.8431 7.29644 32.9961 7.48183 33.0874 7.69886C33.1786 7.91588 33.204 8.15495 33.1604 8.3863C33.1168 8.61765 33.0061 8.83106 32.842 8.99995L28.842 12.93L31.054 18.01C31.1544 18.2428 31.1784 18.5015 31.1227 18.7489C31.0669 18.9962 30.9342 19.2196 30.7436 19.3869C30.553 19.5541 30.3143 19.6567 30.0618 19.6799C29.8093 19.7031 29.5559 19.6457 29.338 19.516L24 16.51L18.654 19.51C18.4362 19.6397 18.1828 19.6971 17.9303 19.6739C17.6778 19.6507 17.4391 19.5481 17.2485 19.3809C17.0579 19.2136 16.9252 18.9902 16.8694 18.7429C16.8136 18.4955 16.8377 18.2368 16.938 18.004L19.15 12.924L15.15 8.99395C14.9859 8.82494 14.8752 8.61135 14.8316 8.37981C14.788 8.14828 14.8136 7.90904 14.9051 7.69194C14.9966 7.47483 15.15 7.28946 15.3461 7.15894C15.5422 7.02841 15.7724 6.95851 16.008 6.95795H20.354L22.916 1.93795C23.0178 1.73786 23.1729 1.56982 23.3642 1.45245C23.5555 1.33508 23.7756 1.27295 24 1.27295C24.2245 1.27295 24.4446 1.33508 24.6359 1.45245C24.8272 1.56982 24.9823 1.73786 25.084 1.93795Z" stroke="black" stroke-width="2" stroke-linecap="round" stroke-linejoin="round"/>
<path d="M10.2 4.33988C9.97509 4.33813 9.75419 4.39964 9.56252 4.5174C9.37085 4.63516 9.21614 4.80442 9.11604 5.00588L6.56204 10.0299H2.21604C1.98004 10.0301 1.74934 10.0998 1.55278 10.2304C1.35623 10.3611 1.20256 10.5468 1.11099 10.7643C1.01941 10.9818 0.994011 11.2214 1.03795 11.4533C1.0819 11.6852 1.19324 11.899 1.35804 12.0679L5.35004 15.9999L3.13804 21.0779C3.03767 21.3107 3.01365 21.5694 3.06942 21.8168C3.1252 22.0642 3.2579 22.2875 3.44849 22.4548C3.63908 22.622 3.87776 22.7246 4.13028 22.7478C4.3828 22.771 4.63617 22.7136 4.85404 22.5839L10.2 19.5759L11.614 20.3759" stroke="black" stroke-width="2" stroke-linecap="round" stroke-linejoin="round"/>
<path d="M37.8 4.33988C38.0249 4.33813 38.2458 4.39964 38.4375 4.5174C38.6292 4.63516 38.7839 4.80442 38.884 5.00588L41.438 10.0299H45.784C46.02 10.0301 46.2507 10.0998 46.4472 10.2304C46.6438 10.3611 46.7975 10.5468 46.889 10.7643C46.9806 10.9818 47.006 11.2214 46.9621 11.4533C46.9181 11.6852 46.8068 11.899 46.642 12.0679L42.65 15.9999L44.862 21.0819C44.9624 21.3148 44.9864 21.5734 44.9306 21.8208C44.8748 22.0682 44.7421 22.2915 44.5515 22.4588C44.3609 22.626 44.1223 22.7286 43.8697 22.7518C43.6172 22.775 43.3639 22.7176 43.146 22.5879L37.8 19.5759L36.386 20.3759" stroke="black" stroke-width="2" stroke-linecap="round" stroke-linejoin="round"/>
<path d="M18.5179 28.5281C20.1456 30.0951 22.0999 31.2824 24.2407 32.0047C26.3815 32.7271 28.6556 32.9666 30.8999 32.7061" stroke="black" stroke-width="2" stroke-linecap="round" stroke-linejoin="round"/>
<path d="M1.526 31.936C4.56139 33.7487 8.09299 34.5532 11.614 34.234" stroke="black" stroke-width="2" stroke-linecap="round" stroke-linejoin="round"/>
<path d="M36.8 31.936C39.8353 33.7491 43.367 34.5536 46.8881 34.234" stroke="black" stroke-width="2" stroke-linecap="round" stroke-linejoin="round"/>
</g>
<defs>
<clipPath id="clip0_31_602">
<rect width="48" height="48" fill="white"/>
</clipPath>
</defs>
</svg>
