<svg xmlns="http://www.w3.org/2000/svg" viewBox="0 0 24 24" id="Workflow-Teamwork-User-High-Five--Streamline-Ultimate" height="24" width="24">
  <desc>
    Workflow Teamwork User High Five Streamline Icon: https://streamlinehq.com
  </desc>
  <path d="M1.5 8a2.5 2.5 0 1 0 5 0 2.5 2.5 0 1 0 -5 0" fill="none" stroke="#000000" stroke-linecap="round" stroke-linejoin="round" stroke-width="1"></path>
  <path d="M17.5 8a2.5 2.5 0 1 0 5 0 2.5 2.5 0 1 0 -5 0" fill="none" stroke="#000000" stroke-linecap="round" stroke-linejoin="round" stroke-width="1"></path>
  <path d="M16.5 23.5v-8.028a6.49 6.49 0 0 1 -5.562 -4.416l-0.861 -2.581a1.5 1.5 0 0 1 1.193 -1.958A1.559 1.559 0 0 1 12.949 7.6l0.836 2.507A3.5 3.5 0 0 0 17.1 12.5l4.394 0a2 2 0 0 1 2 2v9" fill="none" stroke="#000000" stroke-linecap="round" stroke-linejoin="round" stroke-width="1"></path>
  <path d="m10.419 9.5 -0.2 0.607A3.5 3.5 0 0 1 6.892 12.5l-4.39 0a2 2 0 0 0 -2 2v9" fill="none" stroke="#000000" stroke-linecap="round" stroke-linejoin="round" stroke-width="1"></path>
  <path d="M7.5 23.5v-8.028a6.491 6.491 0 0 0 4.5 -2.445" fill="none" stroke="#000000" stroke-linecap="round" stroke-linejoin="round" stroke-width="1"></path>
  <path d="m11.5 0.5 0 2" fill="none" stroke="#000000" stroke-linecap="round" stroke-linejoin="round" stroke-width="1"></path>
  <path d="M15.414 2.586 14 4" fill="none" stroke="#000000" stroke-linecap="round" stroke-linejoin="round" stroke-width="1"></path>
  <path d="M7.586 2.586 9 4" fill="none" stroke="#000000" stroke-linecap="round" stroke-linejoin="round" stroke-width="1"></path>
</svg>