<svg xmlns="http://www.w3.org/2000/svg" viewBox="0 0 24 24" id="Startup-Product-Rocket-Box--Streamline-Ultimate" height="24" width="24">
  <desc>
    Startup Product Rocket Box Streamline Icon: https://streamlinehq.com
  </desc>
  <path d="m1 18.127 11 3" fill="none" stroke="#000000" stroke-linecap="round" stroke-linejoin="round" stroke-width="1"></path>
  <path d="m12 21.127 11 -3" fill="none" stroke="#000000" stroke-linecap="round" stroke-linejoin="round" stroke-width="1"></path>
  <path d="m1 18.127 5.493 -1.439" fill="none" stroke="#000000" stroke-linecap="round" stroke-linejoin="round" stroke-width="1"></path>
  <path d="m1 22.688 0 -4.436" fill="none" stroke="#000000" stroke-linecap="round" stroke-linejoin="round" stroke-width="1"></path>
  <path d="m23 18.252 0 4.436" fill="none" stroke="#000000" stroke-linecap="round" stroke-linejoin="round" stroke-width="1"></path>
  <path d="m12 23.188 0 -2.061" fill="none" stroke="#000000" stroke-linecap="round" stroke-linejoin="round" stroke-width="1"></path>
  <path d="M15.5 6.062c0 1.933 -0.583 7 -3.5 7S8.5 8 8.5 6.062c0 -3.5 3.5 -5.25 3.5 -5.25s3.5 1.75 3.5 5.25" fill="none" stroke="#000000" stroke-linecap="round" stroke-linejoin="round" stroke-width="1"></path>
  <path d="M10.627 5.937a1.373 1.373 0 1 0 2.746 0 1.373 1.373 0 1 0 -2.746 0" fill="none" stroke="#000000" stroke-linecap="round" stroke-linejoin="round" stroke-width="1"></path>
  <path d="m9.683 12.161 -0.808 0.405a5.251 5.251 0 0 0 -1.242 0.916 0.653 0.653 0 0 1 -1.13 -0.417 3.486 3.486 0 0 1 2.113 -3.61" fill="none" stroke="#000000" stroke-linecap="round" stroke-linejoin="round" stroke-width="1"></path>
  <path d="m14.317 12.161 0.808 0.405a5.251 5.251 0 0 1 1.242 0.916 0.653 0.653 0 0 0 1.13 -0.417 3.486 3.486 0 0 0 -2.113 -3.61" fill="none" stroke="#000000" stroke-linecap="round" stroke-linejoin="round" stroke-width="1"></path>
  <path d="m23 18.127 -5.493 -1.439" fill="none" stroke="#000000" stroke-linecap="round" stroke-linejoin="round" stroke-width="1"></path>
  <path d="M13.4 16.007c0 0.773 -0.627 2.643 -1.4 2.643s-1.4 -1.87 -1.4 -2.643a1.4 1.4 0 1 1 2.8 0" fill="none" stroke="#000000" stroke-linecap="round" stroke-linejoin="round" stroke-width="1"></path>
</svg>