<svg width="153" height="32" viewBox="0 0 153 32" fill="none" xmlns="http://www.w3.org/2000/svg">
    <title>AcademyEXFullLogo</title>
    <path
        d="M24.1985 8.0768H0.0197754C0.0692629 8.01979 0.0955727 7.98509 0.125641 7.95472C2.74033 5.33413 5.3544 2.71292 7.97285 0.0960491C8.02672 0.0421377 8.12445 0.0043377 8.20212 0.0043377C16.1947 0 24.1872 0 32.1797 0C32.2311 0 32.2818 0.0043377 32.3533 0.00743606V0.211928C32.3533 2.77365 32.3539 5.33537 32.3533 7.89647C32.3514 13.2517 32.3476 18.6075 32.3483 23.9627C32.3483 24.0965 32.3125 24.1907 32.2136 24.2855C29.5757 26.8169 26.941 29.3514 24.3056 31.8852C24.2793 31.91 24.2524 31.9341 24.1991 31.9825L24.1985 8.0768Z"
        fill="currentColor" />
    <path
        d="M19.2066 23.2339C19.0149 26.5585 17.1757 29.4579 13.5312 31.1676C12.024 31.8746 10.4141 32.1082 8.75593 31.9552C5.14272 31.6224 2.16783 29.4876 0.735825 26.1916C0.130073 24.7967 -0.0979454 23.3306 0.0379886 21.8167C0.396929 17.8199 3.22273 14.5151 7.14226 13.4976C11.7578 12.2998 16.6019 14.6205 18.4417 18.9123C18.9466 20.0903 19.2128 21.3185 19.2072 23.2339H19.2066Z"
        fill="currentColor" />
    <path
        d="M101.072 11.1448H103.612C103.628 11.3921 103.645 11.6333 103.669 11.9807C104.452 11.1039 105.372 10.7606 106.469 10.8158C107.595 10.873 108.425 11.386 109.064 12.3241C109.884 11.2531 110.95 10.7483 112.312 10.8158C114.231 10.9118 115.665 12.0747 115.785 14.0572C115.931 16.4974 115.82 18.952 115.82 21.4351H112.904C112.904 21.2287 112.904 21.0468 112.904 20.8649C112.904 18.9581 112.909 17.0492 112.904 15.1424C112.904 13.9713 112.276 13.3746 111.192 13.4931C110.442 13.5749 109.942 14.235 109.94 15.171C109.934 17.0615 109.94 18.952 109.94 20.8424C109.94 21.0264 109.94 21.2103 109.94 21.4331H106.973C106.965 21.2594 106.95 21.0795 106.948 20.8997C106.948 18.9417 106.956 16.9818 106.948 15.0239C106.942 13.9202 106.306 13.3623 105.244 13.4951C104.562 13.581 104.246 14.051 104.072 14.6356C104.002 14.8747 103.996 15.1404 103.994 15.3938C103.988 17.2168 103.992 19.0378 103.992 20.8608C103.992 21.0448 103.992 21.2267 103.992 21.4392H101.07V11.1469L101.072 11.1448Z"
        fill="currentColor" />
    <path
        d="M128.441 6.84473H137.932V9.64058H131.474V12.3486H137.934V15.2016H131.48V18.6024H137.926V21.4412H128.441V6.84473Z"
        fill="currentColor" />
    <path
        d="M152.994 21.4678C151.735 21.4678 150.601 21.4821 149.471 21.4515C149.32 21.4474 149.13 21.2553 149.035 21.1041C148.108 19.6325 147.194 18.1488 146.277 16.6711C146.188 16.5281 146.091 16.3891 145.967 16.2031C145.856 16.3666 145.758 16.4954 145.676 16.6303C144.748 18.1222 143.814 19.6121 142.899 21.1122C142.738 21.3759 142.562 21.4842 142.246 21.4781C141.182 21.4576 140.116 21.4699 138.955 21.4699C139.085 21.2553 139.172 21.102 139.271 20.9549C140.788 18.6822 142.3 16.4075 143.831 14.1471C144.037 13.8426 144.033 13.6423 143.818 13.3439C142.389 11.3635 140.98 9.36881 139.565 7.37819C139.459 7.229 139.358 7.07368 139.186 6.81821C139.732 6.81821 140.184 6.81821 140.635 6.81821C141.271 6.81821 141.909 6.83456 142.546 6.81208C142.858 6.80186 143.044 6.90609 143.215 7.16565C144.104 8.5227 145.011 9.86545 145.944 11.2654C146.054 11.1224 146.147 11.0161 146.225 10.8996C147.062 9.6529 147.891 8.40008 148.74 7.15952C148.841 7.01237 149.039 6.83865 149.196 6.83456C150.347 6.80595 151.5 6.82025 152.779 6.82025C151.103 9.17261 149.486 11.4412 147.862 13.722C149.56 16.2828 151.246 18.8253 153 21.4699L152.994 21.4678Z"
        fill="currentColor" />
    <path
        d="M85.1806 11.8009V6.8468H88.1041V21.4249H85.5732C85.5587 21.1756 85.5463 20.914 85.5277 20.5849C84.7385 21.2328 83.8976 21.6231 82.9101 21.7335C80.4887 22.0074 78.4743 20.7995 77.6686 18.5166C77.0818 16.8551 77.1521 15.2037 77.8504 13.5871C79.0921 10.7095 82.846 9.99827 85.1806 11.7988V11.8009ZM80.2821 16.2419L80.3606 16.2665C80.3751 16.4872 80.3771 16.7079 80.4081 16.9266C80.5651 18.0588 81.344 18.9192 82.3584 19.0909C83.4121 19.2687 84.3749 18.8334 84.8563 17.8831C85.3872 16.8346 85.3852 15.7473 84.8563 14.6969C84.4369 13.865 83.722 13.4604 82.7696 13.4706C81.8172 13.4808 81.1044 13.8998 80.7139 14.7439C80.497 15.2098 80.4226 15.7392 80.2821 16.2419Z"
        fill="currentColor" />
    <path
        d="M45.1369 14.1389C45.2505 12.9004 45.7526 11.948 46.8207 11.4289C48.4343 10.6481 50.1408 10.5644 51.8329 11.153C53.2047 11.6292 53.9237 12.7164 53.9381 14.1736C53.9526 15.5859 53.9402 17.0001 53.9423 18.4124C53.9423 18.877 54.1757 19.112 54.6427 19.1175C54.779 19.1175 54.9154 19.1175 55.0951 19.1175V21.4371C54.3121 21.4371 53.5435 21.4535 52.777 21.431C52.2461 21.4167 51.9672 21.0488 51.7833 20.5788C50.3061 21.9072 48.6161 22.038 46.8476 21.4882C45.3084 21.01 44.5977 19.9329 44.6245 18.3735C44.6514 16.855 45.4509 15.7085 46.9694 15.3406C48.0603 15.077 49.2111 15.0524 50.335 14.9257C50.5705 14.8992 50.8102 14.8992 51.0374 14.8889C51.3102 13.9468 50.9279 13.3091 50.0065 13.2212C49.2483 13.1497 48.4611 13.0904 48.0686 13.9856C48.0355 14.0612 47.8868 14.1287 47.7897 14.1307C47.0851 14.143 46.3786 14.1389 45.6741 14.1389C45.5212 14.1389 45.3683 14.1389 45.139 14.1389H45.1369ZM51.0912 17.086C50.6077 17.1228 50.1491 17.1514 49.6925 17.1923C49.3516 17.2229 49.0045 17.2393 48.6719 17.3128C48.4281 17.366 48.1698 17.46 47.9735 17.6092C47.3372 18.0956 47.4467 18.9785 48.1925 19.238C49.4652 19.6815 51.3721 19.191 51.0912 17.086Z"
        fill="currentColor" />
    <path
        d="M77.026 19.1421V21.3984C76.1769 21.3984 75.3381 21.4597 74.5158 21.3677C74.1976 21.3309 73.9229 20.9447 73.5758 20.681C72.5324 21.7009 71.1255 21.9093 69.6214 21.7029C67.6215 21.427 66.512 20.2212 66.5348 18.3879C66.5575 16.6017 67.7661 15.3468 69.7144 15.1261C70.6028 15.026 71.4974 14.9871 72.3899 14.9197C72.5923 14.9054 72.7948 14.8911 72.9849 14.8788C73.1667 13.7547 72.7556 13.2356 71.6792 13.1968C70.9705 13.1723 70.2784 13.2091 69.9685 14.0184C69.9478 14.0736 69.8404 14.1165 69.766 14.1308C69.6669 14.1512 69.5615 14.139 69.4582 14.139C68.671 14.139 67.8839 14.139 67.0513 14.139C67.1649 12.8923 67.6752 11.9317 68.764 11.4146C70.3631 10.6544 72.0552 10.5706 73.7307 11.149C75.1088 11.6251 75.836 12.7145 75.8463 14.1614C75.8587 15.5921 75.8484 17.0227 75.8484 18.4513C75.8484 18.8914 76.0777 19.1141 76.5364 19.1196C76.6872 19.1196 76.838 19.1339 77.024 19.1441L77.026 19.1421ZM73.0221 17.0677C72.1729 17.1515 71.3713 17.2148 70.5738 17.317C70.3466 17.3456 70.1049 17.4498 69.9189 17.5847C69.2702 18.0507 69.3466 18.9459 70.0759 19.2238C70.8486 19.5181 71.6337 19.467 72.3341 18.997C72.9994 18.5535 73.0903 17.8749 73.0221 17.0677Z"
        fill="currentColor" />
    <path
        d="M99.7233 17.3517H92.4303C92.3456 18.3736 93.1761 19.2095 94.3393 19.3096C95.1781 19.3811 95.957 19.2708 96.5045 18.5269C96.5623 18.4472 96.7028 18.3879 96.804 18.3879C97.7131 18.3777 98.6242 18.3818 99.589 18.3818C99.2791 19.5303 98.6449 20.3867 97.7069 21.0141C95.6553 22.3855 92.265 21.9134 90.6741 20.0495C88.7176 17.7564 88.9346 13.2172 91.8208 11.5148C93.6885 10.4152 97.3639 10.4499 98.9052 12.8473C99.7936 14.2309 99.9217 15.731 99.7213 17.3537L99.7233 17.3517ZM96.7772 15.0872C96.8433 13.9141 95.988 13.1375 94.645 13.1211C93.3145 13.1048 92.3311 13.9489 92.3786 15.0872H96.7772Z"
        fill="currentColor" />
    <path
        d="M127.462 11.1243C127.383 11.3328 127.34 11.4759 127.278 11.6128C125.476 15.637 123.677 19.6631 121.863 23.6812C121.466 24.56 120.815 25.1629 119.778 25.1792C118.648 25.1976 117.518 25.1833 116.357 25.1833V22.6348C116.962 22.6348 117.561 22.6102 118.156 22.6409C118.921 22.6797 119.361 22.3629 119.722 21.6722C120.117 20.9139 120.084 20.3069 119.725 19.5467C118.499 16.945 117.353 14.3044 116.179 11.6782C116.111 11.5249 116.055 11.3676 115.96 11.1264C117.057 11.1264 118.096 11.1141 119.134 11.1427C119.249 11.1468 119.402 11.3675 119.464 11.5167C120.156 13.2192 120.834 14.9278 121.518 16.6343C121.586 16.806 121.66 16.9736 121.766 17.2209C122.524 15.3059 123.266 13.4808 123.964 11.6394C124.117 11.2347 124.315 11.0998 124.743 11.1162C125.629 11.1489 126.52 11.1264 127.464 11.1264L127.462 11.1243Z"
        fill="currentColor" />
    <path
        d="M65.5947 14.7439C64.6568 14.7439 63.7642 14.75 62.8717 14.7357C62.7664 14.7357 62.6155 14.6356 62.568 14.5395C62.0928 13.5933 61.2767 13.3705 60.314 13.5054C59.3905 13.6341 58.8657 14.2391 58.6054 15.0791C58.3595 15.8782 58.3616 16.6916 58.5951 17.4968C58.8616 18.4165 59.5867 19.0399 60.4503 19.1073C61.5205 19.1911 62.1321 18.8294 62.6217 17.8422C62.6713 17.7441 62.8056 17.6236 62.9048 17.6215C63.6093 17.6011 64.3159 17.6092 65.0224 17.6072C65.2084 17.6072 65.3943 17.6072 65.6402 17.6072C65.5472 18.6516 65.1671 19.5242 64.4729 20.2048C62.7643 21.8807 60.7169 22.1607 58.5103 21.3902C56.684 20.7525 55.465 18.8886 55.3741 16.7979C55.3018 15.1527 55.6613 13.6525 56.8059 12.4018C58.7314 10.2967 62.63 10.2415 64.5659 12.2812C65.1774 12.925 65.539 13.7752 65.5906 14.7398L65.5947 14.7439Z"
        fill="currentColor" />
</svg>