<?xml version="1.0" encoding="utf-8" ?><svg xmlns="http://www.w3.org/2000/svg" xmlns:xlink="http://www.w3.org/1999/xlink" width="1500" height="292" viewBox="0 0 1500 292"><path fill="#F46A17" d="M663.422 13.9083C683.226 13.522 704.161 13.8508 724.059 13.83C727.895 29.7602 731.277 51.5008 734.304 67.9295L758.817 207.573L797.11 13.8581L857.621 13.8528C859.15 20.298 860.292 27.4079 861.526 33.9534C868.875 72.9465 876.637 111.862 883.373 150.965C886.6 169.695 888.721 188.585 891.926 207.26C901.028 143.395 914.381 77.2169 927.577 13.8528L985.291 13.871C981.709 28.6433 977.629 43.7035 973.804 58.4456C969.34 79.5317 961.507 106.319 955.962 127.788L920.145 266.296C902.659 265.412 876.451 265.918 858.796 266.225C854.297 248.914 850.145 222.109 846.403 204.028C837.69 161.926 829.605 119.764 824.94 77.0033C813.697 140.667 800.631 203.332 785.547 266.232C766.905 265.5 742.139 265.894 723.436 266.232C702.3 183.246 683.84 97.3895 663.422 13.9083Z"/><path fill="#F46A17" d="M1053.77 79.4035C1076.45 76.708 1105.63 79.4709 1124.03 93.7799C1152.77 116.146 1149.95 151.787 1149.81 184.289C1149.69 211.526 1149.07 238.99 1152.66 266.171C1136.24 265.854 1118.33 265.86 1101.94 266.261C1100.56 259.924 1099.47 253.478 1098.05 247.008C1092.21 253.001 1086.67 258.347 1079.12 262.165C1056.12 273.797 1029.22 273.329 1007.95 258.752C980.698 238.685 978.438 197.097 1000.84 172.934C1023.79 148.168 1061.57 145.26 1093.05 143.949C1091.98 111.537 1057.29 116.217 1034.44 121.172C1025.59 123.089 1017.09 127.05 1009.17 131.409L998.796 94.9844C1015.27 85.8551 1035.15 81.2539 1053.77 79.4035ZM1052.2 227.817C1057.82 229.87 1062.91 231.015 1068.85 229.858C1097.97 224.182 1095.2 201.675 1094.98 179.388L1088.81 179.607C1075.16 180.624 1056.48 181.97 1047.09 193.023C1038.41 203.239 1040.06 220.899 1052.2 227.817Z"/><path fill="#F46A17" d="M1408.88 79.3597C1413.45 78.5771 1425.91 79.1894 1430.4 79.8362C1488.72 88.2428 1503.05 142.787 1496.61 192.679C1458.98 191.782 1415.83 192.264 1378.04 192.705C1384.12 222.665 1408.52 228.023 1436.12 227.644C1451.69 227.43 1465.93 224.81 1480.71 219.844C1481.53 223.406 1482.25 227.661 1482.96 231.303C1484.83 240.13 1486.49 249.351 1488.21 258.235C1449.56 274.518 1385.9 276.362 1353.15 247.571C1314.75 213.802 1316.04 145.591 1348.6 108.214C1364.52 89.9343 1385.09 81.1016 1408.88 79.3597ZM1378.03 154.231L1413.21 154.228L1446.02 154.22C1443.95 131.436 1436.63 116.836 1411.69 116.628C1390.5 119.039 1380.46 133.897 1378.03 154.231Z"/><path fill="#FEFEFE" d="M366.944 79.3573C438.174 76.4849 462.453 129.147 454.61 192.57L336.398 192.555L336.414 192.664C342.912 237.363 407.642 231.153 438.836 219.762L440.85 230.998C442.747 238.443 444.616 250.045 446.252 258.027C431.128 265.218 413.915 267.375 397.595 269.069C340.109 274.978 287.481 250.75 282.834 187.189C278.816 132.218 309.056 83.7342 366.944 79.3573ZM335.778 154.205L372.437 154.212L403.635 154.24C403.187 132.608 392.714 114.537 368.643 116.639C346.775 119.278 339.636 134.523 335.778 154.205Z"/><path fill="#FEFEFE" d="M593.582 83.3553L654.881 83.3327L594.867 170.362C600.9 178.856 654.433 263.443 654.741 265.492L652.771 265.875L591.967 265.918C579.601 244.718 569.85 225.191 558.4 204.106C550.709 221.936 536.163 248.347 526.786 265.875L464.84 265.861L526.837 173.011C507.897 143.352 486.03 113.05 466.501 83.347L529.524 83.3546C541.244 102.96 551.921 121.887 562.832 141.949C572.948 123.675 583.411 102.275 593.582 83.3553Z"/><path fill="#F46A17" d="M1288.69 79.1353C1295.31 78.377 1301.03 78.7822 1307.61 79.4512L1307.52 132.976C1278.56 128.262 1254.54 136.409 1252.33 169.202C1251.54 180.821 1251.84 192.285 1251.85 203.921L1251.93 266.273C1234.93 265.495 1212.45 265.889 1195.26 266.241L1195.27 253.579C1195.29 198.497 1196.57 137.786 1194.16 83.322L1242.41 83.3224C1242.98 88.2343 1244.05 114.581 1245.35 116.714C1247.18 115.569 1250.96 105.985 1253.26 102.646C1262.43 89.3406 1273.06 82.3724 1288.69 79.1353Z"/><path fill="#FEFEFE" d="M0 13.8543L153.867 13.8425L153.892 60.571L56.569 60.5129L56.6564 118.28L147.877 118.263L147.896 164.706L56.5548 164.685L56.6429 265.88L0 265.858L0 13.8543Z"/><path fill="#FEFEFE" d="M189.77 0L246.619 0C247.08 29.1012 246.628 59.5 246.631 88.6889L246.659 265.885C227.84 265.672 208.614 265.889 189.763 265.902L189.77 0Z"/></svg>