<svg width="1024" height="199" viewBox="0 0 1024 199" fill="none" xmlns="http://www.w3.org/2000/svg">
<path d="M452.895 9.47845C466.414 9.21518 480.706 9.43926 494.289 9.42509C496.908 20.2816 499.217 35.098 501.283 46.2943L518.018 141.462L544.159 9.44424L585.468 9.44063C586.511 13.8331 587.291 18.6785 588.134 23.1393C593.15 49.7134 598.449 76.2346 603.048 102.884C605.251 115.648 606.699 128.522 608.887 141.249C615.1 97.7245 624.216 52.6237 633.224 9.44063L672.624 9.45303C670.178 19.5205 667.393 29.7841 664.782 39.8309C661.735 54.2012 656.387 72.457 652.602 87.0883L628.151 181.482C616.214 180.88 598.322 181.225 586.27 181.434C583.199 169.636 580.364 151.369 577.81 139.046C571.861 110.354 566.342 81.6198 563.157 52.4781C555.482 95.8654 546.563 138.572 536.265 181.439C523.539 180.94 506.632 181.208 493.864 181.439C479.435 124.883 466.833 66.3715 452.895 9.47845Z" fill="#F46A17"/>
<path d="M719.375 54.1144C734.858 52.2774 754.778 54.1604 767.339 63.9121C786.959 79.1547 785.034 103.444 784.938 125.595C784.856 144.157 784.433 162.874 786.884 181.398C775.675 181.182 763.448 181.186 752.259 181.459C751.317 177.14 750.573 172.747 749.604 168.338C745.617 172.422 741.835 176.066 736.681 178.668C720.979 186.595 702.616 186.276 688.095 176.342C669.491 162.666 667.948 134.323 683.241 117.856C698.909 100.978 724.7 98.9961 746.19 98.1026C745.46 76.0136 721.778 79.2031 706.179 82.58C700.137 83.8864 694.335 86.5859 688.928 89.5565L681.846 64.7329C693.092 58.5112 706.664 55.3755 719.375 54.1144ZM718.303 155.259C722.14 156.658 725.615 157.439 729.67 156.65C749.549 152.782 747.658 137.443 747.508 122.255L743.296 122.404C733.977 123.097 721.225 124.014 714.815 131.547C708.889 138.509 710.016 150.545 718.303 155.259Z" fill="#F46A17"/>
<path d="M961.797 54.0838C964.917 53.5505 973.423 53.9678 976.488 54.4086C1016.3 60.1377 1026.08 97.31 1021.69 131.312C995.998 130.7 966.541 131.029 940.743 131.329C944.894 151.747 961.551 155.399 980.393 155.141C991.022 154.995 1000.74 153.209 1010.83 149.825C1011.39 152.252 1011.88 155.152 1012.37 157.634C1013.65 163.65 1014.78 169.934 1015.95 175.989C989.568 187.086 946.109 188.342 923.752 168.721C897.537 145.707 898.418 99.2209 920.646 73.7482C931.514 61.2905 945.556 55.2709 961.797 54.0838ZM940.737 105.109L964.753 105.107L987.151 105.102C985.738 89.5742 980.741 79.6242 963.715 79.4824C949.249 81.1255 942.396 91.2514 940.737 105.109Z" fill="#F46A17"/>
<path d="M250.501 54.0823C299.127 52.1248 315.702 88.0144 310.348 131.238L229.648 131.227L229.659 131.302C234.095 161.764 278.284 157.532 299.579 149.769L300.954 157.427C302.249 162.5 303.525 170.407 304.642 175.847C294.317 180.748 282.567 182.218 271.426 183.372C232.182 187.399 196.254 170.888 193.082 127.57C190.339 90.1073 210.983 57.0652 250.501 54.0823ZM229.225 105.092L254.251 105.096L275.549 105.115C275.243 90.3731 268.093 78.0575 251.661 79.4901C236.732 81.2886 231.859 91.6781 229.225 105.092Z" fill="#FEFEFE"/>
<path d="M405.22 56.8074L447.067 56.792L406.097 116.103C410.216 121.892 446.761 179.538 446.971 180.935L445.626 181.196L404.117 181.225C395.676 166.777 389.019 153.469 381.202 139.1C375.952 151.251 366.022 169.25 359.621 181.196L317.332 181.186L359.655 117.908C346.726 97.6956 331.798 77.0445 318.466 56.8017L361.49 56.8069C369.49 70.1681 376.779 83.067 384.228 96.7394C391.134 84.2855 398.276 69.7013 405.22 56.8074Z" fill="#FEFEFE"/>
<path d="M879.747 53.9316C884.267 53.4148 888.171 53.691 892.663 54.1469L892.602 90.6244C872.832 87.4118 856.434 92.9641 854.926 115.313C854.386 123.231 854.591 131.044 854.598 138.974L854.653 181.467C843.047 180.937 827.701 181.206 815.966 181.445L815.973 172.816C815.986 135.277 816.86 93.9025 815.215 56.7849L848.154 56.7852C848.543 60.1327 849.273 78.0881 850.161 79.5418C851.41 78.7615 853.99 72.2299 855.56 69.9543C861.82 60.8866 869.077 56.1377 879.747 53.9316Z" fill="#F46A17"/>
<path d="M0 9.44164L105.04 9.43359L105.057 41.2794L38.6178 41.2398L38.6774 80.6085L100.951 80.5969L100.964 112.248L38.6081 112.234L38.6682 181.199L0 181.184V9.44164Z" fill="#FEFEFE"/>
<path d="M129.548 0H168.357C168.671 19.8327 168.363 40.5497 168.365 60.4421L168.384 181.202C155.537 181.057 142.412 181.205 129.543 181.214L129.548 0Z" fill="#FEFEFE"/>
</svg>
