<svg width="1024" height="277" viewBox="0 0 1024 277" fill="none" xmlns="http://www.w3.org/2000/svg">
<path d="M941.383 198.092V254.332H1008.39V247.089H957.687V227.107H1006.27V219.947H957.687V205.252H1008.39V198.092H941.383Z" fill="#003563"/>
<mask id="mask0_874_25450" style="mask-type:luminance" maskUnits="userSpaceOnUse" x="833" y="195" width="97" height="61">
<path d="M833.465 195.635H929.541V255.83H833.465V195.635Z" fill="white"/>
</mask>
<g mask="url(#mask0_874_25450)">
<path d="M857.235 229.687H867.201L904.147 254.331H924.788L886.592 229.312C903.605 228.271 912.445 223.859 912.445 213.576C912.445 207.582 907.691 203.003 901.979 201.213C894.848 199.006 885.632 198.049 873.498 198.049H841.598V254.331H857.235V229.687ZM857.36 222.61V205.209H870.787C887.175 205.209 894.306 206.416 894.306 213.951C894.306 221.319 886.883 222.61 870.787 222.61H857.36Z" fill="#003563"/>
</g>
<mask id="mask1_874_25450" style="mask-type:luminance" maskUnits="userSpaceOnUse" x="203" y="195" width="119" height="61">
<path d="M203.633 195.635H321.059V255.83H203.633V195.635Z" fill="white"/>
</mask>
<g mask="url(#mask1_874_25450)">
<path d="M302.001 254.332H320.599L266.098 195.885L211.555 254.332H229.986L243.08 239.845H289.241L302.001 254.332ZM249.46 232.643L261.344 219.405C262.595 217.906 264.805 215.534 266.223 213.744C267.807 215.534 270.018 217.906 271.269 219.405L283.153 232.643H249.46Z" fill="#003563"/>
</g>
<mask id="mask2_874_25450" style="mask-type:luminance" maskUnits="userSpaceOnUse" x="598" y="195" width="108" height="61">
<path d="M598.613 195.635H705.364V255.83H598.613V195.635Z" fill="white"/>
</mask>
<g mask="url(#mask2_874_25450)">
<path d="M668.919 203.877C644.149 203.877 627.303 212.703 627.303 226.399C627.303 239.928 644.483 248.587 667.043 248.587C680.428 248.587 692.396 245.839 703.446 241.01V250.543C693.48 254.082 682.013 255.83 668.46 255.83C651.113 255.83 636.31 252.916 625.26 247.463C614.251 242.051 608.246 234.516 608.246 226.315C608.246 218.031 614.251 210.663 625.426 205.168C636.602 199.631 651.28 196.759 668.127 196.759C681.679 196.759 693.48 198.715 704.531 202.545L703.614 211.371C693.189 206.833 681.679 203.877 668.919 203.877Z" fill="#003563"/>
</g>
<mask id="mask3_874_25450" style="mask-type:luminance" maskUnits="userSpaceOnUse" x="15" y="195" width="93" height="61">
<path d="M15.2344 195.635H107.557V255.83H15.2344V195.635Z" fill="white"/>
</mask>
<g mask="url(#mask3_874_25450)">
<path d="M15.6523 198.091H31.5816V219.946H89.7943V198.091H105.724V254.331H89.7943V227.106H31.5816V254.331H15.6523V198.091Z" fill="#003563"/>
</g>
<mask id="mask4_874_25450" style="mask-type:luminance" maskUnits="userSpaceOnUse" x="395" y="195" width="87" height="61">
<path d="M395.785 195.635H481.186V255.83H395.785V195.635Z" fill="white"/>
</mask>
<g mask="url(#mask4_874_25450)">
<path d="M445.865 254.331H429.936V205.209H398.828V198.091H476.848V205.209H445.865V254.331Z" fill="#003563"/>
</g>
<mask id="mask5_874_25450" style="mask-type:luminance" maskUnits="userSpaceOnUse" x="331" y="195" width="76" height="61">
<path d="M331.734 195.635H406.46V255.83H331.734V195.635Z" fill="white"/>
</mask>
<g mask="url(#mask5_874_25450)">
<path d="M337.07 198.091H353.041V247.13H399.495V254.331H337.07V198.091Z" fill="#003563"/>
</g>
<mask id="mask6_874_25450" style="mask-type:luminance" maskUnits="userSpaceOnUse" x="705" y="195" width="129" height="61">
<path d="M705.363 195.635H833.464V255.83H705.363V195.635Z" fill="white"/>
</mask>
<g mask="url(#mask6_874_25450)">
<path d="M806.193 254.332H824.791L770.248 195.885L715.746 254.332H734.177L747.271 239.845H793.432L806.193 254.332ZM753.651 232.643L765.535 219.405C766.786 217.906 769.038 215.534 770.414 213.744C771.999 215.534 774.209 217.906 775.46 219.405L787.344 232.643H753.651Z" fill="#003563"/>
</g>
<mask id="mask7_874_25450" style="mask-type:luminance" maskUnits="userSpaceOnUse" x="128" y="195" width="76" height="61">
<path d="M128.906 195.635H203.632V255.83H128.906V195.635Z" fill="white"/>
</mask>
<g mask="url(#mask7_874_25450)">
<path d="M130.574 198.091H197.585V205.209H146.92V219.946H195.459V227.064H146.92V247.088H197.585V254.331H130.574V198.091Z" fill="#003563"/>
</g>
<mask id="mask8_874_25450" style="mask-type:luminance" maskUnits="userSpaceOnUse" x="491" y="195" width="108" height="61">
<path d="M491.859 195.635H598.61V255.83H491.859V195.635Z" fill="white"/>
</mask>
<g mask="url(#mask8_874_25450)">
<path d="M497.949 198.091H513.878V219.946H572.091V198.091H588.02V254.331H572.091V227.106H513.878V254.331H497.949V198.091Z" fill="#003563"/>
</g>
<mask id="mask9_874_25450" style="mask-type:luminance" maskUnits="userSpaceOnUse" x="780" y="163" width="229" height="22">
<path d="M780.09 163.665H1008.81V184.979H780.09V163.665Z" fill="white"/>
</mask>
<g mask="url(#mask9_874_25450)">
<path d="M788.388 170.617L785.594 177.777H1008.77V170.617H788.388Z" fill="#003563"/>
</g>
<mask id="mask10_874_25450" style="mask-type:luminance" maskUnits="userSpaceOnUse" x="15" y="163" width="744" height="22">
<path d="M15.2344 163.665H758.738V184.979H15.2344V163.665Z" fill="white"/>
</mask>
<g mask="url(#mask10_874_25450)">
<path d="M752.942 170.617H15.2344V177.777H749.94L752.942 170.617Z" fill="#003563"/>
</g>
<mask id="mask11_874_25450" style="mask-type:luminance" maskUnits="userSpaceOnUse" x="982" y="21" width="27" height="133">
<path d="M982.914 21.1689H1008.81V153.007H982.914V21.1689Z" fill="white"/>
</mask>
<g mask="url(#mask11_874_25450)">
<path d="M987.293 22.293H1008.06V149.219H987.293V22.293Z" fill="#003563"/>
</g>
<path d="M981.333 111.337C981.666 109.63 982 107.257 982 103.885C982 80.7397 964.028 60.4248 938.633 60.4248C911.945 60.4248 892.805 79.8238 892.805 106.092C892.805 131.86 912.445 150.385 938.299 150.385C962.443 150.385 977.955 133.65 980.165 120.912H958.773C956.355 125.699 951.935 132.692 937.548 132.692C924.371 132.692 915.364 122.369 913.863 111.337H981.333ZM915.531 94.6021C916.865 85.2356 926.706 77.784 938.174 77.784C949.975 77.784 958.523 85.2356 960.358 94.6021H915.531Z" fill="#003563"/>
<mask id="mask12_874_25450" style="mask-type:luminance" maskUnits="userSpaceOnUse" x="822" y="21" width="87" height="133">
<path d="M822.789 21.1689H908.19V153.007H822.789V21.1689Z" fill="white"/>
</mask>
<g mask="url(#mask12_874_25450)">
<path d="M825.75 22.293H846.308V94.2692L878 63.672H902.477L865.782 98.1823L905.605 149.219H883.212L853.522 110.463L846.308 118.081V149.219H825.75V22.293Z" fill="#003563"/>
</g>
<path d="M771.207 144.14L740.016 63.5469H760.865L781.632 119.621L801.856 63.5469H823.123L778.713 177.776H757.238L771.207 144.14Z" fill="#003563"/>
<path d="M736.887 63.756H717.914V71.1243C712.076 62.7986 698.065 61.0918 689.474 61.0918C676.839 61.0918 665.539 65.9624 656.824 76.2447C648.859 85.4031 646.023 95.4772 646.023 105.468C646.023 116.125 649.902 127.573 656.782 135.982C664.246 144.974 675.422 150.677 688.849 150.677C699.733 150.677 711.367 149.137 717.914 140.145V149.22H736.887V63.756ZM717.288 105.302C717.288 121.787 706.988 133.318 692.018 133.193C677.965 133.318 666.456 122.078 666.456 106.217C666.456 90.898 677.048 78.9505 692.31 79.1171C706.988 78.9508 717.288 90.6066 717.288 105.302Z" fill="#003563"/>
<mask id="mask13_874_25450" style="mask-type:luminance" maskUnits="userSpaceOnUse" x="566" y="21" width="97" height="133">
<path d="M566.586 21.1689H662.662V153.007H566.586V21.1689Z" fill="white"/>
</mask>
<g mask="url(#mask13_874_25450)">
<path d="M591.897 73.1637V42.6914H606.784C611.704 42.6914 618.584 42.3587 623.547 43.6066C630.26 45.3551 635.223 50.4338 635.223 57.5107C635.223 64.3378 630.761 69.8328 624.172 71.9142C618.751 73.4962 612.33 73.1631 606.784 73.1631L591.897 73.1637ZM591.897 149.22V94.1863H607.075C619.085 94.1863 633.221 94.8108 643.271 87.0678C652.778 79.7828 657.74 68.7511 657.74 57.2199C657.74 45.5222 651.652 34.2823 641.644 27.8299C631.428 21.2109 620.419 21.6689 608.743 21.6689H569.379V149.22H591.897Z" fill="#003563"/>
</g>
<mask id="mask14_874_25450" style="mask-type:luminance" maskUnits="userSpaceOnUse" x="449" y="21" width="107" height="133">
<path d="M449.16 21.1689H555.911V153.007H449.16V21.1689Z" fill="white"/>
</mask>
<g mask="url(#mask14_874_25450)">
<path d="M541.65 149.219H549.74L534.144 127.739C540.441 119.205 543.818 106.3 543.818 94.1027H537.814C537.605 106.508 534.227 116.208 530.141 122.244L496.74 76.1606C509.458 69.0005 522.218 60.0086 522.218 43.482C522.218 28.787 509.833 21.1689 498.032 21.1689C486.064 21.1689 474.389 30.1609 474.389 44.606C474.389 56.6368 482.312 66.0033 488.066 74.3706C473.972 81.9887 455.582 93.7697 455.582 115.208C455.582 136.439 473.429 150.302 494.905 150.302C510.417 150.302 522.218 143.017 530.183 133.067L541.65 149.219ZM493.487 71.6647C486.44 62.3399 480.518 53.9724 480.518 44.0232C480.518 34.1155 489.692 26.9554 498.574 26.9554C506.706 26.9554 516.63 32.6585 516.63 44.0232C516.63 57.5941 504.496 65.7534 493.487 71.6647ZM526.596 127.989C525.429 129.612 514.253 144.515 494.905 144.515C479.226 144.515 461.879 133.026 461.879 115.791C461.879 97.2248 477.266 86.443 491.36 79.0747L526.596 127.989Z" fill="#003563"/>
</g>
<path d="M393.367 63.4227H412.215V70.7078C417.053 63.2979 427.477 61.5078 433.607 61.5078C436.109 61.5078 439.654 61.6741 441.405 62.2155V78.7421C436.735 78.2423 426.31 79.0747 420.555 83.4878C414.425 88.1919 413.925 94.7276 414.092 101.971V149.22H393.367V63.4227Z" fill="#003563"/>
<path d="M386.403 111.337C386.737 109.63 387.07 107.257 387.07 103.885C387.07 80.7397 369.098 60.4248 343.703 60.4248C317.015 60.4248 297.875 79.8238 297.875 106.092C297.875 131.86 317.516 150.385 343.369 150.385C367.513 150.385 383.026 133.65 385.236 120.912H363.844C361.425 125.699 357.005 132.692 342.619 132.692C329.4 132.692 320.434 122.369 318.933 111.337H386.403ZM320.601 94.6021C321.894 85.2356 331.777 77.784 343.244 77.784C355.045 77.784 363.594 85.2356 365.428 94.6021H320.601Z" fill="#003563"/>
<mask id="mask15_874_25450" style="mask-type:luminance" maskUnits="userSpaceOnUse" x="203" y="21" width="97" height="133">
<path d="M203.633 21.1689H299.709V153.007H203.633V21.1689Z" fill="white"/>
</mask>
<g mask="url(#mask15_874_25450)">
<path d="M212.641 22.293H233.407V68.3345C238.077 61.8403 248.586 58.8431 256.675 58.8431C268.101 58.8431 277.859 62.6313 284.322 69.7498C292.746 78.9081 292.454 90.148 292.454 101.804V149.219H272.104V106.383C272.104 93.2701 273.022 77.5344 252.839 77.5344C246.542 77.5344 239.954 80.3236 236.66 85.8602C233.24 91.938 233.407 100.555 233.407 106.716V149.219H212.641V22.293Z" fill="#003563"/>
</g>
<path d="M149.923 120.121C150.09 130.57 157.846 133.858 169.772 133.858C176.277 133.858 188.37 131.402 187.411 121.245C186.618 113.044 179.279 113.627 159.555 111.92C146.17 110.754 133.743 102.845 133.743 87.4837C133.743 65.2539 152.925 59.5508 169.188 59.5508C187.286 59.5508 202.84 66.2946 204.591 85.4023H182.991C182.323 77.1182 176.152 75.5363 168.02 75.5363C162.85 75.5363 153.884 77.7426 154.385 84.8195C154.968 93.395 164.684 93.853 177.987 94.6023C194.625 95.4761 207.385 103.303 207.385 121.037C207.385 138.021 192.957 150.801 169.605 150.801C150.381 150.801 131.658 143.225 130.699 120.121H149.923Z" fill="#003563"/>
<mask id="mask16_874_25450" style="mask-type:luminance" maskUnits="userSpaceOnUse" x="96" y="21" width="33" height="133">
<path d="M96.8828 21.1689H128.908V153.007H96.8828V21.1689Z" fill="white"/>
</mask>
<g mask="url(#mask16_874_25450)">
<path d="M104.391 63.5472H125.115V149.219H104.391V63.5472ZM104.391 21.627H125.115V42.816H104.391V21.627Z" fill="#003563"/>
</g>
<mask id="mask17_874_25450" style="mask-type:luminance" maskUnits="userSpaceOnUse" x="15" y="21" width="93" height="133">
<path d="M15.2344 21.1689H107.557V153.007H15.2344V21.1689Z" fill="white"/>
</mask>
<g mask="url(#mask17_874_25450)">
<path d="M15.2344 21.6689H100.051V42.8164H39.0866V63.5892H92.0868V84.0289H39.0866V149.22H15.2344V21.6689Z" fill="#003563"/>
</g>
</svg>
