<svg width="192" height="192" viewBox="0 0 192 192" fill="none" xmlns="http://www.w3.org/2000/svg">
<rect width="192" height="192" fill="#C4C4C4"/>
<rect width="192" height="192" fill="#FFE01B"/>
<path d="M121.792 90.0663C122.786 89.9439 123.744 89.9439 124.623 90.0663C125.134 88.8996 125.22 86.8903 124.759 84.7081C124.082 81.46 123.161 79.4939 121.259 79.7964C119.358 80.1061 119.293 82.4539 119.97 85.7092C120.352 87.5312 121.036 89.094 121.792 90.0663Z" fill="#241C15"/>
<path d="M105.487 92.6371C106.848 93.2349 107.683 93.631 108.007 93.2853C108.216 93.0692 108.152 92.6587 107.827 92.1258C107.158 91.0311 105.775 89.922 104.313 89.2955C101.317 88.0063 97.752 88.4384 94.9937 90.4117C94.0862 91.0743 93.222 92.0034 93.3445 92.5579C93.3877 92.738 93.5173 92.8748 93.8414 92.918C94.5904 93.0044 97.2119 91.6793 100.229 91.492C102.361 91.3768 104.126 92.0394 105.487 92.6371Z" fill="#241C15"/>
<path d="M102.75 94.2001C100.979 94.4809 100.006 95.0643 99.3798 95.6044C98.8468 96.0725 98.5156 96.5911 98.5156 96.9512C98.5156 97.124 98.5948 97.2248 98.6524 97.2753C98.7316 97.3473 98.8252 97.3833 98.9405 97.3833C99.3438 97.3833 100.237 97.0232 100.237 97.0232C102.7 96.1446 104.327 96.2454 105.933 96.4326C106.827 96.5335 107.244 96.5911 107.439 96.2814C107.496 96.195 107.568 96.0077 107.388 95.7124C106.978 95.0427 105.192 93.9048 102.75 94.2001Z" fill="#241C15"/>
<path d="M116.282 99.9257C117.485 100.516 118.81 100.286 119.235 99.4072C119.667 98.5285 119.041 97.3402 117.838 96.7497C116.635 96.1591 115.31 96.3896 114.885 97.2682C114.46 98.1396 115.087 99.3351 116.282 99.9257Z" fill="#241C15"/>
<path d="M124.011 93.1701C123.031 93.1557 122.225 94.2287 122.203 95.5611C122.182 96.9006 122.952 97.9953 123.932 98.0169C124.911 98.0313 125.718 96.9583 125.739 95.6259C125.761 94.2864 124.99 93.1917 124.011 93.1701Z" fill="#241C15"/>
<path d="M58.4384 117.311C58.1935 117.008 57.7974 117.102 57.4085 117.188C57.142 117.253 56.8323 117.325 56.5011 117.318C55.7809 117.304 55.1759 116.994 54.8302 116.475C54.3837 115.791 54.4125 114.776 54.9022 113.609C54.9671 113.451 55.0463 113.278 55.1327 113.091C55.9177 111.333 57.2284 108.395 55.7521 105.593C54.643 103.483 52.8353 102.172 50.6675 101.899C48.5862 101.632 46.44 102.41 45.0645 103.915C42.9039 106.299 42.5654 109.54 42.9831 110.685C43.1344 111.103 43.372 111.218 43.5521 111.247C43.9194 111.297 44.4595 111.031 44.8052 110.116C44.8268 110.051 44.8628 109.951 44.906 109.821C45.0573 109.338 45.3381 108.438 45.7991 107.711C46.3536 106.839 47.225 106.242 48.2477 106.018C49.2848 105.795 50.3507 105.997 51.2365 106.573C52.7489 107.559 53.3322 109.418 52.6841 111.189C52.3528 112.104 51.8054 113.854 51.9279 115.287C52.1727 118.197 53.9588 119.363 55.5648 119.486C57.1276 119.543 58.2223 118.665 58.496 118.024C58.6688 117.642 58.532 117.412 58.4384 117.311Z" fill="#241C15"/>
<path d="M148.648 111.989C148.591 111.78 148.202 110.361 147.669 108.654C147.136 106.947 146.589 105.745 146.589 105.745C148.728 102.547 148.764 99.6879 148.476 98.0674C148.173 96.0581 147.338 94.3513 145.652 92.5796C143.967 90.8079 140.525 89.0003 135.678 87.6391C135.123 87.4807 133.301 86.9838 133.136 86.9333C133.121 86.8253 132.999 80.9414 132.891 78.4207C132.811 76.5915 132.653 73.7467 131.767 70.938C130.716 67.1354 128.879 63.8081 126.582 61.6836C132.912 55.1227 136.859 47.8992 136.852 41.6984C136.83 29.7793 122.196 26.1711 104.155 33.6395C104.134 33.6467 100.36 35.2455 100.331 35.2599C100.317 35.2455 93.4244 28.4829 93.3164 28.3893C72.7479 10.4566 8.44231 81.9352 29.0037 99.299L33.4976 103.109C32.3309 106.126 31.8772 109.59 32.2517 113.307C32.7342 118.081 35.1973 122.662 39.1943 126.205C42.9897 129.561 47.9734 131.693 52.8131 131.686C60.8143 150.123 79.0927 161.437 100.533 162.07C123.528 162.755 142.829 151.966 150.917 132.586C151.443 131.225 153.69 125.096 153.69 119.687C153.675 114.243 150.6 111.989 148.648 111.989ZM54.5703 126.5C53.8717 126.623 53.1588 126.666 52.4386 126.652C45.496 126.464 37.9916 120.213 37.2498 112.795C36.4288 104.6 40.6131 98.2907 48.031 96.7999C48.9168 96.6199 49.9899 96.519 51.1422 96.5767C55.2977 96.8071 61.4193 99.9975 62.8165 109.043C64.0552 117.059 62.0819 125.219 54.5703 126.5ZM46.8139 91.8954C42.1975 92.7957 38.1284 95.4099 35.6438 99.0253C34.1602 97.7866 31.3875 95.3811 30.8978 94.4521C26.9295 86.9117 35.2333 72.2487 41.0308 63.9666C55.3697 43.506 77.8324 28.0148 88.2247 30.8235C89.9171 31.2989 95.513 37.795 95.513 37.795C95.513 37.795 85.1207 43.5565 75.4846 51.5937C62.4996 61.5971 52.6906 76.1305 46.8139 91.8954ZM119.711 123.44C119.863 123.375 119.963 123.202 119.949 123.029C119.927 122.82 119.74 122.669 119.531 122.683C119.531 122.683 108.649 124.297 98.3721 120.53C99.4884 116.893 102.47 118.204 106.964 118.571C115.073 119.054 122.34 117.873 127.713 116.331C132.365 114.992 138.479 112.363 143.225 108.611C144.824 112.125 145.393 116 145.393 116C145.393 116 146.632 115.777 147.669 116.418C148.648 117.023 149.369 118.276 148.879 121.51C147.878 127.559 145.307 132.471 140.986 136.986C138.357 139.817 135.159 142.28 131.508 144.073C129.571 145.096 127.504 145.974 125.322 146.687C109.031 152.009 92.3513 146.162 86.9788 133.594C86.5466 132.651 86.1865 131.664 85.8985 130.627C83.6083 122.352 85.5528 112.421 91.6312 106.17C92.0057 105.773 92.3874 105.305 92.3874 104.715C92.3874 104.218 92.0705 103.699 91.804 103.332C89.6795 100.25 82.3119 94.9922 83.7883 84.816C84.847 77.5061 91.2423 72.3639 97.1982 72.6664C97.7023 72.6952 98.2065 72.724 98.7106 72.7529C101.296 72.9041 103.543 73.2354 105.675 73.329C109.233 73.4802 112.43 72.9689 116.218 69.8073C117.5 68.7414 118.523 67.8196 120.259 67.5243C120.439 67.4955 120.892 67.3298 121.8 67.3731C122.722 67.4235 123.607 67.6755 124.4 68.2013C127.439 70.225 127.871 75.1223 128.029 78.7016C128.116 80.7469 128.368 85.6946 128.454 87.1134C128.649 90.3614 129.499 90.8152 131.227 91.3841C132.199 91.701 133.1 91.9386 134.425 92.3131C138.443 93.4438 140.827 94.5889 142.332 96.0581C143.225 96.98 143.643 97.9522 143.773 98.8885C144.248 102.345 141.086 106.623 132.725 110.505C123.579 114.747 112.488 115.827 104.825 114.97C104.234 114.905 102.146 114.668 102.139 114.668C96.0099 113.84 92.5098 121.769 96.1899 127.192C98.5594 130.692 105.019 132.968 111.487 132.968C126.301 132.968 137.694 126.644 141.929 121.178C142.059 121.013 142.066 120.998 142.268 120.696C142.476 120.379 142.304 120.206 142.044 120.386C138.58 122.755 123.211 132.154 106.762 129.331C106.762 129.331 104.767 128.999 102.938 128.294C101.491 127.732 98.4513 126.335 98.084 123.224C111.35 127.321 119.711 123.44 119.711 123.44ZM98.689 120.955C98.689 120.955 98.689 120.962 98.689 120.955C98.689 120.962 98.689 120.962 98.6962 120.962C98.689 120.962 98.689 120.962 98.689 120.955ZM73.2952 63.8801C78.3941 57.989 84.667 52.8685 90.2916 49.9949C90.4861 49.8941 90.6949 50.103 90.5869 50.2974C90.1404 51.104 89.2834 52.8397 89.0097 54.1504C88.9665 54.3521 89.1897 54.5105 89.3626 54.3881C92.8627 52.0043 98.9411 49.4476 104.278 49.1235C104.508 49.1091 104.616 49.4044 104.436 49.5412C103.622 50.1606 102.736 51.0248 102.088 51.8962C101.98 52.0475 102.081 52.2563 102.268 52.2563C106.013 52.2851 111.299 53.5959 114.742 55.526C114.972 55.6556 114.807 56.1093 114.548 56.0517C109.341 54.8562 100.814 53.9488 91.9552 56.1093C84.0476 58.0394 78.0124 61.0138 73.6121 64.2186C73.3888 64.3843 73.1151 64.089 73.2952 63.8801Z" fill="#241C15"/>
</svg>
