<?xml version="1.0" encoding="UTF-8" standalone="no"?>
<!-- Created with Inkscape (http://www.inkscape.org/) -->

<svg
   version="1.1"
   id="svg1"
   width="555.02667"
   height="227.98666"
   viewBox="0 0 555.02667 227.98666"
   sodipodi:docname="myob-seeklogo.eps"
   xmlns:inkscape="http://www.inkscape.org/namespaces/inkscape"
   xmlns:sodipodi="http://sodipodi.sourceforge.net/DTD/sodipodi-0.dtd"
   xmlns="http://www.w3.org/2000/svg"
   xmlns:svg="http://www.w3.org/2000/svg">
  <defs
     id="defs1">
    <linearGradient
       x1="0"
       y1="0"
       x2="1"
       y2="0"
       gradientUnits="userSpaceOnUse"
       gradientTransform="matrix(4162.7,0,0,-4162.7,0,854.959)"
       spreadMethod="pad"
       id="linearGradient8">
      <stop
         style="stop-opacity:1;stop-color:#4e3197"
         offset="0"
         id="stop2" />
      <stop
         style="stop-opacity:1;stop-color:#4e3197"
         offset="0.36"
         id="stop3" />
      <stop
         style="stop-opacity:1;stop-color:#5a2e96"
         offset="0.4557"
         id="stop4" />
      <stop
         style="stop-opacity:1;stop-color:#822394"
         offset="0.6409"
         id="stop5" />
      <stop
         style="stop-opacity:1;stop-color:#dc0a8c"
         offset="0.8947"
         id="stop6" />
      <stop
         style="stop-opacity:1;stop-color:#ed0d82"
         offset="0.97"
         id="stop7" />
      <stop
         style="stop-opacity:1;stop-color:#ed0d82"
         offset="1"
         id="stop8" />
    </linearGradient>
    <clipPath
       clipPathUnits="userSpaceOnUse"
       id="clipPath8">
      <path
         d="m 3428.33,1709.92 v 0 c -155.88,0 -181.45,-104.75 -183.89,-155.89 V 417.75 h 110.8 c 88.91,-1.199 109.63,54.809 109.63,86.461 v 3.66 4.879 c 69.39,-73.09 164.39,-114.5 272.8,-114.5 235.05,0 425.04,200.961 425.04,465.238 0,265.492 -191.2,467.672 -425.04,467.672 -102.3,0 -194.85,-37.77 -261.85,-104.74 v 483.49 h -47.49 z m 47.5,-847.631 c 0,142.491 102.3,256.961 228.96,256.961 126.66,0 228.97,-110.84 228.97,-256.961 0,-142.5 -102.31,-252.117 -228.97,-252.117 -126.66,0 -228.96,113.258 -228.96,252.117 M 688.102,1208.16 C 623.551,1286.1 524.895,1334.81 403.121,1334.81 158.328,1334.81 0,1163.08 0,935.352 V 417.75 h 74.2813 c 51.1487,3.66 151.0117,28.012 154.6677,176.59 v 345.887 c 0,101.083 70.641,170.493 174.172,170.493 151.012,0 166.852,-119.341 166.852,-170.493 V 417.75 h 74.281 c 51.144,3.66 149.809,28.012 154.668,175.371 v 347.106 c 0,101.083 73.09,170.493 174.168,170.493 151.01,0 168.07,-119.341 168.07,-170.493 V 417.75 h 74.28 c 51.15,3.66 152.25,28.012 154.67,179.031 V 935.34 c 0,235.06 -147.35,399.46 -398.239,399.46 -115.699,0.01 -216.777,-48.7 -283.769,-126.64 M 2268.92,864.699 c 0,-267.918 200.95,-467.648 449.37,-467.648 248.46,0 451.87,199.73 451.87,467.648 0,267.951 -203.41,471.331 -451.87,471.331 -247.23,-1.22 -449.37,-204.6 -449.37,-471.331 m 228.94,-2.41 c 0,154.671 98.67,261.821 220.43,261.821 121.8,0 220.45,-107.15 220.45,-261.821 0,-151.035 -98.65,-255.758 -220.45,-255.758 -120.55,1.207 -220.43,104.723 -220.43,255.758 M 2031.41,1213.03 1838.99,678.379 1629.51,1232.51 c -31.65,87.68 -114.48,82.82 -114.48,82.82 h -179.02 l 355.63,-869.568 c 0,1.218 0,1.218 -1.22,2.449 0,0 1.22,-2.449 1.22,-3.68 1.2,-1.211 1.2,-3.64 1.2,-3.64 l -1.2,4.871 c 12.18,-35.313 8.52,-54.801 -2.44,-88.91 l -7.32,-21.93 C 1640.49,232.629 1582.02,204.609 1459.03,210.711 V 209.5 L 1545.49,0 c 159.55,3.67188 278.89,54.8086 359.27,254.551 l 427.48,1060.779 v 0 h -159.55 c 0,0 0,0 -1.19,0 -10.98,0.01 -101.11,-2.43 -140.09,-102.3"
         transform="translate(0,2.5000001e-5)"
         id="path8" />
    </clipPath>
  </defs>
  <sodipodi:namedview
     id="namedview1"
     pagecolor="#ffffff"
     bordercolor="#000000"
     borderopacity="0.25"
     inkscape:showpageshadow="2"
     inkscape:pageopacity="0.0"
     inkscape:pagecheckerboard="0"
     inkscape:deskcolor="#d1d1d1">
    <inkscape:page
       x="0"
       y="0"
       inkscape:label="1"
       id="page1"
       width="555.02667"
       height="227.98666"
       margin="0"
       bleed="0" />
  </sodipodi:namedview>
  <g
     id="g1"
     inkscape:groupmode="layer"
     inkscape:label="1">
    <g
       id="group-R5">
      <path
         id="path2"
         d="m 3428.33,1709.92 v 0 c -155.88,0 -181.45,-104.75 -183.89,-155.89 V 417.75 h 110.8 c 88.91,-1.199 109.63,54.809 109.63,86.461 v 3.66 4.879 c 69.39,-73.09 164.39,-114.5 272.8,-114.5 235.05,0 425.04,200.961 425.04,465.238 0,265.492 -191.2,467.672 -425.04,467.672 -102.3,0 -194.85,-37.77 -261.85,-104.74 v 483.49 h -47.49 z m 47.5,-847.631 c 0,142.491 102.3,256.961 228.96,256.961 126.66,0 228.97,-110.84 228.97,-256.961 0,-142.5 -102.31,-252.117 -228.97,-252.117 -126.66,0 -228.96,113.258 -228.96,252.117 M 688.102,1208.16 C 623.551,1286.1 524.895,1334.81 403.121,1334.81 158.328,1334.81 0,1163.08 0,935.352 V 417.75 h 74.2813 c 51.1487,3.66 151.0117,28.012 154.6677,176.59 v 345.887 c 0,101.083 70.641,170.493 174.172,170.493 151.012,0 166.852,-119.341 166.852,-170.493 V 417.75 h 74.281 c 51.144,3.66 149.809,28.012 154.668,175.371 v 347.106 c 0,101.083 73.09,170.493 174.168,170.493 151.01,0 168.07,-119.341 168.07,-170.493 V 417.75 h 74.28 c 51.15,3.66 152.25,28.012 154.67,179.031 V 935.34 c 0,235.06 -147.35,399.46 -398.239,399.46 -115.699,0.01 -216.777,-48.7 -283.769,-126.64 M 2268.92,864.699 c 0,-267.918 200.95,-467.648 449.37,-467.648 248.46,0 451.87,199.73 451.87,467.648 0,267.951 -203.41,471.331 -451.87,471.331 -247.23,-1.22 -449.37,-204.6 -449.37,-471.331 m 228.94,-2.41 c 0,154.671 98.67,261.821 220.43,261.821 121.8,0 220.45,-107.15 220.45,-261.821 0,-151.035 -98.65,-255.758 -220.45,-255.758 -120.55,1.207 -220.43,104.723 -220.43,255.758 M 2031.41,1213.03 1838.99,678.379 1629.51,1232.51 c -31.65,87.68 -114.48,82.82 -114.48,82.82 h -179.02 l 355.63,-869.568 c 0,1.218 0,1.218 -1.22,2.449 0,0 1.22,-2.449 1.22,-3.68 1.2,-1.211 1.2,-3.64 1.2,-3.64 l -1.2,4.871 c 12.18,-35.313 8.52,-54.801 -2.44,-88.91 l -7.32,-21.93 C 1640.49,232.629 1582.02,204.609 1459.03,210.711 V 209.5 L 1545.49,0 c 159.55,3.67188 278.89,54.8086 359.27,254.551 l 427.48,1060.779 v 0 h -159.55 c 0,0 0,0 -1.19,0 -10.98,0.01 -101.11,-2.43 -140.09,-102.3"
         style="fill:url(#linearGradient8);fill-opacity:1;fill-rule:nonzero;stroke:none"
         transform="matrix(0.13333333,0,0,-0.13333333,0,227.98667)"
         clip-path="url(#clipPath8)" />
    </g>
  </g>
</svg>
