<svg width="1024" height="421" viewBox="0 0 1024 421" fill="none" xmlns="http://www.w3.org/2000/svg">
<g clip-path="url(#clip0_874_24669)">
<mask id="mask0_874_24669" style="mask-type:luminance" maskUnits="userSpaceOnUse" x="0" y="-1" width="1025" height="422">
<path d="M843.349 -0.0049328C805.004 -0.0049328 798.713 25.7859 798.113 38.3773V318.144H825.369C847.241 318.44 852.338 304.65 852.338 296.857V295.955V294.754C869.407 312.75 892.777 322.946 919.445 322.946C977.266 322.946 1024 273.466 1024 208.398C1024 143.03 976.968 93.2508 919.445 93.2508C894.28 93.2508 871.513 102.55 855.031 119.039V-0.00246827H843.349V-0.0049328ZM855.034 208.693C855.034 173.61 880.199 145.426 911.357 145.426C942.514 145.426 967.682 172.716 967.682 208.693C967.682 243.778 942.514 270.768 911.357 270.768C880.199 270.768 855.034 242.882 855.034 208.693ZM169.269 123.535C153.39 104.345 129.121 92.3521 99.1654 92.3521C38.9478 92.3521 0 134.634 0 190.704V318.144H18.2728C30.855 317.243 55.4208 311.247 56.3201 274.666V189.504C56.3201 164.616 73.6974 147.526 99.1654 147.526C136.313 147.526 140.21 176.909 140.21 189.504V318.144H158.483C171.064 317.243 195.335 311.248 196.53 274.966V189.504C196.53 164.616 214.51 147.526 239.374 147.526C276.522 147.526 280.719 176.909 280.719 189.504V318.144H298.991C311.574 317.243 336.444 311.247 337.039 274.065V190.707C337.039 132.832 300.792 92.3546 239.075 92.3546C210.613 92.3521 185.749 104.345 169.269 123.535ZM558.141 208.1C558.141 274.065 607.574 323.241 668.683 323.241C729.803 323.241 779.841 274.065 779.841 208.1C779.841 142.127 729.803 92.0517 668.683 92.0517C607.866 92.3521 558.141 142.427 558.141 208.1ZM614.459 208.693C614.459 170.611 638.731 144.229 668.683 144.229C698.646 144.229 722.913 170.611 722.913 208.693C722.913 245.88 698.646 271.664 668.683 271.664C639.029 271.367 614.459 245.88 614.459 208.693ZM499.715 122.336L452.381 253.974L400.85 117.54C393.064 95.9518 372.689 97.1484 372.689 97.1484H328.651L416.134 311.248C416.134 310.948 416.134 310.948 415.833 310.645C415.833 310.645 416.134 311.247 416.134 311.551C416.429 311.849 416.429 312.447 416.429 312.447L416.134 311.248C419.13 319.942 418.229 324.74 415.533 333.138L413.733 338.538C403.551 363.724 389.168 370.623 358.913 369.12V369.418L380.181 421C419.43 420.096 448.787 407.505 468.56 358.326L573.717 97.1484H534.469C534.469 97.1484 534.469 97.1484 534.176 97.1484C531.475 97.1459 509.304 97.7466 499.715 122.336Z" fill="white"/>
</mask>
<g mask="url(#mask0_874_24669)">
<path d="M843.349 -0.0049328C805.004 -0.0049328 798.713 25.7859 798.113 38.3773V318.144H825.369C847.241 318.44 852.338 304.65 852.338 296.857V295.955V294.754C869.407 312.75 892.777 322.946 919.445 322.946C977.266 322.946 1024 273.466 1024 208.398C1024 143.03 976.968 93.2508 919.445 93.2508C894.28 93.2508 871.513 102.55 855.031 119.039V-0.00246827H843.349V-0.0049328ZM855.034 208.693C855.034 173.61 880.199 145.426 911.357 145.426C942.514 145.426 967.682 172.716 967.682 208.693C967.682 243.778 942.514 270.768 911.357 270.768C880.199 270.768 855.034 242.882 855.034 208.693ZM169.269 123.535C153.39 104.345 129.121 92.3521 99.1654 92.3521C38.9478 92.3521 0 134.634 0 190.704V318.144H18.2728C30.855 317.243 55.4208 311.247 56.3201 274.666V189.504C56.3201 164.616 73.6974 147.526 99.1654 147.526C136.313 147.526 140.21 176.909 140.21 189.504V318.144H158.483C171.064 317.243 195.335 311.248 196.53 274.966V189.504C196.53 164.616 214.51 147.526 239.374 147.526C276.522 147.526 280.719 176.909 280.719 189.504V318.144H298.991C311.574 317.243 336.444 311.247 337.039 274.065V190.707C337.039 132.832 300.792 92.3546 239.075 92.3546C210.613 92.3521 185.749 104.345 169.269 123.535ZM558.141 208.1C558.141 274.065 607.574 323.241 668.683 323.241C729.803 323.241 779.841 274.065 779.841 208.1C779.841 142.127 729.803 92.0517 668.683 92.0517C607.866 92.3521 558.141 142.427 558.141 208.1ZM614.459 208.693C614.459 170.611 638.731 144.229 668.683 144.229C698.646 144.229 722.913 170.611 722.913 208.693C722.913 245.88 698.646 271.664 668.683 271.664C639.029 271.367 614.459 245.88 614.459 208.693ZM499.715 122.336L452.381 253.974L400.85 117.54C393.064 95.9518 372.689 97.1484 372.689 97.1484H328.651L416.134 311.248C416.134 310.948 416.134 310.948 415.833 310.645C415.833 310.645 416.134 311.247 416.134 311.551C416.429 311.849 416.429 312.447 416.429 312.447L416.134 311.248C419.13 319.942 418.229 324.74 415.533 333.138L413.733 338.538C403.551 363.724 389.168 370.623 358.913 369.12V369.418L380.181 421C419.43 420.096 448.787 407.505 468.56 358.326L573.717 97.1484H534.469C534.469 97.1484 534.469 97.1484 534.176 97.1484C531.475 97.1459 509.304 97.7466 499.715 122.336Z" fill="url(#paint0_linear_874_24669)"/>
</g>
</g>
<defs>
<linearGradient id="paint0_linear_874_24669" x1="0" y1="210.498" x2="1024" y2="210.498" gradientUnits="userSpaceOnUse">
<stop stop-color="#4E3197"/>
<stop offset="0.36" stop-color="#4E3197"/>
<stop offset="0.4557" stop-color="#5A2E96"/>
<stop offset="0.6409" stop-color="#822394"/>
<stop offset="0.8947" stop-color="#DC0A8C"/>
<stop offset="0.97" stop-color="#ED0D82"/>
<stop offset="1" stop-color="#ED0D82"/>
</linearGradient>
<clipPath id="clip0_874_24669">
<rect width="1024" height="421" fill="white"/>
</clipPath>
</defs>
</svg>
