<svg width="auto" height="auto" viewBox="0 0 136 51" fill="none" xmlns="http://www.w3.org/2000/svg">
<path d="M49.9736 30.4246C51.2064 29.0006 52.3575 27.4875 53.7015 26.1759C54.8624 25.0428 56.1443 23.9657 57.5439 23.1695C59.3064 22.1652 60.8957 22.9085 61.638 24.8412C62.3803 26.7805 62.1809 28.7661 61.6249 30.6789C60.6962 33.867 59.6073 37.0056 58.6328 40.1772C58.2567 41.4029 57.9003 42.6517 57.7237 43.9203C57.5667 45.0337 58.1096 45.3938 59.1626 44.9808C59.7348 44.7562 60.2907 44.4192 60.7747 44.0359C63.5151 41.8753 65.8499 39.2918 68.0049 36.5596C68.5837 35.8262 68.829 34.8383 69.277 33.9926C71.8571 29.1196 74.9441 24.6496 79.4961 21.4351C80.5915 20.662 81.8571 20.031 83.1357 19.6511C86.0559 18.7921 88.5117 21.3756 87.4228 24.1276C86.8538 25.5615 86.1245 26.992 85.186 28.1978C82.3083 31.8815 78.6883 34.7591 74.8263 37.3161C73.9957 37.8679 73.4791 38.5088 73.2273 39.4669C72.8577 40.8809 72.4686 42.2751 72.6812 43.7683C72.9624 45.7341 74.0906 46.8078 76.0624 46.9036C79.4601 47.0688 82.4097 45.8134 85.1206 43.8972C89.2867 40.9503 91.8701 36.8834 93.2174 31.9707C93.4954 30.9532 94.0513 30.5171 95.1108 30.5038C96.9093 30.484 98.7046 30.5038 100.503 30.4939C102.004 30.4873 102.469 30.0545 102.724 28.5513C103.119 26.1958 103.525 23.8435 103.95 21.4912C104.241 19.8856 103.593 19.0597 101.981 19.0498C100.591 19.0432 99.2049 19.0597 97.8152 19.0432C96.4384 19.0267 95.6732 18.0719 95.912 16.7008C96.3959 13.9257 96.5039 13.8365 99.3423 13.8365C100.758 13.8365 102.174 13.8464 103.59 13.8299C104.83 13.8167 105.317 13.3971 105.533 12.1747C106.128 8.79499 106.703 5.41196 107.305 2.03224C107.589 0.439835 108.123 0.0169605 109.748 0.00704925C110.238 0.00704925 110.729 -0.0160759 111.216 0.0235689C112.475 0.129289 113.185 1.02791 112.972 2.28993C112.452 5.34919 111.913 8.40515 111.366 11.4578C111.085 13.0271 111.707 13.8233 113.302 13.8299C115.425 13.8398 117.55 13.8431 119.673 13.8299C121 13.8233 121.465 13.407 121.697 12.0723C122.285 8.69257 122.874 5.30955 123.456 1.92652C123.691 0.562076 124.28 0.0367811 125.667 0.0103512C126.183 0.000439958 126.703 -0.00946984 127.22 0.0169601C128.62 0.0896423 129.339 0.991561 129.097 2.39565C128.587 5.37232 128.064 8.34568 127.537 11.319C127.217 13.1229 127.799 13.8266 129.64 13.8332C131 13.8365 132.364 13.82 133.724 13.8398C135.104 13.8596 135.82 14.7087 135.66 16.083C135.647 16.1921 135.64 16.3011 135.624 16.4101C135.251 18.7558 134.911 19.0432 132.55 19.0432C131.026 19.0432 129.499 19.0366 127.975 19.0432C126.742 19.0498 126.193 19.5321 125.977 20.7545C125.533 23.2687 125.075 25.7795 124.643 28.2936C124.404 29.6878 125.032 30.451 126.451 30.4774C127.867 30.5038 129.283 30.4774 130.699 30.4906C132.181 30.5071 132.841 31.2538 132.714 32.7306C132.704 32.8396 132.701 32.9519 132.684 33.0609C132.387 35.4 131.929 35.8096 129.604 35.8096C128.132 35.8096 126.664 35.803 125.192 35.8096C123.767 35.8162 123.306 36.2127 123.057 37.6366C122.514 40.719 121.984 43.8047 121.438 46.8838C121.144 48.5488 120.65 48.9519 118.966 48.9552C118.557 48.9552 118.149 48.9618 117.74 48.9552C116.268 48.9321 115.519 48.0665 115.758 46.6162C116.157 44.2044 116.595 41.7993 117.004 39.3909C117.115 38.7434 117.24 38.0892 117.266 37.4351C117.302 36.5332 116.739 35.8658 115.846 35.8493C113.371 35.803 110.892 35.8097 108.414 35.846C107.56 35.8592 107.06 36.4142 106.89 37.3987C106.445 39.9393 106.02 42.4865 105.588 45.0304C105.461 45.7902 105.346 46.5501 105.212 47.3099C105.029 48.3308 104.382 48.9123 103.368 48.9519C102.743 48.975 102.115 48.9717 101.491 48.9585C100.137 48.9288 99.3783 48.0269 99.6006 46.6822C100.055 43.9467 100.539 41.2146 101.007 38.4824C101.066 38.1322 101.131 37.7754 101.131 37.4186C101.131 36.5662 100.591 35.9054 99.7543 35.8592C98.6425 35.7997 97.4947 35.6973 96.4188 35.9021C95.6438 36.0508 94.8296 36.5431 94.2638 37.1146C93.1912 38.1982 92.2854 39.4504 91.3044 40.6265C87.9591 44.6339 83.9009 47.4917 78.721 48.4861C76.4418 48.9255 74.1494 49.2063 71.844 48.6017C68.7701 47.7956 67.05 45.6118 66.9879 42.4039C66.9781 41.9777 66.9879 41.5515 66.9879 40.8974C66.1737 41.6969 65.5589 42.3841 64.8591 42.9688C63.1423 44.4027 61.432 45.8497 59.6302 47.1679C58.8813 47.7163 57.9297 48.0236 57.0305 48.3044C55.8401 48.6777 55.1338 48.2845 54.6008 47.1315C53.8454 45.4962 53.8944 43.7617 54.3359 42.1165C55.2025 38.8854 56.2685 35.7105 57.243 32.5092C57.7826 30.7285 58.4301 28.961 58.1488 27.0382C57.9821 25.8951 57.3477 25.5251 56.4909 26.2718C55.2025 27.395 54.0023 28.6438 52.8905 29.9455C51.8441 31.1712 50.9971 32.5687 49.9899 33.8274C48.3058 35.9319 47.5701 38.4791 46.6185 40.9271C45.6309 43.4578 44.6695 45.9984 43.6786 48.529C43.2143 49.7184 41.8278 50.4254 40.608 50.1413C39.4994 49.8836 39.0972 49.1435 39.4602 47.9509C40.3497 45.037 41.2555 42.1264 42.1548 39.2158C42.7041 37.4318 43.2437 35.6445 43.8094 33.8637C43.9304 33.4805 43.9631 33.2261 43.5446 32.9816C40.8173 31.3925 37.9723 30.114 34.8624 29.4995C34.5747 29.4433 34.2771 29.44 33.8781 29.4037C34.3327 30.3221 34.7709 31.1349 35.1437 31.9773C37.279 36.8041 35.9481 41.459 31.5694 44.3696C28.5642 46.3684 25.2026 47.4388 21.6905 48.0797C18.0018 48.7537 14.287 48.9519 10.5558 48.5753C7.66501 48.2846 4.95409 47.4586 2.63232 45.6118C-0.2748 43.2959 -0.755505 40.3952 1.09864 37.1477C2.91028 33.9728 5.79778 32.1557 8.9567 30.7153C13.5708 28.6108 18.476 27.6494 23.4956 27.2034C24.1954 27.1406 24.8919 27.0746 25.729 26.9953C24.6107 25.7993 23.5512 24.7157 22.5505 23.5792C19.3491 19.9583 16.3537 16.1921 14.4603 11.6692C14.2183 11.0878 14.0417 10.4799 13.8488 9.87861C13.0149 7.27527 13.8749 5.17409 15.7912 3.43632C19.7251 -0.131711 27.956 -0.171356 31.8932 3.39007C33.6558 4.98578 34.6826 6.96472 34.3458 9.46234C34.3065 9.75307 34.2444 10.1396 34.0482 10.2916C33.7179 10.5427 33.2372 10.8202 32.8906 10.7442C32.6028 10.6847 32.3412 10.1627 32.2071 9.79272C32.0927 9.47556 32.2137 9.08572 32.1744 8.73222C31.8245 5.44831 29.4602 3.38677 25.8141 3.24801C23.9534 3.17864 22.1908 3.63455 20.5917 4.62567C18.9599 5.63662 18.4923 6.81274 18.9632 8.68596C19.5159 10.873 20.5852 12.8222 21.7984 14.6889C24.4668 18.7921 27.5047 22.5947 30.9449 26.0669C31.5989 26.7277 32.3216 27.1307 33.2601 27.319C37.0959 28.0888 40.7977 29.2682 44.1659 31.3463C44.2574 31.4025 44.3588 31.4388 44.5517 31.528C44.9311 30.3023 45.2973 29.1064 45.6669 27.9137C48.3483 19.2877 51.0266 10.6649 53.7113 2.03885C54.0874 0.836285 54.7512 0.261438 55.7682 0.225097C56.7787 0.188756 57.9624 0.889144 58.3123 1.84723C58.4497 2.22385 58.4562 2.71941 58.3385 3.10595C56.3895 9.45573 54.4111 15.7989 52.4392 22.1421C51.5857 24.8875 50.7355 27.6362 49.882 30.3816C49.9213 30.3948 49.9572 30.4047 49.9965 30.4179L49.9736 30.4246ZM10.8501 46.3089C11.9881 46.2164 13.1293 46.1503 14.2608 46.0248C17.8416 45.625 21.2523 44.6537 24.3425 42.7409C29.4733 39.5594 30.6571 34.6269 27.5309 29.7374C27.2496 29.298 26.9553 29.0667 26.4158 29.1196C24.0646 29.3541 21.6937 29.4334 19.3654 29.8035C15.438 30.4312 11.5793 31.376 8.06069 33.3682C6.31772 34.356 4.66959 35.4727 3.51525 37.1708C1.45835 40.197 2.17124 43.319 5.32688 45.1361C7.04042 46.1239 8.91418 46.3519 10.8501 46.3056V46.3089ZM113.587 30.4972C114.728 30.4939 115.873 30.5171 117.014 30.4873C118.037 30.4576 118.57 30.0479 118.75 29.0832C119.251 26.4171 119.735 23.7444 120.166 21.0651C120.359 19.8724 119.656 19.0762 118.469 19.063C116.187 19.0366 113.901 19.0399 111.615 19.063C110.634 19.0729 110.032 19.5883 109.852 20.5662C109.378 23.153 108.911 25.7432 108.485 28.3399C108.257 29.7506 108.894 30.4642 110.327 30.4939C111.416 30.5171 112.501 30.4972 113.59 30.4972H113.587ZM74.2966 34.3197C74.3751 34.4022 74.4536 34.4848 74.532 34.5674C75.7452 33.7547 76.9944 32.9916 78.1651 32.1227C80.5196 30.3717 82.6811 28.406 84.2704 25.8984C84.6988 25.2212 85.052 24.4349 85.1958 23.6552C85.3855 22.6145 84.7217 22.1057 83.7733 22.5418C82.9722 22.9119 82.1775 23.3942 81.5301 23.9922C79.0219 26.3081 77.0206 29.037 75.3823 32.0401C74.98 32.7768 74.6596 33.5598 74.2999 34.3197H74.2966Z" fill="currentColor
"/>
</svg>