<svg width="130" height="130" viewBox="0 0 130 130" fill="none" xmlns="http://www.w3.org/2000/svg">
<g clip-path="url(#clip0_812_24509)">
<circle cx="65" cy="65" r="65" fill="#9B2E83"/>
<g clip-path="url(#clip1_812_24509)">
<path d="M50.3175 68.3833C51.2874 67.2629 52.193 66.0725 53.2504 65.0406C54.1638 64.1491 55.1724 63.3017 56.2735 62.6752C57.6602 61.8851 58.9106 62.4699 59.4946 63.9905C60.0786 65.5162 59.9217 67.0784 59.4843 68.5834C58.7536 71.0916 57.8969 73.561 57.1302 76.0563C56.8343 77.0206 56.5539 78.0031 56.415 79.0012C56.2915 79.8772 56.7186 80.1605 57.547 79.8356C57.9972 79.6589 58.4346 79.3937 58.8154 79.0922C60.9714 77.3923 62.8084 75.3597 64.5039 73.2101C64.9592 72.6331 65.1522 71.8558 65.5047 71.1905C67.5346 67.3566 69.9634 63.8397 73.5447 61.3107C74.4066 60.7024 75.4023 60.206 76.4082 59.9071C78.7057 59.2312 80.6379 61.2639 79.7812 63.429C79.3335 64.5572 78.7597 65.6826 78.0213 66.6313C75.7573 69.5295 72.9092 71.7935 69.8707 73.8053C69.2172 74.2394 68.8108 74.7437 68.6127 75.4974C68.3219 76.6099 68.0157 77.7068 68.183 78.8816C68.4042 80.4283 69.2919 81.273 70.8432 81.3484C73.5164 81.4784 75.837 80.4907 77.9699 78.9831C81.2476 76.6645 83.2802 73.4648 84.3402 69.5997C84.5589 68.7992 84.9962 68.4561 85.8298 68.4456C87.2448 68.43 88.6573 68.4456 90.0722 68.4378C91.2531 68.4326 91.619 68.0921 91.8196 66.9094C92.1304 65.0562 92.4498 63.2055 92.7842 61.3548C93.0131 60.0916 92.5033 59.4418 91.2351 59.434C90.1415 59.4288 89.0509 59.4418 87.9576 59.4288C86.8743 59.4158 86.2723 58.6646 86.4602 57.5859C86.8409 55.4025 86.9259 55.3324 89.159 55.3324C90.2728 55.3324 91.3869 55.3401 92.501 55.3272C93.4765 55.3168 93.8597 54.9867 94.0296 54.0249C94.4978 51.3659 94.9502 48.7042 95.4238 46.0452C95.6472 44.7923 96.0674 44.4596 97.3459 44.4518C97.7314 44.4518 98.1177 44.4336 98.5008 44.4648C99.4914 44.548 100.05 45.255 99.8824 46.2479C99.4733 48.6548 99.0492 51.0592 98.6188 53.4609C98.3978 54.6956 98.8871 55.322 100.142 55.3272C101.812 55.335 103.484 55.3376 105.154 55.3272C106.199 55.322 106.564 54.9944 106.747 53.9443C107.21 51.2853 107.673 48.6237 108.131 45.962C108.316 44.8885 108.779 44.4752 109.87 44.4544C110.276 44.4466 110.685 44.4388 111.092 44.4596C112.194 44.5168 112.759 45.2264 112.569 46.3311C112.168 48.673 111.756 51.0124 111.342 53.3517C111.09 54.7709 111.548 55.3246 112.996 55.3298C114.066 55.3324 115.139 55.3194 116.209 55.335C117.295 55.3505 117.858 56.0186 117.733 57.0998C117.722 57.1857 117.717 57.2714 117.704 57.3572C117.411 59.2027 117.143 59.4288 115.286 59.4288C114.087 59.4288 112.885 59.4236 111.686 59.4288C110.716 59.434 110.284 59.8135 110.114 60.7752C109.765 62.7533 109.405 64.7287 109.065 66.7067C108.877 67.8036 109.371 68.4041 110.487 68.4248C111.601 68.4456 112.715 68.4248 113.829 68.4352C114.995 68.4482 115.515 69.0357 115.415 70.1976C115.407 70.2833 115.404 70.3717 115.391 70.4574C115.157 72.2978 114.797 72.62 112.968 72.62C111.81 72.62 110.655 72.6148 109.497 72.62C108.376 72.6252 108.013 72.9372 107.817 74.0574C107.39 76.4826 106.973 78.9103 106.543 81.3328C106.312 82.6428 105.923 82.9599 104.598 82.9625C104.276 82.9625 103.955 82.9677 103.634 82.9625C102.476 82.9443 101.886 82.2633 102.074 81.1223C102.388 79.2247 102.733 77.3325 103.055 75.4377C103.142 74.9282 103.24 74.4135 103.261 73.8989C103.289 73.1893 102.846 72.6642 102.144 72.6513C100.196 72.6148 98.2459 72.6201 96.2963 72.6487C95.6244 72.659 95.231 73.0957 95.0973 73.8703C94.7472 75.8691 94.4128 77.8732 94.0729 79.8746C93.973 80.4724 93.8825 81.0703 93.7771 81.668C93.6331 82.4713 93.1241 82.9288 92.3263 82.9599C91.8346 82.9781 91.3405 82.9755 90.8495 82.9651C89.7843 82.9417 89.1873 82.2322 89.3622 81.1742C89.7197 79.022 90.1005 76.8725 90.4687 74.7229C90.5152 74.4474 90.5663 74.1666 90.5663 73.8859C90.5663 73.2153 90.1415 72.6954 89.4832 72.659C88.6084 72.6122 87.7054 72.5317 86.8589 72.6928C86.2492 72.8098 85.6086 73.1971 85.1634 73.6467C84.3196 74.4993 83.6069 75.4845 82.8351 76.4098C80.2031 79.5627 77.0103 81.8111 72.9349 82.5934C71.1417 82.9391 69.3381 83.1601 67.5243 82.6844C65.1059 82.0502 63.7526 80.332 63.7037 77.8082C63.696 77.4729 63.7037 77.1375 63.7037 76.6229C63.0631 77.2519 62.5794 77.7926 62.0289 78.2526C60.6781 79.3808 59.3325 80.5192 57.9149 81.5563C57.3257 81.9878 56.577 82.2296 55.8696 82.4505C54.933 82.7442 54.3773 82.4348 53.958 81.5277C53.3637 80.2411 53.4022 78.8764 53.7496 77.5821C54.4314 75.0399 55.2701 72.542 56.0368 70.0234C56.4613 68.6224 56.9707 67.2318 56.7494 65.719C56.6183 64.8196 56.1191 64.5285 55.445 65.116C54.4314 65.9997 53.4871 66.9822 52.6124 68.0063C51.7891 68.9707 51.1227 70.0702 50.3303 71.0605C49.0053 72.7162 48.4265 74.7203 47.6778 76.6463C46.9008 78.6373 46.1444 80.6362 45.3648 82.6272C44.9995 83.563 43.9086 84.1192 42.9489 83.8957C42.0767 83.6929 41.7603 83.1107 42.0459 82.1724C42.7457 79.8798 43.4584 77.5899 44.1659 75.2999C44.5981 73.8963 45.0226 72.4901 45.4677 71.0891C45.5629 70.7876 45.5886 70.5874 45.2594 70.395C43.1136 69.1448 40.8753 68.1389 38.4285 67.6555C38.2022 67.6112 37.968 67.6086 37.6541 67.5801C38.0118 68.3026 38.3565 68.9421 38.6498 69.6049C40.3298 73.4025 39.2827 77.0648 35.8377 79.3547C33.4733 80.9273 30.8285 81.7695 28.0653 82.2737C25.1632 82.804 22.2405 82.9599 19.3049 82.6636C17.0306 82.4349 14.8977 81.785 13.071 80.332C10.7838 78.51 10.4056 76.2278 11.8644 73.6728C13.2897 71.1749 15.5615 69.7453 18.0468 68.612C21.677 66.9563 25.5363 66.1999 29.4855 65.849C30.0361 65.7996 30.5841 65.7476 31.2427 65.6852C30.3628 64.7443 29.5293 63.8917 28.7419 62.9976C26.2232 60.1488 23.8665 57.1857 22.3769 53.6272C22.1865 53.1698 22.0475 52.6915 21.8957 52.2184C21.2397 50.1702 21.9163 48.5171 23.424 47.1499C26.519 44.3427 32.9948 44.3115 36.0924 47.1135C37.4792 48.3689 38.287 49.9259 38.0221 51.8909C37.9911 52.1197 37.9423 52.4238 37.7879 52.5434C37.5281 52.7409 37.1499 52.9592 36.8772 52.8994C36.6507 52.8526 36.4449 52.4419 36.3394 52.1509C36.2494 51.9013 36.3446 51.5946 36.3137 51.3165C36.0384 48.7328 34.1782 47.1109 31.3096 47.0017C29.8457 46.9471 28.4589 47.3058 27.2008 48.0856C25.917 48.881 25.5491 49.8063 25.9196 51.2801C26.3544 53.0008 27.1957 54.5343 28.1502 56.003C30.2496 59.2312 32.6397 62.223 35.3464 64.9548C35.8609 65.4747 36.4295 65.7918 37.1679 65.9399C40.1857 66.5456 43.0982 67.4735 45.7482 69.1084C45.8202 69.1527 45.8999 69.1812 46.0517 69.2514C46.3502 68.2871 46.6383 67.3462 46.9291 66.4078C49.0387 59.6212 51.1459 52.8371 53.2582 46.0504C53.5541 45.1042 54.0763 44.652 54.8765 44.6234C55.6715 44.5948 56.6028 45.1458 56.8781 45.8996C56.9862 46.1959 56.9913 46.5858 56.8987 46.8899C55.3653 51.8857 53.8087 56.8763 52.2573 61.8669C51.5858 64.0269 50.9169 66.1895 50.2454 68.3495C50.2763 68.3598 50.3046 68.3676 50.3355 68.378L50.3175 68.3833ZM19.5365 80.8805C20.4318 80.8077 21.3297 80.7557 22.2199 80.657C25.0371 80.3424 27.7206 79.5782 30.1518 78.0733C34.1886 75.5702 35.1199 71.6895 32.6603 67.8426C32.439 67.4969 32.2075 67.3149 31.783 67.3566C29.9332 67.5411 28.0678 67.6034 26.236 67.8946C23.1461 68.3885 20.1102 69.1318 17.3419 70.6992C15.9706 71.4764 14.6739 72.355 13.7657 73.691C12.1474 76.0719 12.7083 78.5281 15.191 79.9578C16.5392 80.7349 18.0134 80.9143 19.5365 80.8779V80.8805ZM100.366 68.4404C101.264 68.4378 102.165 68.4561 103.062 68.4326C103.867 68.4093 104.287 68.0869 104.428 67.3279C104.822 65.2303 105.203 63.1275 105.542 61.0196C105.694 60.0812 105.141 59.4548 104.207 59.4444C102.412 59.4236 100.613 59.4262 98.8147 59.4444C98.0429 59.4522 97.5693 59.8577 97.4277 60.627C97.0548 62.6623 96.6873 64.7001 96.3522 66.7431C96.1728 67.853 96.674 68.4144 97.8014 68.4378C98.6582 68.4561 99.5118 68.4404 100.369 68.4404H100.366ZM69.4539 71.4478C69.5157 71.5127 69.5775 71.5777 69.6391 71.6427C70.5937 71.0033 71.5765 70.4029 72.4975 69.7193C74.35 68.3417 76.0506 66.7951 77.301 64.8222C77.638 64.2894 77.9159 63.6708 78.0291 63.0574C78.1783 62.2386 77.656 61.8383 76.9099 62.1814C76.2796 62.4726 75.6544 62.852 75.145 63.3225C73.1716 65.1446 71.5971 67.2916 70.3081 69.6543C69.9916 70.2339 69.7395 70.85 69.4565 71.4478H69.4539Z" fill="white"/>
</g>
</g>
<defs>
<clipPath id="clip0_812_24509">
<rect width="130" height="130" fill="white"/>
</clipPath>
<clipPath id="clip1_812_24509">
<rect width="107" height="40" fill="white" transform="translate(11 45)"/>
</clipPath>
</defs>
</svg>
