<svg id="canvas" height="auto" xmlns="http://www.w3.org/2000/svg" version="1.1" xmlns:xlink="http://www.w3.org/1999/xlink" viewBox="0 0 540 360" width="auto" style="width: auto; height: auto;"><rect width="540" height="360" fill="transparent"/><mask id="mask" mask-type="alpha" maskUnits="userSpaceOnUse"><rect transform="translate(0, 0)" width="540" height="360" fill="white"/></mask><svg><path transform="translate(0, 0) translate(30,30) rotate(0) translate(-30,-30)" fill="#8982ff" d="M0 0h60v60H0z"/><path transform="translate(0, 0) translate(30,30) rotate(0) translate(-30,-30)" fill="#b1f6e9" d="M4 56h52L30 30 4 56z"/><path transform="translate(0, 0) translate(30,30) rotate(0) translate(-30,-30)" fill="#9b2e83" d="M56 4H4l26 26L56 4z"/></svg><svg><path transform="translate(0, 180)" fill="#9b2e83" d="M0 0h60v60H0z"/><path transform="translate(0, 180)" fill="#8982ff" d="M30.867 4h-1.734v22.765L17.75 7.05l-1.5.867 11.382 19.715L7.917 16.25l-.867 1.502 19.715 11.382H4v1.734h22.766L7.05 42.249l.867 1.502 19.715-11.383L16.25 52.083l1.502.867 11.382-19.715V56h1.734V33.234L42.249 52.95l1.502-.867-11.383-19.715L52.083 43.75l.867-1.502-19.716-11.382H56v-1.734H33.234L52.95 17.751l-.867-1.502-19.715 11.383L43.75 7.917l-1.502-.867-11.382 19.716V4z"/></svg><svg><path transform="translate(0, 240) translate(30,30) rotate(180) translate(-30,-30)" fill="#c846ab" d="M0 0h60v60H0z"/><path transform="translate(0, 240) translate(30,30) rotate(180) translate(-30,-30)" fill="#8982ff" d="M4 30h26L4 4v26z"/><path transform="translate(0, 240) translate(30,30) rotate(180) translate(-30,-30)" fill="#9b2e83" d="M4 56h26L4 30v26zM30 30h26L30 4v26z"/><path transform="translate(0, 240) translate(30,30) rotate(180) translate(-30,-30)" fill="#1f1e44" d="M30 56h26L30 30v26z"/><path transform="translate(0, 240) translate(30,30) rotate(180) translate(-30,-30)" fill="#8982ff" d="M30 56h26L30 30v26z"/></svg><svg><path transform="translate(60, 0) translate(30,30) rotate(180) translate(-30,-30)" fill="#c846ab" d="M0 0h60v60H0z"/><path transform="translate(60, 0) translate(30,30) rotate(180) translate(-30,-30)" fill="#b1f6e9" d="M0 0h60v30H0z"/><path transform="translate(60, 0) translate(30,30) rotate(180) translate(-30,-30)" fill="#1f1e44" d="M30 45c8.284 0 15-6.716 15-15H15c0 8.284 6.716 15 15 15z"/><path transform="translate(60, 0) translate(30,30) rotate(180) translate(-30,-30)" fill="#8982ff" d="M30 15c-8.284 0-15 6.716-15 15h30c0-8.284-6.716-15-15-15z"/></svg><svg><path transform="translate(60, 60) translate(30,30) rotate(90) translate(-30,-30)" fill="#c846ab" d="M0 0h60v60H0z"/><circle transform="translate(60, 60) translate(30,30) rotate(90) translate(-30,-30)" cx="30" cy="30" r="13" fill="#b1f6e9"/><path transform="translate(60, 60) translate(30,30) rotate(90) translate(-30,-30)" fill="#9b2e83" d="M20 10h2v40h-2zM29 10h2v40h-2zM38 10h2v40h-2z"/></svg><svg><path transform="translate(60, 120) translate(30,30) rotate(180) translate(-30,-30)" fill="#1f1e44" d="M0 0h60v60H0z"/><path transform="translate(60, 120) translate(30,30) rotate(180) translate(-30,-30)" fill="#8982ff" d="M4 30h26L4 4v26z"/><path transform="translate(60, 120) translate(30,30) rotate(180) translate(-30,-30)" fill="#c846ab" d="M4 56h26L4 30v26zM30 30h26L30 4v26z"/><path transform="translate(60, 120) translate(30,30) rotate(180) translate(-30,-30)" fill="#9b2e83" d="M30 56h26L30 30v26z"/><path transform="translate(60, 120) translate(30,30) rotate(180) translate(-30,-30)" fill="#8982ff" d="M30 56h26L30 30v26z"/></svg><svg><path transform="translate(60, 180) translate(30,30) rotate(270) translate(-30,-30)" fill="#c846ab" d="M0 0h60v60H0z"/><path transform="translate(60, 180) translate(30,30) rotate(270) translate(-30,-30)" fill="#1f1e44" d="M30.867 4h-1.734v19.415L24.108 4.662l-1.674.448 5.026 18.757L17.75 7.05l-1.5.867 9.708 16.815-13.73-13.73-1.226 1.226 13.73 13.73L7.917 16.25l-.867 1.5 16.816 9.709L5.11 22.433l-.448 1.675 18.755 5.025H4v1.734h19.417L4.662 35.892l.449 1.674 18.755-5.025L7.05 42.25l.867 1.5 16.815-9.708-13.73 13.73 1.226 1.226 13.73-13.73-9.708 16.815 1.5.867 9.71-16.815-5.026 18.755 1.674.448 5.025-18.755V56h1.734V36.581l5.026 18.757 1.674-.448-5.025-18.754 9.707 16.814 1.502-.867-9.709-16.815 13.73 13.73 1.226-1.226-13.73-13.73 16.816 9.709.866-1.502-16.816-9.708 18.756 5.025.448-1.674-18.755-5.025H56v-1.734H36.583l18.756-5.025-.449-1.674-18.756 5.025 16.816-9.708-.867-1.502-16.815 9.709 13.73-13.73-1.226-1.226-13.73 13.73 9.709-16.815-1.501-.867-9.71 16.816L37.567 5.11l-1.674-.448-5.025 18.755V4z"/></svg><svg><path transform="translate(60, 240) translate(30,30) rotate(90) translate(-30,-30)" fill="#9b2e83" d="M0 0h60v60H0z"/><path transform="translate(60, 240) translate(30,30) rotate(90) translate(-30,-30)" fill="#c846ab" d="M30 49c8.284 0 15-6.716 15-15H15c0 8.284 6.716 15 15 15z"/><circle transform="translate(60, 240) translate(30,30) rotate(90) translate(-30,-30)" cx="30" cy="21" r="9" fill="#8982ff"/></svg><svg><path transform="translate(120, 0) translate(30,30) rotate(270) translate(-30,-30)" fill="#8982ff" d="M0 0h60v60H0z"/><path transform="translate(120, 0) translate(30,30) rotate(270) translate(-30,-30)" fill="#9b2e83" d="M0 0h60v30H0z"/><path transform="translate(120, 0) translate(30,30) rotate(270) translate(-30,-30)" fill="#b1f6e9" d="M30 45c8.284 0 15-6.716 15-15H15c0 8.284 6.716 15 15 15z"/><path transform="translate(120, 0) translate(30,30) rotate(270) translate(-30,-30)" fill="#1f1e44" d="M30 15c-8.284 0-15 6.716-15 15h30c0-8.284-6.716-15-15-15z"/></svg><svg><path transform="translate(120, 120) translate(30,30) rotate(0) translate(-30,-30)" fill="#9b2e83" d="M0 0h60v60H0z"/><path transform="translate(120, 120) translate(30,30) rotate(0) translate(-30,-30)" fill="#b1f6e9" d="M15 0L0 15h30L15 0z"/><path transform="translate(120, 120) translate(30,30) rotate(0) translate(-30,-30)" fill="#b1f6e9" d="M45 0L30 15h30L45 0z"/><path transform="translate(120, 120) translate(30,30) rotate(0) translate(-30,-30)" fill="#b1f6e9" d="M15 30L0 45h30L15 30z"/><path transform="translate(120, 120) translate(30,30) rotate(0) translate(-30,-30)" fill="#b1f6e9" d="M45 30L30 45h30L45 30z"/><path transform="translate(120, 120) translate(30,30) rotate(0) translate(-30,-30)" fill="#c846ab" d="M30 15L15 30h30L30 15z"/><path transform="translate(120, 120) translate(30,30) rotate(0) translate(-30,-30)" fill="#8982ff" d="M30 45L15 60h30L30 45z"/><path transform="translate(120, 120) translate(30,30) rotate(0) translate(-30,-30)" fill="#b1f6e9" d="M60 45L45 60h15V45z"/><path transform="translate(120, 120) translate(30,30) rotate(0) translate(-30,-30)" fill="#b1f6e9" d="M60 15L45 30h15V15z"/><path transform="translate(120, 120) translate(30,30) rotate(0) translate(-30,-30)" fill="#b1f6e9" d="M0 45l15 15H0V45z"/><path transform="translate(120, 120) translate(30,30) rotate(0) translate(-30,-30)" fill="#b1f6e9" d="M0 15l15 15H0V15z"/></svg><svg><path transform="translate(120, 180) translate(30,30) rotate(270) translate(-30,-30)" fill="#c846ab" d="M0 0h60v60H0z"/><path transform="translate(120, 180) translate(30,30) rotate(270) translate(-30,-30)" fill="#1f1e44" d="M15 0L0 15h30L15 0z"/><path transform="translate(120, 180) translate(30,30) rotate(270) translate(-30,-30)" fill="#1f1e44" d="M45 0L30 15h30L45 0z"/><path transform="translate(120, 180) translate(30,30) rotate(270) translate(-30,-30)" fill="#1f1e44" d="M15 30L0 45h30L15 30z"/><path transform="translate(120, 180) translate(30,30) rotate(270) translate(-30,-30)" fill="#1f1e44" d="M45 30L30 45h30L45 30z"/><path transform="translate(120, 180) translate(30,30) rotate(270) translate(-30,-30)" fill="#1f1e44" d="M30 15L15 30h30L30 15z"/><path transform="translate(120, 180) translate(30,30) rotate(270) translate(-30,-30)" fill="#b1f6e9" d="M30 45L15 60h30L30 45z"/><path transform="translate(120, 180) translate(30,30) rotate(270) translate(-30,-30)" fill="#8982ff" d="M60 45L45 60h15V45z"/><path transform="translate(120, 180) translate(30,30) rotate(270) translate(-30,-30)" fill="#8982ff" d="M60 15L45 30h15V15z"/><path transform="translate(120, 180) translate(30,30) rotate(270) translate(-30,-30)" fill="#b1f6e9" d="M0 45l15 15H0V45z"/><path transform="translate(120, 180) translate(30,30) rotate(270) translate(-30,-30)" fill="#1f1e44" d="M0 15l15 15H0V15z"/></svg><svg><path transform="translate(120, 240) translate(30,30) rotate(0) translate(-30,-30)" fill="#9b2e83" d="M0 0h60v60H0z"/><path transform="translate(120, 240) translate(30,30) rotate(0) translate(-30,-30)" fill="#c846ab" d="M40 36c0 5.523-4.477 10-10 10s-10-4.477-10-10 9-22 10-22 10 16.477 10 22z"/></svg><svg><path transform="translate(180, 0) translate(30,30) rotate(180) translate(-30,-30)" fill="#c846ab" d="M0 0h60v60H0z"/><path transform="translate(180, 0) translate(30,30) rotate(180) translate(-30,-30)" fill="#9b2e83" d="M30.867 4h-1.734v19.415L24.108 4.662l-1.674.448 5.026 18.757L17.75 7.05l-1.5.867 9.708 16.815-13.73-13.73-1.226 1.226 13.73 13.73L7.917 16.25l-.867 1.5 16.816 9.709L5.11 22.433l-.448 1.675 18.755 5.025H4v1.734h19.417L4.662 35.892l.449 1.674 18.755-5.025L7.05 42.25l.867 1.5 16.815-9.708-13.73 13.73 1.226 1.226 13.73-13.73-9.708 16.815 1.5.867 9.71-16.815-5.026 18.755 1.674.448 5.025-18.755V56h1.734V36.581l5.026 18.757 1.674-.448-5.025-18.754 9.707 16.814 1.502-.867-9.709-16.815 13.73 13.73 1.226-1.226-13.73-13.73 16.816 9.709.866-1.502-16.816-9.708 18.756 5.025.448-1.674-18.755-5.025H56v-1.734H36.583l18.756-5.025-.449-1.674-18.756 5.025 16.816-9.708-.867-1.502-16.815 9.709 13.73-13.73-1.226-1.226-13.73 13.73 9.709-16.815-1.501-.867-9.71 16.816L37.567 5.11l-1.674-.448-5.025 18.755V4z"/></svg><svg><path transform="translate(180, 60)" fill="#c846ab" d="M0 0h60v60H0z"/><path transform="translate(180, 60)" fill="#b1f6e9" d="M30.867 4h-1.734v22.765L17.75 7.05l-1.5.867 11.382 19.715L7.917 16.25l-.867 1.502 19.715 11.382H4v1.734h22.766L7.05 42.249l.867 1.502 19.715-11.383L16.25 52.083l1.502.867 11.382-19.715V56h1.734V33.234L42.249 52.95l1.502-.867-11.383-19.715L52.083 43.75l.867-1.502-19.716-11.382H56v-1.734H33.234L52.95 17.751l-.867-1.502-19.715 11.383L43.75 7.917l-1.502-.867-11.382 19.716V4z"/></svg><svg><path transform="translate(180, 120) translate(30,30) rotate(270) translate(-30,-30)" fill="#1f1e44" d="M0 0h60v60H0z"/><circle transform="translate(180, 120) translate(30,30) rotate(270) translate(-30,-30)" cx="30" cy="30" r="13" fill="#8982ff"/><path transform="translate(180, 120) translate(30,30) rotate(270) translate(-30,-30)" fill="#c846ab" d="M20 10h2v40h-2zM29 10h2v40h-2zM38 10h2v40h-2z"/></svg><svg> <path transform="translate(180, 180)" fill="#c846ab" d="M0 0h60v60H0z"/><path transform="translate(180, 180)" fill="#9b2e83" d="M49 29.5C49 32.74 43.439 42 30 42s-19-9.26-19-12.5S16.561 17 30 17s19 9.26 19 12.5z"/><circle transform="translate(180, 180)" cx="30" cy="30" r="7" fill="#8982ff"/></svg><svg><path transform="translate(180, 240) translate(30,30) rotate(90) translate(-30,-30)" fill="#b1f6e9" d="M0 0h60v60H0z"/><path transform="translate(180, 240) translate(30,30) rotate(90) translate(-30,-30)" fill="#9b2e83" d="M4 30h26L4 4v26z"/><path transform="translate(180, 240) translate(30,30) rotate(90) translate(-30,-30)" fill="#9b2e83" d="M4 56h26L4 30v26zM30 30h26L30 4v26z"/><path transform="translate(180, 240) translate(30,30) rotate(90) translate(-30,-30)" fill="#1f1e44" d="M30 56h26L30 30v26z"/><path transform="translate(180, 240) translate(30,30) rotate(90) translate(-30,-30)" fill="#9b2e83" d="M30 56h26L30 30v26z"/></svg><svg><path transform="translate(180, 300) translate(30,30) rotate(180) translate(-30,-30)" fill="#b1f6e9" d="M0 0h60v60H0z"/><path transform="translate(180, 300) translate(30,30) rotate(180) translate(-30,-30)" fill="#c846ab" d="M30.867 4h-1.734v19.415L24.108 4.662l-1.674.448 5.026 18.757L17.75 7.05l-1.5.867 9.708 16.815-13.73-13.73-1.226 1.226 13.73 13.73L7.917 16.25l-.867 1.5 16.816 9.709L5.11 22.433l-.448 1.675 18.755 5.025H4v1.734h19.417L4.662 35.892l.449 1.674 18.755-5.025L7.05 42.25l.867 1.5 16.815-9.708-13.73 13.73 1.226 1.226 13.73-13.73-9.708 16.815 1.5.867 9.71-16.815-5.026 18.755 1.674.448 5.025-18.755V56h1.734V36.581l5.026 18.757 1.674-.448-5.025-18.754 9.707 16.814 1.502-.867-9.709-16.815 13.73 13.73 1.226-1.226-13.73-13.73 16.816 9.709.866-1.502-16.816-9.708 18.756 5.025.448-1.674-18.755-5.025H56v-1.734H36.583l18.756-5.025-.449-1.674-18.756 5.025 16.816-9.708-.867-1.502-16.815 9.709 13.73-13.73-1.226-1.226-13.73 13.73 9.709-16.815-1.501-.867-9.71 16.816L37.567 5.11l-1.674-.448-5.025 18.755V4z"/></svg><svg><path transform="translate(240, 0) translate(30,30) rotate(180) translate(-30,-30)" fill="#b1f6e9" d="M0 0h60v60H0z"/><path transform="translate(240, 0) translate(30,30) rotate(180) translate(-30,-30)" fill="#1f1e44" d="M40 36c0 5.523-4.477 10-10 10s-10-4.477-10-10 9-22 10-22 10 16.477 10 22z"/></svg><svg><path transform="translate(240, 240) translate(30,30) rotate(180) translate(-30,-30)" fill="#1f1e44" d="M0 0h60v60H0z"/><path transform="translate(240, 240) translate(30,30) rotate(180) translate(-30,-30)" fill="#b1f6e9" d="M40 36c0 5.523-4.477 10-10 10s-10-4.477-10-10 9-22 10-22 10 16.477 10 22z"/></svg><svg><path transform="translate(300, 60) translate(30,30) rotate(180) translate(-30,-30)" fill="#8982ff" d="M0 0h60v60H0z"/><path transform="translate(300, 60) translate(30,30) rotate(180) translate(-30,-30)" fill="#b1f6e9" d="M30.867 4h-1.734v19.415L24.108 4.662l-1.674.448 5.026 18.757L17.75 7.05l-1.5.867 9.708 16.815-13.73-13.73-1.226 1.226 13.73 13.73L7.917 16.25l-.867 1.5 16.816 9.709L5.11 22.433l-.448 1.675 18.755 5.025H4v1.734h19.417L4.662 35.892l.449 1.674 18.755-5.025L7.05 42.25l.867 1.5 16.815-9.708-13.73 13.73 1.226 1.226 13.73-13.73-9.708 16.815 1.5.867 9.71-16.815-5.026 18.755 1.674.448 5.025-18.755V56h1.734V36.581l5.026 18.757 1.674-.448-5.025-18.754 9.707 16.814 1.502-.867-9.709-16.815 13.73 13.73 1.226-1.226-13.73-13.73 16.816 9.709.866-1.502-16.816-9.708 18.756 5.025.448-1.674-18.755-5.025H56v-1.734H36.583l18.756-5.025-.449-1.674-18.756 5.025 16.816-9.708-.867-1.502-16.815 9.709 13.73-13.73-1.226-1.226-13.73 13.73 9.709-16.815-1.501-.867-9.71 16.816L37.567 5.11l-1.674-.448-5.025 18.755V4z"/></svg><svg><path transform="translate(300, 120) translate(30,30) rotate(270) translate(-30,-30)" fill="#c846ab" d="M0 0h60v60H0z"/><path transform="translate(300, 120) translate(30,30) rotate(270) translate(-30,-30)" fill="#b1f6e9" d="M15 0L0 15h30L15 0z"/><path transform="translate(300, 120) translate(30,30) rotate(270) translate(-30,-30)" fill="#b1f6e9" d="M45 0L30 15h30L45 0z"/><path transform="translate(300, 120) translate(30,30) rotate(270) translate(-30,-30)" fill="#b1f6e9" d="M15 30L0 45h30L15 30z"/><path transform="translate(300, 120) translate(30,30) rotate(270) translate(-30,-30)" fill="#b1f6e9" d="M45 30L30 45h30L45 30z"/><path transform="translate(300, 120) translate(30,30) rotate(270) translate(-30,-30)" fill="#b1f6e9" d="M30 15L15 30h30L30 15z"/><path transform="translate(300, 120) translate(30,30) rotate(270) translate(-30,-30)" fill="#8982ff" d="M30 45L15 60h30L30 45z"/><path transform="translate(300, 120) translate(30,30) rotate(270) translate(-30,-30)" fill="#b1f6e9" d="M60 45L45 60h15V45z"/><path transform="translate(300, 120) translate(30,30) rotate(270) translate(-30,-30)" fill="#b1f6e9" d="M60 15L45 30h15V15z"/><path transform="translate(300, 120) translate(30,30) rotate(270) translate(-30,-30)" fill="#8982ff" d="M0 45l15 15H0V45z"/><path transform="translate(300, 120) translate(30,30) rotate(270) translate(-30,-30)" fill="#b1f6e9" d="M0 15l15 15H0V15z"/></svg><svg><path transform="translate(300, 300)" fill="#1f1e44" d="M0 0h60v60H0z"/><path transform="translate(300, 300)" fill="#9b2e83" d="M30.867 4h-1.734v22.765L17.75 7.05l-1.5.867 11.382 19.715L7.917 16.25l-.867 1.502 19.715 11.382H4v1.734h22.766L7.05 42.249l.867 1.502 19.715-11.383L16.25 52.083l1.502.867 11.382-19.715V56h1.734V33.234L42.249 52.95l1.502-.867-11.383-19.715L52.083 43.75l.867-1.502-19.716-11.382H56v-1.734H33.234L52.95 17.751l-.867-1.502-19.715 11.383L43.75 7.917l-1.502-.867-11.382 19.716V4z"/></svg><svg><path transform="translate(360, 0) translate(30,30) rotate(0) translate(-30,-30)" fill="#b1f6e9" d="M0 0h60v60H0z"/><path transform="translate(360, 0) translate(30,30) rotate(0) translate(-30,-30)" fill="#9b2e83" d="M40 36c0 5.523-4.477 10-10 10s-10-4.477-10-10 9-22 10-22 10 16.477 10 22z"/></svg><svg><path transform="translate(360, 120) translate(30,30) rotate(180) translate(-30,-30)" fill="#8982ff" d="M0 0h60v60H0z"/><path transform="translate(360, 120) translate(30,30) rotate(180) translate(-30,-30)" fill="#c846ab" d="M30 41c-6.473 0-10.988-2.224-13.877-4.783-1.45-1.285-2.493-2.657-3.169-3.88-.69-1.248-.954-2.263-.954-2.837h-2c0 1.046.43 2.404 1.204 3.804.073.133.15.268.231.403L5.5 37.134l1 1.732 6.073-3.506c.622.793 1.362 1.59 2.224 2.354a19.622 19.622 0 003.634 2.54l-3.297 5.71 1.732 1 3.37-5.837c2.444 1.04 5.354 1.741 8.764 1.856V50h2v-7.017c3.41-.115 6.32-.816 8.764-1.856l3.37 5.837 1.732-1-3.297-5.71a19.621 19.621 0 003.634-2.54 17.98 17.98 0 002.201-2.326l6.024 3.478 1-1.732-5.882-3.396c.088-.146.171-.29.25-.434C49.57 31.904 50 30.546 50 29.5h-2c0 .574-.265 1.589-.954 2.837-.676 1.223-1.719 2.595-3.17 3.88C40.989 38.777 36.474 41 30 41z"/></svg><svg><path transform="translate(360, 180) translate(30,30) rotate(0) translate(-30,-30)" fill="#9b2e83" d="M0 0h60v60H0z"/><circle transform="translate(360, 180) translate(30,30) rotate(0) translate(-30,-30)" cx="30" cy="30" r="13" fill="#1f1e44"/><path transform="translate(360, 180) translate(30,30) rotate(0) translate(-30,-30)" fill="#c846ab" d="M20 10h2v40h-2zM29 10h2v40h-2zM38 10h2v40h-2z"/></svg><svg> <path transform="translate(360, 240)" fill="#b1f6e9" d="M0 0h60v60H0z"/><path transform="translate(360, 240)" fill="#1f1e44" d="M49 29.5C49 32.74 43.439 42 30 42s-19-9.26-19-12.5S16.561 17 30 17s19 9.26 19 12.5z"/><circle transform="translate(360, 240)" cx="30" cy="30" r="7" fill="#c846ab"/></svg><svg><path transform="translate(360, 300) translate(30,30) rotate(90) translate(-30,-30)" fill="#b1f6e9" d="M0 0h60v60H0z"/><path transform="translate(360, 300) translate(30,30) rotate(90) translate(-30,-30)" fill="#1f1e44" d="M4 30h26L4 4v26z"/><path transform="translate(360, 300) translate(30,30) rotate(90) translate(-30,-30)" fill="#1f1e44" d="M4 56h26L4 30v26zM30 30h26L30 4v26z"/><path transform="translate(360, 300) translate(30,30) rotate(90) translate(-30,-30)" fill="#8982ff" d="M30 56h26L30 30v26z"/><path transform="translate(360, 300) translate(30,30) rotate(90) translate(-30,-30)" fill="#c846ab" d="M30 56h26L30 30v26z"/></svg><svg><path transform="translate(420, 0) translate(30,30) rotate(90) translate(-30,-30)" fill="#c846ab" d="M0 0h60v60H0z"/><path transform="translate(420, 0) translate(30,30) rotate(90) translate(-30,-30)" fill="#1f1e44" d="M4 56h52L30 30 4 56z"/><path transform="translate(420, 0) translate(30,30) rotate(90) translate(-30,-30)" fill="#8982ff" d="M56 4H4l26 26L56 4z"/></svg><svg><path transform="translate(420, 60) translate(30,30) rotate(0) translate(-30,-30)" fill="#8982ff" d="M0 0h60v60H0z"/><path transform="translate(420, 60) translate(30,30) rotate(0) translate(-30,-30)" fill="#9b2e83" d="M4 56h52L30 30 4 56z"/><path transform="translate(420, 60) translate(30,30) rotate(0) translate(-30,-30)" fill="#c846ab" d="M56 4H4l26 26L56 4z"/></svg><svg><path transform="translate(420, 120) translate(30,30) rotate(180) translate(-30,-30)" fill="#c846ab" d="M0 0h60v60H0z"/><path transform="translate(420, 120) translate(30,30) rotate(180) translate(-30,-30)" fill="#b1f6e9" d="M15 0L0 15h30L15 0z"/><path transform="translate(420, 120) translate(30,30) rotate(180) translate(-30,-30)" fill="#9b2e83" d="M45 0L30 15h30L45 0z"/><path transform="translate(420, 120) translate(30,30) rotate(180) translate(-30,-30)" fill="#b1f6e9" d="M15 30L0 45h30L15 30z"/><path transform="translate(420, 120) translate(30,30) rotate(180) translate(-30,-30)" fill="#8982ff" d="M45 30L30 45h30L45 30z"/><path transform="translate(420, 120) translate(30,30) rotate(180) translate(-30,-30)" fill="#8982ff" d="M30 15L15 30h30L30 15z"/><path transform="translate(420, 120) translate(30,30) rotate(180) translate(-30,-30)" fill="#9b2e83" d="M30 45L15 60h30L30 45z"/><path transform="translate(420, 120) translate(30,30) rotate(180) translate(-30,-30)" fill="#b1f6e9" d="M60 45L45 60h15V45z"/><path transform="translate(420, 120) translate(30,30) rotate(180) translate(-30,-30)" fill="#b1f6e9" d="M60 15L45 30h15V15z"/><path transform="translate(420, 120) translate(30,30) rotate(180) translate(-30,-30)" fill="#b1f6e9" d="M0 45l15 15H0V45z"/><path transform="translate(420, 120) translate(30,30) rotate(180) translate(-30,-30)" fill="#b1f6e9" d="M0 15l15 15H0V15z"/></svg><svg><path transform="translate(420, 240) translate(30,30) rotate(180) translate(-30,-30)" fill="#1f1e44" d="M0 0h60v60H0z"/><path transform="translate(420, 240) translate(30,30) rotate(180) translate(-30,-30)" fill="#b1f6e9" d="M40 36c0 5.523-4.477 10-10 10s-10-4.477-10-10 9-22 10-22 10 16.477 10 22z"/></svg><svg> <path transform="translate(420, 300)" fill="#b1f6e9" d="M0 0h60v60H0z"/><path transform="translate(420, 300)" fill="#8982ff" d="M49 29.5C49 32.74 43.439 42 30 42s-19-9.26-19-12.5S16.561 17 30 17s19 9.26 19 12.5z"/><circle transform="translate(420, 300)" cx="30" cy="30" r="7" fill="#9b2e83"/></svg><svg><path transform="translate(480, 0) translate(30,30) rotate(90) translate(-30,-30)" fill="#b1f6e9" d="M0 0h60v60H0z"/><path transform="translate(480, 0) translate(30,30) rotate(90) translate(-30,-30)" fill="#c846ab" d="M30 41c-6.473 0-10.988-2.224-13.877-4.783-1.45-1.285-2.493-2.657-3.169-3.88-.69-1.248-.954-2.263-.954-2.837h-2c0 1.046.43 2.404 1.204 3.804.073.133.15.268.231.403L5.5 37.134l1 1.732 6.073-3.506c.622.793 1.362 1.59 2.224 2.354a19.622 19.622 0 003.634 2.54l-3.297 5.71 1.732 1 3.37-5.837c2.444 1.04 5.354 1.741 8.764 1.856V50h2v-7.017c3.41-.115 6.32-.816 8.764-1.856l3.37 5.837 1.732-1-3.297-5.71a19.621 19.621 0 003.634-2.54 17.98 17.98 0 002.201-2.326l6.024 3.478 1-1.732-5.882-3.396c.088-.146.171-.29.25-.434C49.57 31.904 50 30.546 50 29.5h-2c0 .574-.265 1.589-.954 2.837-.676 1.223-1.719 2.595-3.17 3.88C40.989 38.777 36.474 41 30 41z"/></svg><svg> <path transform="translate(480, 60)" fill="#1f1e44" d="M0 0h60v60H0z"/><path transform="translate(480, 60)" fill="#9b2e83" d="M49 29.5C49 32.74 43.439 42 30 42s-19-9.26-19-12.5S16.561 17 30 17s19 9.26 19 12.5z"/><circle transform="translate(480, 60)" cx="30" cy="30" r="7" fill="#b1f6e9"/></svg><svg><path transform="translate(480, 120) translate(30,30) rotate(90) translate(-30,-30)" fill="#c846ab" d="M0 0h60v60H0z"/><path transform="translate(480, 120) translate(30,30) rotate(90) translate(-30,-30)" fill="#1f1e44" d="M30 49c8.284 0 15-6.716 15-15H15c0 8.284 6.716 15 15 15z"/><circle transform="translate(480, 120) translate(30,30) rotate(90) translate(-30,-30)" cx="30" cy="21" r="9" fill="#b1f6e9"/></svg><svg><path transform="translate(480, 180) translate(30,30) rotate(180) translate(-30,-30)" fill="#9b2e83" d="M0 0h60v60H0z"/><path transform="translate(480, 180) translate(30,30) rotate(180) translate(-30,-30)" fill="#c846ab" d="M0 0h60v30H0z"/><path transform="translate(480, 180) translate(30,30) rotate(180) translate(-30,-30)" fill="#8982ff" d="M30 45c8.284 0 15-6.716 15-15H15c0 8.284 6.716 15 15 15z"/><path transform="translate(480, 180) translate(30,30) rotate(180) translate(-30,-30)" fill="#1f1e44" d="M30 15c-8.284 0-15 6.716-15 15h30c0-8.284-6.716-15-15-15z"/></svg><svg><path transform="translate(480, 240) translate(30,30) rotate(0) translate(-30,-30)" fill="#b1f6e9" d="M0 0h60v60H0z"/><circle transform="translate(480, 240) translate(30,30) rotate(0) translate(-30,-30)" cx="30" cy="30" r="13" fill="#9b2e83"/><path transform="translate(480, 240) translate(30,30) rotate(0) translate(-30,-30)" fill="#8982ff" d="M20 10h2v40h-2zM29 10h2v40h-2zM38 10h2v40h-2z"/></svg></svg>