<svg width="4693" height="12574" viewBox="0 0 4693 12574" fill="none" xmlns="http://www.w3.org/2000/svg">
<path d="M2933.8 2817.85C2855.7 2807.7 2536.33 2658.57 2156.18 2308.71C2045.36 2206.72 1978.97 2028.44 1899.84 1855.23C1739.9 1505.09 1680 1199.58 1688.4 979.731C1696.55 766.617 1788.95 618.134 1860.49 527.786C1930.07 439.911 2088.84 409.253 2273.12 414.326C2474.04 419.857 2652.55 582.671 2764.43 704.382C2846.75 793.945 2848.32 938.323 2841.65 1039.18C2837.05 1108.93 2766.63 1157.25 2715.54 1193.07C2689.74 1211.16 2657.68 1218.75 2620.01 1198.61C2524.68 1147.63 2479.55 1024.73 2459.05 920.797C2438.24 815.293 2496.05 598.763 2572.81 346.066C2610.27 222.777 2704.31 167.061 2804.96 103.925C2873.19 61.128 2974.08 47.1437 3100.3 50.4747C3308.18 55.9609 3445.85 295.895 3499.05 396.953C3552.77 499.022 3562.49 759.37 3530.1 946.83C3516.81 1023.78 3494.23 1099.03 3404.39 1246.67C3209.74 1566.58 3005.95 1789.12 2912.32 1882.7C2676.13 2118.76 2436.5 2341.46 2281.78 2506.42C2091.1 2709.74 1984.5 2800.22 1909.12 2906.25C1824.77 3024.88 1830.35 3148.69 1831.94 3356.81C1833.2 3521.05 1952.93 3643.94 2039.95 3739.93C2201.91 3918.57 2400.42 3938.3 2642.87 4007.84C2844.24 4065.6 3206.63 4161.94 3448.88 4249.68C3814.85 4382.22 3927.88 4508.78 3950.02 4558.13C4008 4687.39 3999.73 4802.32 3986.15 4913.42C3980.18 4962.2 3914.76 5004.13 3817.7 5046.77C3709.19 5094.43 3424.53 5103.34 3066.11 5115.34C2863.33 5122.12 2607.76 5103.45 2242.94 5111.9C1924.54 5119.28 1616.65 5205.43 1352.12 5283.99C1110.05 5355.88 895.409 5491.9 785.074 5632.42C708.253 5730.25 750.688 5864.97 789.584 5978.79C865.903 6202.12 1047.3 6373.75 1208.88 6509.96C1430.42 6696.72 1641.87 6777.37 1764.4 6802.94C1925.55 6836.57 2227.92 6835.58 2603.1 6847.42C3107.75 6863.35 3305.64 7016.38 3566.38 7105.04C3729.41 7160.47 3838.71 7292.81 3908.71 7393.46C3984.3 7502.13 3958.73 7620.89 3928.19 7733.63C3905.48 7817.45 3825.8 7880.71 3756 7940.36C3677.42 8007.52 3573.15 8038.04 3347.51 8063.61C2864.02 8118.4 2507.12 8086.11 2396.63 8060.58C2323.67 8043.73 2215.11 8024.92 2008.84 8012.77C1802.58 8000.63 1501.55 7997.24 1278.84 8017.49C916.607 8050.41 723.937 8154.06 599.613 8218.73C315.505 8366.52 167.091 8549.89 72.7971 8722.54C37.5516 8787.07 46.8662 8867.93 75.6669 8959.91C91.9003 9011.76 148.437 9058.66 297.975 9127.08C447.513 9195.49 697.801 9280.05 1320.55 9242.44C1943.3 9204.82 2930.93 9042.47 3470.14 8958.84C4068.88 8865.97 4217.53 8892.11 4359.17 8924.5C4496.39 8955.88 4556.27 9042.27 4628.11 9086.85C4644.62 9097.09 4648.71 9120.78 4630.21 9151.52C4581.33 9232.77 4221.42 9460.85 3772.09 9693.82C3636.43 9764.15 3637.31 9602.08 3671.34 9417.49C3705.37 9232.9 3759.48 8996.14 3817.8 8813.3C3876.12 8630.45 3937 8508.69 3968.36 8427.36C3999.73 8346.03 3999.73 8308.82 4025.09 8458.77C4107.51 8945.92 4153.47 9352.92 4161.92 9465.41C4170.07 9573.83 4211.48 9657.23 4226.8 9718.62C4233.79 9746.63 4245.51 9766.48 4216.91 9731.28C4116.68 9607.88 3922.45 9415.96 3717.56 9262.32C3513.6 9109.37 3259.11 8947.56 3023.53 8826.06C2804.56 8713.12 2470.12 8731.71 2106.88 8842.05C1867.97 8914.61 1681.12 9232.29 1479.83 9523.93C1256.95 9846.84 1229.13 9937.24 1211.96 10039.8C1189.68 10172.9 1167.53 10251.8 1169.17 10296.1C1173.69 10418.4 1470.19 10548.5 1988.4 10676.9C2163.41 10720.3 2382.79 10733.2 2577.17 10770.8C2940.43 10841.1 3128.33 10931.6 3167.53 11004.8C3222.34 11107 3214.01 11228.7 3186.85 11325.8C3156.1 11435.7 2996.32 11542.8 2793.53 11652C2607.87 11752 2401.75 11741.6 2219.42 11729.7C1877.66 11707.5 1585.8 11734.4 1290.16 11911.3C1013.69 12189 826.021 12400.7 797.015 12456.9C784.921 12482.8 778.156 12503.1 771.187 12524" stroke="black" stroke-width="100" stroke-linecap="round"/>
</svg>
