<svg width="1024" height="187" viewBox="0 0 1024 187" fill="none" xmlns="http://www.w3.org/2000/svg">
<g clip-path="url(#clip0_874_24657)">
<mask id="mask0_874_24657" style="mask-type:luminance" maskUnits="userSpaceOnUse" x="0" y="0" width="1024" height="187">
<path d="M1024 0H0V187H1024V0Z" fill="white"/>
</mask>
<g mask="url(#mask0_874_24657)">
<path d="M142.497 2.08789V184.431H103.058V108.109H39.189V184.431H0V2.08789H39.189V74.4982H103.058V2.08789H142.497Z" fill="#0F5FDC"/>
<path d="M163.801 93.2596C163.801 31.7882 203.638 0 249.059 0C291.822 0 323.149 26.0537 327.769 65.3829H289.628C287.201 46.3729 270.432 33.5947 249.059 33.5947C221.603 33.5947 200.463 54.1791 200.463 93.2429C200.463 132.307 221.603 152.643 249.059 152.643C270.931 152.643 287.683 139.881 290.608 121.12H327.055C323.897 160.2 292.552 186.503 249.076 186.503C202.923 186.503 163.801 154.714 163.801 93.2429V93.2596Z" fill="#0F5FDC"/>
<path d="M523.849 36.1641H469.77V2.56934H617.102V36.1641H563.022V184.912H523.833V36.1641H523.849Z" fill="#0F5FDC"/>
<path d="M729.054 140.379C723.833 168.769 698.755 187.016 666.362 187.016C621.688 187.016 598.703 152.113 598.703 119.032C598.703 85.9509 619.079 51.5605 663.753 51.5605C708.426 51.5605 728.799 85.6858 728.799 115.651C728.799 120.606 728.538 124.501 728.284 127.368H633.721C636.33 145.864 648.08 157.334 666.378 157.334C681.006 157.334 690.677 151.599 693.548 140.395H729.087L729.054 140.379ZM634.219 104.431H692.471C691.427 89.8459 681.233 78.1116 663.736 78.1116C647.282 78.1116 637.344 86.1827 634.219 104.431Z" fill="#0F5FDC"/>
<path d="M745.969 119.264C745.969 80.979 773.148 51.5273 813.894 51.5273C848.382 51.5273 875.803 72.3603 878.165 102.839H841.582C839.487 91.1217 828.257 82.5197 814.945 82.5197C795.348 82.5197 783.863 97.8838 783.863 119.247C783.863 140.611 795.616 155.726 815.474 155.726C828.806 155.726 839.507 147.654 842.118 135.92H879.209C875.287 165.09 848.134 186.983 813.914 186.983C773.162 186.983 745.989 157.549 745.989 119.247L745.969 119.264Z" fill="#0F5FDC"/>
<path d="M898.625 2.35352H934.934V71.8633C942.516 59.1016 956.873 51.544 975.171 51.544C1004.69 51.544 1024.01 72.9072 1024.01 103.121V184.911H987.706V111.192C987.706 95.2984 977.252 83.846 962.106 83.846C946.171 83.846 934.934 96.0938 934.934 113.015V184.911H898.625V2.35352Z" fill="#0F5FDC"/>
<path d="M390.013 150.571V2.08789H350.824V149.527C350.824 172.183 363.106 184.431 385.825 184.431H469.555V150.571H390.013Z" fill="#0F5FDC"/>
</g>
</g>
<defs>
<clipPath id="clip0_874_24657">
<rect width="1024" height="187" fill="white"/>
</clipPath>
</defs>
</svg>
