<svg width="1024" height="214" viewBox="0 0 1024 214" fill="none" xmlns="http://www.w3.org/2000/svg">
<g clip-path="url(#clip0_1077_29326)">
<path d="M161.956 54.0136H0.132812C0.464023 53.6323 0.640109 53.4003 0.841351 53.1972C18.341 35.672 35.8364 18.1427 53.3612 0.642328C53.7218 0.281796 54.3759 0.0290084 54.8957 0.0290084C108.389 0 161.881 0 215.373 0C215.717 0 216.056 0.0290084 216.535 0.0497287V1.41727C216.535 18.5488 216.539 35.6803 216.535 52.8076C216.522 88.6207 216.497 124.438 216.502 160.251C216.502 161.145 216.262 161.775 215.6 162.409C197.945 179.338 180.311 196.287 162.673 213.232C162.497 213.398 162.317 213.559 161.96 213.883L161.956 54.0136Z" fill="black"/>
<path d="M128.546 155.375C127.263 177.608 114.954 196.998 90.5618 208.432C80.4744 213.16 69.6996 214.722 58.6018 213.699C34.4193 211.473 14.5089 197.197 4.92474 175.155C0.870554 165.826 -0.65553 156.022 0.254251 145.897C2.65657 119.169 21.5691 97.0679 47.8018 90.2634C78.6927 82.2531 111.113 97.7728 123.427 126.474C126.806 134.352 128.584 142.566 128.546 155.375Z" fill="black"/>
<path d="M676.459 74.5292H693.458C693.566 76.183 693.679 77.796 693.84 80.1193C699.08 74.2557 705.238 71.9599 712.58 72.329C720.116 72.7115 725.671 76.1422 729.948 82.4158C735.436 75.2534 742.57 71.8776 751.686 72.329C764.529 72.971 774.127 80.7479 774.93 94.0059C775.907 110.325 775.164 126.74 775.164 143.346H755.648C755.648 141.965 755.648 140.749 755.648 139.532C755.648 126.781 755.681 114.015 755.648 101.263C755.648 93.4314 751.445 89.441 744.19 90.2334C739.17 90.7805 735.824 95.1949 735.811 101.454C735.77 114.097 735.811 126.74 735.811 139.382C735.811 140.612 735.811 141.842 735.811 143.332H715.953C715.899 142.171 715.799 140.967 715.786 139.765C715.786 126.671 715.839 113.564 715.786 100.471C715.745 93.0897 711.489 89.3587 704.381 90.2468C699.817 90.8213 697.702 93.9644 696.537 97.8739C696.069 99.4729 696.029 101.25 696.015 102.944C695.975 115.136 696.002 127.314 696.002 139.505C696.002 140.735 696.002 141.952 696.002 143.373H676.445V74.5432L676.459 74.5292Z" fill="black"/>
<path d="M859.633 45.7734H923.154V64.4707H879.932V82.5806H923.168V101.66H879.972V124.403H923.114V143.387H859.633V45.7734Z" fill="black"/>
<path d="M1023.96 143.565C1015.53 143.565 1007.94 143.661 1000.38 143.456C999.371 143.429 998.099 142.144 997.464 141.133C991.259 131.292 985.142 121.37 979.005 111.488C978.409 110.531 977.76 109.602 976.93 108.358C976.187 109.451 975.531 110.313 974.982 111.215C968.771 121.192 962.52 131.155 956.396 141.187C955.319 142.951 954.141 143.675 952.026 143.634C944.905 143.497 937.77 143.58 930 143.58C930.87 142.144 931.452 141.119 932.115 140.135C942.268 124.937 952.387 109.725 962.634 94.6083C964.013 92.5719 963.986 91.2324 962.547 89.2369C952.983 75.993 943.553 62.6535 934.083 49.3412C933.373 48.3435 932.697 47.3048 931.546 45.5963C935.2 45.5963 938.225 45.5963 941.244 45.5963C945.501 45.5963 949.771 45.7057 954.034 45.5553C956.122 45.487 957.367 46.184 958.511 47.9198C964.461 56.9951 970.532 65.9747 976.776 75.3369C977.512 74.3806 978.135 73.6697 978.657 72.8906C984.259 64.5533 989.807 56.1751 995.489 47.8788C996.165 46.8948 997.49 45.733 998.541 45.7057C1006.24 45.5143 1013.96 45.61 1022.52 45.61C1011.3 61.3414 1000.48 76.5126 989.613 91.7654C1000.98 108.891 1012.26 125.894 1024 143.58L1023.96 143.565Z" fill="black"/>
<path d="M570.096 78.9196V45.7891H589.663V143.28H572.724C572.627 141.613 572.544 139.863 572.419 137.663C567.137 141.995 561.509 144.606 554.9 145.344C538.694 147.176 525.212 139.098 519.82 123.831C515.893 112.72 516.363 101.676 521.037 90.8648C529.347 71.6209 554.471 66.8645 570.096 78.9056V78.9196ZM537.311 108.619L537.837 108.783C537.934 110.259 537.947 111.735 538.155 113.198C539.206 120.769 544.419 126.523 551.208 127.671C558.26 128.861 564.704 125.949 567.926 119.594C571.479 112.582 571.466 105.311 567.926 98.2866C565.119 92.7233 560.334 90.0175 553.96 90.0857C547.586 90.1539 542.815 92.956 540.201 98.6009C538.75 101.717 538.252 105.257 537.311 108.619Z" fill="black"/>
<path d="M302.091 94.5547C302.851 86.2723 306.211 79.9031 313.36 76.4316C324.159 71.21 335.581 70.6503 346.906 74.5865C356.087 77.7711 360.899 85.0418 360.995 94.7868C361.092 104.232 361.009 113.689 361.023 123.134C361.023 126.241 362.586 127.812 365.711 127.849C366.623 127.849 367.536 127.849 368.739 127.849V143.361C363.498 143.361 358.354 143.471 353.224 143.321C349.671 143.225 347.804 140.765 346.574 137.622C336.687 146.505 325.376 147.38 313.54 143.703C303.238 140.505 298.482 133.302 298.661 122.874C298.841 112.719 304.192 105.051 314.355 102.591C321.656 100.828 329.358 100.664 336.88 99.8165C338.457 99.6392 340.061 99.6392 341.581 99.5704C343.407 93.2701 340.849 89.0055 334.682 88.4176C329.607 87.9395 324.339 87.5429 321.712 93.5296C321.49 94.0351 320.495 94.4865 319.845 94.4999C315.129 94.5822 310.401 94.5547 305.686 94.5547C304.663 94.5547 303.639 94.5547 302.105 94.5547H302.091ZM341.942 114.263C338.706 114.51 335.636 114.701 332.58 114.974C330.299 115.179 327.976 115.289 325.75 115.78C324.118 116.136 322.389 116.765 321.075 117.762C316.817 121.015 317.55 126.92 322.541 128.655C331.059 131.621 343.822 128.341 341.942 114.263Z" fill="black"/>
<path d="M515.523 128.011V143.1C509.84 143.1 504.226 143.51 498.722 142.895C496.593 142.649 494.754 140.066 492.431 138.303C485.448 145.123 476.032 146.517 465.965 145.137C452.58 143.291 445.154 135.228 445.307 122.967C445.459 111.022 453.548 102.63 466.587 101.154C472.533 100.485 478.521 100.225 484.494 99.7739C485.849 99.6782 487.204 99.5826 488.476 99.5004C489.693 91.9829 486.942 88.5115 479.737 88.252C474.994 88.0881 470.362 88.3342 468.288 93.7464C468.15 94.1156 467.431 94.4025 466.933 94.4981C466.27 94.6345 465.564 94.5529 464.873 94.5529C459.604 94.5529 454.336 94.5529 448.764 94.5529C449.524 86.2156 452.939 79.7916 460.227 76.3335C470.929 71.2497 482.254 70.6893 493.468 74.5573C502.691 77.7412 507.558 85.0266 507.627 94.7027C507.71 104.271 507.641 113.838 507.641 123.391C507.641 126.335 509.176 127.824 512.246 127.861C513.255 127.861 514.264 127.956 515.509 128.025L515.523 128.011ZM488.725 114.139C483.042 114.699 477.677 115.122 472.339 115.806C470.819 115.997 469.201 116.694 467.956 117.596C463.615 120.712 464.126 126.699 469.007 128.558C474.178 130.526 479.433 130.184 484.121 127.041C488.573 124.075 489.182 119.537 488.725 114.139Z" fill="black"/>
<path d="M667.428 116.039H618.618C618.051 122.873 623.609 128.463 631.394 129.133C637.008 129.611 642.221 128.873 645.885 123.899C646.272 123.366 647.213 122.969 647.89 122.969C653.974 122.901 660.072 122.928 666.529 122.928C664.455 130.609 660.211 136.336 653.933 140.532C640.202 149.703 617.511 146.546 606.864 134.081C593.769 118.746 595.222 88.3899 614.538 77.0051C627.039 69.6516 651.637 69.8836 661.953 85.9162C667.899 95.1691 668.756 105.201 667.415 116.053L667.428 116.039ZM647.711 100.896C648.153 93.0505 642.429 87.857 633.44 87.7473C624.535 87.6383 617.954 93.2832 618.272 100.896H647.711Z" fill="black"/>
<path d="M853.082 74.395C852.554 75.7893 852.266 76.7463 851.851 77.6618C839.79 104.574 827.75 131.498 815.609 158.369C812.952 164.246 808.595 168.278 801.655 168.387C794.092 168.51 786.529 168.415 778.759 168.415V151.371C782.808 151.371 786.817 151.207 790.799 151.412C795.919 151.672 798.864 149.553 801.28 144.934C803.924 139.863 803.703 135.804 801.3 130.72C793.095 113.321 785.425 95.6619 777.567 78.0992C777.112 77.074 776.737 76.0221 776.102 74.409C783.444 74.409 790.397 74.3268 797.345 74.518C798.114 74.5455 799.138 76.0214 799.553 77.0192C804.185 88.4046 808.722 99.8309 813.3 111.243C813.755 112.391 814.251 113.512 814.96 115.166C820.033 102.359 824.999 90.1541 829.671 77.8397C830.695 75.1333 832.02 74.2312 834.884 74.3408C840.814 74.5595 846.778 74.409 853.096 74.409L853.082 74.395Z" fill="black"/>
<path d="M439.011 98.5979C432.734 98.5979 426.76 98.6387 420.786 98.5431C420.082 98.5431 419.072 97.8737 418.754 97.231C415.573 90.9033 410.111 89.4133 403.668 90.3154C397.487 91.1761 393.975 95.2221 392.233 100.84C390.587 106.184 390.601 111.623 392.164 117.008C393.948 123.158 398.8 127.327 404.58 127.778C411.743 128.339 415.836 125.92 419.113 119.318C419.445 118.662 420.344 117.856 421.008 117.842C425.723 117.705 430.452 117.76 435.181 117.746C436.425 117.746 437.67 117.746 439.315 117.746C438.693 124.731 436.149 130.566 431.503 135.118C420.068 146.325 406.365 148.198 391.596 143.045C379.373 138.78 371.215 126.316 370.606 112.334C370.122 101.332 372.529 91.2992 380.189 82.9351C393.076 68.8573 419.169 68.4881 432.125 82.1286C436.218 86.434 438.638 92.1197 438.983 98.5705L439.011 98.5979Z" fill="black"/>
</g>
<defs>
<clipPath id="clip0_1077_29326">
<rect width="1024" height="214" fill="white"/>
</clipPath>
</defs>
</svg>
