<svg width="1024" height="340" viewBox="0 0 1024 340" fill="none" xmlns="http://www.w3.org/2000/svg">
<g clip-path="url(#clip0_1077_29321)">
<path d="M726.686 67.6443C748.499 65.7951 767.708 81.935 769.679 103.767C771.649 125.599 755.638 144.925 733.848 147.021C711.881 149.134 692.391 132.946 690.406 110.939C688.419 88.9314 704.697 69.5081 726.686 67.6443ZM733.705 130.589C746.607 128.55 755.385 116.384 753.269 103.478C751.152 90.5718 738.947 81.8576 726.071 84.0586C713.309 86.2404 704.7 98.3296 706.799 111.122C708.896 123.914 720.916 132.61 733.705 130.589Z" fill="black"/>
<path d="M477.427 42.2333C480.308 41.875 489.463 42.1379 492.862 42.168C494.306 44.7462 495.883 49.6551 497.061 52.5211C498.947 57.1224 500.864 61.7563 502.697 66.3781L521.285 112.363L529.777 133.719C531.061 136.858 532.734 141.274 534.266 144.198C528.287 144.4 521.605 144.247 515.579 144.236C513.195 136.996 509.432 128.101 506.427 120.975C505.777 119.433 496.482 120.026 494.295 120.051L464.025 120.15C462.077 124.278 460.194 129.313 458.456 133.557C457.265 136.471 455.252 141.202 454.493 144.141C449.487 144.448 441.926 144.209 436.703 144.183C440.127 136.982 443.958 125.611 447.148 117.782L477.427 42.2333ZM469.658 105.232L485.3 105.231C489.542 105.236 496.268 105.464 500.308 105.202C497.114 95.7566 489.413 75.1638 485.579 65.0944C485.407 65.008 485.236 64.9219 485.061 64.8354C483.108 67.0705 471.637 99.8949 469.658 105.232Z" fill="black"/>
<path d="M622.459 41.9961C626.748 42.3459 634.037 42.1475 638.531 42.1472L667.601 42.1461C672.405 42.1458 678.184 41.9848 682.856 42.1883C682.833 46.4023 682.62 53.2459 682.957 57.2283C681.276 56.9375 672.009 57.0729 669.937 57.0735L639.861 57.0906L640.018 82.4713C652.971 82.9658 666.944 82.2779 680.084 82.6151C680.014 87.6084 680.101 92.4892 680.191 97.4834C667.391 97.9506 653.255 97.3545 640.215 97.5883C640.024 113.05 640.046 128.742 640.148 144.202C634.141 144.296 627.895 144.253 621.897 144.193C621.599 120.437 621.815 95.7107 621.863 71.9144L621.776 51.8654C621.764 48.9802 621.686 45.7668 621.849 42.8984C621.885 42.2466 621.939 42.3842 622.459 41.9961Z" fill="black"/>
<path d="M885.205 70.2676C890.13 70.7393 897.301 70.2656 902.461 70.4404C902.627 94.9125 902.197 119.774 902.565 144.176C899.114 144.169 888.337 143.932 885.554 144.283C885.574 141.371 885.287 138.127 884.891 135.242C884.087 136.083 883.502 136.703 882.785 137.618C874.156 147.142 859.629 149.3 848.425 143.142C839.77 138.386 837.097 130.123 835.52 121.02C835.504 120.963 835.487 120.906 835.47 120.85C834.854 115.078 835.183 108.27 835.169 102.418C835.144 91.698 835.307 80.9905 835.194 70.2656C840.08 70.7737 847.127 70.2237 852.254 70.4531C852.411 81.6359 852.029 92.785 852.088 103.971C852.006 106.669 852.206 109.643 852.116 112.311C851.759 122.673 855.93 132.376 867.817 131.955C874.221 131.728 878.96 129 882.513 123.491C882.822 123.014 883.735 121.339 883.853 120.83C886.167 115.254 885.374 103.592 885.391 97.2509C885.416 88.4047 885.551 79.0809 885.205 70.2676Z" fill="black"/>
<path d="M351.948 138.065C348.584 121.747 342.096 106.312 334.729 91.457C333.773 89.5313 325.225 75.2023 325.282 74.4297C327.525 75.0956 338.116 86.151 340.154 88.5912C353.505 104.577 361.075 121.817 365.691 142.094C366.989 148.666 367.667 154.023 368.431 160.623C369.047 166.171 369.095 176.623 368.426 182.217C367.996 186.639 367.689 191.095 366.888 195.468C362.348 220.166 349.849 246.006 330.319 262.2C330.271 262.239 330.223 262.277 330.175 262.316C329.546 262.394 328.958 262.653 328.317 262.598C328.379 261.765 328.427 260.937 328.475 260.104C328.615 260.009 329.852 258.141 330.063 257.822C353.312 222.476 360.221 179.253 351.948 138.065Z" fill="url(#paint0_linear_1077_29321)"/>
<path d="M351.948 138.065C348.584 121.747 342.096 106.312 334.729 91.457C333.773 89.5313 325.225 75.2023 325.282 74.4297C327.525 75.0956 338.116 86.151 340.154 88.5912C353.505 104.577 361.075 121.817 365.691 142.094C364.915 147.972 366.376 155.688 367.147 161.506C367.405 163.454 367.349 166.528 367.352 168.564C364.83 166.082 357.809 158.144 356.072 154.894C355.889 154.554 354.933 146.401 354.818 145.404C354.627 143.79 354.259 140.674 353.416 138.845C353.171 138.316 352.584 138.271 351.948 138.065Z" fill="#55E920"/>
<path d="M299.316 139.224C297.531 128.289 292.5 116.076 288.238 105.922C287.873 105.053 285.782 100.735 285.672 100.245C284.874 96.6894 272.1 79.9827 272.109 78.3641C274.388 77.9633 287.201 91.6975 289.082 93.8141C302.779 109.245 311.257 127.893 314.543 148.206C314.812 149.515 315.018 150.825 315.203 152.149C320.8 192.411 307.735 233.288 275.824 259.227C275.378 258.936 275.502 259.013 275.152 258.586L275.408 256.209C277.428 253.869 282.17 245.505 283.876 242.435C300.255 212.966 307.636 172.077 299.316 139.224Z" fill="url(#paint1_linear_1077_29321)"/>
<path d="M299.316 139.224C297.531 128.289 292.5 116.076 288.238 105.922C287.873 105.053 285.782 100.735 285.672 100.245C284.874 96.6894 272.1 79.9827 272.109 78.3641C274.388 77.9633 287.201 91.6975 289.082 93.8141C302.779 109.245 311.257 127.893 314.543 148.206C314.18 151.165 314.346 155.839 314.349 158.891C314.354 161.517 315.861 169.584 315.015 171.754C315.105 171.767 305.534 161.123 304.696 160.081C302.189 156.967 303.639 140.585 299.316 139.224Z" fill="#55E920"/>
<path d="M302.572 84.7426C302.555 83.8836 302.392 83.3159 302.766 82.668C303.623 83.035 304 83.1715 304.936 83.2478C309.798 87.1975 314.611 92.7669 318.577 97.6592C330.219 112.016 336.946 130.065 340.873 147.958C340.873 148.042 340.875 148.126 340.875 148.209C345.755 172.787 341.679 200.798 330.787 223.399C328.364 228.423 323.024 236.236 319.901 240.836C317.301 244.669 301.385 261.197 298.114 261.719L297.914 261.419C298.561 260.187 299.896 258.925 300.739 257.628C312.505 239.533 323.08 217.693 326.813 196.31C329.862 178.845 329.233 159.771 326.003 142.512C326.236 134.53 315.145 107.076 311.001 98.843C309.692 96.2446 304.438 87.2343 302.572 84.7426Z" fill="url(#paint2_linear_1077_29321)"/>
<path d="M302.573 84.7426C302.556 83.8836 302.393 83.3159 302.767 82.668C303.624 83.035 304.001 83.1715 304.937 83.2478C309.8 87.1975 314.612 92.7669 318.578 97.6592C330.221 112.016 336.947 130.065 340.874 147.958C340.874 148.042 340.877 148.126 340.877 148.209C339.702 151.054 341.237 159.019 341.119 162.177C341.037 164.39 341.695 174.171 340.745 175.283L340.309 175.095L340.992 174.919L340.02 174.459C339.685 172.881 330.294 163.873 330.142 162.862C329.625 159.439 329.746 153.32 328.88 149.556C328.315 147.098 328.745 143.445 326.005 142.512C326.238 134.53 315.146 107.076 311.003 98.843C309.693 96.2446 304.44 87.2343 302.573 84.7426Z" fill="#55E920"/>
<path d="M546.038 42.0391C551.845 42.4162 558.105 41.9487 563.938 42.2381C563.421 44.3915 563.567 54.6475 563.567 57.3475L563.629 89.5994L563.764 121.897C563.741 128.166 563.395 137.774 563.904 143.802L563.854 144.14C559.348 144.402 549.726 144.324 545.203 144.105C545.437 142.37 545.274 137.653 545.254 135.752L545.164 119.808L545.445 60.4911C545.448 57.723 544.95 43.5598 546.038 42.0391Z" fill="black"/>
<path d="M109.309 79.1701C111.557 77.0006 115.158 74.6547 117.759 72.8663C156.928 45.9382 213.026 45.5064 251.628 73.2998C248.061 74.0831 248.88 70.1328 245.707 74.4374C245.111 75.2472 243.548 75.3699 243.157 77.1501C244.117 78.9759 246.768 78.2202 246.503 80.1423C236.739 76.176 229.018 73.1981 218.763 70.6479C187.497 62.8712 154.973 66.6461 125.408 78.9514C118.71 81.7392 109.517 86.3951 103.431 90.3667C101.684 91.3288 95.4249 95.3677 93.6186 96.6942L93.4654 96.8085L93.0859 96.7125C93.1292 96.0564 94.2516 94.9705 94.6881 94.3809C98.792 88.8353 103.734 83.2358 109.309 79.1701Z" fill="url(#paint3_linear_1077_29321)"/>
<path d="M109.309 79.168C109.215 82.6763 102.959 87.0977 101.491 90.1203C102.141 90.2087 102.779 90.2906 103.431 90.3646C101.684 91.3266 95.4249 95.3655 93.6186 96.692L93.4654 96.8063L93.0859 96.7103C93.1292 96.0543 94.2516 94.9684 94.6881 94.3787C98.792 88.8332 103.734 83.2336 109.309 79.168Z" fill="#65FD01"/>
<path d="M800.376 77.5956C806.731 69.3289 817.865 66.5422 827.512 70.1159L827.658 73.7999C827.717 78.214 827.627 83.8006 827.886 88.1168C823.981 86.6985 820.937 85.4336 816.735 85.3472C807.608 85.2546 799.819 90.1719 797.866 99.3815C796.547 105.588 796.997 111.06 796.949 117.35L796.896 144.162C792.112 144.372 784.978 144.254 780.197 144.137C779.907 119.894 779.963 94.7282 780.076 70.4686C784.784 70.1848 792.817 70.8049 797.09 70.2164C796.646 73.0174 796.73 79.0786 796.888 82.0232L800.376 77.5956Z" fill="black"/>
<path d="M169.321 272.725C175.653 272.973 181.818 273.447 187.972 273.286C218.459 272.489 247.527 262.074 272.721 245.113C273.368 244.677 274.779 244.092 275.579 243.684L275.862 243.995C260.447 265.857 230.452 281.489 204.586 285.618C189.785 287.98 170.355 288.407 156.038 284.101C147.259 281.931 138.784 278.977 130.769 274.75C129.799 271.582 126.314 272.013 125.594 270.427C125.939 268.741 129.226 265.567 130.564 264.133C134.047 265.568 135.692 266.448 139.493 266.326C148.05 268.593 156.201 271.134 165.05 272.105C166.349 272.247 168.031 272.483 169.321 272.725Z" fill="url(#paint4_linear_1077_29321)"/>
<path d="M130.769 274.75C129.799 271.582 126.314 272.013 125.594 270.426C125.939 268.741 129.226 265.567 130.564 264.133C134.047 265.568 135.692 266.448 139.493 266.326C148.05 268.593 156.201 271.134 165.05 272.105C166.349 272.247 168.031 272.483 169.321 272.725C168.215 272.767 167.223 272.791 166.116 272.774C167.202 273.441 181.168 274.21 183.423 274.147C181.741 276.197 174.771 284.52 173.004 286.032C168.065 286.17 162.342 284.321 157.43 283.668C157.008 283.611 156.368 283.851 156.038 284.101C147.259 281.931 138.784 278.977 130.769 274.75Z" fill="#3AC751"/>
<path d="M878.784 190.954C886.238 190.313 894.016 191.761 899.523 197.184C906.628 204.18 904.922 213.247 905.105 222.205C905.24 228.741 905.237 235.25 905.198 241.787C902.432 241.816 899.888 241.811 897.125 241.712C897.156 240.378 897.389 237.68 896.83 236.613L896.301 236.588C884.988 247.518 860.749 244.631 858.773 226.908C858.253 207.177 883.979 202.977 896.903 215.114C896.903 214.536 896.878 213.921 896.883 213.348C897.074 196.252 877.193 192.556 866.928 203.923L861.163 199.387C866.27 193.958 871.526 191.895 878.784 190.954ZM884.066 236.563C888.161 236.189 891.77 235.043 894.525 231.774C898.193 227.423 897.116 221.129 892.673 217.787C888.749 214.805 884.397 214.25 879.675 214.57C875.411 215.254 871.495 216.791 868.786 220.342C865.314 224.893 867.442 230.747 871.83 233.755C875.636 236.384 879.644 236.709 884.066 236.563Z" fill="black"/>
<path d="M782.841 199.322C783.872 198.31 785.058 197.14 786.216 196.283C796.76 188.469 815.357 188.48 823.46 199.882C825.375 202.577 825.942 205.245 826.659 208.394C826.856 215.446 826.915 223.275 826.814 230.338C826.718 234.129 826.724 237.93 826.713 241.722C824.197 241.858 820.987 241.764 818.42 241.755C818.353 239.98 818.39 237.89 818.378 236.09C810.693 243.564 798.73 245.165 789.564 240.158C772.14 230.641 781.545 208.937 799.287 208.306C807.185 208.025 812.773 209.861 818.609 214.982C818.378 209.478 818.48 205.773 814.229 201.453C811.346 198.521 806.407 197.372 802.398 197.618C795.815 198.021 792.887 199.586 788.622 204.135C786.405 202.631 784.825 201.129 782.841 199.322ZM806.275 236.472C808.959 235.975 810.994 235.472 813.406 234.058C820.194 230.076 819.891 221.183 813.271 217.186C809.336 214.808 806.089 214.252 801.536 214.559C781.176 217.302 787.383 239.228 806.275 236.472Z" fill="black"/>
<path d="M64.68 116.898C65.2158 116.875 65.7577 116.86 66.2907 116.809L66.3972 116.864C66.3466 117.622 66.1051 117.834 65.6562 118.489C65.9879 119.161 70.8496 124.759 71.2622 124.937L72.1415 124.934C72.6261 125.524 72.3765 127.061 72.5049 128.164C72.0347 129.026 71.452 131.248 71.1625 132.334C69.4256 138.856 68.2763 145.606 67.3385 152.287C67.0288 154.494 66.9622 157.131 66.6476 159.159C66.739 160.228 66.3963 163.346 66.3491 164.617C66.2024 168.577 65.9382 173.049 66.2701 176.989C68.1543 199.359 74.1611 221.434 84.5917 241.34C88.3155 248.447 93.7144 256.187 98.0026 262.936C93.8957 260.4 85.2792 252.724 82.0622 249.023C71.5287 236.905 63.3047 221.818 57.9904 206.692C55.5351 199.703 53.9377 191.425 53.1535 184.03C52.4131 170.678 52.5323 155.907 55.3075 142.802C55.6875 141.008 56.0909 138.537 56.8563 136.996C56.7781 133.651 62.9952 120.692 64.68 116.898Z" fill="url(#paint5_linear_1077_29321)"/>
<path d="M64.6761 116.898C65.2118 116.875 65.7538 116.86 66.2867 116.809L66.3932 116.864C66.3426 117.622 66.1012 117.834 65.6523 118.489C65.984 119.161 70.8456 124.759 71.2583 124.937L72.1375 124.934C72.6221 125.524 72.3725 127.061 72.501 128.164C72.0307 129.026 71.448 131.248 71.1585 132.334C69.4217 138.856 68.2723 145.606 67.3346 152.287C67.0248 154.494 66.9582 157.131 66.6437 159.159C66.2454 156.617 67.0032 150.623 66.3778 149.546C66.2909 150.816 66.2142 150.793 65.3108 151.746L64.8321 151.736C62.7664 148.574 59.1856 145.55 57.1308 142.456C56.7567 141.892 58.9368 138.734 56.8523 136.996C56.7742 133.651 62.9912 120.692 64.6761 116.898Z" fill="#3AC751"/>
<path d="M38.8383 116.191L39.9112 116.388C40.1675 117.38 39.2017 118.152 39.5784 118.635C41.1732 120.68 43.2887 122.803 44.7942 124.912L45.3033 125.005L46.1128 124.25C46.5282 125.22 46.1977 126.305 46.3318 127.542C41.4293 147.822 39.6939 157.584 40.1512 178.619C41.8529 195.635 45.0874 210.217 51.5383 226.044C56.1749 237.42 60.8687 247.237 68.1374 257.289C69.0571 258.561 70.3639 259.798 70.8049 261.332L70.4229 261.629C68.6928 259.841 66.6043 258.93 64.757 257.334C53.8815 247.944 45.7122 237.253 39.3392 224.503C28.277 202.374 25.8168 182.593 27.0322 158.071C27.0074 146.791 33.0169 125.768 38.8383 116.191Z" fill="#55E920"/>
<path d="M38.8374 116.191L39.9103 116.388C40.1667 117.38 39.2008 118.152 39.5775 118.635C41.1724 120.68 43.2879 122.803 44.7934 124.912L45.3024 125.005L46.1119 124.25C46.5274 125.22 46.1968 126.305 46.3309 127.542C41.4285 147.822 39.693 157.584 40.1504 178.619C38.7851 174.879 38.4006 164.133 38.4208 159.754L39.0353 159.117C39.4288 156.971 39.3962 152.58 39.4406 150.472C39.9249 149.839 39.9736 149.811 40.1324 149.05C39.4041 146.601 34.1846 142.777 32.9911 139.923C32.8339 139.547 32.2639 139.592 31.892 139.622C29.9871 141.481 30.0829 149.191 29.3555 151.732C28.8968 153.335 27.6429 156.39 27.0313 158.071C27.0066 146.791 33.0161 125.768 38.8374 116.191Z" fill="#3AC751"/>
<path d="M228.719 292.522L228.977 292.609C233.77 294.191 260.914 280.157 266.195 276.776C267.344 276.041 271.156 273.379 272.123 273.105C264.655 281.172 258.555 287.427 249.127 293.341C239.736 299.229 230.471 304.168 219.729 307.239C218.167 307.703 216.513 308.08 215.495 309.406C198.939 314.883 171.277 314.726 154.695 309.969C146.652 308.272 128.782 300.996 122.5 296.276C124.426 294.838 125.235 297.743 127.096 297.588C127.547 296.456 131.509 292.302 132.595 291.1C130.948 290.154 129.885 290.146 128.281 289.248L128.247 288.91L129.413 288.635C138.745 292.544 147.615 295.097 157.531 296.974C160.932 297.616 164.674 297.982 167.912 298.623C172.83 298.857 177.108 299.412 182.229 299.454C198.947 299.583 212.776 297.154 228.719 292.522Z" fill="#55E920"/>
<path d="M129.413 288.633C138.745 292.542 147.615 295.095 157.531 296.972C160.932 297.614 164.674 297.98 167.912 298.622C159.721 299.317 145.332 295.469 137.284 292.829C135.322 295.157 133.33 297.586 131.281 299.832C133.082 302.326 150.33 307.623 154.092 309.024C154.196 309.061 154.652 309.877 154.695 309.967C146.652 308.27 128.782 300.994 122.5 296.274C124.426 294.836 125.235 297.741 127.096 297.586C127.547 296.455 131.509 292.3 132.595 291.098C130.948 290.153 129.885 290.144 128.281 289.246L128.247 288.909L129.413 288.633Z" fill="#30BB64"/>
<path d="M437.121 172.664C439.415 172.594 441.27 172.566 443.558 172.67C446.178 176.756 451.113 182.602 454.259 186.649L472.288 209.907C475.717 214.249 479.987 219.228 483.2 223.592C484.206 224.961 484.886 225.764 486.041 227.013C486.362 223.251 486.179 218.465 486.173 214.605L486.154 193.925L486.224 172.699C488.998 172.62 491.177 172.612 493.945 172.744L494.384 241.909C492.321 241.856 489.993 241.852 487.958 241.737C478.896 231.032 470.404 219.027 461.486 208.068C455.802 201.085 451.206 194.264 445.019 187.517C444.722 196.09 444.918 205.671 444.983 214.291L444.946 241.751C442.411 241.772 439.578 241.854 437.07 241.708L437.121 172.664Z" fill="black"/>
<path d="M529.46 190.952C537.187 190.432 544.029 192.267 549.796 197.674C556.368 203.837 557.307 210.531 557.546 219.003C543.863 219.492 527.934 218.932 513.947 219.044C514.43 230.578 525.128 238.597 536.301 236.384C539.691 235.712 541.83 234.622 544.636 232.78C550.828 228.259 546.783 226.873 554.491 232.703L554.305 232.961C545.78 244.713 527.9 246.743 516.415 238.245C504.971 229.778 502.678 212.582 511.377 201.307C516.268 194.971 521.629 192.088 529.46 190.952ZM514.037 212.718C520.755 212.895 527.751 212.792 534.488 212.78C539.475 212.772 544.965 212.881 549.909 212.74C546.862 202.256 541.15 196.727 529.755 197.662C520.412 199.247 516.741 204.056 514.037 212.718Z" fill="black"/>
<path d="M744.429 190.948C762.09 189.813 772.991 201.316 772.743 218.93C763.144 219.508 751.513 218.684 741.739 219.004C738.169 219.121 732.972 218.701 729.616 219.178C729.357 219.395 729.045 219.525 729.082 219.891C730.358 232.637 744.317 240.275 755.985 235.125C757.623 234.403 758.742 233.687 760.209 232.721C766.638 227.326 763.169 228.003 770.421 232.899C765.041 238.228 760.637 241.459 753.073 242.882C735.999 246.134 720.216 233.387 721.442 215.584C722.358 202.28 731.536 193.05 744.429 190.948ZM728.978 212.628C735.218 212.971 743.01 212.754 749.362 212.745C751.968 212.758 762.869 212.977 764.631 212.553C765.095 211.691 764.831 210.666 764.504 209.761C761.404 201.151 754.051 196.73 745.25 197.653C735.794 199.753 731.924 203.478 728.978 212.628Z" fill="black"/>
<path d="M597.392 192.431C599.073 192.385 600.962 192.463 602.66 192.494C607.683 204.789 612.239 216.598 617.518 228.845C618.533 227.135 620.95 220.893 621.765 218.688C625.06 209.787 628.168 201.269 631.747 192.46C633.981 192.333 637.25 192.454 639.564 192.468C638.661 195.049 636.424 200.089 635.221 202.633C632.626 210.551 629.509 218.289 626.17 225.914C624.441 229.865 621.872 238.118 619.966 241.526C618.777 241.936 616.731 241.782 615.407 241.759C614.567 237.993 611.927 233.616 610.629 229.901C607.655 221.385 603.368 212.899 600.481 204.426C598.098 207.858 593.37 220.492 591.47 224.933C589.336 229.926 586.309 236.582 584.6 241.701C583.231 241.769 581.59 241.722 580.201 241.718C574.028 229.161 569.874 214.516 564.154 201.675C562.911 198.883 561.767 195.403 560.789 192.496C563.383 192.373 566.11 192.441 568.716 192.467C573.713 204.172 577.581 217.015 582.45 228.78C585.1 225.065 591.742 206.425 593.8 201.68C594.466 200.14 596.881 194.054 597.392 192.431Z" fill="black"/>
<path d="M177.898 26.7135C189.776 25.4204 208.211 27.7367 219.263 31.364L218.862 31.9157C215.561 31.4867 208.73 28.9401 205.937 29.3285C203.89 31.1363 198.988 37.3956 196.418 40.0985C197.919 40.5907 209.372 41.1545 210.666 42.0501C209.637 42.0853 208.681 42.1351 207.654 42.2114C206.308 42.0687 204.956 41.9054 203.617 41.7123C193.487 40.2541 183.524 40.5114 173.336 40.8826C171.226 41.2961 168.799 41.4174 166.626 41.6848C139.6 45.0102 114.944 55.3605 92.9141 71.307C108.085 45.4287 148.953 27.0946 177.898 26.7135Z" fill="#55E920"/>
<path d="M177.898 26.7135C189.775 25.4204 208.21 27.7367 219.262 31.364L218.862 31.9157C215.56 31.4867 208.729 28.9401 205.937 29.3285C203.89 31.1363 198.987 37.3956 196.417 40.0985C197.918 40.5907 209.371 41.1545 210.665 42.0501C209.637 42.0853 208.68 42.1351 207.654 42.2114C206.307 42.0687 204.956 41.9054 203.616 41.7123C193.487 40.2541 183.524 40.5114 173.336 40.8826C175.924 38.8215 183.895 40.421 187.24 39.4686C186.675 39.6296 193.074 39.8373 193.477 39.8257C196.445 36.4581 200.172 31.7766 203.244 28.6958C194.895 26.9227 186.268 27.4434 177.898 26.7135Z" fill="#3AC751"/>
<path d="M665.485 172.607C667.99 172.497 670.73 172.538 673.246 172.57C687.106 172.748 701.096 172.324 714.945 172.664C714.926 174.391 715.016 176.019 715.103 177.738L689.827 212.658C685.139 219.198 678.573 228.019 674.334 234.725C687.455 235.296 702.603 234.608 716.025 234.834L715.825 241.676C710.133 241.984 702.991 241.795 697.214 241.8H663.847L663.773 236.639C674.68 222.015 684.928 207.045 695.671 192.316C698.704 188.16 701.715 183.866 704.593 179.61C691.784 179.201 678.196 179.837 665.232 179.493C665.207 178.038 665.019 173.702 665.485 172.607Z" fill="black"/>
<path d="M926.348 199.662C931.526 194.668 935.577 190.928 943.399 190.93C953.122 190.932 959.708 196.564 961.546 206.103C962.46 210.855 961.898 216.023 962.052 220.855C962.044 227.779 962.072 234.839 961.94 241.75C960.228 241.788 955.73 242.034 954.322 241.475L954.336 221.599C954.333 215.767 954.797 209.658 952.523 204.238C948.327 196.933 940.85 195.591 933.755 199.469C925.758 203.84 926.59 213.213 926.483 220.84C926.382 227.864 926.599 234.874 926.391 241.808C923.92 241.794 921.37 241.816 918.911 241.765C918.978 225.526 919.302 208.576 918.812 192.433C921.368 192.394 923.965 192.328 926.514 192.402C926.461 194.688 926.32 197.413 926.348 199.662Z" fill="black"/>
<path d="M207.65 42.2121C208.677 42.1358 209.633 42.086 210.662 42.0508C209.368 41.1552 197.915 40.5914 196.414 40.0992C198.984 37.3963 203.886 31.137 205.934 29.3292C208.726 28.9408 215.557 31.4874 218.858 31.9164L219.259 31.3647C237.751 35.9398 258.881 50.3023 271.347 64.4902C272.889 66.2445 274.084 68.5725 275.835 70.2196L275.702 70.7107C275.057 70.7977 275.132 70.8317 274.471 70.2576C270.911 67.1697 266.394 64.9549 262.322 62.4758C244.699 51.7453 227.773 46.0115 207.65 42.2121Z" fill="#30BB64"/>
<path d="M840.676 167.808C842.928 167.695 845.736 167.771 848.029 167.773C847.835 186.045 848.184 204.418 848.038 222.691C848.015 225.264 848.305 240.06 847.937 241.695C845.334 241.731 842.958 241.729 840.358 241.642C840.229 225.324 840.707 208.714 840.538 192.336C840.51 189.61 840.224 169.327 840.676 167.808Z" fill="black"/>
<path d="M813.397 275.443C819.603 275.099 824.921 279.844 825.289 286.056C825.658 292.271 820.941 297.613 814.737 298.007C808.497 298.404 803.126 293.65 802.755 287.399C802.384 281.151 807.154 275.79 813.397 275.443ZM808.528 293.087C811.243 294.784 813.478 295.032 816.629 294.486C818.611 293.805 819.834 292.957 820.778 291.041C821.911 288.736 821.891 285.761 821.014 283.374C820.325 281.499 818.979 280.018 817.146 279.21C815.37 278.427 813.641 278.579 811.761 278.711C809.883 279.292 808.562 280.053 807.615 281.84C806.308 284.308 806.465 287.869 807.303 290.458C807.595 291.37 808.081 292.242 808.528 293.087Z" fill="black"/>
<path d="M889.599 284.461C890.627 279.352 895.012 275.61 900.212 275.404C905.412 275.197 910.079 278.578 911.509 283.588C912.94 288.598 910.764 293.94 906.239 296.516C901.716 299.091 896.019 298.238 892.449 294.444C889.936 291.776 888.873 288.055 889.599 284.461ZM902.228 294.821C904.659 293.887 906.52 292.606 907.622 290.158C908.603 287.985 908.521 285.392 907.644 283.2C906.894 281.325 905.55 279.835 903.684 279.037C902.023 278.327 900.392 278.552 898.65 278.724C896.3 279.533 894.633 280.716 893.545 283.023C892.55 285.133 892.547 287.627 893.351 289.797C894.099 291.812 895.521 293.535 897.497 294.436C898.995 295.12 900.628 295.069 902.228 294.821Z" fill="black"/>
<path d="M842.336 275.744C846.286 274.785 850.443 276.028 853.217 278.998C855.994 281.968 856.959 286.204 855.741 290.085C854.527 293.966 851.317 296.891 847.343 297.738C841.319 299.027 835.38 295.227 834.011 289.213C832.642 283.201 836.349 277.199 842.336 275.744ZM846.96 294.763C849.254 293.938 850.797 293.018 851.891 290.741C852.97 288.495 853.057 285.686 852.194 283.358C851.494 281.475 850.117 279.961 848.29 279.127C846.578 278.345 844.816 278.476 842.989 278.687C840.799 279.479 839.309 280.525 838.3 282.691C837.232 284.988 837.271 288.025 838.19 290.367C838.899 292.168 840.178 293.632 841.965 294.414C843.548 295.106 845.285 294.985 846.96 294.763Z" fill="black"/>
<path d="M64.6797 116.896C65.8023 114.159 67.791 111.124 69.4112 108.319C76.1767 96.6063 85.3503 86.5076 96.2517 78.5449C96.5384 78.3355 96.8006 78.5489 97.0536 78.6823C95.4093 82.7764 89.7968 88.5912 87.5259 93.1548C84.6554 98.9227 81.356 104.422 79.1273 110.595C77.9116 113.441 76.6228 115.924 75.4799 118.899C74.267 122.057 73.5595 125.12 72.5046 128.162C72.3761 127.059 72.6257 125.522 72.1411 124.932L71.2619 124.934C70.8493 124.756 65.9876 119.159 65.6559 118.487C66.1048 117.832 66.3463 117.62 66.3968 116.862L66.2903 116.806C65.7574 116.858 65.2154 116.873 64.6797 116.896Z" fill="#25AB7A"/>
<path d="M38.8359 116.194C39.4133 114.354 41.7997 110.385 42.9272 108.495C50.6956 95.4712 58.6796 87.3881 70.3284 78.0859C71.0952 79.5112 67.0332 83.8583 66.0421 85.4497C57.8374 98.6196 51.0365 112.743 46.3294 127.545C46.1954 126.307 46.5259 125.223 46.1105 124.253L45.3009 125.008L44.7919 124.914C43.2864 122.805 41.1709 120.682 39.576 118.637C39.1994 118.155 40.1652 117.382 39.9088 116.391L38.8359 116.194Z" fill="#25AB7A"/>
<path d="M601.836 269.679C603.368 269.652 604.54 269.434 605.732 270.253C609.319 277.12 611.641 285.187 615.135 292.19C615.624 293.169 617.608 296.31 617.555 297.214C617.018 297.619 616.326 297.484 615.635 297.526C611.511 297.771 612.068 291.497 609.232 289.319C608.644 288.869 607.228 288.984 606.472 288.995L597.702 289.035C596.192 292.133 595.158 298.289 591.051 297.36L590.852 296.918C591.408 294.652 600.875 270.693 601.836 269.679ZM598.671 286L604.448 285.989C605.918 285.953 607.483 285.944 608.942 285.868C607.717 282.516 606.137 277.91 604.467 274.843C604.102 274.701 603.888 274.601 603.5 274.517C602.05 278.5 600.144 282.181 598.671 286Z" fill="black"/>
<path d="M926.697 282.525C929.37 274.07 941.147 272.782 945.858 280.102C946.181 280.603 946.19 280.684 946.651 281.052C947.028 283.105 946.977 285.632 946.836 287.732C942.539 287.712 933.198 287.42 929.274 287.817C929.662 289.601 929.836 290.473 930.82 292.007C932.619 294.816 935.362 295.514 938.53 294.78C941.04 294.197 942.921 292.114 944.756 290.423C945.192 290.473 945.574 290.521 945.898 290.558C949.411 293.232 941.274 298.354 937.324 298.059C930.084 297.516 928.046 295.45 926.179 288.824C926.112 286.527 926.019 284.726 926.697 282.525ZM929.704 284.979L939.745 284.968C940.903 284.982 942.246 285.146 943.283 284.563C943.694 283.997 943.947 283.733 943.795 282.984C943.587 281.959 942.884 280.868 942.381 279.966L940.492 278.695C938.48 278.461 936.374 278.132 934.353 278.407C932.563 279.052 931.171 279.773 930.356 281.582C929.884 282.629 929.819 283.851 929.704 284.979Z" fill="black"/>
<path d="M465.727 275.357C474.536 274.638 476.911 280.068 476.88 287.698C474.156 287.844 461.21 287.354 459.959 288.154C458.688 290.493 461.128 292.528 462.829 293.834C465.167 295.629 471.525 295.415 472.937 292.604C473.091 292.08 473.375 290.898 473.881 290.704C475.022 290.262 475.924 290.245 476.414 291.435C476.068 294.225 471.804 297.487 469.133 297.881C466.32 298.297 463.028 297.701 460.65 296.13C455.608 292.803 455.172 284.222 458.334 279.514C460.141 276.845 462.595 275.897 465.727 275.357ZM459.782 285.058C462.384 285.024 464.996 285.03 467.596 284.939C469.547 284.872 471.525 284.869 473.468 284.706C473.043 282.637 472.644 280.56 470.73 279.324C469.119 278.285 467.025 278.335 465.19 278.453C463.371 278.901 461.814 279.369 460.808 281.068C460.108 282.252 459.897 283.707 459.782 285.058Z" fill="black"/>
<path d="M525.231 285.422C525.259 283.199 525.504 281.267 523.834 279.541C521.324 276.946 517.456 278.213 515.095 280.232C514.325 281.82 515.652 284.508 512.484 284.012C510.567 282.692 511.587 279.917 512.574 278.353C514.943 274.609 523.264 274.541 526.305 277.382C530.15 280.991 528.79 292.363 528.689 297.452C527.722 297.463 525.878 297.576 525.057 297.277C524.697 296.599 524.731 296.36 524.661 295.572C522.614 295.839 521.063 297.379 518.991 297.705C516.886 298.037 514.848 297.795 512.785 297.328C512.054 296.548 511.166 295.667 510.595 294.786C510.055 292.445 509.932 290.894 510.758 288.659C513.726 284.33 520.734 285.569 525.231 285.422ZM520.264 294.803C522.42 293.83 524.343 292.462 525.237 290.148C525.349 289.853 525.27 289.523 525.248 289.211C523.609 287.657 519.756 288.296 517.541 288.327C516.2 288.471 514.946 288.502 513.999 289.602C513.51 290.168 513.268 290.871 513.333 291.62C513.428 292.698 514.137 293.627 514.986 294.246C516.298 295.2 517.785 295.293 519.34 295.014C519.652 294.958 519.958 294.885 520.264 294.803Z" fill="black"/>
<path d="M631.98 279.511C638.462 271.407 651.47 275.492 649.447 286.455C648.896 289.444 649.736 294.105 649.171 297.148C647.546 298.814 645.905 296.624 645.368 294.975C644.48 294.893 643.887 295.952 643.443 296.653C639.772 298.282 636.112 298.71 632.52 296.602C630.234 293.889 630.279 291.916 631.69 288.738C634.841 284.28 641.031 285.287 645.95 285.397C645.958 283.047 646.155 281.946 644.469 280.112C642.464 277.938 638.363 277.321 636.202 279.513C635.013 280.719 635.007 283.348 632.916 284.116C632.05 283.652 632.348 283.922 631.82 283.008C631.783 281.651 631.842 280.869 631.98 279.511ZM641.506 294.584C642.855 294.058 643.856 293.419 645.022 292.577C645.337 291.479 645.773 290.362 645.573 289.211C645.197 288.628 645.025 288.307 644.308 288.105C642.622 287.623 639.665 288.271 637.787 288.307C636.309 288.679 634.945 289.242 634.099 290.596C633.725 291.189 633.627 291.916 633.852 292.583C634.189 293.573 635.052 294.235 635.983 294.626C637.708 295.349 639.746 295.045 641.506 294.584Z" fill="black"/>
<path d="M875.112 269.68L878.814 269.705L878.882 269.829C882.01 275.663 883.556 282.561 886.763 288.607C887.725 291.151 889.24 294.765 890.496 297.143C883.615 297.948 886.375 293.009 883.444 289.719C882.075 288.179 873.409 288.815 871.205 288.849C869.912 291.233 868.285 296.597 866.072 297.467C865.212 297.478 864.524 297.608 863.852 297.141C863.787 296.116 874.148 272.79 875.112 269.68ZM871.753 286.054L877.695 286.099L881.999 286.124C880.281 282.84 879.101 278.32 877.471 274.898C877.406 274.761 876.655 274.297 876.428 274.204C875.098 278.421 873.538 282.04 871.753 286.054Z" fill="black"/>
<path d="M743.277 275.367C748.986 275.667 752.21 277.761 752.224 283.952C752.23 286.466 752.854 295.407 752.05 297.259C750.976 297.561 750.569 297.465 749.492 297.355C748.815 296.86 748.916 296.108 748.702 295.025C747.938 294.726 745.591 297.2 743.848 297.524C737.481 298.709 732.852 296.758 734.016 289.553C738.142 283.24 742.294 286.536 747.876 285.013C749.467 284.58 747.772 277.707 743.859 277.836C738.954 277.997 738.968 281.726 736.987 283.6C736.006 283.944 735.885 283.955 734.859 283.786C732.692 282.081 734.822 279.672 736.27 278.367C738.519 276.342 740.348 275.706 743.277 275.367ZM744.849 294.493C746.355 293.902 747.898 293.412 748.556 291.774C748.958 290.775 748.851 289.556 748.823 288.498C746.024 288.177 743.246 288.045 740.438 288.304C739.089 288.709 737.63 289.275 736.888 290.575C736.599 291.087 736.517 291.65 736.689 292.219C736.987 293.212 737.881 293.913 738.786 294.33C740.68 295.205 742.878 295.013 744.849 294.493Z" fill="black"/>
<path d="M656.27 297.52C655.688 297.523 653.051 297.678 653.026 296.735C652.835 290.115 652.714 283.225 653.082 276.6C653.096 276.334 653.453 276.096 653.692 276.083C656.363 275.428 655.604 277.525 656.717 278.098C657.524 277.572 659.952 275.914 660.635 275.749C665.394 274.275 666.929 275.972 670.572 278.605C672.182 279.771 672.747 276.391 675.485 275.866C678.327 275.321 680.539 274.954 683.277 276.402C685.421 277.536 686.38 279.108 687.024 281.323C687.507 285.857 686.63 294.382 687.268 297.653C686.49 297.593 685.618 297.591 684.859 297.422C681.781 296.738 685.483 283.985 682.779 280.474C681.753 279.143 680.033 278.698 678.436 278.581C676.55 278.443 674.765 278.765 673.298 280.009C672.981 280.424 672.132 281.528 672.089 281.989C671.786 285.271 671.378 290.867 671.834 294.027C671.808 295.091 671.873 296.392 671.471 297.332C670.577 297.526 669.076 297.571 668.376 296.969C668.064 295.333 668.18 284.261 668.16 281.961C665.287 277.975 661.799 277.377 657.574 280.016C655.415 282.386 655.8 285.133 655.761 288.224C655.727 291.033 655.545 294.661 656.225 297.337L656.27 297.52Z" fill="black"/>
<path d="M950.067 280.123C954.997 273.391 965.293 273.361 966.634 282.431C966.749 283.21 967.047 297.317 967.039 297.348C965.816 297.57 965.481 297.539 964.256 297.478L963.846 297.086C963.916 296.405 963.966 295.91 963.972 295.223L963.545 294.961C962.215 295.285 961.035 296.391 959.787 296.931C953.853 299.49 949.712 297.928 948.062 291.772C950.294 284.44 956.504 284.975 963.002 285.49C963.073 283.191 963.39 281.544 961.709 279.693C959.55 277.313 956.346 277.953 954.215 280.019C952.27 282.102 953.679 284.398 949.659 283.16C949.819 282.18 949.937 281.115 950.067 280.123ZM959.067 294.756C960.709 294.049 962.541 292.938 963.188 291.145C963.362 290.655 963.297 290.247 963.168 289.757C962.555 288.8 961.889 288.46 960.799 288.198C959.424 287.866 957.434 288.158 956.012 288.279C954.57 288.499 953.31 288.668 952.369 289.926C951.916 290.528 951.747 291.212 951.866 291.955C952.023 292.949 952.7 293.745 953.521 294.286C955.182 295.383 957.212 295.161 959.067 294.756Z" fill="black"/>
<path d="M704.678 285.903C704.706 283.477 704.979 281.399 703.157 279.435C700.821 276.914 697.254 278.303 695.124 280.315C694.205 281.185 694.654 283.887 692.495 283.834C691.61 283.837 691.023 283.885 690.362 283.325C690.151 275.342 700.776 273.716 706.634 277.881C709.099 282.93 707.753 288.63 707.919 294.093C707.947 295.022 707.795 296.39 707.286 297.175C705.456 297.986 704.009 297.502 703.621 295.455C702.587 295.424 701.454 296.652 700.63 297.383C697.327 297.881 691.697 298.126 689.963 294.428C689.426 292.221 689.738 291.129 690.191 288.942C693.954 284.203 699.239 285.374 704.678 285.903ZM700.186 294.757C702.207 293.899 703.798 292.722 704.653 290.592C704.846 290.108 704.827 289.7 704.712 289.201C704.234 288.548 703.781 288.295 702.977 288.166C701.094 287.862 698.778 288.095 696.878 288.264C695.5 288.681 693.963 289.168 693.268 290.566C692.956 291.194 692.931 291.892 693.218 292.534C693.696 293.609 694.854 294.36 695.947 294.709C697.35 295.157 698.758 295.013 700.186 294.757Z" fill="black"/>
<path d="M91.5156 241.938C98.2544 245.655 105.035 250.579 111.969 254.367C121.195 259.408 129.677 262.758 139.496 266.325C135.695 266.448 134.051 265.568 130.567 264.133C129.229 265.567 125.943 268.74 125.597 270.426C126.317 272.013 129.802 271.582 130.772 274.749C114.964 267.021 102.239 255.754 91.5156 241.938Z" fill="#25AB7A"/>
<path d="M122.501 296.278C118.91 295.869 103.017 281.303 99.9878 277.891C98.0888 275.752 95.7642 272.258 93.4051 270.141L93.1572 269.923L93.1484 269.32L93.5307 268.953C95.3662 270.409 97.428 271.503 99.3076 272.826C108.642 279.394 118.855 284.296 129.414 288.636L128.248 288.912L128.282 289.25C129.886 290.147 130.949 290.156 132.596 291.102C131.51 292.303 127.548 296.458 127.097 297.589C125.236 297.744 124.427 294.839 122.501 296.278Z" fill="#25AB7A"/>
<path d="M531.875 269.036C532.971 268.985 533.871 268.803 534.779 269.336C535.987 270.745 535.493 275.925 535.757 278.72C539.363 275.221 544.237 273.803 548.31 277.068C552.217 280.196 550.885 292.588 551.068 297.384C549.924 297.429 548.493 297.356 547.324 297.331L547.236 284.17L547.22 283.987C546.674 278.116 543.36 278.301 538.615 279.042C537.244 280.178 536.732 280.752 535.568 282.115C535.498 284.584 536.035 295.31 535.768 296.7C534.756 297.821 533.562 297.871 532.344 296.928C532.207 295.834 532.162 294.753 532.167 293.649C532.21 285.442 532.032 277.242 531.875 269.036Z" fill="black"/>
<path d="M755.763 269.121L757.857 269.124C761.328 271.204 756.727 277.084 759.757 278.465C761.176 275.634 766.534 275.145 769.213 275.615C773.792 276.418 774.761 282.381 774.618 286.237C774.506 289.257 775.034 294.011 774.357 296.879C773.232 297.943 772.052 297.509 771.057 296.606C770.57 295.612 770.798 286.223 770.795 284.481C770.908 282.19 769.724 279.122 767.228 278.691C755.372 276.645 760.479 291.554 758.939 297.318C758.202 297.67 757.927 297.549 757.075 297.445C755.189 296.187 755.715 292.221 755.858 290.13C756.17 285.559 754.512 272.873 755.763 269.121Z" fill="black"/>
<path d="M487.578 269.703C488.61 269.621 489.847 269.504 490.754 269.947C491.162 272.182 490.881 279.378 491.17 282.692C495.114 279.999 501.259 272.337 505.759 269.815C506.206 269.564 508.949 269.682 509.669 269.702C508.218 270.568 495.994 282.065 493.984 283.962L500.806 289.948C504.084 292.248 507.235 294.713 510.332 297.247C508.87 297.272 507.288 297.202 505.821 297.165C503.178 295.414 501.042 293.88 498.577 291.893C496.283 290.044 493.568 287.483 491.131 285.957C491.12 287.624 491.162 296.16 490.842 297.23C489.908 297.686 489.152 297.57 488.34 296.931C488 296.416 487.688 295.628 487.733 294.992C488.295 286.588 487.885 278.12 487.578 269.703Z" fill="black"/>
<path d="M246.502 80.1414C246.767 78.2193 244.116 78.975 243.156 77.1492C243.547 75.369 245.11 75.2463 245.707 74.4365C248.879 70.1319 248.06 74.0822 251.627 73.2989C253.844 74.7129 257.29 77.208 259.256 78.7864C262.202 81.1532 275.963 94.1351 276.147 96.6589C275.378 96.8033 274.971 96.4977 274.247 96.0065C268.884 92.3693 263.426 88.9042 257.759 85.757C254.405 83.894 249.599 82.0223 246.502 80.1414Z" fill="#25AB7A"/>
<path d="M785.819 269.122C786.963 269.085 788.031 268.903 788.981 269.441C789.906 271.268 788.515 282.677 788.475 285.54C792.118 282.145 795.643 279.15 799.609 276.122C800.905 275.952 802.634 275.981 803.975 275.964C799.199 280.019 796.616 281.886 791.964 286.553C794.01 288.872 796.332 290.876 798.679 292.877C800.124 294.09 803.466 296.018 803.887 297.22C800.337 299.264 791.16 289.905 788.624 287.504C788.647 290.206 789.44 294.451 788.633 296.522C787.688 297.459 786.353 297.8 785.383 296.736C784.81 292.903 785.296 272.869 785.819 269.122Z" fill="black"/>
<path d="M554.318 275.9C555.377 275.831 556.49 275.652 557.508 276.021C559.903 279.466 553.331 296.717 564.926 294.988C573.769 293.671 567.815 279.415 570.432 275.993C571.767 275.691 572.2 275.637 573.193 276.51C573.699 277.655 573.415 280.378 573.367 281.808C573.339 284.079 573.566 296.052 572.526 297.192C571.593 297.409 571.464 297.409 570.514 297.288C569.51 296.486 570.25 296.812 569.701 295.394C567.956 295.475 566.036 297.769 562.497 297.907C551.681 298.324 554.346 283.992 554.318 275.9Z" fill="black"/>
<path d="M545.207 144.105C544.631 144.235 544.901 144.273 544.378 143.967C543.279 135.081 543.546 127.474 543.566 118.522L543.715 87.8545C543.816 76.1031 543.698 64.3075 543.951 52.5657C544.013 49.598 543.892 45.5318 544.066 42.7581C544.845 42.4243 544.62 42.3744 545.224 42.5948C545.778 44.1625 545.46 57.9081 545.449 60.491L545.168 119.807L545.258 135.752C545.278 137.653 545.441 142.37 545.207 144.105Z" fill="white" fill-opacity="0.0117647"/>
<path d="M437.447 269.697C439.907 269.539 456.952 269.561 458.706 270.05C459.066 270.865 458.928 272.035 458.905 272.975L450.054 273.033C449.93 278.405 449.947 283.744 449.953 289.117C449.95 290.443 450.029 296.145 449.756 297.054C449.053 297.513 447.763 297.648 447.001 297.28C445.902 294.606 446.549 277.199 446.701 272.95C443.808 272.822 439.693 273.576 437.798 272.397C437.18 271.259 437.411 271.187 437.447 269.697Z" fill="black"/>
<path d="M618.743 275.673C618.765 274.169 618.476 271.596 619.027 270.44C622.931 267.328 622.184 274.191 622.108 275.876C624.587 275.876 627.381 275.489 629.419 276.949V277.906C627.996 279.3 623.811 278.933 621.976 278.884C621.787 282.654 621.377 289.795 622.625 293.426C623.224 295.168 626.883 294.135 628.781 294.74C629.034 295.43 629.481 296.561 629.674 297.228C616.03 300.372 618.633 288.461 618.521 278.966C616.922 278.934 616.247 279.222 615.19 277.975C615.103 275.951 617.225 275.842 618.743 275.673Z" fill="black"/>
<path d="M915.109 269.849C916.63 269.752 917.08 269.544 918.122 270.459C918.62 271.614 918.367 274.305 918.353 275.779C920.306 275.846 924.29 275.335 925.644 276.63C925.962 277.595 925.956 277.186 925.656 278.176C924.363 279.353 920.436 278.86 918.333 278.872C918.221 284.273 917.518 289.936 919.427 294.85C921.58 294.678 922.78 294.509 924.933 294.898C925.737 295.565 926.122 295.984 925.793 297C924.278 298.309 919.41 298.219 917.791 296.978C912.97 293.226 915.879 285.255 914.983 280.076C914.592 277.818 911.944 279.663 911.57 277.316C912.467 275.511 913.142 275.725 915.042 275.565L915.109 269.849Z" fill="black"/>
<path d="M276.564 268.918C264.126 288.353 237.59 304.064 215.492 309.406C216.51 308.081 218.164 307.704 219.726 307.239C230.468 304.168 239.733 299.229 249.124 293.341C258.553 287.427 264.653 281.172 272.121 273.106C271.154 273.38 267.342 276.041 266.193 276.776C260.911 280.157 233.768 294.191 228.975 292.609L228.717 292.522C241.662 288.182 251.278 284.219 263.134 277.264C266.372 275.365 273.985 270.025 276.564 268.918Z" fill="#65FD01" fill-opacity="0.905882"/>
<path d="M563.937 42.2383L564.488 42.6889C564.732 45.2592 564.555 51.1402 564.555 53.8974L564.558 76.0275C564.598 95.2606 566.07 114.626 564.3 133.789C564.114 135.775 564.657 142.448 563.903 143.802C563.394 137.774 563.74 128.166 563.763 121.897L563.628 89.5996L563.566 57.3477C563.566 54.6477 563.42 44.3917 563.937 42.2383Z" fill="white" fill-opacity="0.027451"/>
<path d="M979.295 275.932C980.006 275.908 981.01 275.767 981.668 276.045C982.03 276.198 982.21 276.415 982.339 276.785C982.55 277.388 982.646 278.354 982.384 278.939C980.734 279.56 979.099 279.455 977.418 279.823C975.81 280.175 974.874 281.712 974.022 282.97C973.598 286.607 974.539 295.031 973.811 297.24C973.612 297.33 973.485 297.398 973.28 297.451C972.499 297.646 971.321 297.572 970.652 297.125C970.801 292.045 969.286 280.517 970.351 276.363C970.531 276.273 970.641 276.208 970.823 276.15C971.596 275.904 972.454 276.023 973.151 276.414C973.766 277.306 973.404 278.932 973.519 280.029L973.794 279.281C975.933 277.728 976.529 276.482 979.295 275.932Z" fill="black"/>
<path d="M727.039 269.609C728.059 269.639 729.718 269.526 730.404 270.124C730.682 279.513 730.772 287.477 730.629 296.878C729.797 297.551 728.548 297.492 727.427 297.545C727.225 297.12 727.171 272.333 727.039 269.609Z" fill="black"/>
<path d="M483.203 223.594L484.446 223.378C485.072 222.343 484.021 174.645 485.039 172.949C485.162 172.741 485.449 172.744 485.674 172.684L486.045 172.952C486.284 174.905 486.124 178.093 486.126 180.204L486.157 193.927L486.177 214.607C486.183 218.467 486.365 223.253 486.045 227.015C484.89 225.766 484.209 224.963 483.203 223.594Z" fill="white" fill-opacity="0.0156863"/>
<path d="M883.854 120.829C883.337 119.111 883.857 108.98 883.865 106.392L883.649 70.6567C884.216 70.107 884.138 70.2953 885.206 70.2671C885.552 79.0804 885.417 88.4042 885.391 97.2504C885.375 103.592 886.167 115.254 883.854 120.829Z" fill="white" fill-opacity="0.0156863"/>
<path d="M779.238 275.888C780.036 275.865 780.801 275.753 781.523 276.146C782.085 278.897 781.768 292.89 781.523 295.936C781.461 296.701 781.478 296.851 780.891 297.343C779.91 297.326 778.948 297.374 778.012 297.039C777.835 293.386 777.366 279.25 778.285 276.501C778.378 276.222 778.968 276.027 779.238 275.888Z" fill="black"/>
<path d="M579.045 275.852C580.11 276.118 580.388 275.971 580.855 276.706C581.282 283.267 580.655 290.762 580.866 297.429C579.902 297.365 578.151 297.424 577.128 297.427C577.198 294.345 577.569 278.255 576.984 276.329C577.58 276.23 578.435 275.997 579.045 275.852Z" fill="black"/>
<path d="M835.469 120.85C834.918 120.63 834.521 120.209 834.075 119.811C833.569 115.506 833.369 71.2783 833.982 70.3906L835.193 70.2656C835.306 80.9905 835.143 91.698 835.168 102.418C835.182 108.27 834.853 115.078 835.469 120.85Z" fill="white" fill-opacity="0.0156863"/>
<path d="M712.007 275.941C713.095 275.903 714.197 275.969 715.285 276C715.13 283.148 714.858 290.298 714.992 297.447C714.329 297.483 713.635 297.548 712.974 297.506C712.317 297.466 712.047 297.317 711.642 296.824C711.496 294.714 711.642 277.05 712.007 275.941Z" fill="black"/>
<path d="M546.039 42.0399C548.291 41.549 562.44 41.6194 564.661 42.2152C565.504 42.9465 565.223 54.6782 565.223 56.6621L565.232 79.5826L565.44 141.905C565.434 142.684 565.487 143.54 565.111 144.154C564.641 144.178 564.327 144.214 563.854 144.141L563.905 143.802C564.658 142.448 564.116 135.776 564.301 133.789C566.072 114.627 564.599 95.2611 564.56 76.0281L564.557 53.8979C564.557 51.1408 564.734 45.2598 564.49 42.6895L563.939 42.2389C558.106 41.9495 551.846 42.417 546.039 42.0399Z" fill="white" fill-opacity="0.0117647"/>
<path d="M622.453 41.9969C624.547 41.6622 628.651 41.7616 630.908 41.7678L644.566 41.8097C656.976 41.8162 672.256 41.412 684.45 41.8311C684.424 43.2921 684.379 56.5516 684.126 57.0486C683.621 57.1578 683.477 57.2136 682.951 57.229C682.614 53.2467 682.828 46.4031 682.85 42.1891C678.179 41.9856 672.4 42.1466 667.596 42.1469L638.526 42.148C634.031 42.1483 626.743 42.3467 622.453 41.9969Z" fill="white" fill-opacity="0.0156863"/>
<path d="M826.664 208.395C829.076 210.839 828.382 223.202 828.356 227.063C828.339 229.524 828.314 240.227 827.288 241.602L826.923 241.331C826.639 238.043 826.791 233.711 826.819 230.338C826.92 223.276 826.861 215.447 826.664 208.395Z" fill="white" fill-opacity="0.01"/>
<path d="M952.52 204.238C954.794 209.658 954.33 215.766 954.333 221.599L954.319 241.475L953.574 241.399C953.144 240.864 953.349 224.78 953.242 222.698C952.944 216.889 952.331 210.032 952.52 204.238Z" fill="white" fill-opacity="0.0117647"/>
<path d="M727.435 297.545C726.611 297.663 726.302 297.576 725.714 297.058C725.338 294.88 726.757 288.04 726.631 285.473C726.473 282.256 724.562 272.661 726.004 269.904L727.047 269.609C727.179 272.333 727.232 297.12 727.435 297.545Z" fill="white" fill-opacity="0.01"/>
<path d="M579.047 275.853C580.25 275.673 581.113 275.469 582.13 276.17C582.33 278.956 582.628 295.805 582.125 297.122C581.574 297.445 581.487 297.417 580.868 297.431C580.657 290.764 581.284 283.268 580.857 276.708C580.39 275.972 580.112 276.119 579.047 275.853Z" fill="white" fill-opacity="0.0117647"/>
<path d="M513.711 270.75C516.269 270.741 522.998 270.587 525.058 270.961C525.55 271.685 525.39 272.165 525.427 273.175C523.633 273.356 515.889 273.378 514.183 273.151C513.632 272.307 513.787 271.878 513.711 270.75Z" fill="black"/>
<path d="M827.662 73.8007C827.645 72.6459 827.51 71.4981 828.013 70.4829L828.345 70.4297C829.393 72.5319 830.079 86.9397 829.199 88.1755C828.755 88.1854 828.314 88.2279 827.889 88.1176C827.631 83.8014 827.721 78.2148 827.662 73.8007Z" fill="white" fill-opacity="0.0156863"/>
<path d="M577.126 297.426L575.949 297.201C575.209 295.996 576.008 279.014 576.497 276.531L576.983 276.328C577.568 278.255 577.197 294.344 577.126 297.426Z" fill="white" fill-opacity="0.0117647"/>
<path d="M687.023 281.324C687.605 281.535 688.002 281.538 688.246 282.075C689.014 283.758 688.165 288.411 688.423 289.796C689.23 289.421 689.269 289.112 690.191 288.943C689.739 291.13 689.427 292.222 689.964 294.428C689.278 294.299 689.039 294.245 688.468 293.846C688.42 295.002 688.659 296.767 688.196 297.51C687.957 297.55 687.49 297.648 687.268 297.654C686.63 294.383 687.507 285.858 687.023 281.324Z" fill="white" fill-opacity="0.0509804"/>
<path d="M368.435 160.621C371.3 163.108 371.165 179.919 368.43 182.216C369.099 176.621 369.051 166.169 368.435 160.621Z" fill="white" fill-opacity="0.0117647"/>
<path d="M656.267 297.519L656.222 297.336C655.542 294.66 655.725 291.032 655.758 288.223C655.798 285.133 655.413 282.385 657.571 280.016C657.529 282.062 657.341 296.624 656.981 297.289L656.267 297.519Z" fill="white" fill-opacity="0.0117647"/>
<path d="M886.766 288.607C887.328 288.703 887.606 288.801 888.16 288.643C888.759 287.439 888.002 287.005 888.255 285.35C888.82 284.543 888.506 284.802 889.605 284.461C888.879 288.055 889.942 291.776 892.455 294.444H891.002C890.254 295.522 890.886 295.77 890.498 297.143C889.242 294.765 887.727 291.151 886.766 288.607Z" fill="white" fill-opacity="0.027451"/>
<path d="M797.095 70.2188L798 70.3035C799.501 72.2604 797.01 75.5577 798.939 77.549L800.381 77.598L796.892 82.0256C796.735 79.081 796.65 73.0198 797.095 70.2188Z" fill="white" fill-opacity="0.0156863"/>
<path d="M671.837 294.026C671.381 290.865 671.789 285.27 672.092 281.988C672.135 281.527 672.983 280.423 673.301 280.008C673.363 285.613 673.11 288.251 672.135 293.736L671.837 294.026Z" fill="white" fill-opacity="0.0117647"/>
<path d="M882.781 137.618C883.498 136.703 884.083 136.082 884.887 135.242C885.283 138.126 885.57 141.371 885.55 144.283C882.733 144.235 884.139 140.446 883.52 138.045L882.781 137.618Z" fill="white" fill-opacity="0.0156863"/>
<path d="M628.781 294.742L629.225 294.804C630.226 293.945 628.635 289.934 631.691 288.738C630.279 291.916 630.234 293.889 632.52 296.602C631.778 296.47 631.429 296.374 630.681 296.419L630.26 297.244L629.675 297.23C629.481 296.563 629.034 295.431 628.781 294.742Z" fill="white" fill-opacity="0.0745098"/>
<path d="M946.648 281.049C947.731 281.737 947.863 282.092 948.889 281.94C949.414 281.246 949.639 280.882 950.066 280.121C949.937 281.114 949.819 282.179 949.659 283.158L948.644 283.302C947.925 284.951 949.06 286.038 948.003 287.687L946.834 287.729C946.974 285.629 947.025 283.102 946.648 281.049Z" fill="white" fill-opacity="0.0117647"/>
<path d="M778.446 269.101C780.014 269.011 781.226 268.603 782.153 269.951C782.165 270.946 782.142 271.155 781.914 272.124C780.357 272.176 779.224 272.513 778.198 271.267C778.151 270.246 778.181 270.091 778.446 269.101Z" fill="black"/>
<path d="M711.615 269.06C712.705 269.054 714.195 268.839 714.982 269.41C715.483 270.237 715.317 271.146 715.283 272.161C714.178 272.223 713.034 272.435 712.107 271.949C711.483 271.151 711.629 270.142 711.615 269.06Z" fill="black"/>
<path d="M298.047 77.8281C300.81 79.6145 302.64 80.8636 304.936 83.2481C304 83.1719 303.624 83.0354 302.766 82.6683C302.392 83.3163 302.556 83.884 302.572 84.743C301.054 82.6132 299.461 80.0505 298.047 77.8281Z" fill="#65FD01" fill-opacity="0.901961"/>
<path d="M275.407 256.211L275.151 258.588C275.502 259.015 275.377 258.938 275.823 259.229C275.085 260.087 274.159 260.731 273.316 261.481C272.42 262.278 272.446 261.672 271.523 262.567C271.636 260.529 274.058 257.94 275.407 256.211Z" fill="#11929E" fill-opacity="0.92549"/>
<path d="M328.479 260.105C328.431 260.939 328.383 261.767 328.321 262.6C328.962 262.654 329.55 262.395 330.179 262.317C328.959 263.437 327.099 265.379 325.533 265.687L325.367 265.269C325.98 263.507 327.394 261.723 328.479 260.105Z" fill="#11929E" fill-opacity="0.894118"/>
<path d="M926.18 288.823C923.85 287.751 924.513 285.027 925.247 282.994C925.933 282.353 925.57 282.508 926.698 282.524C926.02 284.725 926.113 286.527 926.18 288.823Z" fill="white" fill-opacity="0.0117647"/>
<path d="M510.594 294.787C507.898 293.707 507.631 289.71 510.757 288.66C509.93 290.895 510.054 292.446 510.594 294.787Z" fill="white" fill-opacity="0.0117647"/>
<path d="M973.793 82.7547C980.612 71.6976 988.701 67.1206 1001.87 68.3675C1011.05 69.359 1018.69 75.4351 1021.66 84.1972C1022.13 85.5909 1023.21 89.6341 1024 90.5122V144.313C1018.3 144.323 1012.58 144.357 1006.88 144.254L1006.88 114.04C1006.89 107.531 1007.24 101.359 1006.25 94.9297C1003.45 76.6561 979.572 80.2317 976.73 96.1658C975.653 102.198 976.027 108.678 976.033 114.803L976.196 144.137L959.592 144.119L959.488 122.68C959.381 115.1 960.326 97.2351 957.824 91.11C957.61 89.9186 955.809 87.5428 954.951 86.641C946.895 77.89 932.003 84.1831 929.698 94.8537C928.481 100.495 928.903 107.963 928.886 113.803L928.979 144.218C924.091 144.444 916.881 144.323 911.987 144.226L911.984 70.437C917.106 70.2664 923.748 70.3379 928.85 70.4598C928.827 73.5696 928.819 76.5812 928.895 79.695C937.524 70.4674 945.709 65.6019 958.858 69.2374C966.507 71.3517 970.167 76.0932 973.793 82.7547Z" fill="black"/>
<path d="M1016.39 167.672C1018.59 167.752 1022.03 167.667 1024 167.867V241.713C1021.57 241.86 1018.34 241.774 1015.85 241.777C1015.84 240.417 1016 234.046 1015.41 233.207C1013.48 235.374 1011.79 237.192 1009.51 238.986C999.721 246.695 984.854 243.979 977.521 234.196C968.47 222.193 970.145 204.791 982.294 195.511C989.903 189.698 1000.96 189.176 1008.89 194.713C1011.32 196.408 1012.84 198.572 1014.58 200.905C1014.89 201.058 1015.2 201.218 1015.52 201.377C1015.9 200.746 1016.27 170.983 1016.39 167.672ZM999.634 235.886C1010 234.861 1017.57 225.623 1016.56 215.245C1015.55 204.867 1006.33 197.273 995.963 198.276C985.582 199.281 977.984 208.527 978.999 218.92C980.014 229.313 989.256 236.912 999.634 235.886Z" fill="black"/>
<path d="M151.024 322.661C196.552 330.967 241.327 321.155 279.913 295.343C280.227 295.132 280.559 294.881 280.861 294.656C279.643 296.683 277.316 299.478 275.708 301.251C254.658 324.434 223.477 337.235 192.611 339.667C191.715 339.737 190.564 339.833 189.688 340.002H177.455C175.657 339.577 169.153 339.38 166.634 339.045C156.969 337.759 148.857 335.87 139.662 332.639C137.23 331.941 132.372 329.858 130.088 328.865C117.121 323.247 105.553 315.138 95.9419 304.763C94.618 303.334 88.7408 297.918 89.0848 296.252C89.7712 296.196 90.2533 296.306 90.8321 296.739C108.869 310.28 129.211 318.175 151.024 322.661Z" fill="url(#paint6_linear_1077_29321)"/>
<path d="M139.662 332.639C137.23 331.941 132.372 329.858 130.088 328.864C117.121 323.246 105.553 315.138 95.9419 304.763C94.618 303.333 88.7408 297.918 89.0848 296.252C89.7712 296.196 90.2533 296.305 90.8321 296.739C108.869 310.28 129.211 318.175 151.024 322.661L150.083 322.869L150.238 323.196C154.741 324.51 168.526 326.084 173.529 326.244C172.202 327.921 164.571 337.575 163.062 337.471C155.792 336.962 148.034 334.192 140.993 332.295C140.822 332.25 139.883 332.563 139.662 332.639Z" fill="#30BB64"/>
<path d="M180.754 0H191.557C198.292 1.04748 204.618 1.13869 211.553 2.49588C232.29 6.55409 257.327 17.6027 271.618 33.5547L271.757 33.7104C270.729 33.5899 269.529 33.2519 268.782 33.6772C268.355 34.9285 269.179 36.1211 269.386 37.2824C268.696 36.9348 267.849 36.4096 267.185 35.9989C239.34 18.7597 205.82 12.5099 173.423 14.8297C167.472 15.2558 161.781 16.1914 155.894 16.9879C151.947 18.4712 145.272 19.243 140.894 20.5362C124.368 25.4172 106.514 32.604 92.3028 42.4901C91.8758 42.4567 91.8651 42.4066 91.4851 42.1924L91.2344 41.0274C96.1992 35.5964 101.108 30.7537 106.875 26.1467C121.814 14.2133 147.701 3.32955 166.904 1.68398C170.623 0.738284 176.728 0.634052 180.754 0Z" fill="#55E920"/>
<path d="M180.759 0H191.561C198.297 1.04748 204.623 1.13869 211.558 2.49588C232.295 6.55409 257.332 17.6027 271.623 33.5547L271.762 33.7104C270.733 33.5899 269.534 33.2519 268.787 33.6772C268.36 34.9285 269.184 36.1211 269.39 37.2824C268.701 36.9348 267.853 36.4096 267.19 35.9989C239.344 18.7597 205.825 12.5099 173.428 14.8297C167.477 15.2558 161.786 16.1914 155.898 16.9879C155.972 16.8998 156.045 16.8112 156.124 16.7288C158.303 14.4729 179.415 13.6564 183.399 13.6535C185.49 11.8268 192.215 3.88729 193.977 1.45499C192.409 -0.238988 170.88 2.10528 166.909 1.68398C170.628 0.738284 176.733 0.634052 180.759 0Z" fill="url(#paint7_linear_1077_29321)"/>
<path d="M12.6888 112.281C14.2845 113.11 17.4861 118.563 19.1634 119.723L19.8128 119.69C19.8333 120.906 19.8323 122.456 19.9255 123.643C19.6232 126.488 17.2142 133.969 16.5503 137.338C15.5686 142.318 15.2135 146.202 14.6305 151.179C10.4564 188.57 21.3375 226.974 40.1437 258.847C41.0061 260.309 43.5123 263.902 43.8839 265.16L43.5873 265.307C42.1642 264.527 37.6114 260.543 36.3018 259.26C20.8402 244.166 10.9343 224.632 4.74171 204.097C2.96153 198.194 2.30751 191.504 1.29177 185.41C1.01084 183.725 1.00789 179.556 0 178.402V158.863C0.345431 159.824 -0.13417 159.587 0.488956 160.395C1.59179 152.599 2.31391 139.993 4.96903 132.499C4.66942 129.497 11.0056 115.519 12.6888 112.281Z" fill="url(#paint8_linear_1077_29321)"/>
<path d="M12.691 112.281C14.2867 113.11 17.4883 118.563 19.1656 119.723L19.815 119.69C19.8355 120.906 19.8345 122.456 19.9277 123.643C19.6254 126.488 17.2164 133.969 16.5525 137.338C15.5708 142.318 15.2157 146.202 14.6327 151.179C14.3847 149.694 14.9452 145.172 13.9912 144.575C13.2812 145.325 13.289 149.526 13.0958 150.886C12.7344 150.679 10.0886 147.588 9.55327 146.935C8.64165 145.823 6.12044 143.198 5.49668 142.241C4.03078 139.99 6.42708 135.371 5.71197 132.891L4.97122 132.499C4.67161 129.497 11.0078 115.519 12.691 112.281Z" fill="#3AC751"/>
<path d="M1001.9 293.747C998.821 299.995 985.933 299.289 983.195 291.923C981.174 286.483 981.559 278.86 987.738 276.468C995.088 273.622 1000.89 276.2 1003.87 283.342C1003.99 287.662 1003.82 289.798 1001.9 293.747ZM993.764 294.69C998.116 294.231 1001.31 290.386 1000.97 286.018C1000.63 281.65 996.876 278.347 992.508 278.57C989.573 278.719 986.951 280.452 985.661 283.094C984.37 285.737 984.615 288.875 986.301 291.284C987.985 293.694 990.844 295 993.764 294.69Z" fill="black"/>
<path d="M12.6875 112.281C18.3313 99.9512 31.5687 80.9776 43.5368 74.6094L43.8005 74.8934C43.407 76.0617 37.2332 84.2434 35.993 86.9135C34.5336 90.056 31.2024 94.9638 29.6163 98.4133C25.8264 106.656 22.6779 115.024 19.9242 123.643C19.831 122.456 19.832 120.906 19.8115 119.69L19.1621 119.723C17.4848 118.563 14.2832 113.11 12.6875 112.281Z" fill="#25AB7A"/>
<path d="M1020.13 285.562C1020.17 279.841 1017.83 276.612 1011.85 278.963C1009.04 280.069 1010.23 285.711 1006.39 283.259C1006.18 282.792 1005.94 282.463 1006.12 281.897C1008.29 275.236 1017.53 272.741 1022.25 278.203C1022.81 278.851 1023.31 280.706 1024 281.756V297.67C1022.94 297.653 1021.93 297.768 1021.05 297.259C1020.46 296.471 1020.53 295.266 1020.45 294.216C1016.67 297.639 1011.66 299.708 1006.79 296.156C1006.33 295.823 1005.93 294.965 1005.28 294.43C1004.98 291.407 1005.31 290.98 1006.53 288.233C1006.97 287.948 1007.26 287.701 1007.59 287.323C1009.77 284.807 1016.59 285.486 1020.13 285.562ZM1016.17 294.577C1017.66 293.924 1019.9 292.888 1020.49 291.208C1020.67 290.698 1020.63 290.259 1020.36 289.786C1019.77 288.787 1018.23 288.311 1017.15 288.143C1015.48 287.881 1013.41 288.097 1011.73 288.297C1010.4 288.641 1009 289.136 1008.21 290.349C1007.88 290.856 1007.73 291.481 1007.87 292.074C1008.11 293.045 1008.95 293.791 1009.79 294.25C1011.76 295.317 1014.08 295.145 1016.17 294.577Z" fill="black"/>
<path d="M959.491 122.679C959.491 125.365 959.774 142.704 959.063 143.998L958.695 143.935C958.198 143.283 957.857 142.425 957.874 141.6C957.961 137.165 957.956 132.709 957.916 128.273L957.703 102.966C957.68 100.403 957.259 92.978 957.827 91.1094C960.328 97.2344 959.384 115.099 959.491 122.679Z" fill="white" fill-opacity="0.0117647"/>
<path d="M1014.58 200.904C1014.58 196.789 1014.3 169.765 1015.01 168.017C1015.6 167.612 1015.65 167.643 1016.4 167.671C1016.28 170.982 1015.9 200.745 1015.52 201.376C1015.21 201.218 1014.89 201.057 1014.58 200.904Z" fill="white" fill-opacity="0.0156863"/>
<path d="M269.389 37.2822C269.182 36.1209 268.358 34.9284 268.785 33.6771C269.532 33.2518 270.732 33.5898 271.76 33.7103C273.315 35.2397 280.837 43.0397 280.976 44.691L280.501 44.9334C278.97 44.0198 270.979 38.4953 269.389 37.2822Z" fill="url(#paint9_linear_1077_29321)"/>
<path d="M1003.86 283.344C1005.9 285.348 1003.85 287.689 1005.02 289.122C1005.93 288.948 1005.71 288.928 1006.53 288.233C1005.31 290.98 1004.98 291.407 1005.28 294.43C1003.66 293.597 1003.68 293.594 1001.89 293.749C1003.81 289.8 1003.99 287.664 1003.86 283.344Z" fill="white" fill-opacity="0.027451"/>
<path d="M86.8438 45.9692C87.8304 44.6601 90.0453 42.0752 91.2343 41.0273L91.4851 42.1923C91.8651 42.4065 91.8758 42.4566 92.3027 42.4901C90.8349 43.7493 88.5379 45.0097 86.8438 45.9692Z" fill="#65FD01" fill-opacity="0.819608"/>
</g>
<defs>
<linearGradient id="paint0_linear_1077_29321" x1="376.418" y1="179.351" x2="307.972" y2="238.505" gradientUnits="userSpaceOnUse">
<stop stop-color="#50E328"/>
<stop offset="1" stop-color="#13959B"/>
</linearGradient>
<linearGradient id="paint1_linear_1077_29321" x1="322.445" y1="180.451" x2="256.679" y2="237.289" gradientUnits="userSpaceOnUse">
<stop stop-color="#50E32A"/>
<stop offset="1" stop-color="#12949D"/>
</linearGradient>
<linearGradient id="paint2_linear_1077_29321" x1="347.76" y1="182.866" x2="283.398" y2="238.541" gradientUnits="userSpaceOnUse">
<stop stop-color="#4EE12D"/>
<stop offset="1" stop-color="#12949D"/>
</linearGradient>
<linearGradient id="paint3_linear_1077_29321" x1="137.064" y1="48.3646" x2="211.881" y2="113.085" gradientUnits="userSpaceOnUse">
<stop stop-color="#65FD02"/>
<stop offset="1" stop-color="#27AE76"/>
</linearGradient>
<linearGradient id="paint4_linear_1077_29321" x1="242.202" y1="281.942" x2="204.671" y2="249.488" gradientUnits="userSpaceOnUse">
<stop stop-color="#66FF01"/>
<stop offset="1" stop-color="#47D73B"/>
</linearGradient>
<linearGradient id="paint5_linear_1077_29321" x1="56.3348" y1="217.566" x2="93.8062" y2="185.14" gradientUnits="userSpaceOnUse">
<stop stop-color="#65FE01"/>
<stop offset="1" stop-color="#42D143"/>
</linearGradient>
<linearGradient id="paint6_linear_1077_29321" x1="244.036" y1="337.146" x2="198.347" y2="297.638" gradientUnits="userSpaceOnUse">
<stop stop-color="#66FF00"/>
<stop offset="1" stop-color="#42D144"/>
</linearGradient>
<linearGradient id="paint7_linear_1077_29321" x1="197.298" y1="-2.52586" x2="256.348" y2="48.5557" gradientUnits="userSpaceOnUse">
<stop stop-color="#47D83A"/>
<stop offset="1" stop-color="#189C91"/>
</linearGradient>
<linearGradient id="paint8_linear_1077_29321" x1="2.83726" y1="219.506" x2="42.6725" y2="185.023" gradientUnits="userSpaceOnUse">
<stop stop-color="#65FE01"/>
<stop offset="1" stop-color="#42D144"/>
</linearGradient>
<linearGradient id="paint9_linear_1077_29321" x1="279.936" y1="43.6582" x2="268.16" y2="33.5373" gradientUnits="userSpaceOnUse">
<stop stop-color="#1091A1" stop-opacity="0.870588"/>
<stop offset="1" stop-color="#199D90"/>
</linearGradient>
<clipPath id="clip0_1077_29321">
<rect width="1024" height="340" fill="white"/>
</clipPath>
</defs>
</svg>
