<svg width="1024" height="175" viewBox="0 0 1024 175" fill="none" xmlns="http://www.w3.org/2000/svg">
<path d="M53.6549 87.9453L9.46094 151.541H17.4425L28.3801 136.048H54.5418L55.7242 143.278C56.5697 149.003 58.0655 151.541 64.7404 151.541H71.3917L60.7496 87.9453H53.6549ZM92.0845 93.1097L78.9298 151.541H93.1191L106.274 93.1097H92.0845ZM117.507 93.1097L120.315 98.1266L108.343 151.541H122.533L134.357 98.4217H138.791C146.956 98.4217 150.361 103.167 149.729 110.226C149.203 116.547 144.526 123.477 130.218 124.982L141.747 145.197C144.715 150.343 146.022 151.541 153.867 151.541H161.406L145.59 126.752C154.068 125.454 163.303 120.142 164.362 110.669C165.633 99.8028 157.805 93.1097 144.556 93.1097H117.507ZM203.53 93.1097L207.225 99.8973L195.697 151.541H203.087L212.842 108.603L234.865 145.197C237.289 149.322 239.459 151.541 246.246 151.541L259.401 93.1097H252.011L242.847 133.54L222.893 99.307C220.019 94.361 218.547 93.1097 212.399 93.1097H203.53ZM272.556 93.1097L259.401 151.541H304.63C303.784 147.516 301.987 145.934 296.796 145.934H275.068L279.946 124.391H302.265L303.595 118.489H281.128L285.563 98.7168H306.255C311.446 98.7168 313.238 97.1291 314.089 93.1097H272.556ZM319.262 93.1097L328.278 151.541H335.078L355.327 116.719L360.205 151.541H367.004L402.181 93.1097H394.643L370.255 133.982L365.526 95.6182C365.318 93.818 363.787 93.1097 361.978 93.1097H352.223L354.145 106.98L338.773 133.982L333.008 95.6182C332.79 93.818 331.264 93.1097 329.461 93.1097H319.262ZM432.334 93.1097C433.179 97.135 434.965 98.7168 440.168 98.7168H466.477L424.796 140.622C421.195 144.264 418.801 146.613 418.588 151.541H472.685C471.84 147.546 470.107 145.952 464.999 145.934H464.852H437.507L477.711 104.619C482.789 99.189 483.936 96.4209 484.362 93.1097H432.334ZM495.299 93.1097L482.292 151.541H527.373C526.51 147.516 524.73 145.934 519.539 145.934H497.812L502.69 124.391H525.008L526.339 118.489H503.872L508.306 98.7168H528.999C534.196 98.7168 535.987 97.135 536.833 93.1097H495.299ZM570.533 93.1097L530.921 151.541H538.902L549.396 136.048H573.193L574.671 143.278C575.954 148.939 577.302 151.541 583.983 151.541H590.782L577.627 93.1097H570.533ZM611.475 93.1097L598.32 151.541H637.636C636.791 147.522 634.846 145.934 629.655 145.934H613.84L625.664 93.1097H611.475ZM680.648 93.1097L641.184 151.541H649.018L659.512 136.048H683.309L684.934 143.278C686.2 148.939 687.565 151.541 694.246 151.541H701.045L687.743 93.1097H680.648ZM716.417 93.1097L720.26 99.8973L708.583 151.541H716.121L725.729 108.603L747.752 145.197C750.206 149.322 752.488 151.541 759.281 151.541L772.288 93.1097H764.897L755.881 133.54L735.78 99.307C732.924 94.361 731.434 93.1097 725.285 93.1097H716.417ZM783.669 93.1097L786.329 98.1266L774.357 151.541H795.937C815.228 151.541 833.219 140.847 836.288 122.326C839.356 104.017 826.148 93.1097 807.466 93.1097H791.65H787.512H783.669ZM800.519 98.5693H804.362C817.812 98.5693 823.984 107.423 821.655 122.326C819.308 137.417 807.17 146.229 793.72 146.229H789.729L800.519 98.5693ZM49.812 105.652L53.6549 129.998H32.6665L49.812 105.652ZM567.133 109.488L571.715 129.998H553.387L567.133 109.488ZM677.396 109.488L681.978 129.998H663.65L677.396 109.488Z" fill="#231F20"/>
<path d="M954.235 9.44531C936.511 9.44531 920.104 22.017 910.78 31.1359C877.613 63.4327 860.083 85.2885 860.083 85.2885H1007.89L1014.54 70.533H895.261C895.261 70.533 904.265 58.221 923.64 39.9892C928.505 35.4445 941.246 24.0532 954.235 24.0532C962.767 24.0532 969.459 29.377 969.459 36.5954C969.459 43.7371 963.399 45.7438 963.399 45.7438C964.032 42.6924 961.98 34.3821 953.94 34.3821C945.604 34.3821 942.115 40.7328 942.115 45.006C942.115 53.7885 950.121 60.0566 959.409 60.0566C977.27 60.0566 985.57 47.3787 985.57 35.1199C985.57 22.7489 973.492 9.44531 954.235 9.44531ZM857.57 92.9613C857.57 92.9613 865.327 115.23 875.603 136.49C884.311 154.604 898.755 165.558 916.397 165.558C932.975 165.558 944.185 152.969 944.185 140.917C944.185 127.277 933.791 118.341 921.423 118.341C908.232 118.341 905.459 128.239 905.459 130.735C905.459 136.49 910.284 141.802 916.397 141.802C926.022 141.802 926.744 134.129 926.744 134.129C926.744 134.129 929.7 136.018 929.7 140.917C929.7 145.627 925.703 151.688 916.397 151.688C908.971 151.688 898.057 147.781 890.531 131.916C881.68 113.342 881.071 107.864 881.071 107.864H997.69L1004.34 92.9613H857.57Z" fill="#231F20"/>
</svg>
