<svg width="1024" height="321" viewBox="0 0 1024 321" fill="none" xmlns="http://www.w3.org/2000/svg">
<path d="M481.456 153.448L555.923 153.471C555.923 153.471 540.592 173.503 523.808 195.427H610.625C626.09 175.199 640.207 156.759 642.274 154.029C652.067 141.249 654.32 129.81 654.32 119.7V105.226C654.32 97.8947 649.804 93.8516 642.96 93.8516L481.456 93.8678C474.807 93.8678 470.344 97.5009 470.344 104.984V142.319C470.344 149.818 474.807 153.448 481.456 153.448Z" fill="#0572E6"/>
<path d="M1.66394 298.46C-0.391557 301.871 -0.382517 305.454 0.820435 307.815C2.23291 310.566 5.40284 312.115 8.89249 312.115L61.7664 312.136C68.4784 312.136 74.3884 308.615 77.7498 303.273L136.08 210.609H56.8986C29.6841 253.899 2.28528 297.423 1.66394 298.46Z" fill="#0572E6"/>
<path d="M219.09 210.609H145.047C146.875 220.865 160.584 297.288 161.382 301.767C162.62 308.709 166.922 312.147 173.32 312.147H224.272C228.948 312.147 231.304 310.702 233.455 308.034C234.949 306.204 235.604 303.389 234.889 299.295L219.09 210.609Z" fill="#0572E6"/>
<path d="M447.183 104.989C447.183 97.5039 442.716 93.8726 436.069 93.8726H391.014C384.367 93.8726 379.892 97.5039 379.892 104.989L379.877 189.611L337.172 113.516C328.75 99.5164 314.342 94.2249 297.674 93.8672L264.435 93.8726C257.772 93.8726 253.312 97.5039 253.312 104.989V195.43H309.203L317.743 210.611H253.314V301.02C253.314 308.512 257.792 312.138 264.437 312.138H309.483C316.144 312.138 320.595 308.514 320.595 301.02V215.868L363.616 292.51C372.036 306.496 386.443 311.762 403.111 312.136H436.067C442.723 312.136 447.19 308.512 447.19 301.008V210.609H391.686L383.154 195.429H447.192L447.183 104.989Z" fill="#0572E6"/>
<path d="M200.18 104.436C198.892 97.3126 194.155 93.8945 187.871 93.8945H165.8C142.773 93.8945 122.523 105.984 111.162 124.236C111.162 124.236 90.0883 157.781 66.4375 195.432H216.371L200.18 104.436Z" fill="#0572E6"/>
<path d="M645.15 252.544L566.955 252.535C566.955 252.535 582.223 232.578 599.028 210.609H512.179C496.347 231.246 482.118 249.814 481.269 250.925C469.678 266.97 468.578 283.186 468.578 294.41V300.748C468.578 308.084 473.105 312.115 479.961 312.115H645.15C651.797 312.115 656.262 308.5 656.262 300.999V263.665C656.262 256.183 651.795 252.544 645.15 252.544Z" fill="#0572E6"/>
<path d="M851.247 93.8819C866.536 93.8819 883.788 106.994 883.808 125.105C883.808 135.266 880.519 143.142 875.727 150.266C872.58 154.936 870.212 160.2 869.291 164.016C868.261 168.361 865.949 178.772 878.857 179.023C887.183 179.168 907.778 171.965 924.421 152.022C937.213 136.032 944.86 115.731 944.86 93.6398C944.86 41.9206 902.959 0 851.248 0H851.239C799.536 0 757.651 41.9206 757.651 93.6398C757.651 115.731 765.265 136.032 778.058 152.022C794.695 171.965 815.322 179.166 823.631 179.023C836.544 178.772 834.246 168.362 833.21 164.016C832.276 160.2 829.917 154.936 826.779 150.266C821.982 143.142 818.698 135.266 818.698 125.105C818.722 106.994 835.95 93.8819 851.239 93.8819H851.247ZM1016.73 188.517C1012.91 185.37 1006.16 180.736 992.373 178.667C973.243 175.78 956.108 180.279 945.79 184.352C932.31 189.662 915.592 201.705 904.079 217.487C891.972 234.133 885.616 259.259 891.67 285.431C893.393 292.871 895.232 296.976 897.931 302.119C901.619 309.176 911.026 318.938 919.369 320.707C925.965 322.089 931.095 318.286 933.555 315.459C950.32 296.215 1013.73 221.697 1020.6 212.145C1027.36 202.733 1022.95 193.682 1016.73 188.517ZM756.69 184.352C746.368 180.279 729.254 175.78 710.111 178.667C696.351 180.736 689.576 185.37 685.765 188.517C679.544 193.682 675.121 202.733 681.89 212.145C688.765 221.697 752.185 296.217 768.936 315.459C771.379 318.286 776.53 322.089 783.137 320.707C791.464 318.938 800.864 309.174 804.574 302.119C807.261 296.976 809.1 292.871 810.827 285.431C816.878 259.259 810.532 234.133 798.411 217.487C786.892 201.705 770.197 189.662 756.69 184.352Z" fill="#0572E6"/>
</svg>
