<svg width="1024" height="1221" viewBox="0 0 1024 1221" fill="none" xmlns="http://www.w3.org/2000/svg">
<path d="M501.432 934.419V609.853C484.162 607.321 468.38 598.661 456.963 585.459C445.545 572.256 439.255 555.389 439.24 537.934V531.898C439.417 528.966 438.718 526.047 437.227 523.517C433.462 519.527 428.811 516.484 423.649 514.631L184.6 422.928L175.547 418.737C168.542 415.519 160.958 413.751 153.252 413.54C147.096 413.664 141.173 415.915 136.488 419.911C125.245 432.68 109.874 441.095 93.0585 443.687C76.2433 446.277 59.0523 442.877 44.4879 434.082C29.9234 425.287 18.9111 411.655 13.3738 395.568C7.83651 379.478 8.12623 361.957 14.1924 346.06C20.2584 330.163 31.7156 316.902 46.5628 308.593C61.41 300.284 78.704 297.456 95.4246 300.601C112.145 303.746 127.23 312.664 138.044 325.799C148.859 338.935 154.716 355.452 154.593 372.467C155.071 378.799 157.807 384.748 162.304 389.23C168.26 394.234 175.157 397.996 182.588 400.296L192.311 403.313L428.679 494.01L431.528 495.184C436.849 497.293 442.595 498.096 448.29 497.531H450.135C448.343 492.056 445.234 487.105 441.083 483.113L256.684 305.239L249.14 298.031C243.981 292.297 237.707 287.677 230.7 284.453C225.237 282.771 219.397 282.771 213.936 284.453C201.024 290.745 186.535 293.065 172.304 291.119C158.073 289.173 144.739 283.049 133.99 273.521C123.241 263.993 115.56 251.49 111.92 237.594C108.28 223.698 108.844 209.034 113.541 195.46C118.238 181.885 126.856 170.009 138.306 161.335C149.755 152.661 163.52 147.579 177.859 146.733C192.197 145.886 206.465 149.312 218.855 156.579C231.246 163.845 241.202 174.624 247.464 187.552C252.021 196.891 254.502 207.108 254.733 217.499C254.965 227.887 252.943 238.204 248.805 247.738C247.068 253.585 247.364 259.85 249.642 265.508C253.179 272.453 258.082 278.612 264.059 283.614L271.436 290.654L453.487 466.348L455.667 468.528C459.501 472.396 464.219 475.273 469.414 476.91H471.425C471.984 471.185 471.06 465.411 468.743 460.145L368.16 224.267L364.137 214.71C361.587 207.449 357.595 200.779 352.403 195.096C348.049 190.982 342.442 188.445 336.477 187.887C319.534 188.684 302.847 183.508 289.33 173.26C275.811 163.013 266.32 148.345 262.509 131.815C258.697 115.284 260.81 97.9406 268.478 82.8087C276.144 67.6766 288.879 55.7161 304.462 49.0136C320.044 42.3109 337.486 41.2914 353.744 46.1326C370.002 50.9739 384.042 61.3689 393.422 75.5046C402.799 89.6402 406.917 106.62 405.058 123.481C403.199 140.343 395.481 156.017 383.249 167.77C379.371 172.511 377.189 178.411 377.045 184.535C377.433 192.528 379.489 200.351 383.081 207.502L386.937 216.89L485.842 449.751L487.015 452.602C489.138 457.6 492.344 462.067 496.403 465.679L498.078 466.516C500.745 461.33 502.123 455.582 502.101 449.751V182.523C502.566 174.842 501.483 167.145 498.917 159.89C496.389 154.498 492.224 150.04 487.015 147.149C471.08 141.249 457.729 129.934 449.295 115.183C440.86 100.431 437.881 83.1843 440.878 66.4581C443.873 49.7322 452.656 34.5924 465.688 23.6881C478.719 12.7835 495.17 6.80859 512.16 6.80859C529.153 6.80859 545.602 12.7835 558.634 23.6881C571.665 34.5924 580.447 49.7322 583.444 66.4581C586.442 83.1843 583.462 100.431 575.028 115.183C566.592 129.934 553.24 141.249 537.305 147.149C531.918 149.988 527.615 154.525 525.069 160.058C522.568 167.442 521.544 175.246 522.052 183.026V448.914C522.018 454.365 523.221 459.753 525.571 464.672C525.888 464.903 526.27 465.029 526.662 465.029C527.054 465.029 527.434 464.903 527.751 464.672C531.809 461.061 535.015 456.596 537.138 451.596L538.312 448.746L637.049 215.884L641.072 206.496C644.394 199.511 646.275 191.927 646.606 184.199C646.462 178.076 644.28 172.176 640.403 167.434C628.17 155.682 620.452 140.008 618.591 123.146C616.732 106.284 620.852 89.3048 630.229 75.1692C639.607 61.0336 653.65 50.6387 669.907 45.7974C686.165 40.956 703.605 41.9757 719.188 48.6782C734.77 55.3809 747.507 67.3412 755.173 82.4733C762.841 97.6055 764.952 114.949 761.142 131.479C757.331 148.01 747.84 162.677 734.321 172.925C720.802 183.172 704.117 188.349 687.172 187.552C680.921 187.949 674.998 190.496 670.41 194.761C665.217 200.442 661.225 207.114 658.675 214.375L654.652 223.931L556.082 458.973C553.906 463.991 552.876 469.432 553.063 474.899C553.38 475.13 553.762 475.256 554.154 475.256C554.546 475.256 554.926 475.13 555.243 474.899C560.438 473.263 565.156 470.385 568.988 466.516L571.168 464.338L753.054 288.644L760.262 281.601C766.14 276.546 770.978 270.397 774.511 263.497C776.598 257.756 776.598 251.464 774.511 245.725C767.818 230.136 766.809 212.691 771.662 196.433C776.514 180.176 786.919 166.139 801.064 156.77C815.207 147.401 832.192 143.295 849.054 145.17C865.915 147.044 881.582 154.778 893.325 167.024C905.067 179.27 912.137 195.25 913.302 212.175C914.466 229.102 909.653 245.901 899.701 259.639C889.747 273.379 875.286 283.188 858.841 287.356C842.394 291.521 825.008 289.782 809.715 282.44C804.252 280.76 798.412 280.76 792.951 282.44C785.944 285.664 779.668 290.286 774.511 296.019L766.967 303.229L582.568 481.101C578.561 484.785 575.512 489.388 573.683 494.514C573.78 494.904 573.99 495.256 574.29 495.524C574.589 495.794 574.961 495.967 575.359 496.022C581.054 496.588 586.802 495.784 592.123 493.675L596.313 492.501L832.345 401.805L841.733 398.116C849.192 395.883 856.102 392.113 862.018 387.052C866.514 382.568 869.251 376.619 869.729 370.287C869.621 353.317 875.474 336.847 886.269 323.755C897.064 310.661 912.113 301.773 928.79 298.644C945.47 295.515 962.716 298.343 977.523 306.632C992.33 314.923 1003.76 328.149 1009.8 344.004C1015.86 359.859 1016.15 377.335 1010.63 393.382C1005.11 409.43 994.13 423.028 979.606 431.808C965.083 440.585 947.939 443.984 931.167 441.412C914.393 438.84 899.057 430.459 887.832 417.731C883.148 413.735 877.226 411.484 871.07 411.36C863.363 411.571 855.779 413.339 848.775 416.557L839.051 420.246L599.5 514.296C594.336 516.147 589.685 519.192 585.92 523.18C584.25 526.193 583.547 529.647 583.909 533.072C584.077 534.07 584.077 535.091 583.909 536.089V537.598C583.984 555.062 577.779 571.969 566.422 585.234C555.066 598.5 539.316 607.238 522.052 609.853V934.419H501.432Z" fill="#DE0A2B"/>
<path d="M546.041 723.181C688.196 655.116 839.068 593.087 995.305 564.589C1020.62 631.647 940.824 678.085 891.371 702.562C788.274 747.658 652.992 764.925 546.041 723.013M482.675 708.428C341.692 639.861 190.82 577.161 35.0858 553.021C79.6771 494.009 167.518 498.367 232.226 511.109C285.567 524.278 335.477 548.696 378.613 582.726C421.749 616.759 457.114 659.616 482.338 708.428M477.98 723.013C370.693 764.925 235.578 747.49 132.315 702.562C82.8621 677.917 3.0674 631.478 28.3804 564.589C184.617 592.25 335.491 655.116 477.98 723.181M541.346 708.596C566.607 659.748 602.024 616.867 645.221 582.835C688.418 548.8 738.393 524.402 791.795 511.276C856.502 498.534 944.343 494.511 988.934 553.188C833.202 577.328 682.329 639.861 541.346 708.596Z" fill="#6E963C"/>
<path d="M1013.73 1100.9C976.915 1115.61 937.71 1123.45 898.065 1124.03C828.189 1123.43 760.448 1099.87 705.283 1056.97C650.537 1100.69 582.559 1124.5 512.502 1124.5C442.444 1124.5 374.467 1100.69 319.72 1056.97C276.804 1091.59 225.354 1114 170.779 1121.85C116.204 1129.7 60.5233 1122.69 9.59375 1101.57V1046.75C46.0299 1062.9 85.409 1071.34 125.263 1071.56C196.461 1070.73 265.038 1044.58 318.716 997.795C371.798 1045.08 440.408 1071.21 511.495 1071.21C582.585 1071.21 651.195 1045.08 704.277 997.795C757.695 1044.57 826.062 1070.73 897.059 1071.56C937.54 1071.18 977.502 1062.39 1014.4 1045.74V1100.9H1013.73ZM1013.73 1190.08C963.02 1211.04 907.62 1218.04 853.291 1210.35C798.96 1202.65 747.681 1180.55 704.781 1146.33C650.035 1190.05 582.057 1213.86 512 1213.86C441.94 1213.86 373.964 1190.05 319.218 1146.33C276.354 1180.85 224.992 1203.21 170.516 1211.06C116.04 1218.9 60.4573 1211.95 9.59375 1190.92V1135.94C46.0299 1152.08 85.409 1160.53 125.263 1160.75C196.461 1159.92 265.038 1133.77 318.716 1086.98C371.798 1134.27 440.408 1160.39 511.495 1160.39C582.585 1160.39 651.195 1134.27 704.277 1086.98C757.71 1133.74 826.068 1159.89 897.059 1160.75C937.483 1160.66 977.447 1152.15 1014.4 1135.77V1190.25L1013.73 1190.08ZM670.584 929.563C683.976 918.036 695.313 904.318 704.11 888.992C712.958 904.28 724.289 917.993 737.638 929.563C782.462 966.002 838.291 986.209 896.053 986.897C936.871 986.487 977.037 976.617 1013.4 958.061V1013.89C976.809 1029.08 937.676 1037.21 898.065 1037.86C827.626 1037.07 759.587 1012.16 705.283 967.282C651.342 1012.77 583.059 1037.72 512.502 1037.72C441.946 1037.72 373.661 1012.77 319.72 967.282C277.509 1003.19 226.113 1026.59 171.319 1034.85C116.527 1043.11 60.5146 1035.91 9.59375 1014.06V958.231C45.4203 976.607 85.0022 986.475 125.263 987.066C183.307 986.373 239.419 966.112 284.516 929.563C297.865 917.993 309.196 904.28 318.044 888.992C326.892 904.28 338.223 917.993 351.572 929.563C396.236 966.912 452.606 987.373 510.826 987.373C569.046 987.373 625.415 966.912 670.08 929.563" fill="#0073BD"/>
</svg>
