<svg width="1024" height="726" viewBox="0 0 1024 726" fill="none" xmlns="http://www.w3.org/2000/svg">
<g clip-path="url(#clip0_1077_29323)">
<mask id="mask0_1077_29323" style="mask-type:luminance" maskUnits="userSpaceOnUse" x="0" y="0" width="1025" height="726">
<path d="M0 726H1024.03V0.155774H0V726Z" fill="white"/>
</mask>
<g mask="url(#mask0_1077_29323)">
<path d="M0 726H1024.01V0.155774H0V726Z" fill="white"/>
</g>
<path d="M247.725 419.951L273.178 283.828H273.998L299.548 419.951H247.725ZM242.085 201.431L169.773 524.61H228.008L238.517 470.16H309.623L320.132 524.61H380.729L308.418 201.431H242.085ZM554.083 470.064H493.92V201.383H433.323V474.112L483.845 524.61H564.689L615.21 474.112V201.383H554.662L554.083 470.064ZM268.888 402.315H278.24L273.564 377.404L268.888 402.315ZM672.866 255.977H733.511V524.61H794.156V255.977H854.705V201.431H672.866V255.977Z" fill="black"/>
<mask id="mask1_1077_29323" style="mask-type:luminance" maskUnits="userSpaceOnUse" x="0" y="0" width="1025" height="726">
<path d="M0 726H1024.03V0.155774H0V726Z" fill="white"/>
</mask>
<g mask="url(#mask1_1077_29323)">
<path d="M872.332 255.937C872.332 260.561 870.462 265.116 867.162 268.38C863.863 271.644 859.339 273.53 854.714 273.53H811.772V524.567C811.772 529.208 809.901 533.746 806.585 537.01C803.269 540.274 798.762 542.161 794.136 542.161H733.491C728.848 542.161 724.308 540.461 721.042 537.01C717.777 533.559 715.872 529.191 715.872 524.567V273.547H672.846C668.203 273.547 663.662 271.644 660.397 268.397C657.132 265.15 655.227 260.578 655.227 255.937V201.405C655.245 196.74 657.107 192.271 660.407 188.972C663.708 185.673 668.179 183.812 672.846 183.794H854.697C859.363 183.802 863.838 185.654 867.145 188.945C870.428 192.226 872.315 196.764 872.315 201.405L872.332 255.937ZM632.302 474.064C632.294 478.721 630.449 483.186 627.166 486.49L576.657 537.01C575.026 538.655 573.084 539.961 570.944 540.851C568.804 541.741 566.509 542.198 564.191 542.195L483.308 542.161C478.631 542.161 474.21 540.325 470.859 537.01L420.384 486.49C418.745 484.862 417.444 482.926 416.557 480.794C415.67 478.661 415.213 476.374 415.214 474.064V201.405C415.214 196.781 417.085 192.226 420.384 188.945C423.698 185.656 428.179 183.81 432.85 183.811H493.427C498.091 183.829 502.56 185.688 505.86 188.983C509.159 192.278 511.023 196.743 511.046 201.405V452.476H536.471V201.405C536.471 196.781 538.341 192.226 541.641 188.945C544.951 185.66 549.425 183.815 554.089 183.811H614.701C619.362 183.834 623.826 185.694 627.122 188.989C630.418 192.284 632.28 196.746 632.302 201.405V474.064ZM394.041 535.565C390.691 539.747 385.623 542.365 380.3 542.365L319.637 542.348C311.168 542.348 303.94 536.365 302.342 528.069L294.57 487.867H252.564L244.809 528.069C243.21 536.399 235.965 542.348 227.496 542.348H169.266C166.624 542.343 164.017 541.746 161.636 540.602C159.255 539.458 157.161 537.795 155.508 535.735C152.157 531.537 150.916 526.08 152.106 520.879L224.894 197.733C226.697 189.659 233.823 183.964 242.071 183.964H307.546C315.76 183.964 322.886 189.642 324.722 197.733L397.51 520.879C398.083 523.454 398.072 526.126 397.478 528.696C396.883 531.267 395.721 533.672 394.075 535.735M0.0339944 726.172H1024.05V0.327131H0L0.0339944 726.172Z" fill="black"/>
</g>
</g>
<defs>
<clipPath id="clip0_1077_29323">
<rect width="1024" height="726" fill="white"/>
</clipPath>
</defs>
</svg>
