<svg width="1024" height="612" viewBox="0 0 1024 612" fill="none" xmlns="http://www.w3.org/2000/svg">
<g clip-path="url(#clip0_1077_29122)">
<path d="M288.317 221.852C288.317 234.602 290.018 244.802 291.719 252.452C294.271 260.102 297.673 267.752 302.776 277.102C304.477 279.652 305.327 282.202 305.327 284.752C305.327 288.152 303.626 291.552 298.523 294.952L277.261 309.402C273.859 311.102 271.307 312.802 268.756 312.802C265.354 312.802 261.952 311.102 258.55 307.702C253.447 302.602 250.045 297.502 246.643 291.552C243.241 285.602 239.839 279.652 236.437 271.152C210.072 302.602 176.902 317.902 136.078 317.902C107.161 317.902 85.0484 309.402 68.0384 293.252C51.0284 277.102 42.5234 255.002 42.5234 227.802C42.5234 198.902 52.7294 175.102 73.1414 158.102C93.5533 141.102 121.62 131.752 156.49 131.752C168.397 131.752 180.304 132.602 192.211 134.302C204.969 136.002 217.726 138.552 231.334 141.952V117.302C231.334 91.8016 226.231 73.1016 215.175 62.9016C204.118 52.7016 186.258 47.6016 159.892 47.6016C147.985 47.6016 136.078 49.3016 123.321 51.8516C110.563 55.2516 98.6563 58.6516 86.7493 63.7516C81.6464 65.4516 77.3939 67.1516 74.8424 68.0016C72.2909 68.0016 70.5899 68.8516 69.7394 68.8516C64.6364 68.8516 62.9354 65.4516 62.9354 58.6516V41.6516C62.9354 36.5516 63.7859 32.3016 65.4869 29.7516C67.1879 27.2016 70.5899 24.6516 74.8424 22.9516C86.7494 17.0016 101.208 11.9016 117.367 7.65156C134.377 3.40156 151.387 0.851562 170.098 0.851562C210.922 0.851562 239.839 10.2016 259.401 28.0516C278.111 46.7516 287.467 73.9516 287.467 112.202L288.317 221.852ZM150.537 273.702C161.593 273.702 173.5 272.002 185.407 267.752C197.314 263.502 208.371 255.852 217.726 245.652C222.829 238.852 227.082 232.052 229.633 223.552C231.334 215.052 233.035 205.702 233.035 193.802V179.352C222.829 176.802 212.623 175.102 201.567 173.402C190.51 171.702 180.304 171.702 169.248 171.702C146.284 171.702 130.125 175.952 118.218 185.302C107.161 194.652 101.208 207.402 101.208 224.402C101.208 240.552 105.46 252.452 113.965 260.102C122.47 270.302 134.377 273.702 150.537 273.702ZM423.547 311.102C417.593 311.102 413.341 310.252 410.789 307.702C408.238 306.002 405.686 300.902 403.985 294.102L324.038 30.6016C322.337 23.8016 320.636 19.5516 320.636 17.0016C320.636 11.9016 323.188 8.50156 329.141 8.50156H362.311C369.115 8.50156 373.367 9.35156 375.919 11.9016C378.47 13.6016 381.022 18.7016 382.723 25.5016L439.706 250.752L492.437 25.5016C494.138 18.7016 495.839 14.4516 499.241 11.9016C501.793 10.2016 506.896 8.50156 512.849 8.50156H540.065C546.869 8.50156 551.121 9.35156 553.673 11.9016C556.224 13.6016 558.776 18.7016 560.477 25.5016L614.058 253.302L672.743 25.5016C674.444 18.7016 676.995 14.4516 679.547 11.9016C682.098 10.2016 686.351 8.50156 693.155 8.50156H724.623C729.726 8.50156 733.128 11.0516 733.128 17.0016C733.128 18.7016 733.128 20.4016 732.278 22.1016C732.278 23.8016 731.427 27.2016 729.726 30.6016L647.228 294.102C645.527 300.902 642.975 305.152 640.424 307.702C637.872 309.402 633.62 311.102 627.666 311.102H598.749C591.945 311.102 587.693 310.252 585.141 307.702C582.59 305.152 580.038 300.902 578.337 294.102L525.606 74.8016L472.876 294.102C471.175 300.902 469.474 305.152 466.072 307.702C463.52 310.252 458.417 311.102 452.464 311.102H423.547ZM861.553 319.602C843.693 319.602 825.832 317.902 808.822 313.652C791.812 309.402 778.204 305.152 769.699 300.052C764.596 296.652 760.344 293.252 759.494 290.702C758.643 288.152 756.942 283.902 756.942 281.352V264.352C756.942 257.552 759.494 254.152 764.597 254.152C766.297 254.152 768.849 254.152 770.55 255.002C772.251 255.852 775.653 256.702 779.055 258.402C790.962 263.502 802.869 267.752 816.477 270.302C830.085 272.852 843.693 274.552 857.301 274.552C878.563 274.552 895.573 271.152 906.63 263.502C918.537 255.852 924.49 244.802 924.49 231.202C924.49 221.852 921.088 214.202 915.135 207.402C909.181 200.602 897.274 195.502 881.115 189.552L831.786 174.252C807.121 166.602 788.41 154.702 777.354 139.402C766.297 124.102 760.344 107.952 760.344 90.1016C760.344 75.6516 763.746 62.9016 769.699 52.7016C775.653 42.5016 784.158 32.3016 794.364 24.6516C804.57 17.0016 816.477 11.0516 830.085 6.80156C843.693 2.55156 858.151 0.851562 872.61 0.851562C880.264 0.851562 887.919 0.851563 895.573 2.55156C903.228 3.40156 910.882 5.10156 917.686 5.95156C924.49 7.65156 931.294 9.35156 937.248 11.0516C943.201 12.7516 948.304 15.3016 951.706 17.0016C956.809 19.5516 960.211 22.1016 961.912 25.5016C963.613 28.0516 965.314 32.3016 965.314 36.5516V52.7016C965.314 59.5016 962.763 63.7516 957.66 63.7516C955.108 63.7516 950.856 62.0516 944.902 59.5016C925.341 51.0016 904.078 45.9016 879.414 45.9016C859.852 45.9016 844.543 49.3016 834.337 55.2516C824.131 61.2016 818.178 71.4016 818.178 85.8516C818.178 95.2016 821.58 103.702 828.384 109.652C835.188 116.452 847.945 122.402 865.806 128.352L914.284 143.652C938.949 151.302 956.809 162.352 967.015 175.952C977.221 189.552 982.324 205.702 982.324 223.552C982.324 238.002 978.922 251.602 973.819 262.652C967.866 274.552 959.361 284.752 949.155 292.402C938.949 300.902 926.191 306.852 911.733 311.102C894.723 317.902 878.563 319.602 861.553 319.602Z" fill="#252F3E"/>
<path d="M926.195 485.35C813.929 567.8 650.633 612 511.151 612C314.686 612 137.783 539.75 4.25445 419.05C-5.95153 409.7 3.40396 396.95 16.1614 403.75C160.746 487.9 338.5 538.05 523.058 538.05C647.231 538.05 784.161 512.55 910.035 459C927.896 451.35 944.055 471.75 926.195 485.35Z" fill="#FF9900"/>
<path d="M972.118 432.651C957.659 413.951 877.713 424.151 841.141 428.401C830.085 430.101 828.384 419.901 838.59 413.101C902.377 368.051 1007.84 380.801 1019.75 396.101C1031.65 411.401 1016.34 516.801 956.809 566.951C947.453 574.601 938.948 570.351 943.201 560.151C956.809 526.151 986.576 450.501 972.118 432.651Z" fill="#FF9900"/>
<path d="M288.317 221.852C288.317 234.602 290.018 244.802 291.719 252.452C294.271 260.102 297.673 267.752 302.776 277.102C304.477 279.652 305.327 282.202 305.327 284.752C305.327 288.152 303.626 291.552 298.523 294.952L277.261 309.402C273.859 311.102 271.307 312.802 268.756 312.802C265.354 312.802 261.952 311.102 258.55 307.702C253.447 302.602 250.045 297.502 246.643 291.552C243.241 285.602 239.839 279.652 236.437 271.152C210.072 302.602 176.902 317.902 136.078 317.902C107.161 317.902 85.0484 309.402 68.0384 293.252C51.0284 277.102 42.5234 255.002 42.5234 227.802C42.5234 198.902 52.7294 175.102 73.1414 158.102C93.5533 141.102 121.62 131.752 156.49 131.752C168.397 131.752 180.304 132.602 192.211 134.302C204.969 136.002 217.726 138.552 231.334 141.952V117.302C231.334 91.8016 226.231 73.1016 215.175 62.9016C204.118 52.7016 186.258 47.6016 159.892 47.6016C147.985 47.6016 136.078 49.3016 123.321 51.8516C110.563 55.2516 98.6563 58.6516 86.7493 63.7516C81.6464 65.4516 77.3939 67.1516 74.8424 68.0016C72.2909 68.0016 70.5899 68.8516 69.7394 68.8516C64.6364 68.8516 62.9354 65.4516 62.9354 58.6516V41.6516C62.9354 36.5516 63.7859 32.3016 65.4869 29.7516C67.1879 27.2016 70.5899 24.6516 74.8424 22.9516C86.7494 17.0016 101.208 11.9016 117.367 7.65156C134.377 3.40156 151.387 0.851562 170.098 0.851562C210.922 0.851562 239.839 10.2016 259.401 28.0516C278.111 46.7516 287.467 73.9516 287.467 112.202L288.317 221.852ZM150.537 273.702C161.593 273.702 173.5 272.002 185.407 267.752C197.314 263.502 208.371 255.852 217.726 245.652C222.829 238.852 227.082 232.052 229.633 223.552C231.334 215.052 233.035 205.702 233.035 193.802V179.352C222.829 176.802 212.623 175.102 201.567 173.402C190.51 171.702 180.304 171.702 169.248 171.702C146.284 171.702 130.125 175.952 118.218 185.302C107.161 194.652 101.208 207.402 101.208 224.402C101.208 240.552 105.46 252.452 113.965 260.102C122.47 270.302 134.377 273.702 150.537 273.702ZM423.547 311.102C417.593 311.102 413.341 310.252 410.789 307.702C408.238 306.002 405.686 300.902 403.985 294.102L324.038 30.6016C322.337 23.8016 320.636 19.5516 320.636 17.0016C320.636 11.9016 323.188 8.50156 329.141 8.50156H362.311C369.115 8.50156 373.367 9.35156 375.919 11.9016C378.47 13.6016 381.022 18.7016 382.723 25.5016L439.706 250.752L492.437 25.5016C494.138 18.7016 495.839 14.4516 499.241 11.9016C501.793 10.2016 506.896 8.50156 512.849 8.50156H540.065C546.869 8.50156 551.121 9.35156 553.673 11.9016C556.224 13.6016 558.776 18.7016 560.477 25.5016L614.058 253.302L672.743 25.5016C674.444 18.7016 676.995 14.4516 679.547 11.9016C682.098 10.2016 686.351 8.50156 693.155 8.50156H724.623C729.726 8.50156 733.128 11.0516 733.128 17.0016C733.128 18.7016 733.128 20.4016 732.278 22.1016C732.278 23.8016 731.427 27.2016 729.726 30.6016L647.228 294.102C645.527 300.902 642.975 305.152 640.424 307.702C637.872 309.402 633.62 311.102 627.666 311.102H598.749C591.945 311.102 587.693 310.252 585.141 307.702C582.59 305.152 580.038 300.902 578.337 294.102L525.606 74.8016L472.876 294.102C471.175 300.902 469.474 305.152 466.072 307.702C463.52 310.252 458.417 311.102 452.464 311.102H423.547ZM861.553 319.602C843.693 319.602 825.832 317.902 808.822 313.652C791.812 309.402 778.204 305.152 769.699 300.052C764.596 296.652 760.344 293.252 759.494 290.702C758.643 288.152 756.942 283.902 756.942 281.352V264.352C756.942 257.552 759.494 254.152 764.597 254.152C766.297 254.152 768.849 254.152 770.55 255.002C772.251 255.852 775.653 256.702 779.055 258.402C790.962 263.502 802.869 267.752 816.477 270.302C830.085 272.852 843.693 274.552 857.301 274.552C878.563 274.552 895.573 271.152 906.63 263.502C918.537 255.852 924.49 244.802 924.49 231.202C924.49 221.852 921.088 214.202 915.135 207.402C909.181 200.602 897.274 195.502 881.115 189.552L831.786 174.252C807.121 166.602 788.41 154.702 777.354 139.402C766.297 124.102 760.344 107.952 760.344 90.1016C760.344 75.6516 763.746 62.9016 769.699 52.7016C775.653 42.5016 784.158 32.3016 794.364 24.6516C804.57 17.0016 816.477 11.0516 830.085 6.80156C843.693 2.55156 858.151 0.851562 872.61 0.851562C880.264 0.851562 887.919 0.851563 895.573 2.55156C903.228 3.40156 910.882 5.10156 917.686 5.95156C924.49 7.65156 931.294 9.35156 937.248 11.0516C943.201 12.7516 948.304 15.3016 951.706 17.0016C956.809 19.5516 960.211 22.1016 961.912 25.5016C963.613 28.0516 965.314 32.3016 965.314 36.5516V52.7016C965.314 59.5016 962.763 63.7516 957.66 63.7516C955.108 63.7516 950.856 62.0516 944.902 59.5016C925.341 51.0016 904.078 45.9016 879.414 45.9016C859.852 45.9016 844.543 49.3016 834.337 55.2516C824.131 61.2016 818.178 71.4016 818.178 85.8516C818.178 95.2016 821.58 103.702 828.384 109.652C835.188 116.452 847.945 122.402 865.806 128.352L914.284 143.652C938.949 151.302 956.809 162.352 967.015 175.952C977.221 189.552 982.324 205.702 982.324 223.552C982.324 238.002 978.922 251.602 973.819 262.652C967.866 274.552 959.361 284.752 949.155 292.402C938.949 300.902 926.191 306.852 911.733 311.102C894.723 317.902 878.563 319.602 861.553 319.602Z" fill="#252F3E"/>
<path d="M926.195 485.35C813.929 567.8 650.633 612 511.151 612C314.686 612 137.783 539.75 4.25445 419.05C-5.95153 409.7 3.40396 396.95 16.1614 403.75C160.746 487.9 338.5 538.05 523.058 538.05C647.231 538.05 784.161 512.55 910.035 459C927.896 451.35 944.055 471.75 926.195 485.35Z" fill="#FF9900"/>
<path d="M972.118 432.651C957.659 413.951 877.713 424.151 841.141 428.401C830.085 430.101 828.384 419.901 838.59 413.101C902.377 368.051 1007.84 380.801 1019.75 396.101C1031.65 411.401 1016.34 516.801 956.809 566.951C947.453 574.601 938.948 570.351 943.201 560.151C956.809 526.151 986.576 450.501 972.118 432.651Z" fill="#FF9900"/>
</g>
<defs>
<clipPath id="clip0_1077_29122">
<rect width="1024" height="612" fill="white"/>
</clipPath>
</defs>
</svg>
