<svg width="1024" height="195" viewBox="0 0 1024 195" fill="none" xmlns="http://www.w3.org/2000/svg">
<g clip-path="url(#clip0_1077_29124)">
<path d="M693.997 52.8275C696.67 52.7067 699.343 52.6353 702.019 52.6133C713.142 52.6167 724.361 54.7433 732.516 62.9649C736.376 66.8924 739.034 71.847 740.175 77.2421C741.881 84.9687 740.537 99.5667 740.859 108.028C741.341 120.641 741.523 133.301 741.507 145.919C732.559 145.713 723.003 145.858 714.007 145.842C713.807 142.829 713.844 140.306 713.901 137.283C705.844 144.328 696.86 147.207 686.283 146.926C674.586 146.616 668.394 143.897 660.419 135.728C653.139 125.341 651.949 109.712 660.671 99.8183C673.01 85.8233 697.06 90.4266 714.012 89.2646C711.806 77.7767 706.627 74.7512 695.207 75.0045C685.298 75.2243 677.329 78.8961 668.743 83.3735C665.938 76.6463 662.264 69.9659 659.68 63.1958C671.257 57.4563 681.054 53.895 693.997 52.8275ZM701.908 125.063C711.818 121.157 713.762 117.047 713.675 106.801C707.037 106.895 699.782 106.635 693.268 106.991C689.199 107.258 685.585 107.581 682.597 110.946C681.227 112.459 680.539 114.468 680.69 116.505C681.452 127.01 694.422 126.898 701.908 125.063Z" fill="#111011"/>
<path d="M344.789 51.8344C346.611 51.5314 348.692 51.6978 350.501 51.6654C370.969 51.2986 387.564 62.1129 392.768 82.4841C395.139 91.7622 394.94 98.2224 394.858 107.788C373.617 107.816 351.784 108.06 330.594 107.686C339.635 129.084 359.802 127.005 375.277 113.506C377.171 115.741 380.568 118.864 382.752 120.989C384.845 122.904 388.309 126.867 390.359 129.068C366.19 158.868 305.307 149.285 302.322 106.053C300.228 75.7201 314.189 55.1184 344.789 51.8344ZM330.04 87.5659C337.569 87.6888 345.098 87.7231 352.627 87.669L368.574 87.6169C365.74 75.5823 359.694 72.6606 347.757 72.8706C337.43 74.5381 333.361 77.433 330.04 87.5659Z" fill="#111011"/>
<path d="M923.117 53.5742C932.21 53.8828 942.909 53.6182 952.128 53.6254C959.957 73.349 967.272 93.3485 975.06 113.143C979.126 100.888 983.255 88.6531 987.447 76.4399C989.887 69.2741 992.638 60.5507 995.434 53.6846C1004.8 53.5694 1014.16 53.558 1023.52 53.6506C1019.95 63.7423 1015.22 75.01 1011.21 85.0732L992.884 131.588C989.671 139.787 986.4 148.003 983.117 156.164C972.691 182.083 945.247 186.248 923.861 170.126C927.587 163.057 931.585 156.136 935.842 149.376C939.587 153.119 945.897 156.329 951.222 154.322C956.529 152.323 958.58 147.481 960.82 142.73C957.387 135.423 953.391 125.001 950.115 117.264L923.117 53.5742Z" fill="#111011"/>
<path d="M459.18 52.8109C477.881 51.8053 493.451 57.1328 498.092 77.8696C500.03 86.5343 499.135 98.2447 499.117 107.305L499.223 145.9L471.236 145.958C471.083 133.843 471.054 121.727 471.15 109.611C471.153 104.23 471.736 95.2621 470.62 90.2383C467.47 76.0564 451.485 75.6313 442.016 82.9562C441.957 83.0114 441.9 83.0672 441.843 83.1235C432.993 91.8578 434.906 106.196 434.993 117.714C435.098 127.111 435.092 136.509 434.975 145.907L407.457 145.924C407.176 115.469 408.09 83.8939 407.297 53.6069C416.471 53.7505 426.058 53.6017 435.265 53.5975L435.382 66.0872C441.929 57.7664 448.703 54.2099 459.18 52.8109Z" fill="#111011"/>
<path d="M251.683 51.8354C255.041 51.1816 264.376 52.0151 267.653 52.6646C280.447 55.2013 289.76 61.4306 297.051 72.1715L277.81 86.0428C271.815 79.1744 264.123 74.6012 254.847 76.0955C227.732 80.4637 232.765 127.105 261.7 121.985C269.219 120.654 273.412 117.471 277.86 111.42C280.831 113.182 283.854 115.196 286.769 117.076C290.503 119.614 294.208 122.03 297.642 124.971C290.236 137.921 278.012 143.771 262.988 145.812C217.11 152.046 193.802 103.381 219.061 67.7896C226.161 57.7838 239.229 53.1067 251.683 51.8354Z" fill="#111011"/>
<path d="M522.903 32.3945C530.044 32.9525 542.994 32.5463 550.465 32.545C550.435 39.5704 550.487 46.5959 550.625 53.6201L574.511 53.6086C575.005 59.1179 574.844 67.7456 574.915 73.4965C566.78 73.3066 558.642 73.2995 550.508 73.4755C550.68 87.6626 549.902 102.104 550.903 116.224C551.686 127.248 564.848 121.592 570.832 119.315C572.515 124.316 573.777 129.121 575.141 134.217C575.618 136.13 576.373 138.413 576.954 140.336C563.435 147.62 542.588 151.14 530.618 139.152C527.324 135.817 524.993 131.65 523.875 127.093C522.349 121.044 522.779 109.502 522.793 102.941V73.6822C518.158 73.4438 514.822 73.3286 510.172 73.5143C509.978 66.8845 509.922 60.2513 510.008 53.6192L522.936 53.5577C522.718 46.6405 522.866 39.3433 522.903 32.3945Z" fill="#111011"/>
<path d="M862.659 32.5962L890.454 32.5352C890.638 39.5999 890.443 46.4454 890.739 53.6231L914.994 53.6147L915.057 73.4651C906.89 73.3232 898.723 73.3046 890.557 73.4093C890.573 82.2647 889.257 112.896 891.735 119.11C892.38 120.728 893.268 121.697 894.886 122.361C899.786 124.37 906.429 121.162 910.968 119.219C912.315 123.937 913.589 128.722 914.883 133.46L917.089 140.399C903.014 147.391 883.031 151.326 870.342 138.849C860.97 129.635 862.928 113.544 862.798 101.459C862.701 92.3867 862.636 82.7948 862.865 73.631C858.558 73.3214 854.727 73.3205 850.422 73.3184C850.194 66.7436 850.158 60.1635 850.312 53.5866C854.245 53.6676 858.653 53.5484 862.62 53.5245C862.508 46.6244 862.626 39.5127 862.659 32.5962Z" fill="#111011"/>
<path d="M760.57 19.0469C769.589 19.2479 779.291 19.0796 788.365 19.0931C788.659 33.4391 788.214 48.6726 788.197 63.1217C788.406 90.3858 788.429 117.651 788.266 144.915L788.227 145.047C788.028 145.235 787.792 145.457 787.516 145.715C780.366 145.973 767.737 145.862 760.925 145.853C760.347 134.021 760.757 119.939 760.734 107.9C760.889 78.2825 760.834 48.6639 760.57 19.0469Z" fill="#111011"/>
<path d="M641.782 52.8074L648.141 52.5117C648.206 61.2651 648.184 70.0188 648.076 78.7716C646.846 78.7401 645.614 78.7194 644.383 78.7095C636.962 78.657 629.888 80.291 624.43 85.5989C618.04 91.8137 617.837 101.024 617.901 109.34C617.994 121.535 618.127 133.711 618.081 145.897C608.95 145.841 599.821 145.869 590.692 145.982L590.563 139.233L590.539 53.663L618.157 53.5719C618.239 57.9611 618.347 62.3499 618.479 66.7379C618.762 66.3015 619.058 65.8743 619.368 65.4569C624.946 57.9341 632.698 54.1625 641.782 52.8074Z" fill="#111011"/>
<path d="M807.945 53.6168L836.028 53.582C836.433 83.9764 835.948 115.349 836.008 145.853L808.103 145.9C807.435 115.896 807.889 83.6894 807.945 53.6168Z" fill="#111011"/>
<path d="M818.626 15.7705C826.71 13.9008 834.77 18.9748 836.604 27.0876C838.437 35.2003 833.345 43.2618 825.246 45.0679C817.192 46.864 809.205 41.7927 807.381 33.7248C805.558 25.657 810.585 17.6299 818.626 15.7705Z" fill="#111011"/>
<path d="M66.2461 0H79.8106C104.515 8.35059 136.405 1.4988 151.095 31.1411C152.741 34.4519 153.922 37.9742 154.606 41.6085C155.242 45.0213 156.419 68.7384 154.961 71.3433C152.071 76.507 140.204 85.1308 135.15 89.4837C124.104 98.9964 110.027 112.094 111.374 86.1081C112.191 70.3642 110.059 54.6572 93.2017 48.5741C79.875 44.2925 59.6486 42.3974 45.1047 39.4142C44.1766 45.3335 44.4347 54.1815 44.4419 60.3533L44.4921 91.3622C44.5117 105.382 41.8774 125.825 50.2401 137.305C53.0287 141.111 56.7687 144.113 61.0832 146.009C66.6127 148.488 97.842 153.897 105.571 155.089C107.395 155.362 109.233 155.527 111.076 155.584C111.837 144.475 110.927 133.349 111.634 122.371C115.694 117.985 143.452 94.2585 147.772 94.1276C149.818 94.0757 151.805 94.8267 153.307 96.2205C157.224 99.9239 155.172 113.531 155.509 119.113C157.067 144.873 147.443 161.075 123.111 170.241C116.535 180.71 112.593 186.342 100.659 191.517C99.3289 192.093 92.5441 194.639 91.9571 195H71.3617C66.6757 191.725 38.874 189.081 29.052 185.674C17.7037 181.774 8.58359 173.159 4.02712 162.032C2.53647 158.292 1.52134 153.432 0 150.3V64.2988C5.03736 42.3967 12.02 33.0969 33.3391 25.2607C42.5738 8.30007 49.1484 5.81228 66.2461 0ZM29.0183 43.6081C13.4578 55.5102 15.4452 66.2058 15.5052 83.9787L15.5903 112.678C15.6209 124.455 15.1311 137.356 16.1078 149.021C16.4249 152.806 19.181 158.759 21.5296 161.847C24.3414 165.506 28.0274 168.393 32.247 170.246C40.4417 173.855 67.313 177.105 77.6361 179.418C81.2562 180.229 87.3554 179.893 91.0638 178.881C96.6723 176.955 100.135 174.916 104.16 170.425C97.4444 169.677 89.0338 167.919 82.2729 166.701C65.2227 163.631 50.6492 162.539 38.938 147.9C34.5889 142.362 31.6197 135.863 30.2769 128.944C28.2155 118.547 30.0393 44.7207 29.0183 43.6081ZM51.5189 24.8888C62.8104 26.669 93.0746 31.3834 102.055 35.6646C108.524 38.7426 114.109 43.4157 118.287 49.2469C123.236 56.0457 125.203 62.5277 126.445 70.6994C126.486 71.8491 126.37 75.1852 126.957 75.7725C130.64 73.8952 136.714 67.7827 140.658 65.0551C141.25 49.4595 139.787 29.2454 122.181 24.4467C114.412 22.3293 77.6351 14.3474 71.8323 15.2304C62.0698 16.0689 58.687 18.5738 51.5189 24.8888ZM126.611 129.625C126.664 132.622 126.461 149.347 126.809 151.024L127.009 151.199C133.864 146.819 137.622 141.777 139.539 133.686C140.354 130.251 141.047 122.169 140.468 118.736L140.03 118.243C135.666 121.998 130.846 125.857 126.611 129.625Z" fill="#111011"/>
</g>
<defs>
<clipPath id="clip0_1077_29124">
<rect width="1024" height="195" fill="white"/>
</clipPath>
</defs>
</svg>
