<svg width="1024" height="178" viewBox="0 0 1024 178" fill="none" xmlns="http://www.w3.org/2000/svg">
<g clip-path="url(#clip0_1077_29123)">
<path d="M962.586 150.135C958.251 150.135 953.916 149.655 950.063 148.694C943.561 157.582 935.132 165.509 925.258 170.794C933.928 175.598 943.561 178.24 953.916 178.24C993.412 178.24 1020.38 137.163 1023.52 102.332C1022.31 106.656 1014.36 150.135 962.586 150.135Z" fill="url(#paint0_linear_1077_29123)"/>
<path d="M972.466 41.0781C953.44 41.0781 944.289 52.1281 944.289 52.1281C964.037 54.0498 988.12 67.9823 988.12 96.568C988.12 124.433 969.817 136.924 954.885 141.248C953.441 143.891 951.755 146.293 950.069 148.695C953.922 149.656 958.257 150.136 962.592 150.136C1014.13 150.136 1022.32 106.657 1023.52 102.093C1023.76 99.6908 1023.76 97.5289 1023.76 95.1267C1024 55.9715 994.14 41.0781 972.466 41.0781Z" fill="url(#paint1_linear_1077_29123)"/>
<path d="M887.935 150.136C899.013 150.136 908.405 146.773 916.111 141.488C913.462 142.209 910.332 142.93 906.96 142.93C892.51 142.93 862.407 132.12 862.407 96.568C862.407 67.9823 886.49 54.0498 906.237 52.1281C906.237 52.1281 897.086 41.0781 878.061 41.0781C856.627 41.0781 826.523 55.9715 826.523 95.1267C826.523 97.2886 826.523 99.6908 826.764 102.093C828.209 106.657 836.157 150.136 887.935 150.136Z" fill="url(#paint2_linear_1077_29123)"/>
<path d="M907.197 142.929C910.328 142.929 913.699 142.208 916.348 141.487C919.961 139.085 923.092 136.202 925.741 132.839C923.814 130.678 915.385 119.147 915.385 104.014C915.385 89.8408 923.092 83.5952 925.5 82.1539C920.202 78.3105 914.422 77.1094 911.05 77.1094C905.511 77.1094 891.061 80.7126 887.449 97.5277C887.208 98.2484 887.208 98.969 887.208 99.4495C886.967 102.332 886.727 105.215 886.727 108.578C886.727 122.03 892.506 134.041 896.841 141.247C900.454 142.448 904.066 142.929 907.197 142.929Z" fill="url(#paint3_linear_1077_29123)"/>
<path d="M925.505 63.6562C901.663 63.6562 890.344 81.192 887.213 97.2865C890.585 80.4714 905.276 76.8681 910.815 76.8681C914.186 76.8681 920.207 78.0692 925.264 81.9127C931.044 86.2365 935.861 93.443 935.861 104.973C935.861 114.822 932.007 124.911 925.264 132.838C916.835 142.928 903.831 150.134 887.695 150.134C835.917 150.134 827.97 106.655 826.766 102.091C829.896 136.922 856.869 177.999 896.365 177.999C934.897 177.999 964.519 139.084 964.519 106.415C965.001 83.8344 951.996 63.6562 925.505 63.6562Z" fill="url(#paint4_linear_1077_29123)"/>
<path d="M926.223 50.4443C926.223 50.4443 918.035 42.5172 917.312 31.7075C916.831 23.7803 919.961 11.7696 932.484 5.28372C961.625 -10.3303 986.911 12.25 984.022 26.9032C984.022 26.9032 962.347 17.0543 942.358 28.8249C927.909 37.4727 926.223 50.4443 926.223 50.4443Z" fill="url(#paint5_linear_1077_29123)"/>
<path d="M26.7319 83.8354C31.5484 80.9528 37.3283 79.5115 43.349 79.5115C53.9454 79.5115 62.8561 84.0756 69.5992 92.9636C69.8401 93.2038 70.0809 93.2038 70.3217 93.2038C70.5626 93.2038 70.8034 93.2038 71.0442 92.9636L77.0649 88.1593C77.5466 87.9191 77.5466 87.1984 77.3057 86.9582C73.4525 81.6735 68.3951 77.3496 62.8561 74.467C57.0762 71.3442 50.5738 69.9029 43.5898 69.9029C35.6425 69.9029 28.1769 71.8246 21.6745 75.6681C14.6905 79.2713 9.63311 84.5561 5.77987 91.2821C1.92662 97.7679 0 105.215 0 113.142C0 121.069 1.92662 128.516 5.77987 135.001C9.63311 141.727 14.9313 147.012 21.4337 150.856C27.936 154.699 35.4017 156.621 43.1082 156.621C50.0922 156.621 56.5945 155.18 62.3744 152.057C68.1543 148.934 73.2117 144.85 77.0649 139.566C77.3057 139.085 77.3057 138.605 76.8241 138.364L70.8034 133.56C70.5626 133.32 70.3217 133.32 70.0809 133.32C69.8401 133.32 69.5992 133.56 69.3584 133.56C62.3744 142.448 53.4638 147.012 42.8674 147.012C36.8467 147.012 31.3076 145.571 26.2502 142.688C21.4337 139.806 17.3396 135.722 14.4497 130.437C11.5597 125.393 10.1148 119.628 10.1148 113.382C10.1148 107.136 11.5597 101.611 14.4497 96.3266C17.8213 91.0419 21.6745 86.9582 26.7319 83.8354ZM147.146 75.4279C140.643 71.5844 133.178 69.6627 125.471 69.6627C117.524 69.6627 110.058 71.5844 103.556 75.4279C97.0536 79.2713 91.7554 84.5561 87.9022 91.0419C84.0489 97.5277 82.1223 104.974 82.1223 113.142C82.1223 121.069 84.0489 128.516 87.9022 135.242C91.7554 141.727 97.0536 147.252 103.556 151.096C110.058 154.939 117.524 156.861 125.471 156.861C133.178 156.861 140.643 154.939 147.387 151.096C154.13 147.252 159.428 141.968 163.281 135.242C167.135 128.516 169.061 121.309 169.061 113.382C169.061 105.455 167.135 98.0082 163.281 91.2821C158.946 84.5561 153.648 79.2713 147.146 75.4279ZM125.23 147.012C119.21 147.012 113.43 145.571 108.613 142.688C103.797 139.806 99.7027 135.722 97.0536 130.678C94.1637 125.633 92.7187 119.868 92.7187 113.622C92.7187 107.377 94.1637 101.611 97.0536 96.5669C99.9435 91.5223 103.797 87.4387 108.854 84.3158C113.912 81.4333 119.451 79.992 125.712 79.992C131.733 79.992 137.272 81.4333 142.329 84.3158C147.387 87.1984 151.24 91.2821 154.13 96.5669C157.02 101.611 158.465 107.377 158.465 113.622C158.465 119.868 157.02 125.393 154.13 130.678C151.24 135.722 147.387 139.806 142.329 142.929C137.031 145.331 131.251 147.012 125.23 147.012ZM243.236 71.3442H234.807C234.325 71.3442 233.844 71.8246 233.844 72.3051V123.471C233.844 130.678 231.676 136.443 227.341 140.526C223.007 144.85 217.468 146.772 211.206 146.772C204.704 146.772 199.165 144.61 194.83 140.526C190.495 136.443 188.327 130.678 188.327 123.471V72.3051C188.327 71.8246 187.846 71.3442 187.364 71.3442H178.935C178.453 71.3442 177.972 71.8246 177.972 72.3051V122.991C177.972 129.717 179.417 135.722 182.307 140.767C185.197 145.811 189.291 149.895 194.348 152.537C199.405 155.18 204.944 156.621 211.206 156.621C217.227 156.621 223.007 155.18 228.064 152.537C233.121 149.895 236.975 145.811 239.865 140.767C242.754 135.722 244.199 129.717 244.199 122.991V72.3051C244.199 71.8246 243.718 71.3442 243.236 71.3442ZM315.725 78.7909C310.186 72.7855 302.48 69.6627 293.087 69.6627C287.308 69.6627 282.009 70.8638 277.434 73.0257C273.58 74.9474 270.45 77.3496 267.801 80.4724V72.3051C267.801 71.8246 267.319 71.3442 266.837 71.3442H258.649C258.167 71.3442 257.686 71.8246 257.686 72.3051V153.978C257.686 154.459 258.167 154.939 258.649 154.939H267.078C267.56 154.939 268.041 154.459 268.041 153.978V103.053C268.041 96.3266 270.209 90.8017 274.544 86.2376C278.879 81.9137 284.658 79.5115 291.402 79.5115C298.145 79.5115 303.443 81.6735 307.537 85.9974C311.39 90.3212 313.558 96.0864 313.558 103.053V154.219C313.558 154.699 314.039 155.18 314.521 155.18H322.95C323.432 155.18 323.913 154.699 323.913 154.219V102.572C323.913 92.7234 321.024 84.7963 315.725 78.7909ZM382.435 145.811C371.357 148.213 363.65 147.493 358.833 143.409C355.944 141.007 354.499 136.923 354.499 130.918V80.9528H380.026C380.508 80.9528 380.99 80.4724 380.99 79.992V72.3051C380.99 71.8246 380.508 71.3442 380.026 71.3442H354.499V49.0041C354.499 48.5237 354.017 48.0432 353.535 48.0432H344.865C344.384 48.0432 343.902 48.5237 343.902 49.0041V71.3442H330.657C330.175 71.3442 329.693 71.8246 329.693 72.3051V79.992C329.693 80.4724 330.175 80.9528 330.657 80.9528H343.902V131.158C343.902 139.806 346.31 146.292 351.127 150.375C355.703 154.459 362.205 156.621 370.152 156.621C374.487 156.621 378.822 156.14 383.157 154.939C383.639 154.939 383.88 154.459 383.88 153.978V146.532C383.88 146.292 383.639 146.051 383.639 145.811H382.435ZM466.724 26.1836H458.295C457.814 26.1836 457.332 26.664 457.332 27.1445V85.2767C454.201 80.9528 450.107 77.3496 445.05 74.7072C439.029 71.5844 432.286 69.9029 425.061 69.9029C417.114 69.9029 410.13 71.8246 403.627 75.6681C397.366 79.5115 392.309 84.7963 388.696 91.5223C385.084 98.0082 383.398 105.455 383.398 113.622C383.398 121.549 385.325 128.996 388.937 135.482C392.549 141.968 397.607 147.493 403.868 151.336C410.13 155.18 417.355 157.101 425.061 157.101C432.286 157.101 439.029 155.42 445.291 152.057C450.348 149.174 454.442 145.571 457.573 141.247V154.459C457.573 154.939 458.055 155.42 458.536 155.42H466.724C467.206 155.42 467.688 154.939 467.688 154.459V27.1445C467.447 26.664 467.206 26.1836 466.724 26.1836ZM425.784 147.012C419.763 147.012 414.224 145.571 409.407 142.688C404.591 139.806 400.738 135.722 398.088 130.437C395.439 125.393 393.994 119.628 393.994 113.142C393.994 106.896 395.439 101.131 398.088 95.8462C400.738 90.8017 404.591 86.718 409.407 83.8354C414.224 80.9528 419.763 79.5115 425.784 79.5115C431.323 79.5115 436.38 80.7126 441.197 83.1148C446.013 85.5169 449.866 89.3604 452.756 94.1647C455.646 99.2092 457.091 105.695 457.091 113.142C457.091 120.588 455.646 127.074 452.756 131.879C449.866 136.923 446.013 140.526 441.197 142.929C436.621 145.811 431.323 147.012 425.784 147.012ZM542.103 75.4279C535.601 71.5844 528.135 69.6627 520.429 69.6627C512.482 69.6627 505.016 71.5844 498.514 75.4279C492.011 79.2713 486.713 84.5561 482.86 91.0419C479.007 97.5277 477.08 104.974 477.08 113.142C477.08 121.069 479.007 128.516 482.86 135.242C486.713 141.727 492.011 147.252 498.514 151.096C505.016 154.939 512.482 156.861 520.429 156.861C528.135 156.861 535.601 154.939 542.344 151.096C549.087 147.252 554.386 141.968 558.239 135.242C562.092 128.516 564.019 121.309 564.019 113.382C564.019 105.455 562.092 98.0082 558.239 91.2821C554.145 84.5561 548.847 79.2713 542.103 75.4279ZM520.188 147.012C514.167 147.012 508.388 145.571 503.571 142.688C498.754 139.806 494.66 135.722 492.011 130.678C489.121 125.633 487.676 119.868 487.676 113.622C487.676 107.377 489.121 101.611 492.011 96.5669C494.901 91.5223 498.754 87.4387 503.812 84.3158C508.869 81.4333 514.408 79.992 520.67 79.992C526.69 79.992 532.23 81.4333 537.287 84.3158C542.344 87.1984 546.198 91.2821 549.087 96.5669C551.977 101.611 553.422 107.377 553.422 113.622C553.422 119.868 551.977 125.393 549.087 130.678C546.198 135.722 542.344 139.806 537.287 142.929C531.989 145.331 526.45 147.012 520.188 147.012ZM695.992 71.3442H686.841C686.359 71.3442 686.118 71.5844 685.878 71.8246L661.072 137.163L632.173 69.9029C631.932 69.6627 631.691 69.4225 631.21 69.4225H627.597C627.116 69.4225 626.875 69.6627 626.634 69.9029L597.975 137.404L573.652 72.0648C573.411 71.8246 573.17 71.5844 572.689 71.5844H563.537C563.296 71.5844 563.055 71.8246 562.815 72.0648C562.574 72.3051 562.574 72.5453 562.815 73.0257L595.808 156.14C596.049 156.381 596.29 156.621 596.771 156.621H600.143C600.625 156.621 600.865 156.381 601.106 156.14L630.006 89.1202L658.664 156.14C658.905 156.381 659.146 156.621 659.627 156.621H663.24C663.721 156.621 663.962 156.381 664.203 156.14L697.197 72.5453V71.5844C696.715 71.5844 696.474 71.3442 695.992 71.3442ZM763.424 78.7909C757.885 72.7855 750.179 69.6627 740.786 69.6627C735.007 69.6627 729.708 70.8638 725.133 73.0257C721.279 74.9474 718.149 77.3496 715.499 80.4724V72.3051C715.499 71.8246 715.018 71.3442 714.536 71.3442H706.348C705.866 71.3442 705.385 71.8246 705.385 72.3051V153.978C705.385 154.459 705.866 154.939 706.348 154.939H714.777C715.259 154.939 715.74 154.459 715.74 153.978V103.053C715.74 96.3266 717.908 90.8017 722.243 86.2376C726.578 81.9137 732.357 79.5115 739.101 79.5115C745.844 79.5115 751.142 81.6735 755.236 85.9974C759.089 90.3212 761.257 96.0864 761.257 103.053V154.219C761.257 154.699 761.738 155.18 762.22 155.18H770.649C771.131 155.18 771.612 154.699 771.612 154.219V102.572C771.612 92.7234 768.722 84.7963 763.424 78.7909Z" fill="#00582D"/>
</g>
<defs>
<linearGradient id="paint0_linear_1077_29123" x1="1007.55" y1="145.167" x2="945.388" y2="130.624" gradientUnits="userSpaceOnUse">
<stop offset="0.121" stop-color="#00984F"/>
<stop offset="0.318" stop-color="#2EA751"/>
<stop offset="0.645" stop-color="#73BE53"/>
<stop offset="0.881" stop-color="#9FCC54"/>
<stop offset="1" stop-color="#B0D255"/>
</linearGradient>
<linearGradient id="paint1_linear_1077_29123" x1="984.153" y1="11.1208" x2="984.153" y2="151.114" gradientUnits="userSpaceOnUse">
<stop stop-color="#07A84D"/>
<stop offset="0.129" stop-color="#36B44F"/>
<stop offset="0.269" stop-color="#61BE51"/>
<stop offset="0.405" stop-color="#83C753"/>
<stop offset="0.533" stop-color="#9CCD54"/>
<stop offset="0.65" stop-color="#ABD155"/>
<stop offset="0.747" stop-color="#B0D255"/>
</linearGradient>
<linearGradient id="paint2_linear_1077_29123" x1="871.423" y1="11.1208" x2="871.423" y2="151.114" gradientUnits="userSpaceOnUse">
<stop stop-color="#07A84D"/>
<stop offset="0.129" stop-color="#36B44F"/>
<stop offset="0.269" stop-color="#61BE51"/>
<stop offset="0.405" stop-color="#83C753"/>
<stop offset="0.533" stop-color="#9CCD54"/>
<stop offset="0.65" stop-color="#ABD155"/>
<stop offset="0.747" stop-color="#B0D255"/>
</linearGradient>
<linearGradient id="paint3_linear_1077_29123" x1="905.952" y1="76.4512" x2="905.952" y2="144.644" gradientUnits="userSpaceOnUse">
<stop offset="0.187" stop-color="#00984F"/>
<stop offset="0.451" stop-color="#4CB152"/>
<stop offset="0.78" stop-color="#B0D255"/>
</linearGradient>
<linearGradient id="paint4_linear_1077_29123" x1="879.297" y1="170.747" x2="930.686" y2="-23.6021" gradientUnits="userSpaceOnUse">
<stop offset="0.055" stop-color="#00984F"/>
<stop offset="0.093" stop-color="#159F50"/>
<stop offset="0.201" stop-color="#4CB152"/>
<stop offset="0.302" stop-color="#77BF53"/>
<stop offset="0.393" stop-color="#96C954"/>
<stop offset="0.469" stop-color="#A9D055"/>
<stop offset="0.522" stop-color="#B0D255"/>
</linearGradient>
<linearGradient id="paint5_linear_1077_29123" x1="916.84" y1="56.2143" x2="976.36" y2="-2.68915" gradientUnits="userSpaceOnUse">
<stop stop-color="#5CB249"/>
<stop offset="0.524" stop-color="#8AC450"/>
<stop offset="1" stop-color="#B0D255"/>
</linearGradient>
<clipPath id="clip0_1077_29123">
<rect width="1024" height="178" fill="white"/>
</clipPath>
</defs>
</svg>
