<svg width="1024" height="191" viewBox="0 0 1024 191" fill="none" xmlns="http://www.w3.org/2000/svg">
<path d="M966.609 162.91C966.609 147.742 978.987 135.945 993.616 135.945C1008.81 135.945 1020.62 148.304 1020.62 162.91C1020.62 177.516 1008.24 189.875 993.616 189.875C978.987 189.875 966.609 178.078 966.609 162.91Z" fill="#86BC25"/>
<path d="M155.288 90.4448C155.288 121.904 147.411 145.498 130.532 162.351C113.653 179.204 90.022 187.63 59.6396 187.63H0V0.5625H63.0154C92.8352 0.5625 115.341 7.86544 131.095 23.5949C147.411 38.7625 155.288 61.2331 155.288 90.4448ZM103.525 92.1301C103.525 74.7154 100.149 62.3566 93.3978 53.9301C87.2088 46.0654 76.5187 41.5713 63.0154 41.5713H49.5121V146.06H60.7648C75.956 146.06 86.6462 141.565 93.9604 132.577C100.149 123.589 103.525 110.107 103.525 92.1301Z" fill="black"/>
<path d="M365.715 0H319.016V187.629H365.715V0Z" fill="black"/>
<path d="M519.877 117.41C519.877 139.88 514.251 157.857 501.873 170.777C489.495 183.698 472.616 189.877 451.235 189.877C430.418 189.877 414.101 183.698 401.723 170.216C389.345 156.733 383.156 139.319 383.156 117.41C383.156 94.9392 388.783 76.9627 401.161 64.6039C413.539 51.6833 430.418 45.5039 451.798 45.5039C465.301 45.5039 477.117 48.3127 487.244 53.9304C497.934 59.548 505.249 67.9745 510.875 78.648C517.627 90.4451 519.877 102.804 519.877 117.41ZM431.543 117.41C431.543 129.769 433.231 138.195 436.044 144.374C438.857 150.554 443.921 153.363 451.798 153.363C459.675 153.363 464.176 150.554 467.552 144.374C470.365 138.195 472.053 128.645 472.053 117.41C472.053 105.051 470.365 96.6245 467.552 90.4451C464.739 84.8274 459.675 81.4568 451.798 81.4568C445.046 81.4568 439.42 84.2657 436.044 90.4451C433.231 96.6245 431.543 105.051 431.543 117.41Z" fill="black"/>
<path d="M585.707 47.75H539.008V187.068H585.707V47.75Z" fill="black"/>
<path d="M585.707 0H539.008V31.4588H585.707V0Z" fill="black"/>
<path d="M680.792 151.675C686.981 151.675 694.858 149.99 703.298 147.181V182.572C697.109 185.381 690.92 187.066 685.293 188.19C679.667 189.314 672.915 189.875 665.038 189.875C649.285 189.875 638.032 185.943 630.718 177.516C623.966 169.652 620.027 157.293 620.027 141.002V83.7017H603.711V47.7488H620.027V12.9194L667.289 5.05469V48.8723H697.671V84.2635H667.289V138.193C668.414 147.743 672.353 151.675 680.792 151.675Z" fill="black"/>
<path d="M789.941 151.675C796.13 151.675 804.007 149.99 812.446 147.181V182.572C806.257 185.381 800.068 187.066 794.442 188.19C788.815 189.314 782.064 189.875 774.187 189.875C758.433 189.875 747.18 185.943 739.866 177.516C733.114 169.652 729.176 157.293 729.176 141.002V83.7017H712.859V47.7488H729.176V12.3576L776.437 5.05469V48.8723H806.82V84.2635H776.437V138.193C777 147.743 781.501 151.675 789.941 151.675Z" fill="black"/>
<path d="M938.481 61.7951C927.228 50.5598 911.475 45.5039 891.22 45.5039C869.839 45.5039 852.96 51.6833 841.145 64.6039C829.33 77.5245 823.703 95.501 823.703 119.095C823.703 141.566 829.892 159.542 842.27 171.901C855.211 184.26 872.653 190.439 895.158 190.439C906.411 190.439 915.413 189.877 923.29 188.192C930.604 186.507 939.044 184.26 945.796 180.327L939.044 148.869C933.98 151.116 928.354 152.801 923.853 153.924C917.101 155.61 909.224 156.172 901.347 156.172C892.345 156.172 885.031 153.924 879.967 149.992C874.903 145.498 872.09 139.319 872.09 131.454H955.923V109.545C955.36 88.7598 949.171 73.0304 938.481 61.7951ZM872.09 100.557C872.653 93.2539 874.903 87.0745 878.279 83.7039C881.655 80.3333 886.156 78.648 892.345 78.648C897.971 78.648 903.598 80.3333 906.973 84.2657C910.349 88.198 912.037 93.2539 912.6 100.557H872.09Z" fill="black"/>
<path d="M284.13 61.7951C272.314 50.5598 257.123 45.5039 236.868 45.5039C215.488 45.5039 198.609 51.6833 186.793 64.6039C174.978 77.5245 169.352 95.501 169.352 119.095C169.352 141.566 175.541 159.542 187.919 171.901C200.859 184.26 218.301 190.439 240.807 190.439C252.059 190.439 261.061 189.877 268.938 188.192C276.253 186.507 284.692 184.26 291.444 180.327L284.692 148.307C279.628 150.554 274.002 152.239 269.501 153.363C262.749 155.048 254.872 155.61 246.996 155.61C237.993 155.61 230.679 153.363 225.615 149.43C220.552 144.936 217.738 138.757 217.738 130.892H301.571V109.545C301.009 88.7598 294.82 73.0304 284.13 61.7951ZM217.176 100.557C217.738 93.2539 219.989 87.0745 223.365 83.7039C226.741 80.3333 231.242 78.648 237.431 78.648C243.62 78.648 248.683 80.3333 252.059 84.2657C255.435 88.198 257.123 93.2539 257.686 100.557H217.176Z" fill="black"/>
</svg>
