<svg width="1024" height="1203" viewBox="0 0 1024 1203" fill="none" xmlns="http://www.w3.org/2000/svg">
<path d="M953.993 0.00887585C979.582 -0.553309 985.768 25.7071 990.805 45.598C999.751 80.9215 1010.4 116.254 1018.73 151.682C1027.62 189.115 1025.22 228.345 1011.85 264.422C990.342 321.89 943.414 366.147 884.785 384.252C865.876 389.906 845.803 393.735 827.49 401.091C813.427 406.739 809.018 422.062 812.044 436.077C817.666 462.08 826.033 487.557 832.852 513.336L872.477 666.791L967.838 1022.36C983.672 1081.6 1001.11 1143.56 1015.83 1202.79C991.661 1202.31 967.493 1202.21 943.319 1202.47C927.681 1202.56 903.215 1203.41 888.492 1200.87C880.088 1199.48 872.057 1196.4 864.871 1191.82C856.659 1186.53 850.095 1179.03 845.931 1170.19C838.952 1155.06 827.443 1104.76 822.432 1085.92C809.614 1037.75 794.721 987.8 783.876 939.336C758.627 947.83 733.358 953.234 707.71 959.973C729.581 1039.72 750.623 1123.11 773.616 1201.91C758.308 1203.23 733.948 1201.98 717.789 1202.19C694.972 1201.75 671.904 1204 649.187 1201.47C599.243 1195.93 593.797 1143.53 583.595 1105.17C573.952 1070.23 564.777 1035.16 556.076 999.969C540.965 1006.63 496.845 1016.82 480.112 1020.69C484 1030.34 488.314 1048.44 491.276 1059.18L514.381 1146.04C518.945 1164.76 524.519 1184.04 529.636 1202.69L332.876 1202.65C303.155 1202.7 244.382 1204.38 217.649 1199.91C190.507 1195.31 164.663 1184.96 141.85 1169.56C115.852 1152.29 94.4331 1128.97 79.4287 1101.61C62.5254 1070.61 53.8557 1029.69 44.6435 995.284L14.6006 882.028C9.04881 860.423 -25.5252 780.887 36.5152 801.8C50.5952 806.55 71.4663 821.985 85.4017 829.325C97.2786 835.585 114.847 845.861 125.447 853.62C146.302 831.027 171.487 807.045 193.459 785.11L312.548 666.206C339.472 639.309 399.473 585.362 414.462 555.487C420.674 543.116 424.185 526.66 422.924 512.815C419.919 479.807 403.34 432.439 394.569 399.522L328.669 153.416C324.972 139.678 306.474 76.4038 305.442 65.2691C305.054 60.9349 305.819 56.5752 307.665 52.6346C310.447 46.6979 315.654 42.2504 321.951 40.4341C327.637 38.7619 335.142 40.317 340.365 42.8689C389.022 66.6413 435.599 99.1864 483.362 124.205C513.121 119.413 574.144 100.899 606.083 92.3088L842.378 28.7441C865.924 22.3378 933.84 2.35442 953.993 0.00887585Z" fill="#0036D1"/>
<path d="M582.541 181.138C607.614 175.575 632.453 191.382 638.027 216.454C643.601 241.526 627.799 266.37 602.731 271.955C577.648 277.539 552.788 261.727 547.213 236.644C541.634 211.561 557.452 186.707 582.541 181.138Z" fill="#FEFEFE"/>
</svg>
