<svg width="1024" height="514" viewBox="0 0 1024 514" fill="none" xmlns="http://www.w3.org/2000/svg">
<g clip-path="url(#clip0_1077_29130)">
<path d="M1024 444.184H958.57V509.576H1024V444.184Z" fill="#FF6600"/>
<path d="M826.003 153.199L865.003 445.18L903.861 153.199H964.432L907.718 509.43H821.432L765.289 153.199H826.003Z" fill="#FF6600"/>
<path d="M33.5714 153.201H0V200.603H33.5714V509.574H92.7143V200.46H134.286V153.058H92.7143V80.8122C92.7143 70.2467 94.8571 62.1083 100 56.6828C105.143 51.1144 113 48.5444 123.571 48.5444H134.286V0H112.857C86.5714 0 61.2857 5.56833 49.2857 16.9906C37.2857 28.4128 33.7143 46.1172 33.7143 71.3889V153.058L33.5714 153.201Z" fill="#FF6600"/>
<path d="M211.997 153.199H152.711V509.43H211.997V153.199Z" fill="#FF6600"/>
<path d="M485.718 351.518H609.289V241.721C609.146 176.044 577.575 149.059 517.718 149.059C457.861 149.059 426.289 175.901 426.289 242.15V422.621C426.432 482.873 463.003 513.999 517.718 513.999C572.432 513.999 609.146 488.299 609.432 422.621V394.065H552.146C552.146 394.065 552.146 419.48 552.146 427.904C552.146 452.033 543.146 468.738 518.86 468.738C494.575 468.738 485.718 451.89 485.718 427.904V351.518ZM485.718 229.871C485.718 209.739 491.003 188.894 518.718 188.894C546.432 188.894 552.003 209.454 552.003 229.728V303.401H485.718V229.728V229.871Z" fill="#FF6600"/>
<path d="M345.286 306.973C300.571 267.709 296.857 262.283 296.857 233.299C296.857 208.456 299 193.464 321.286 193.464C343.571 193.464 346.429 208.313 346.429 233.585V266.424H403.571V212.739C403.429 170.62 371 149.203 320 149.203C269 149.203 237.143 165.908 236.857 233.299C236.857 244.721 236.857 244.721 236.857 240.295C236.857 261.426 237 294.979 289.429 339.954L304.429 352.804C343 385.358 347.286 389.213 347.143 427.905C347.143 451.749 345.714 469.882 320.571 469.882C295.429 469.882 294 451.606 294 440.47V394.924H234V441.898C234 499.723 271.714 514.143 320.571 514.143C369.429 514.143 407.143 499.723 407.143 425.193V419.053C407.143 367.082 397.571 353.09 345.286 307.115V306.973Z" fill="#FF6600"/>
<path d="M688.57 189.893V153.199H634.57V509.43H692.856V261.139C692.856 242.007 699.142 229.3 709.999 221.875C720.285 214.736 732.999 212.309 749.142 212.166V149.059C718.285 149.63 704.856 155.769 689.142 188.465L688.57 189.75V189.893Z" fill="#FF6600"/>
</g>
<defs>
<clipPath id="clip0_1077_29130">
<rect width="1024" height="514" fill="white"/>
</clipPath>
</defs>
</svg>
