<svg width="1024" height="199" viewBox="0 0 1024 199" fill="none" xmlns="http://www.w3.org/2000/svg">
<path d="M452.898 9.4765C466.417 9.21323 480.709 9.43731 494.292 9.42314C496.911 20.2796 499.22 35.096 501.286 46.2923L518.021 141.46L544.162 9.44229L585.471 9.43868C586.514 13.8311 587.294 18.6765 588.137 23.1373C593.153 49.7114 598.452 76.2326 603.051 102.882C605.254 115.646 606.702 128.52 608.89 141.247C615.103 97.7225 624.219 52.6217 633.227 9.43868L672.627 9.45108C670.181 19.5185 667.396 29.7821 664.785 39.8289C661.738 54.1992 656.39 72.455 652.605 87.0863L628.154 181.48C616.217 180.878 598.325 181.223 586.273 181.432C583.202 169.634 580.367 151.367 577.813 139.044C571.864 110.352 566.345 81.6178 563.16 52.4761C555.485 95.8634 546.566 138.57 536.268 181.437C523.542 180.938 506.635 181.206 493.867 181.437C479.438 124.881 466.836 66.3695 452.898 9.4765Z" fill="#F46A17"/>
<path d="M719.375 54.1125C734.858 52.2755 754.778 54.1585 767.339 63.9102C786.959 79.1528 785.034 103.442 784.938 125.593C784.856 144.155 784.433 162.872 786.884 181.396C775.675 181.18 763.448 181.184 752.259 181.457C751.317 177.138 750.573 172.745 749.604 168.336C745.617 172.42 741.835 176.064 736.681 178.666C720.979 186.593 702.616 186.274 688.095 176.34C669.491 162.664 667.948 134.321 683.241 117.854C698.909 100.976 724.7 98.9942 746.19 98.1007C745.46 76.0117 721.778 79.2012 706.179 82.5781C700.137 83.8845 694.335 86.584 688.928 89.5546L681.846 64.731C693.092 58.5093 706.664 55.3736 719.375 54.1125ZM718.303 155.257C722.14 156.656 725.615 157.437 729.67 156.648C749.549 152.78 747.658 137.441 747.508 122.253L743.296 122.402C733.977 123.095 721.225 124.012 714.815 131.545C708.889 138.507 710.016 150.543 718.303 155.257Z" fill="#F46A17"/>
<path d="M961.797 54.0828C964.917 53.5495 973.423 53.9668 976.488 54.4076C1016.3 60.1367 1026.08 97.309 1021.69 131.311C995.998 130.699 966.541 131.028 940.743 131.328C944.894 151.746 961.551 155.398 980.393 155.14C991.022 154.994 1000.74 153.208 1010.83 149.824C1011.39 152.251 1011.88 155.151 1012.37 157.633C1013.65 163.649 1014.78 169.933 1015.95 175.988C989.568 187.085 946.109 188.341 923.752 168.72C897.537 145.706 898.418 99.2199 920.646 73.7472C931.514 61.2895 945.556 55.2699 961.797 54.0828ZM940.737 105.108L964.753 105.106L987.151 105.101C985.738 89.5732 980.741 79.6232 963.715 79.4814C949.249 81.1245 942.396 91.2504 940.737 105.108Z" fill="#F46A17"/>
<path d="M250.497 54.0804C299.123 52.1229 315.698 88.0125 310.344 131.236L229.644 131.225L229.655 131.3C234.091 161.762 278.28 157.53 299.575 149.767L300.95 157.425C302.245 162.498 303.521 170.405 304.638 175.845C294.313 180.746 282.563 182.216 271.422 183.37C232.178 187.397 196.25 170.886 193.078 127.568C190.335 90.1054 210.979 57.0633 250.497 54.0804ZM229.221 105.09L254.247 105.094L275.545 105.113C275.239 90.3712 268.089 78.0556 251.657 79.4882C236.728 81.2867 231.855 91.6762 229.221 105.09Z" fill="#FEFEFE"/>
<path d="M405.216 56.8084L447.063 56.793L406.093 116.104C410.212 121.893 446.757 179.539 446.967 180.936L445.622 181.197L404.113 181.226C395.672 166.778 389.015 153.47 381.198 139.101C375.948 151.252 366.018 169.251 359.617 181.197L317.328 181.187L359.651 117.909C346.722 97.6966 331.794 77.0455 318.462 56.8027L361.486 56.8079C369.486 70.1691 376.775 83.068 384.224 96.7404C391.13 84.2865 398.272 69.7023 405.216 56.8084Z" fill="#FEFEFE"/>
<path d="M879.751 53.9316C884.271 53.4148 888.175 53.691 892.667 54.1469L892.606 90.6244C872.836 87.4118 856.438 92.9641 854.93 115.313C854.39 123.231 854.595 131.044 854.602 138.974L854.657 181.467C843.051 180.937 827.705 181.206 815.97 181.445L815.977 172.816C815.99 135.277 816.864 93.9025 815.219 56.7849L848.158 56.7852C848.547 60.1327 849.277 78.0881 850.165 79.5418C851.414 78.7615 853.994 72.2299 855.564 69.9543C861.824 60.8866 869.081 56.1377 879.751 53.9316Z" fill="#F46A17"/>
<path d="M0 9.44164L105.04 9.43359L105.057 41.2794L38.6178 41.2398L38.6774 80.6085L100.951 80.5969L100.964 112.248L38.6081 112.234L38.6682 181.199L0 181.184V9.44164Z" fill="#FEFEFE"/>
<path d="M129.552 0H168.361C168.675 19.8327 168.367 40.5497 168.369 60.4421L168.388 181.202C155.541 181.057 142.416 181.205 129.547 181.214L129.552 0Z" fill="#FEFEFE"/>
</svg>
