<svg width="1024" height="589" viewBox="0 0 1024 589" fill="none" xmlns="http://www.w3.org/2000/svg">
<g clip-path="url(#clip0_1077_29128)">
<path d="M502.302 580.622C371.48 580.622 248.002 552.402 154.567 501.183C107.459 475.344 70.1713 444.872 43.7435 410.605C14.7235 372.975 0 332.506 0 290.312C0 248.118 14.7235 207.635 43.7435 170.017C70.1713 135.752 107.459 105.279 154.567 79.4411C248.002 28.2059 371.48 0 502.302 0C633.124 0 756.616 28.2059 850.035 79.4411C897.144 105.279 934.43 135.752 960.858 170.017C989.882 207.635 1004.59 248.118 1004.59 290.312C1004.59 332.506 989.882 372.975 960.858 410.605C934.43 444.872 897.144 475.344 850.035 501.183C756.616 552.402 633.124 580.622 502.302 580.622Z" fill="white"/>
<path fill-rule="evenodd" clip-rule="evenodd" d="M841.872 247.885H843.869V229.192H843.968L851.778 247.885H853.491L861.015 229.192H861.115V247.885H863.112V227.095H860.26L852.634 245.405L845.02 227.095H841.872V247.885ZM830.796 247.97H832.823V228.864H838.978V227.053H824.555V228.864H830.796V247.97ZM516.303 332.217L515.307 313.353L513.01 313.794C510.587 314.207 507.993 314.65 505.556 314.65C497.233 314.65 494.224 310.898 494.224 300.39V271.128H515.163V250.396H494.224V223.445H477.861C468.966 223.445 463.664 227.766 463.664 237.419V249.653H453.317V271.285H463.081V303.556C463.081 322.136 468.824 334.528 496.947 334.528C502.833 334.528 507.566 333.955 512.157 333.388L516.303 332.801V332.217ZM414.19 246.259C399.907 246.259 388.903 251.893 383.046 262.286C383.046 249.582 372.057 248.129 368.335 248.129H354.766V332.174H385.768V296.654C385.768 279.47 391.468 271.243 403.613 271.243C412.48 271.243 416.755 277.888 416.755 291.464V332.174H447.757V279.914C447.757 263.586 438.905 246.259 414.19 246.259ZM745.961 247.472C734.5 247.472 726.475 251.236 720.759 262.075C720.759 249.354 709.568 247.914 705.864 247.914H692.394V332.174H723.325V296.612C723.325 280.426 731.209 273.495 744.818 272.342L755.268 271.757L755.124 247.759L745.961 247.472ZM673.849 247.472C662.377 247.472 654.365 251.236 648.648 262.075C648.648 249.354 637.461 247.914 633.755 247.914H620.284V332.174H651.216V296.612C651.216 280.426 659.097 273.495 672.695 272.342L683.142 271.757L682.999 247.759L673.849 247.472ZM812.668 295.497L809.944 295.342L800.766 294.913C794.153 294.913 783.248 296.354 783.248 305.308C783.248 310.356 787.98 313.822 794.878 313.822C805.639 313.822 812.369 304.454 812.668 295.497ZM843.669 332.161H814.963L814.678 326.243L814.379 319.881C807.493 329.706 799.168 334.185 787.123 334.185C771.917 334.185 754.113 327.113 754.113 307.319C754.113 283.507 778.801 278.459 799.452 278.459C803.629 278.459 808.647 278.9 812.668 279.47C812.224 270.659 806.196 266.48 793.595 266.48C778.501 266.622 765.445 271.527 765.445 271.527L765.032 250.595C765.032 250.595 782.236 245.975 800.037 246.259C826.734 246.56 841.802 258.966 841.802 281.195V311.94C841.802 319.881 842.358 325.799 843.526 331.433L843.669 332.161ZM567.39 265.396C558.238 265.396 552.508 271.471 551.511 281.582H583.266C583.125 275.378 580.829 265.396 567.39 265.396ZM611.448 293.146V299.063H551.924C553.648 309.046 561.518 313.807 576.396 313.807C582.827 313.807 592.417 312.654 602.439 307.449L603.436 307.022V328.695L603.023 328.838C593.702 332.303 583.125 334.185 571.108 334.185C540.777 334.185 520.467 316.403 520.467 289.966C520.467 263.372 538.767 246.175 567.103 246.175C595.282 246.175 611.448 263.23 611.448 293.146ZM297.11 267.434C285.393 267.434 278.38 275.962 278.38 290.25C278.38 304.426 285.393 312.794 297.11 312.794C308.838 312.794 315.852 304.426 315.852 290.25C315.852 275.962 308.838 267.434 297.11 267.434ZM347.896 290.25C347.896 316.561 327.584 334.185 297.11 334.185C266.777 334.185 246.323 316.561 246.323 290.25C246.323 263.828 266.777 246.189 297.11 246.189C327.584 246.189 347.896 263.828 347.896 290.25ZM208.737 245.119V267.606H243.33C243.33 267.606 243.472 289.239 228.749 289.239H208.737V332.63H177.008V244.849C177.165 234.895 185.731 224.372 197.888 223.645H260.906C260.906 223.645 263.057 245.119 246.766 245.119H208.737Z" fill="#09559C"/>
<mask id="mask0_1077_29128" style="mask-type:luminance" maskUnits="userSpaceOnUse" x="685" y="112" width="286" height="416">
<path fill-rule="evenodd" clip-rule="evenodd" d="M891.654 309.046C856.789 431.153 718.913 513.286 685.674 527.718C684.817 528.159 971.104 467.199 970.804 288.542C970.635 172.684 841.353 112.621 840.414 112.621C898.083 182.08 908.418 250.382 891.654 309.046Z" fill="white"/>
</mask>
<g mask="url(#mask0_1077_29128)">
<path fill-rule="evenodd" clip-rule="evenodd" d="M840.404 112.619C898.075 182.078 908.41 250.382 891.66 309.045C856.783 431.135 718.906 513.272 685.666 527.717C684.81 528.159 971.097 467.199 970.811 288.54C970.612 171.997 839.82 111.92 840.404 112.619Z" fill="#09559C"/>
</g>
<path d="M840.403 112.622L840.146 112.836C881.639 162.802 898.573 212.14 898.573 257.699C898.573 275.411 896.02 292.565 891.33 308.949C856.538 430.868 718.704 513.017 685.535 527.418L685.479 527.449C685.463 527.476 685.364 527.493 685.336 527.721L685.51 528.018L685.636 528.064H685.665L685.992 528.005C690.881 527.049 762.122 511.093 832.178 473.477C902.209 435.845 971.137 376.526 971.137 288.813V288.543C971.051 230.479 938.611 186.417 906.098 156.883C889.85 142.112 873.585 130.974 861.313 123.532C855.184 119.796 850.052 117 846.416 115.133C844.608 114.192 843.168 113.493 842.157 113.021C841.657 112.779 841.273 112.608 840.986 112.479L840.659 112.352L840.559 112.308L840.403 112.281L840.261 112.308L840.06 112.622L840.16 112.85L840.403 112.622H840.73L840.644 112.394L840.403 112.622L840.544 112.922L840.73 112.622H840.403V112.951L840.544 112.922L840.403 112.622V112.951V112.695L840.346 112.951H840.403V112.695L840.346 112.951C840.346 112.936 840.544 113.021 840.831 113.15C845.42 115.161 877.819 131.118 909.063 160.521C940.309 189.937 970.382 232.759 970.469 288.543V288.813C970.483 377.523 899.627 437.171 828.529 474.659C792.981 493.397 757.389 506.573 730.621 515.084C717.237 519.336 706.048 522.415 698.181 524.426C694.247 525.438 691.139 526.179 688.983 526.662C687.916 526.921 687.09 527.091 686.52 527.221C686.235 527.277 686.021 527.321 685.862 527.348L685.692 527.392H685.65L685.665 527.634V527.392H685.65L685.665 527.634V527.392V527.704L685.721 527.392H685.665V527.704L685.721 527.392L685.665 527.721L685.835 527.434L685.721 527.392L685.665 527.721H686.007L685.835 527.434L685.665 527.721L685.85 528.005C685.878 527.976 685.977 527.962 686.007 527.721H685.665L685.85 528.005L685.678 527.735L685.807 528.033L685.85 528.005L685.678 527.735L685.807 528.033C719.103 513.546 857.023 431.424 891.973 309.135C896.676 292.692 899.243 275.482 899.243 257.699C899.243 211.969 882.224 162.475 840.659 112.409V112.394H840.644L840.403 112.622Z" fill="white"/>
<path d="M636.071 43.0351L636.127 42.7067C636.113 42.7067 581.636 33.4961 503.926 33.4961C459.453 33.4961 407.385 36.5186 353.562 45.987C271.801 60.3882 185.51 90.9053 115.895 145.163C52.7793 194.359 33.7656 245.194 33.7656 288.499C33.7797 353.709 76.768 401.765 76.784 401.807L77.4689 402.562L77.3682 401.551C76.9251 397.015 76.6975 392.31 76.6975 387.433C76.6834 317.604 123.72 214.007 244.094 138.832C332.368 83.7036 461.905 44.4758 636.071 43.3636L636.127 42.7067L636.071 43.0351V42.7067C461.805 43.8048 332.14 83.0468 243.752 138.261C123.208 213.552 76.0287 317.304 76.0287 387.433C76.0287 392.324 76.2563 397.059 76.7116 401.607L77.0399 401.579L77.2816 401.351C77.2816 401.351 76.627 400.61 75.4588 399.169C67.2612 389.13 34.4343 345.296 34.4343 288.499C34.4504 245.393 53.3211 194.8 116.308 145.691C185.795 91.5178 272.003 61.031 353.677 46.6439C407.458 37.1735 459.481 34.1651 503.926 34.1651C542.752 34.1651 575.777 36.4622 599.097 38.7714C610.757 39.9119 619.994 41.0665 626.306 41.9228C629.458 42.3641 631.896 42.7207 633.533 42.9645C635.174 43.2205 636.014 43.3636 636.014 43.3636L636.071 43.0351Z" fill="white"/>
<mask id="mask1_1077_29128" style="mask-type:luminance" maskUnits="userSpaceOnUse" x="34" y="33" width="603" height="369">
<path fill-rule="evenodd" clip-rule="evenodd" d="M353.61 46.3166C271.893 60.7057 185.659 91.2208 116.099 145.42C-41.8748 268.568 77.0292 401.58 77.0292 401.58C70.1327 332.065 115.059 219.028 243.915 138.547C332.255 83.3764 461.851 44.1344 636.077 43.0362C636.077 43.0362 581.599 33.8398 503.914 33.8398C459.458 33.8398 407.431 36.8341 353.61 46.3166Z" fill="white"/>
</mask>
<g mask="url(#mask1_1077_29128)">
<path fill-rule="evenodd" clip-rule="evenodd" d="M636.07 43.0354C636.07 43.0354 501.457 20.2902 353.618 46.3138C271.901 60.7028 185.652 91.2038 116.093 145.433C-41.8795 268.565 77.0387 401.579 77.0387 401.579C70.1402 332.064 115.054 219.027 243.922 138.546C332.251 83.3755 461.861 44.1477 636.07 43.0354Z" fill="#2BACE2"/>
</g>
<path d="M636.063 43.0311L636.119 42.6885C636.105 42.6885 581.628 33.4922 503.917 33.4922C459.445 33.4922 407.377 36.5006 353.554 45.9831C271.794 60.3702 185.502 90.8872 115.873 145.159C52.7574 194.355 33.7437 245.189 33.7578 288.495C33.7578 353.704 76.7602 401.774 76.7762 401.803L77.4732 402.574L77.3745 401.546C76.9172 397.011 76.6896 392.306 76.6896 387.43C76.6896 317.6 123.726 214.003 244.099 138.828C332.36 83.6997 461.896 44.486 636.063 43.3737L636.119 42.6885L636.063 43.0311V42.6885C461.797 43.8008 332.132 83.0429 243.728 138.257C123.185 213.548 76.0209 317.299 76.0049 387.43C76.0049 392.32 76.2345 397.055 76.6896 401.603L77.0321 401.575L77.2879 401.347C77.2879 401.347 76.6192 400.606 75.451 399.165C67.2534 389.112 34.4265 345.278 34.4426 288.495C34.4426 245.389 53.3133 194.797 116.301 145.701C185.803 91.5139 271.995 61.027 353.669 46.6521C407.45 37.1856 459.473 34.1611 503.917 34.1611C542.744 34.1611 575.769 36.4723 599.088 38.7674C610.749 39.924 619.972 41.0625 626.299 41.933C629.451 42.3601 631.888 42.7168 633.525 42.9747C635.166 43.2306 636.006 43.3737 636.006 43.3737L636.063 43.0311Z" fill="white"/>
<mask id="mask2_1077_29128" style="mask-type:luminance" maskUnits="userSpaceOnUse" x="95" y="361" width="720" height="177">
<path fill-rule="evenodd" clip-rule="evenodd" d="M95.3906 421.938C95.3906 421.938 213.269 537.329 402.718 537.329C679.695 537.329 791.757 414.71 812.211 386.718C814.406 383.696 815.119 382.6 813.951 383.397C794.924 396.344 697.027 413.898 599.203 403.86C514.75 395.09 454.158 371.047 316.026 362.293C308.457 361.821 301.059 361.594 293.804 361.594C179.047 361.594 101.805 417.876 95.3906 421.938Z" fill="white"/>
</mask>
<g mask="url(#mask2_1077_29128)">
<path fill-rule="evenodd" clip-rule="evenodd" d="M95.3984 421.932C102.211 417.626 189.102 354.256 316.032 362.298C454.166 371.053 514.743 395.096 599.197 403.851C697.032 413.904 794.929 396.335 813.942 383.389C815.111 382.604 814.412 383.69 812.205 386.726C791.751 414.718 679.701 537.335 402.724 537.335C213.275 537.335 95.3984 421.932 95.3984 421.932Z" fill="#7BC144"/>
</g>
<mask id="mask3_1077_29128" style="mask-type:luminance" maskUnits="userSpaceOnUse" x="95" y="361" width="720" height="177">
<path fill-rule="evenodd" clip-rule="evenodd" d="M95.3906 421.938C95.3906 421.938 213.269 537.329 402.718 537.329C679.695 537.329 791.757 414.71 812.211 386.718C814.406 383.696 815.119 382.6 813.951 383.397C794.924 396.344 697.027 413.898 599.203 403.86C514.75 395.09 454.158 371.047 316.026 362.293C308.457 361.821 301.059 361.594 293.804 361.594C179.047 361.594 101.805 417.876 95.3906 421.938Z" fill="white"/>
</mask>
<g mask="url(#mask3_1077_29128)">
<path d="M95.3954 421.93L95.5807 422.216C98.8017 420.176 119.669 405.119 154.106 390.56C188.528 375.986 236.477 361.926 293.793 361.926C301.048 361.926 308.459 362.153 315.999 362.638C454.104 371.38 514.653 395.422 599.164 404.189C619.418 406.271 639.687 407.172 659.258 407.172C696.732 407.172 731.653 403.877 759.092 399.302C786.545 394.709 806.486 388.876 814.139 383.671L814.409 383.5L814.467 383.472L814.437 383.315V383.486L814.467 383.472L814.437 383.315V383.486V383.202L814.24 383.387L814.437 383.486V383.202L814.24 383.387L814.423 383.216H814.155L814.24 383.387L814.423 383.216H814.155H814.24L814.155 383.188V383.216H814.24L814.155 383.188C814.155 383.273 813.94 383.671 813.555 384.23C813.169 384.784 812.629 385.553 811.916 386.525C791.533 414.43 679.6 536.992 402.72 537.004C308.059 537.004 231.291 508.174 178.182 479.339C151.625 464.923 130.986 450.507 116.976 439.698C109.976 434.294 104.645 429.786 101.053 426.637C99.2569 425.053 97.903 423.826 96.9906 422.972C96.0923 422.131 95.6371 421.688 95.6371 421.688L95.3954 421.93L95.1517 422.172C95.1819 422.202 213.115 537.676 402.72 537.676C679.797 537.689 791.975 415 812.471 386.923C813.228 385.896 813.796 385.084 814.196 384.499C814.397 384.199 814.538 383.957 814.653 383.758C814.752 383.545 814.836 383.43 814.836 383.216L814.737 382.932L814.437 382.803L814.097 382.901L813.754 383.101C806.314 388.179 786.374 394.053 758.978 398.63C731.581 403.193 696.687 406.487 659.258 406.487C639.701 406.487 619.461 405.591 599.235 403.507C514.838 394.752 454.219 370.71 316.043 361.954C308.488 361.47 301.061 361.242 293.793 361.242C236.365 361.242 188.315 375.331 153.834 389.932C119.356 404.518 98.4024 419.634 95.21 421.643L94.8516 421.873L95.1517 422.172L95.3954 421.93Z" fill="white"/>
</g>
</g>
<defs>
<clipPath id="clip0_1077_29128">
<rect width="1024" height="589" fill="white"/>
</clipPath>
</defs>
</svg>
