<svg width="1024" height="277" viewBox="0 0 1024 277" fill="none" xmlns="http://www.w3.org/2000/svg">
<path d="M941.383 198.094V254.334H1008.39V247.091H957.687V227.109H1006.27V219.949H957.687V205.254H1008.39V198.094H941.383Z" fill="#003563"/>
<mask id="mask0_1077_29127" style="mask-type:luminance" maskUnits="userSpaceOnUse" x="833" y="195" width="97" height="61">
<path d="M833.469 195.637H929.545V255.832H833.469V195.637Z" fill="white"/>
</mask>
<g mask="url(#mask0_1077_29127)">
<path d="M857.239 229.689H867.205L904.151 254.333H924.792L886.596 229.314C903.609 228.273 912.449 223.861 912.449 213.578C912.449 207.584 907.695 203.005 901.983 201.215C894.852 199.008 885.636 198.051 873.502 198.051H841.602V254.333H857.239V229.689ZM857.364 222.612V205.211H870.791C887.179 205.211 894.31 206.418 894.31 213.953C894.31 221.321 886.887 222.612 870.791 222.612H857.364Z" fill="#003563"/>
</g>
<mask id="mask1_1077_29127" style="mask-type:luminance" maskUnits="userSpaceOnUse" x="203" y="195" width="119" height="61">
<path d="M203.633 195.637H321.059V255.832H203.633V195.637Z" fill="white"/>
</mask>
<g mask="url(#mask1_1077_29127)">
<path d="M302.001 254.334H320.599L266.098 195.887L211.555 254.334H229.986L243.08 239.847H289.241L302.001 254.334ZM249.46 232.645L261.344 219.407C262.595 217.908 264.805 215.536 266.223 213.746C267.807 215.536 270.018 217.908 271.269 219.407L283.153 232.645H249.46Z" fill="#003563"/>
</g>
<mask id="mask2_1077_29127" style="mask-type:luminance" maskUnits="userSpaceOnUse" x="598" y="195" width="108" height="61">
<path d="M598.609 195.637H705.36V255.832H598.609V195.637Z" fill="white"/>
</mask>
<g mask="url(#mask2_1077_29127)">
<path d="M668.915 203.88C644.145 203.88 627.299 212.706 627.299 226.402C627.299 239.931 644.479 248.59 667.039 248.59C680.424 248.59 692.392 245.842 703.442 241.013V250.546C693.476 254.085 682.009 255.833 668.456 255.833C651.109 255.833 636.306 252.919 625.256 247.466C614.247 242.054 608.242 234.519 608.242 226.318C608.242 218.034 614.247 210.666 625.422 205.171C636.598 199.634 651.276 196.762 668.123 196.762C681.675 196.762 693.476 198.718 704.527 202.548L703.61 211.374C693.185 206.836 681.675 203.88 668.915 203.88Z" fill="#003563"/>
</g>
<mask id="mask3_1077_29127" style="mask-type:luminance" maskUnits="userSpaceOnUse" x="15" y="195" width="93" height="61">
<path d="M15.2344 195.637H107.557V255.832H15.2344V195.637Z" fill="white"/>
</mask>
<g mask="url(#mask3_1077_29127)">
<path d="M15.6484 198.094H31.5777V219.949H89.7904V198.094H105.72V254.334H89.7904V227.109H31.5777V254.334H15.6484V198.094Z" fill="#003563"/>
</g>
<mask id="mask4_1077_29127" style="mask-type:luminance" maskUnits="userSpaceOnUse" x="395" y="195" width="87" height="61">
<path d="M395.781 195.637H481.182V255.832H395.781V195.637Z" fill="white"/>
</mask>
<g mask="url(#mask4_1077_29127)">
<path d="M445.865 254.334H429.936V205.212H398.828V198.094H476.848V205.212H445.865V254.334Z" fill="#003563"/>
</g>
<mask id="mask5_1077_29127" style="mask-type:luminance" maskUnits="userSpaceOnUse" x="331" y="195" width="76" height="61">
<path d="M331.734 195.637H406.46V255.832H331.734V195.637Z" fill="white"/>
</mask>
<g mask="url(#mask5_1077_29127)">
<path d="M337.07 198.094H353.041V247.133H399.495V254.334H337.07V198.094Z" fill="#003563"/>
</g>
<mask id="mask6_1077_29127" style="mask-type:luminance" maskUnits="userSpaceOnUse" x="705" y="195" width="129" height="61">
<path d="M705.359 195.637H833.46V255.832H705.359V195.637Z" fill="white"/>
</mask>
<g mask="url(#mask6_1077_29127)">
<path d="M806.189 254.334H824.787L770.244 195.887L715.742 254.334H734.173L747.267 239.847H793.428L806.189 254.334ZM753.647 232.645L765.531 219.407C766.782 217.908 769.034 215.536 770.41 213.746C771.995 215.536 774.205 217.908 775.456 219.407L787.34 232.645H753.647Z" fill="#003563"/>
</g>
<mask id="mask7_1077_29127" style="mask-type:luminance" maskUnits="userSpaceOnUse" x="128" y="195" width="76" height="61">
<path d="M128.906 195.637H203.632V255.832H128.906V195.637Z" fill="white"/>
</mask>
<g mask="url(#mask7_1077_29127)">
<path d="M130.578 198.094H197.589V205.212H146.924V219.949H195.463V227.067H146.924V247.091H197.589V254.334H130.578V198.094Z" fill="#003563"/>
</g>
<mask id="mask8_1077_29127" style="mask-type:luminance" maskUnits="userSpaceOnUse" x="491" y="195" width="108" height="61">
<path d="M491.859 195.637H598.61V255.832H491.859V195.637Z" fill="white"/>
</mask>
<g mask="url(#mask8_1077_29127)">
<path d="M497.953 198.094H513.882V219.949H572.095V198.094H588.024V254.334H572.095V227.109H513.882V254.334H497.953V198.094Z" fill="#003563"/>
</g>
<mask id="mask9_1077_29127" style="mask-type:luminance" maskUnits="userSpaceOnUse" x="780" y="163" width="229" height="22">
<path d="M780.094 163.664H1008.81V184.978H780.094V163.664Z" fill="white"/>
</mask>
<g mask="url(#mask9_1077_29127)">
<path d="M788.396 170.617L785.602 177.777H1008.78V170.617H788.396Z" fill="#003563"/>
</g>
<mask id="mask10_1077_29127" style="mask-type:luminance" maskUnits="userSpaceOnUse" x="15" y="163" width="744" height="22">
<path d="M15.2344 163.664H758.738V184.978H15.2344V163.664Z" fill="white"/>
</mask>
<g mask="url(#mask10_1077_29127)">
<path d="M752.942 170.617H15.2344V177.777H749.94L752.942 170.617Z" fill="#003563"/>
</g>
<mask id="mask11_1077_29127" style="mask-type:luminance" maskUnits="userSpaceOnUse" x="982" y="21" width="27" height="133">
<path d="M982.914 21.168H1008.81V153.006H982.914V21.168Z" fill="white"/>
</mask>
<g mask="url(#mask11_1077_29127)">
<path d="M987.297 22.293H1008.06V149.219H987.297V22.293Z" fill="#003563"/>
</g>
<path d="M981.333 111.338C981.666 109.631 982 107.258 982 103.886C982 80.7407 964.028 60.4258 938.633 60.4258C911.945 60.4258 892.805 79.8248 892.805 106.093C892.805 131.861 912.445 150.386 938.299 150.386C962.443 150.386 977.955 133.651 980.165 120.913H958.773C956.355 125.7 951.935 132.693 937.548 132.693C924.371 132.693 915.364 122.37 913.863 111.338H981.333ZM915.531 94.6031C916.865 85.2366 926.706 77.785 938.174 77.785C949.975 77.785 958.523 85.2366 960.358 94.6031H915.531Z" fill="#003563"/>
<mask id="mask12_1077_29127" style="mask-type:luminance" maskUnits="userSpaceOnUse" x="822" y="21" width="87" height="133">
<path d="M822.789 21.168H908.19V153.006H822.789V21.168Z" fill="white"/>
</mask>
<g mask="url(#mask12_1077_29127)">
<path d="M825.75 22.293H846.308V94.2692L878 63.672H902.477L865.782 98.1823L905.605 149.219H883.212L853.522 110.463L846.308 118.081V149.219H825.75V22.293Z" fill="#003563"/>
</g>
<path d="M771.207 144.14L740.016 63.5469H760.865L781.632 119.621L801.856 63.5469H823.123L778.713 177.776H757.238L771.207 144.14Z" fill="#003563"/>
<path d="M736.887 63.7579H717.914V71.1262C712.076 62.8005 698.065 61.0938 689.474 61.0938C676.839 61.0938 665.539 65.9643 656.824 76.2466C648.859 85.405 646.023 95.4792 646.023 105.47C646.023 116.127 649.902 127.575 656.782 135.984C664.246 144.976 675.422 150.679 688.849 150.679C699.733 150.679 711.367 149.139 717.914 140.147V149.222H736.887V63.7579ZM717.288 105.304C717.288 121.789 706.988 133.32 692.018 133.195C677.965 133.32 666.456 122.08 666.456 106.219C666.456 90.9 677.048 78.9525 692.31 79.1191C706.988 78.9528 717.288 90.6086 717.288 105.304Z" fill="#003563"/>
<mask id="mask13_1077_29127" style="mask-type:luminance" maskUnits="userSpaceOnUse" x="566" y="21" width="97" height="133">
<path d="M566.586 21.168H662.662V153.006H566.586V21.168Z" fill="white"/>
</mask>
<g mask="url(#mask13_1077_29127)">
<path d="M591.901 73.1617V42.6894H606.788C611.708 42.6894 618.588 42.3567 623.551 43.6046C630.264 45.3531 635.227 50.4318 635.227 57.5087C635.227 64.3358 630.765 69.8308 624.176 71.9122C618.755 73.4942 612.334 73.1611 606.788 73.1611L591.901 73.1617ZM591.901 149.218V94.1843H607.079C619.089 94.1843 633.225 94.8088 643.275 87.0658C652.782 79.7808 657.744 68.7491 657.744 57.2179C657.744 45.5202 651.656 34.2803 641.648 27.8279C631.432 21.2089 620.423 21.6669 608.747 21.6669H569.383V149.218H591.901Z" fill="#003563"/>
</g>
<mask id="mask14_1077_29127" style="mask-type:luminance" maskUnits="userSpaceOnUse" x="449" y="21" width="107" height="133">
<path d="M449.156 21.168H555.907V153.006H449.156V21.168Z" fill="white"/>
</mask>
<g mask="url(#mask14_1077_29127)">
<path d="M541.646 149.218H549.736L534.14 127.738C540.437 119.204 543.814 106.299 543.814 94.1018H537.81C537.601 106.507 534.223 116.207 530.137 122.243L496.736 76.1597C509.454 68.9996 522.214 60.0077 522.214 43.4811C522.214 28.7861 509.829 21.168 498.028 21.168C486.06 21.168 474.385 30.16 474.385 44.6051C474.385 56.6359 482.308 66.0024 488.062 74.3697C473.968 81.9878 455.578 93.7688 455.578 115.207C455.578 136.438 473.425 150.301 494.901 150.301C510.413 150.301 522.214 143.016 530.179 133.066L541.646 149.218ZM493.483 71.6638C486.436 62.339 480.514 53.9715 480.514 44.0223C480.514 34.1146 489.688 26.9545 498.57 26.9545C506.702 26.9545 516.626 32.6576 516.626 44.0223C516.626 57.5932 504.492 65.7525 493.483 71.6638ZM526.592 127.988C525.425 129.611 514.249 144.514 494.901 144.514C479.222 144.514 461.875 133.025 461.875 115.79C461.875 97.2239 477.262 86.4421 491.356 79.0738L526.592 127.988Z" fill="#003563"/>
</g>
<path d="M393.367 63.4227H412.215V70.7078C417.053 63.2979 427.477 61.5078 433.607 61.5078C436.109 61.5078 439.654 61.6741 441.405 62.2155V78.7421C436.735 78.2423 426.31 79.0747 420.555 83.4878C414.425 88.1919 413.925 94.7276 414.092 101.971V149.22H393.367V63.4227Z" fill="#003563"/>
<path d="M386.403 111.338C386.737 109.631 387.07 107.258 387.07 103.886C387.07 80.7407 369.098 60.4258 343.703 60.4258C317.015 60.4258 297.875 79.8248 297.875 106.093C297.875 131.861 317.516 150.386 343.369 150.386C367.513 150.386 383.026 133.651 385.236 120.913H363.844C361.425 125.7 357.005 132.693 342.619 132.693C329.4 132.693 320.434 122.37 318.933 111.338H386.403ZM320.601 94.6031C321.894 85.2366 331.777 77.785 343.244 77.785C355.045 77.785 363.594 85.2366 365.428 94.6031H320.601Z" fill="#003563"/>
<mask id="mask15_1077_29127" style="mask-type:luminance" maskUnits="userSpaceOnUse" x="203" y="21" width="97" height="133">
<path d="M203.633 21.168H299.709V153.006H203.633V21.168Z" fill="white"/>
</mask>
<g mask="url(#mask15_1077_29127)">
<path d="M212.641 22.293H233.407V68.3345C238.077 61.8403 248.586 58.8431 256.675 58.8431C268.101 58.8431 277.859 62.6313 284.322 69.7498C292.746 78.9081 292.454 90.148 292.454 101.804V149.219H272.104V106.383C272.104 93.2701 273.022 77.5344 252.839 77.5344C246.542 77.5344 239.954 80.3236 236.66 85.8602C233.24 91.938 233.407 100.555 233.407 106.716V149.219H212.641V22.293Z" fill="#003563"/>
</g>
<path d="M149.919 120.121C150.086 130.57 157.842 133.858 169.768 133.858C176.273 133.858 188.366 131.402 187.407 121.245C186.614 113.044 179.275 113.627 159.551 111.92C146.166 110.754 133.739 102.845 133.739 87.4837C133.739 65.2539 152.921 59.5508 169.184 59.5508C187.282 59.5508 202.836 66.2946 204.587 85.4023H182.987C182.319 77.1182 176.148 75.5363 168.016 75.5363C162.846 75.5363 153.88 77.7426 154.381 84.8195C154.964 93.395 164.68 93.853 177.983 94.6023C194.621 95.4761 207.381 103.303 207.381 121.037C207.381 138.021 192.953 150.801 169.601 150.801C150.377 150.801 131.654 143.225 130.695 120.121H149.919Z" fill="#003563"/>
<mask id="mask16_1077_29127" style="mask-type:luminance" maskUnits="userSpaceOnUse" x="96" y="21" width="33" height="133">
<path d="M96.8828 21.168H128.908V153.006H96.8828V21.168Z" fill="white"/>
</mask>
<g mask="url(#mask16_1077_29127)">
<path d="M104.391 63.5452H125.115V149.217H104.391V63.5452ZM104.391 21.625H125.115V42.814H104.391V21.625Z" fill="#003563"/>
</g>
<mask id="mask17_1077_29127" style="mask-type:luminance" maskUnits="userSpaceOnUse" x="15" y="21" width="93" height="133">
<path d="M15.2344 21.168H107.557V153.006H15.2344V21.168Z" fill="white"/>
</mask>
<g mask="url(#mask17_1077_29127)">
<path d="M15.2344 21.668H100.051V42.8155H39.0866V63.5883H92.0868V84.028H39.0866V149.219H15.2344V21.668Z" fill="#003563"/>
</g>
</svg>
