<svg width="1024" height="281" viewBox="0 0 1024 281" fill="none" xmlns="http://www.w3.org/2000/svg">
<path d="M287.491 14.2939C291.01 13.9218 300.799 13.9767 304.745 14.0174C319.258 14.1363 338.818 12.6202 350.786 22.3061C367.999 36.2403 364.776 70.7122 364.841 90.7274L364.853 155.715L364.773 204.991C364.708 236.498 367.75 266.057 327.959 270.532C258.576 271.004 249.328 273.276 249.645 199.297L249.872 144.794C249.655 124.296 249.545 103.798 249.541 83.2992C249.527 49.5079 245.371 19.0061 287.491 14.2939ZM320.889 238.828C322.499 238.288 326.287 237.121 326.938 235.743C331.511 226.07 329.696 207.216 329.658 196.752L329.545 143.052L329.584 94.0515C329.643 86.2178 331.135 56.5028 327.036 49.8664C324.094 45.1004 299.953 46.2001 293.317 46.7683C290.584 47.4794 289.153 47.7125 287.005 49.6431C282.978 58.3133 284.346 98.882 284.116 111.385C283.72 134.52 283.663 157.66 283.945 180.797C284.022 197.842 282.827 217.36 286.356 233.796C288.023 241.557 314.689 239.104 320.889 238.828Z" fill="#F75C19"/>
<path d="M485.225 14.3073C502.449 13.02 533.294 11.3914 545.984 24.1485C559.684 37.9172 557.849 62.161 557.825 80.2665L557.816 121.788C558.068 171.69 558 221.594 557.609 271.495C550.654 270.83 530.313 271.295 522.447 271.296C521.559 251.304 521.109 231.295 521.091 211.283C521.177 200.54 522.32 187.598 522.024 177.109C511.257 176.5 493.559 177.594 483.923 176.045C484.81 184.941 484.402 195.623 484.657 204.63C485.269 226.523 483.772 250.043 484.544 271.766C475.503 271.046 458.533 271.365 449.293 271.372C448.257 258.396 448.55 238.613 448.553 225.431L448.571 153.581L448.524 87.033C448.592 53.3725 442.699 19.5946 485.225 14.3073ZM512.18 145.574L522.376 145.696C521.02 125.245 521.964 104.378 521.592 83.7586C521.497 78.5924 522.823 54.0649 519.144 49.8017C515.64 45.7405 501.304 46.5273 495.37 46.753C492.952 47.1266 489.954 47.2795 488.246 49.2104C480.691 57.743 486.459 129.419 484.725 145.251L512.18 145.574Z" fill="#F75C19"/>
<path d="M586.716 13.1491C656.976 15.8973 700.638 -6.05232 693.6 89.6613C691.599 116.894 701.289 147.356 672.933 164.334C675.757 173.291 679.071 190.716 681.211 200.423C686.319 224.005 691.584 247.553 697.006 271.065C685.881 271.308 674.753 271.265 663.632 270.939C662.513 259.962 656.899 238.323 654.433 226.324C649.911 206.674 645.735 186.946 641.909 167.148C635.235 167.822 627.362 167.419 620.629 167.094C621.778 174.05 620.999 188.698 621.218 196.361C621.926 221.166 621.023 246.47 621.503 271.187C610.162 271.773 598.921 271.123 587.104 271.97C585.618 258.608 585.976 232.678 585.935 218.499L585.95 123.921L585.802 52.4723C585.805 42.2445 585.361 22.4729 586.716 13.1491ZM654.208 134.373C661.551 124.177 656.635 83.1714 657.775 68.7845C658.319 61.9352 656.765 54.801 653.909 48.5389C644.454 45.6579 631.023 46.4151 620.76 46.413C621.92 75.7379 620.934 108.131 621.5 138.215C630.985 137.858 647.828 139.43 654.208 134.373Z" fill="#F75C19"/>
<path d="M864.164 6.09396C900.223 5.2163 897.361 4.53956 925.938 28.3688C913.473 36.9344 907.681 43.7207 913.866 57.8157C913.955 58.0183 904.07 79.3412 902.596 80.6429C902.013 81.1585 897.639 82.6599 896.875 84.5062C903.78 86.6652 926.82 86.2671 935.788 87.2805C937.904 77.901 945.788 65.3681 950.035 55.4955C948.892 54.5584 947.697 53.585 946.702 52.4882C945.143 50.7661 944.764 47.9836 944.859 45.7498C945.009 42.2084 946.8 39.162 949.381 36.8084C952.275 34.167 956.084 32.5851 960.032 32.8191C962.767 32.9809 965.383 34.0531 967.188 36.1541C969.221 38.5181 969.757 41.9377 969.532 44.9571C969.056 51.4118 950.363 99.1898 945.388 103.465C940.709 107.484 934.163 105.204 927.93 110.562C923.479 114.391 916.252 113.623 910.726 113.214C915.21 131.18 916.693 151.742 920.496 170.007C920.996 172.407 918.169 174.889 918.684 178.041C921.534 178.155 924.192 178.964 926.864 179.903C936.098 183.147 952.041 189.467 959.064 196.001C966.478 202.902 979.834 236.698 985.238 248.006C986.12 247.421 987.032 246.883 987.97 246.393C995.182 242.684 1015.09 232.649 1020.32 242.87C1020.45 246.003 1019.74 246.777 1017.97 249.313C1014.81 253.866 987.038 271.95 983.495 272.331C978.408 270.337 971.616 253.789 967.342 248.506C963.066 243.216 957.987 237.392 954.104 231.901C950.482 226.78 947.001 218.105 942.556 213.706C939.247 214.877 936.255 224.047 934.917 227.41C925.474 225.889 915.612 224.111 906.189 222.747C892.463 219.55 900.072 237.702 891.963 243.543C886.804 247.259 883.759 245.989 877.68 245.339C877.991 250.286 878.855 257.569 877.186 262.023C874.327 264.58 874.442 262.333 871.814 263.399C867.606 265.103 871.317 267.573 869.171 272.114C866.815 272.918 844.876 273.023 843.329 271.637C842.337 269.288 842.914 266.559 843.222 264.011L825.225 263.859C825.089 261.338 825.039 258.693 824.95 256.158C823.369 253.771 818.43 254.512 817.412 253.477C814.935 250.962 817.367 248.016 813.458 245.04C811.229 244.784 809.945 245.582 807.915 246.527C806.716 247.994 807.24 252.587 807.305 254.761C803.079 254.773 793.925 253.972 790.335 254.922C788.977 257.268 791.294 268.584 781.723 262.86C780.598 259.651 781.27 251.601 781.442 247.718C784.005 244.134 786.292 247.816 789.506 245.108C790.385 241.63 789.187 236.434 789.234 232.461C789.32 225.203 796.796 229.796 798.693 226.717C799.288 225.751 798.125 221.801 801.004 219.192C803.188 218.917 803.656 218.87 805.586 219.919C807.352 221.716 807.249 224.926 807.465 227.521C809.948 227.733 813.331 227.719 815.26 229.135C816.921 231.074 816.595 234.284 816.631 236.919C825.631 236.969 834.63 237.1 843.63 237.312C843.258 240.173 842.263 243.443 844.184 245.625C846.572 246.056 849.233 245.824 851.672 245.707C851.532 239.761 850.677 215.013 852.796 211.111C854.85 209.735 858.126 210.117 860.686 210.159C860.18 201.339 860.426 192.173 860.781 183.354L851.799 184.023C851.686 181.256 851.201 174.223 851.571 171.767C852.918 162.835 857.943 167.161 860.455 165.201C861.269 162.256 860.526 145.307 861.018 139.332C853.862 139.937 840.55 139.367 833.166 138.946C834.352 147.177 833.5 156.793 834.524 165.78L824.672 165.642C825.32 173.226 825.065 185.152 825.124 192.998C819.271 192.985 813.414 193.022 807.56 193.107C807.145 188.956 806.482 170.228 807.752 166.865C809.652 165.232 812.484 166.157 815.84 165.479C818.128 162.534 815.186 150.834 815.5 146.721C816.113 138.668 819.383 138.971 826.03 138.954C825.5 134.771 824.405 128.122 825.776 124.199C828.528 121.18 828.069 123.313 832.266 121.401C835.107 117.683 832.591 118.763 833.976 113.92C837.244 111.728 838.315 113.567 842.16 111.852C844.045 109.678 843.918 108.311 844.027 105.466C847.318 102.924 855.543 104.049 860.192 104.221C861.447 89.4675 864.569 97.8818 869.05 94.0996C870.027 91.7986 869.393 81.2558 869.423 77.9125C859.085 77.3129 863.015 76.4797 859.707 69.6215C857.836 68.1293 854.252 68.5528 851.722 68.5806C851.346 63.7362 851.695 56.08 851.778 51.0341C848.182 51.1717 845.809 51.6467 843.201 49.2937C842.219 43.4513 842.902 22.631 843.018 15.6325C847.398 15.019 854.963 15.1653 859.828 14.9541C861.213 12.6116 860.639 11.8667 860.414 8.83442C861.707 6.39378 861.068 7.08844 864.164 6.09396Z" fill="#F75C19"/>
<path d="M43.3636 14.3145C48.8103 13.4883 56.503 14.1533 62.2164 13.9435C117.33 11.9199 114.733 43.5288 114.705 87.1598L80.713 87.2867C80.5215 60.1802 85.3917 38.6308 48.1725 47.6796C40.349 58.3735 42.5796 78.2323 42.5903 91.3538L42.6128 144.436L42.6261 195.241C42.5772 207.112 38.6189 238.377 53.7285 238.805C59.4934 238.968 74.0762 239.267 79.8866 238.598C80.8251 237.275 80.2374 178.009 79.5126 177.278C74.4171 176.599 68.1237 177.218 62.9084 177.55C62.8465 171.731 62.7432 165.913 62.5985 160.095C62.7625 155.033 62.6405 149.814 62.587 144.738C67.9946 146.138 106.654 145.592 114.895 145.562C114.117 158.426 114.486 175.335 114.456 188.462L114.631 270.656C99.1307 270.38 82.1643 270.387 66.6137 270.629C40.3588 271.036 14.818 271.725 9.08308 239.688C7.31349 229.802 7.99832 217.776 7.99403 207.553L7.97687 158.354L7.87012 87.3171C7.87935 82.3399 7.88728 77.1145 7.91711 72.1597C8.10445 41.0645 8.40964 19.612 43.3636 14.3145Z" fill="#F75C19"/>
<path d="M142.418 14.0427C169.27 14.8172 199.644 14.0762 226.757 14.0078C227.223 23.9486 227.031 36.0963 227.202 46.251C210.225 46.4421 193.247 46.456 176.271 46.2921C177.174 53.6135 176.78 69.0144 176.779 77.0525L176.99 123.046C189.215 122.295 208.444 122.841 221.199 122.755C221.817 132.6 221.436 144.764 221.354 154.803C208 154.13 188.694 155.459 175.981 153.904C177.127 161.195 176.831 174.173 176.829 181.891L176.768 224.984C176.813 229.803 176.977 234.576 176.298 239.353C192.987 239.709 209.612 238.515 226.595 239.396C227.231 249.116 227.091 260.655 227.202 270.516L142.125 270.587C142.713 185.073 142.811 99.5573 142.418 14.0427Z" fill="#F75C19"/>
<path d="M827.95 33.0509C829.551 32.5051 831.324 32.8669 832.582 33.9965C833.843 35.1258 834.393 36.8473 834.023 38.4975C833.653 40.1477 832.419 41.4693 830.797 41.9538C828.356 42.6829 825.781 41.3244 825.006 38.8986C824.227 36.4725 825.538 33.8723 827.95 33.0509Z" fill="#F75C19"/>
<path d="M757.888 211.069C759.326 210.259 761.09 210.299 762.493 211.172C763.893 212.045 764.703 213.613 764.609 215.26C764.514 216.908 763.529 218.372 762.037 219.079C759.838 220.12 757.21 219.235 756.091 217.077C754.976 214.918 755.766 212.262 757.888 211.069Z" fill="#F75C19"/>
</svg>
