<svg width="1024" height="322" viewBox="0 0 1024 322" fill="none" xmlns="http://www.w3.org/2000/svg">
<g clip-path="url(#clip0_1077_29133)">
<path d="M128.091 114.895V149.291H210.802C208.606 168.318 202.019 182.955 191.771 192.468C180.06 204.177 161.029 217.35 128.091 217.35C77.5869 217.35 38.0615 176.368 38.0615 125.873C38.0615 75.3773 76.8549 34.3955 128.091 34.3955C155.174 34.3955 175.668 45.3727 190.307 59.2773L214.462 35.1273C193.967 15.3682 166.153 0 128.091 0C58.5561 0 0 56.35 0 125.873C0 195.395 58.5561 251.745 128.091 251.745C165.421 251.745 193.967 239.305 215.926 216.618C238.616 193.932 245.936 161.732 245.936 136.118C245.936 128.068 245.204 120.75 244.472 114.895H128.091Z" fill="#4285F4"/>
<path d="M348.408 86.3555C303.759 86.3555 266.43 120.751 266.43 167.587C266.43 214.424 303.027 248.819 348.408 248.819C393.789 248.819 430.387 215.155 430.387 168.319C430.387 120.751 393.789 86.3555 348.408 86.3555ZM348.408 217.351C323.522 217.351 302.295 196.86 302.295 168.319C302.295 139.046 323.522 119.287 348.408 119.287C373.295 119.287 394.521 139.046 394.521 168.319C394.521 196.86 373.295 217.351 348.408 217.351Z" fill="#EA4335"/>
<path d="M748.788 104.651H747.324C739.272 95.1373 723.901 86.3555 704.139 86.3555C663.149 86.3555 628.016 121.483 628.016 167.587C628.016 212.96 663.149 248.819 704.139 248.819C723.901 248.819 739.272 240.037 747.324 230.524H748.788V242.233C748.788 272.969 731.953 289.801 705.602 289.801C683.644 289.801 670.469 274.433 664.613 260.528L633.871 273.701C642.655 294.924 666.809 322.001 706.334 322.001C748.056 322.001 783.921 297.119 783.921 237.11V90.7464H750.251V104.651H748.788ZM707.798 217.351C682.912 217.351 664.613 196.128 664.613 168.319C664.613 139.778 683.644 119.287 707.798 119.287C731.953 119.287 750.983 140.51 750.983 169.051C751.715 196.86 732.685 217.351 707.798 217.351Z" fill="#4285F4"/>
<path d="M530.666 86.3555C486.017 86.3555 448.688 120.751 448.688 167.587C448.688 214.424 485.285 248.819 530.666 248.819C576.047 248.819 612.645 215.155 612.645 168.319C612.645 120.751 576.047 86.3555 530.666 86.3555ZM530.666 217.351C505.78 217.351 484.553 196.86 484.553 168.319C484.553 139.046 505.78 119.287 530.666 119.287C555.552 119.287 576.779 139.046 576.779 168.319C576.779 196.86 555.552 217.351 530.666 217.351Z" fill="#FBBC05"/>
<path d="M811 3.66016H846.134V249.551H811V3.66016Z" fill="#34A853"/>
<path d="M954.468 217.351C936.169 217.351 923.726 209.301 914.942 192.469L1024 147.828L1020.34 138.315C1013.76 120.019 992.529 86.3555 950.808 86.3555C909.087 86.3555 873.953 119.287 873.953 167.587C873.953 212.96 908.355 248.819 954.468 248.819C991.797 248.819 1013.02 226.133 1022.54 212.96L994.725 194.665C985.21 208.569 972.767 217.351 954.468 217.351ZM952.272 117.092C966.911 117.092 979.354 124.41 983.014 134.655L909.819 165.392C909.087 131.728 933.973 117.092 952.272 117.092Z" fill="#EA4335"/>
</g>
<defs>
<clipPath id="clip0_1077_29133">
<rect width="1024" height="322" fill="white"/>
</clipPath>
</defs>
</svg>
