<svg width="1024" height="1024" viewBox="0 0 1024 1024" fill="none" xmlns="http://www.w3.org/2000/svg">
<rect width="1024" height="1024" fill="black"/>
<path d="M511.997 992.396C777.311 992.396 992.392 777.315 992.392 512.001C992.392 246.686 777.311 31.6055 511.997 31.6055C246.682 31.6055 31.6016 246.686 31.6016 512.001C31.6016 777.315 246.682 992.396 511.997 992.396Z" fill="white"/>
<path d="M229.658 451.317C218.702 451.317 209.852 447.946 203.11 441.204C193.839 431.933 189.625 418.869 189.625 397.799C189.625 378.415 194.26 364.087 203.531 355.238C210.695 348.074 219.544 344.703 230.079 344.703C241.457 344.703 250.728 348.496 257.892 356.502C263.37 362.402 265.898 368.723 266.32 376.729V377.572H251.149V376.729C250.728 371.673 249.042 367.88 245.671 364.509C241.457 360.295 236.822 358.609 230.079 358.609C223.337 358.609 218.28 360.716 213.645 365.352C205.638 373.78 204.374 388.107 204.374 398.221C204.374 410.863 205.217 423.505 212.802 431.09C217.437 436.147 221.651 437.832 229.237 437.832C235.979 437.832 241.036 435.725 245.25 431.511C250.306 426.455 252.835 418.448 253.256 407.07H227.13V393.585H266.741V450.053H257.049L255.363 439.939C253.256 442.468 250.728 444.996 247.357 447.103C241.878 449.632 235.979 451.317 229.658 451.317Z" fill="black"/>
<path d="M461.006 449.212H444.993L426.03 407.072H404.539V449.212H390.211V346.391H425.608C436.986 346.391 445.836 349.34 451.735 355.661C457.213 361.561 460.163 368.303 460.163 376.731C460.163 385.159 457.635 391.48 452.157 397.38C449.207 400.33 445.414 402.858 440.779 404.544L461.006 449.212ZM404.539 393.587H425.608C438.672 393.587 445.414 388.109 445.414 376.731C445.414 362.825 434.879 359.875 425.608 359.875H404.539V393.587Z" fill="black"/>
<path d="M634.199 449.212H574.781V436.991H597.115V358.611H574.781V346.391H634.199V358.611H611.864V436.991H634.199V449.212Z" fill="black"/>
<path d="M765.258 574.785H779.585V664.122H831.839V677.607H765.258" fill="black"/>
<path d="M795.598 449.212H764.414V346.391H795.598C810.768 346.391 822.146 352.29 828.888 362.404C835.209 372.096 836.052 385.159 836.052 397.38C836.052 408.758 835.209 423.085 828.888 433.199C822.146 443.734 810.768 449.212 795.598 449.212ZM778.742 435.727H795.176C803.183 435.727 809.504 433.199 813.718 428.985C820.039 422.243 820.46 410.865 820.46 397.801C820.46 385.159 820.039 373.36 813.296 366.618C809.082 362.404 803.183 360.297 795.176 360.297H778.742V435.727Z" fill="black"/>
<path d="M651.054 678.029H634.198L605.122 627.882L589.108 646.424V678.45H574.359V575.629H589.108V626.197L633.355 575.629H651.475L615.657 616.505L651.054 678.029Z" fill="black"/>
<path d="M461.85 678.028H446.679L438.251 651.902H400.325L391.897 678.028H377.148L410.86 575.207H427.716L461.85 678.028ZM404.961 637.995H434.459L419.71 591.642L404.961 637.995Z" fill="black"/>
<path d="M201.423 679.716H188.781L258.312 573.102H270.954L201.423 679.716Z" fill="black"/>
</svg>
