<svg width="1024" height="187" viewBox="0 0 1024 187" fill="none" xmlns="http://www.w3.org/2000/svg">
<g clip-path="url(#clip0_1077_29138)">
<path d="M142.597 2.05078V184.49H103.063V108.093H39.077V184.49H0V2.05078H39.077V74.5703H102.834V2.05078H142.597Z" fill="#0F5FDC"/>
<path d="M163.852 93.272C163.852 31.6988 203.614 0 249.09 0C291.823 0 323.13 25.9976 327.701 65.45H289.538C287.024 46.522 270.342 33.7512 248.861 33.7512C221.439 33.7512 200.186 54.2756 200.186 93.5C200.186 132.496 221.439 152.793 248.861 152.793C270.799 152.793 287.481 140.022 290.452 121.322H326.787C323.816 160.09 292.509 186.544 249.09 186.544C202.929 186.544 163.852 154.617 163.852 93.272Z" fill="#0F5FDC"/>
<path d="M523.769 36.259H469.609V2.50781H617.005V36.031H562.846V184.719H523.769V36.259Z" fill="#0F5FDC"/>
<path d="M728.983 140.478C723.727 168.756 698.819 187 666.369 187C621.579 187 598.727 152.109 598.727 119.042C598.727 85.9744 619.065 51.5391 663.855 51.5391C708.416 51.5391 728.983 85.7464 728.983 115.621C728.983 120.638 728.755 124.515 728.526 127.251H633.919C636.432 145.723 648.316 157.126 666.597 157.126C681.222 157.126 690.82 151.424 693.791 140.25L728.983 140.478ZM634.147 104.446H692.42C691.277 89.8513 681.222 78.2208 663.626 78.2208C647.173 78.2208 637.347 86.2025 634.147 104.446Z" fill="#0F5FDC"/>
<path d="M745.891 119.27C745.891 80.9574 773.085 51.5391 813.761 51.5391C848.268 51.5391 875.69 72.2915 877.975 102.85H841.412C839.356 91.2195 828.158 82.5537 814.675 82.5537C795.023 82.5537 783.596 97.833 783.596 119.27C783.596 140.706 795.251 155.757 815.132 155.757C828.387 155.757 839.127 147.776 841.869 135.917H878.89C875.233 165.107 848.039 187 813.761 187C773.085 187 745.891 157.582 745.891 119.27Z" fill="#0F5FDC"/>
<path d="M898.539 2.28125H934.874V71.8361C942.415 59.0654 956.812 51.5398 975.093 51.5398C1004.57 51.5398 1024 72.9764 1024 103.079V184.948H987.662V111.289C987.662 95.3251 977.15 83.9227 962.068 83.9227C946.071 83.9227 934.874 96.2373 934.874 113.113V184.948H898.539V2.28125Z" fill="#0F5FDC"/>
<path d="M390.085 150.511V2.05078H351.008V149.598C351.008 172.175 363.348 184.49 385.971 184.49H469.61V150.511H390.085Z" fill="#0F5FDC"/>
</g>
<defs>
<clipPath id="clip0_1077_29138">
<rect width="1024" height="187" fill="white"/>
</clipPath>
</defs>
</svg>
