<svg width="1024" height="428" viewBox="0 0 1024 428" fill="none" xmlns="http://www.w3.org/2000/svg">
<g clip-path="url(#clip0_1077_29146)">
<path d="M328.989 79.0863H22.43V22.2276H328.989V79.0863ZM350.892 0.273438H0.515625V100.985H350.892V0.273438Z" fill="#00B188"/>
<path d="M22.4333 267.504H0.53125V166.764H22.4333V206.56H61.5653V166.764H83.4673V267.504H61.5653V225.77H22.4333V267.504Z" fill="#040404"/>
<path d="M116.841 223.041H142.929C142.443 215.635 139.388 210.473 130.85 210.473C124.408 210.473 118.771 213.217 116.841 223.041ZM133.425 268.805C111.204 268.805 96.0703 254.785 96.0703 231.753C96.0703 209.348 110.885 193.882 130.53 193.882C151.946 193.882 162.575 208.222 162.575 229.655V237.714H116.841C119.423 248.824 128.115 251.721 136.813 251.721C144.38 251.721 149.85 250.116 156.612 245.919H157.424V262.517C151.627 266.713 143.408 268.805 133.425 268.805Z" fill="#040404"/>
<path d="M219.586 225.263L208.312 267.477H189.152L167.25 196.612V195.806H188.187L200.1 238.186L211.373 195.806H228.444L239.877 238.186L251.956 195.806H272.088V196.612L250.186 267.477H231.019L219.586 225.263Z" fill="#040404"/>
<path d="M307.329 268.617C289.939 268.617 282.852 261.69 282.852 245.419V166.287H304.108V243.96C304.108 248.956 306.038 250.727 310.224 250.727C311.675 250.727 313.771 250.248 315.056 249.762H315.382V267.325C313.612 267.964 310.55 268.61 307.329 268.61" fill="#040404"/>
<path d="M342.317 223.041H368.405C367.919 215.635 364.865 210.473 356.326 210.473C349.891 210.473 344.247 213.217 342.317 223.041ZM358.902 268.805C336.68 268.805 321.547 254.785 321.547 231.753C321.547 209.348 336.361 193.882 356.007 193.882C377.423 193.882 388.051 208.222 388.051 229.655V237.714H342.317C344.893 248.824 353.591 251.721 362.283 251.721C369.856 251.721 375.327 250.116 382.095 245.919H382.9V262.517C377.104 266.713 368.891 268.805 358.902 268.805Z" fill="#040404"/>
<path d="M475.602 195.807H491.381V212.884H475.602V242.05C475.602 248.337 478.018 251.241 484.46 251.241C486.23 251.241 488.486 251.074 490.902 250.268H491.381V267.026C488.646 267.999 484.46 269.117 478.344 269.117C461.107 269.117 454.345 261.225 454.345 243.015V212.884H427.133V242.05C427.133 248.337 429.549 251.241 435.984 251.241C437.761 251.241 440.017 251.074 442.433 250.268H442.912V267.026C440.177 267.999 435.984 269.117 429.875 269.117C412.638 269.117 405.876 261.225 405.876 243.015V212.884H394.922V195.807H405.876V176.152H427.133V195.807H454.345V176.152H475.602V195.807Z" fill="#040404"/>
<path d="M562.792 215.813C573.913 215.813 579.217 209.532 579.217 200.507C579.217 191.156 573.913 184.875 562.792 184.875H548.943V215.813H562.792ZM601.445 200.507C601.445 222.427 586.791 234.342 564.562 234.342H548.943V267.051H527.055V166.311H564.562C586.791 166.311 601.445 178.233 601.445 200.472" fill="#040404"/>
<path d="M648.32 244.715V238.595C645.099 236.83 640.919 236.184 636.567 236.184C629.646 236.184 625.46 238.754 625.46 244.556C625.46 250.524 629.646 253.101 635.921 253.101C641.877 253.101 646.39 250.037 648.32 244.715ZM648.965 260.188C644.293 265.829 637.379 268.566 629.958 268.566C615.956 268.566 604.516 260.035 604.516 244.875C604.516 230.862 615.956 221.518 632.374 221.518C637.525 221.518 642.849 222.324 648.32 223.928V222.65C648.32 214.911 643.974 211.534 632.547 211.534C625.293 211.534 618.372 213.618 612.409 217.009H611.61V199.925C617.081 196.708 626.751 193.964 636.241 193.964C657.823 193.964 669.576 204.274 669.576 222.324V267.274H648.965V260.188Z" fill="#040404"/>
<path d="M679.977 231.376C679.977 208.331 696.249 193.832 717.505 193.832C725.072 193.832 732.153 195.443 737.47 199.306V217.516H736.658C731.986 213.973 726.516 211.874 720.24 211.874C709.612 211.874 701.559 219.135 701.559 231.376C701.559 243.618 709.612 250.711 720.24 250.711C726.516 250.711 731.986 248.613 736.658 245.063H737.47V263.272C732.153 267.142 725.072 268.754 717.505 268.754C696.249 268.754 679.977 254.421 679.977 231.376Z" fill="#040404"/>
<path d="M772.164 234.712V267.254H750.914V166.514H772.164V223.873L793.587 195.514H817.738V196.319L791.976 228.869L817.738 266.413V267.219H793.42L772.164 234.677" fill="#040404"/>
<path d="M865.469 244.715V238.595C862.255 236.83 858.062 236.184 853.716 236.184C846.795 236.184 842.609 238.754 842.609 244.556C842.609 250.524 846.795 253.101 853.064 253.101C859.034 253.101 863.539 250.037 865.469 244.715ZM866.115 260.188C861.443 265.829 854.514 268.566 847.114 268.566C833.098 268.566 821.672 260.035 821.672 244.875C821.672 230.862 833.098 221.518 849.537 221.518C854.688 221.518 859.992 222.324 865.469 223.928V222.65C865.469 214.911 861.123 211.534 849.69 211.534C842.449 211.534 835.514 213.618 829.558 217.009H828.753V199.925C834.23 196.708 843.893 193.964 853.39 193.964C874.98 193.964 886.732 204.274 886.732 222.324V267.274H866.115V260.188Z" fill="#040404"/>
<path d="M922.665 206.92C926.525 199.021 932.169 194.512 940.062 194.512C942.957 194.512 945.852 195.158 946.969 195.804V216.105H946.171C943.755 215.132 940.86 214.493 936.834 214.493C930.232 214.493 925.081 218.363 923.304 225.769V267.023H902.055V195.325H922.665V206.927" fill="#040404"/>
<path d="M1003.19 243.05V220.005C999.654 214.85 994.989 212.599 989.664 212.599C980.334 212.599 974.051 219.373 974.051 231.614C974.051 243.856 980.334 250.463 989.664 250.463C994.989 250.463 999.654 248.205 1003.19 243.05ZM1003.83 259.974C999.327 265.775 992.239 268.992 982.583 268.992C964.222 268.992 952.469 252.242 952.469 231.614C952.469 210.987 964.222 194.07 982.583 194.07C991.92 194.07 998.682 196.974 1003.19 202.289V166.683H1024.45V267.353H1003.83V259.946" fill="#040404"/>
<path d="M0.773438 300.294H62.9321V312.536H14.7824V343.307H58.4198V355.236H14.7824V388.751H62.9321V400.992H0.773438V300.322" fill="#040404"/>
<path d="M114.065 328.643C130.004 328.643 138.862 339.12 138.862 356.35V400.988H125.499V356.677C125.499 347.492 120.827 340.885 110.684 340.885C102.312 340.885 95.2245 346.207 92.8087 353.773V400.988H79.4453V330.123H92.8087V340.433C96.9947 333.826 104.082 328.671 114.065 328.671" fill="#040404"/>
<path d="M174.602 329.753H192.797V341.195H174.602V379.379C174.602 387.431 178.788 390.176 186.355 390.176C188.444 390.176 190.701 389.856 192.311 389.21H192.797V400.646C190.867 401.452 188.125 402.098 184.425 402.098C167.834 402.098 161.239 394.518 161.239 380.671V341.195H149V329.753H161.239V310.911H174.602V329.753Z" fill="#040404"/>
<path d="M215.138 358.656H250.404C249.925 348.186 244.767 340.134 233.819 340.134C223.677 340.134 217.068 347.707 215.138 358.656ZM236.235 402.488C215.458 402.488 201.289 388.628 201.289 366.396C201.289 344.157 214.493 328.691 233.66 328.691C253.146 328.691 263.288 342.712 263.288 363.492V369.619H214.652C216.103 383.959 225.288 390.886 238.005 390.886C245.898 390.886 251.528 389.114 257.811 384.439H258.297V396.208C252.5 400.717 244.926 402.488 236.235 402.488Z" fill="#040404"/>
<path d="M292.887 340.868C295.948 333.295 302.717 328.786 310.436 328.786C313.505 328.786 316.24 329.266 317.364 329.912V343.119H316.885C314.948 342.16 311.727 341.674 308.506 341.674C301.266 341.674 295.143 346.503 292.887 354.562V400.805H279.523V329.94H292.887V340.896" fill="#040404"/>
<path d="M360.092 390.336C373.295 390.336 381.029 379.866 381.029 365.519C381.029 351.346 373.295 340.717 360.092 340.717C352.844 340.717 346.083 345.066 342.542 351.986V379.227C346.083 386.147 352.844 390.336 360.092 390.336ZM362.348 328.628C383.437 328.628 394.711 345.872 394.711 365.519C394.711 385.188 383.437 402.425 362.348 402.425C353.649 402.425 346.242 397.916 342.542 393.073V428.207H329.172V330.108H342.542V338.16C346.242 333.165 353.649 328.656 362.348 328.656" fill="#040404"/>
<path d="M423.957 340.868C427.012 333.295 433.78 328.786 441.506 328.786C444.568 328.786 447.303 329.266 448.428 329.912V343.119H447.949C446.019 342.16 442.798 341.674 439.577 341.674C432.329 341.674 426.213 346.503 423.957 354.562V400.805H410.594V329.94H423.957V340.896" fill="#040404"/>
<path d="M467.828 301.407C472.5 301.407 476.359 305.11 476.359 309.785C476.359 314.461 472.5 318.164 467.828 318.164C463.322 318.164 459.289 314.461 459.289 309.785C459.289 305.11 463.322 301.407 467.828 301.407Z" fill="#040404"/>
<path d="M461.164 400.897H474.537V329.977H461.164V400.897Z" fill="#040404"/>
<path d="M522.256 359.211C532.398 362.428 543.665 366.617 543.665 380.151C543.665 394.657 531.753 402.07 516.459 402.07C507.116 402.07 497.779 399.812 492.461 395.623V382.895H493.107C499.07 388.37 507.921 390.787 516.293 390.787C523.86 390.787 530.628 387.883 530.628 381.763C530.628 375.482 524.998 374.03 513.877 370.327C503.894 367.103 492.787 363.393 492.787 350.026C492.787 336.326 504.054 328.273 518.389 328.273C526.761 328.273 534.168 330.045 540.125 334.075V346.969H539.646C533.856 342.294 527.081 339.549 518.709 339.549C510.337 339.549 505.665 343.259 505.665 348.255C505.665 353.896 510.816 355.501 522.256 359.211Z" fill="#040404"/>
<path d="M568.904 358.656H604.162C603.683 348.186 598.532 340.134 587.578 340.134C577.436 340.134 570.834 347.707 568.904 358.656ZM589.994 402.488C569.223 402.488 555.055 388.628 555.055 366.396C555.055 344.157 568.258 328.691 587.418 328.691C606.911 328.691 617.047 342.712 617.047 363.492V369.619H568.418C569.869 383.959 579.046 390.886 591.764 390.886C599.664 390.886 605.294 389.114 611.57 384.439H612.055V396.208C606.266 400.717 598.692 402.488 589.994 402.488Z" fill="#040404"/>
</g>
<defs>
<clipPath id="clip0_1077_29146">
<rect width="1024" height="428" fill="white"/>
</clipPath>
</defs>
</svg>
