<svg width="1024" height="1024" viewBox="0 0 1024 1024" fill="none" xmlns="http://www.w3.org/2000/svg">
<g clip-path="url(#clip0_1077_29145)">
<path d="M1024 0H0V1024H1024V0Z" fill="black"/>
<path d="M338.199 610.406H227.625V624.767H338.199V610.406Z" fill="white"/>
<path d="M338.199 580.25H227.625V594.61H338.199V580.25Z" fill="white"/>
<path d="M306.607 550.094H259.219V564.454H306.607V550.094Z" fill="white"/>
<path d="M306.607 519.938H259.219V534.298H306.607V519.938Z" fill="white"/>
<path d="M306.607 489.781H259.219V504.142H306.607V489.781Z" fill="white"/>
<path d="M306.607 459.625H259.219V473.985H306.607V459.625Z" fill="white"/>
<path d="M338.199 429.469H227.625V443.829H338.199V429.469Z" fill="white"/>
<path d="M338.199 399.312H227.625V413.673H338.199V399.312Z" fill="white"/>
<path d="M353.992 610.406V624.767H470.31C484.62 624.784 498.466 619.692 509.354 610.407L353.992 610.406Z" fill="white"/>
<path d="M353.992 580.25V594.61H522.534C525.145 590.104 527.157 585.276 528.519 580.25H353.992Z" fill="white"/>
<path d="M432.974 550.094H385.586V564.454H432.974V550.094Z" fill="white"/>
<path d="M510.419 519.938H385.586V534.298H522.008C518.901 528.947 514.993 524.104 510.419 519.938Z" fill="white"/>
<path d="M385.586 489.781V504.142H510.937C515.511 499.975 519.42 495.132 522.526 489.781H385.586Z" fill="white"/>
<path d="M528.519 443.829C527.157 438.802 525.145 433.975 522.534 429.469H353.992V443.829H528.519Z" fill="white"/>
<path d="M509.354 413.673C498.465 404.388 484.62 399.295 470.31 399.313H353.992V413.673H509.354Z" fill="white"/>
<path d="M432.974 459.625H385.586V473.985H432.974V459.625Z" fill="white"/>
<path d="M477.492 473.985H528.869C530.028 469.286 530.618 464.465 530.625 459.625H477.492V473.985Z" fill="white"/>
<path d="M477.492 550.094V564.454H530.625C530.618 559.614 530.028 554.793 528.869 550.094H477.492Z" fill="white"/>
<path d="M632.582 399.234H543.547V413.593H637.563L632.582 399.234Z" fill="white"/>
<path d="M622.555 610.402H543.547V624.767H622.555V610.402Z" fill="white"/>
<path d="M622.555 580.234H543.547V594.6H622.555V580.234Z" fill="white"/>
<path d="M622.562 550.07H575.156V564.435H622.562V550.07Z" fill="white"/>
<path d="M622.562 519.902H575.156V534.268H622.562V519.902Z" fill="white"/>
<path d="M796.376 610.402H717.367V624.767H796.376V610.402Z" fill="white"/>
<path d="M796.376 580.234H717.367V594.6H796.376V580.234Z" fill="white"/>
<path d="M764.772 550.07H717.367V564.435H764.772V550.07Z" fill="white"/>
<path d="M764.772 519.902H717.367V534.268H764.772V519.902Z" fill="white"/>
<path d="M717.365 504.099H764.771V489.734H717.365H675.915L670.93 504.099H712.535L717.365 490.417V504.099Z" fill="white"/>
<path d="M664.013 489.734H622.562H575.156V504.099H622.562V490.417L627.391 504.099H668.998L664.013 489.734Z" fill="white"/>
<path d="M764.774 459.57H686.382L681.398 473.935H764.774V459.57Z" fill="white"/>
<path d="M707.311 399.234L702.328 413.599H796.376V399.234H707.311Z" fill="white"/>
<path d="M669.937 624.767L675.011 610.402H664.922L669.937 624.767Z" fill="white"/>
<path d="M659.344 594.601H680.59L685.662 580.234H654.273L659.344 594.601Z" fill="white"/>
<path d="M648.687 564.433H691.237L696.307 550.066H643.617L648.687 564.433Z" fill="white"/>
<path d="M638.041 534.269H701.888L706.96 519.902H632.969L638.041 534.269Z" fill="white"/>
<path d="M575.156 473.935H658.532L653.547 459.57H575.156V473.935Z" fill="white"/>
<path d="M691.867 443.767H796.381V429.402H696.85L691.867 443.767Z" fill="white"/>
<path d="M643.078 429.402H543.547V443.767H648.061L643.078 429.402Z" fill="white"/>
</g>
<defs>
<clipPath id="clip0_1077_29145">
<rect width="1024" height="1024" fill="white"/>
</clipPath>
</defs>
</svg>
