<svg width="1024" height="1024" viewBox="0 0 1024 1024" fill="none" xmlns="http://www.w3.org/2000/svg">
<g clip-path="url(#clip0_1077_29144)">
<path fill-rule="evenodd" clip-rule="evenodd" d="M107.552 107.734L32.1387 183.137C21.9479 193.329 13.8645 205.429 8.35014 218.746C2.83577 232.062 -0.00161955 246.335 6.93522e-07 260.748V1024H915.84V916.46H107.541V107.734H107.552Z" fill="#258752"/>
<path fill-rule="evenodd" clip-rule="evenodd" d="M107.703 107.541L183.106 32.1493C203.689 11.5652 231.607 0.000728618 260.716 0L1024 0V915.797H916.45V107.541H107.703Z" fill="#19E480"/>
<path fill-rule="evenodd" clip-rule="evenodd" d="M339.268 605.324H285.828L213.358 510.679V605.324H171.289V397.847H213.358V488.514L283.844 397.847H334.148L253.721 495.906L339.268 605.324ZM353.198 605.324H394.126V458.956H353.198V605.324ZM398.105 418.306C398.105 431.671 387.3 441.9 373.657 441.9C359.737 441.9 349.22 431.66 349.22 418.306C349.22 404.951 359.737 394.434 373.657 394.434C387.31 394.434 398.105 404.951 398.105 418.306ZM616.676 458.956H656.75L605.87 605.324H566.937L534.532 514.092L502.126 605.324H463.193L412.313 458.956H454.094L484.516 549.9L516.057 458.956H554.713L586.265 549.9L616.676 458.956ZM672.964 605.324H713.892V458.956H672.964V605.324ZM717.87 418.306C717.87 431.671 707.065 441.9 693.422 441.9C679.502 441.9 668.985 431.66 668.985 418.306C668.985 404.951 679.502 394.434 693.422 394.434C707.076 394.434 717.87 404.951 717.87 418.306ZM282.137 777.868C282.137 754.284 267.63 736.94 246.606 736.94C224.718 736.94 209.657 754.284 209.657 777.868C209.657 801.463 224.718 819.084 246.606 819.084C267.641 819.084 282.126 801.463 282.126 777.868M322.777 778.156C322.777 821.644 291.225 853.751 252.857 853.751C237.777 853.822 223.239 848.129 212.217 837.836V850.914H171.289V643.436H212.217V718.188C223.135 707.698 237.717 701.885 252.857 701.986C291.225 701.986 322.777 734.38 322.777 778.146M450.393 777.868C450.393 754.284 435.332 736.94 413.444 736.94C392.42 736.94 377.924 754.284 377.924 777.868C377.924 801.463 392.42 819.084 413.444 819.084C435.332 819.084 450.393 801.463 450.393 777.868ZM447.833 704.546H488.772V850.914H447.833V837.836C436.811 848.129 422.273 853.822 407.193 853.751C368.825 853.751 337.273 821.644 337.273 778.156C337.273 734.38 368.825 701.996 407.193 701.996C423.108 701.996 437.038 707.948 447.833 718.188V704.546ZM646.798 757.975V850.914H605.87V768.204C605.87 747.746 598.478 736.951 581.998 736.951C564.942 736.951 556.42 748.311 556.42 768.204V850.914H515.492V704.535H556.132V717.89C564.942 707.65 579.15 701.687 593.358 701.687C627.193 701.687 646.798 723.298 646.798 757.975ZM814.212 850.914H765.038L713.604 784.695V850.914H672.676V643.436H713.604V761.954L763.342 704.546H812.516L752.26 772.183L814.212 850.914ZM874.19 828.46C874.19 842.103 863.385 852.62 849.742 852.62C835.812 852.62 825.305 842.103 825.305 828.46C825.305 814.818 835.812 804.3 849.732 804.3C863.385 804.3 874.19 814.818 874.19 828.46Z" fill="black"/>
</g>
<defs>
<clipPath id="clip0_1077_29144">
<rect width="1024" height="1024" fill="white"/>
</clipPath>
</defs>
</svg>
