<svg width="1024" height="276" viewBox="0 0 1024 276" fill="none" xmlns="http://www.w3.org/2000/svg">
<path d="M315.975 252.613C313.668 253.146 311.567 253.512 309.26 253.702C306.34 254.219 303.392 254.408 300.458 254.408C297.919 254.408 295.845 254.061 294.153 253.508C291.641 252.608 289.963 250.986 288.707 248.822C287.233 246.288 286.81 242.854 286.81 239.258V192.869H314.282V178.428H298.779H286.81V158.047L263.323 162.557V178.428H249.484V192.869H263.323V247.732C263.323 252.977 264.183 256.956 266.066 260.171C268.154 263.793 271.511 266.315 276.343 267.936C280.532 269.407 285.759 269.925 292.064 269.925C299.393 269.925 306.531 269.025 313.232 267.581L315.975 252.613Z" fill="#243E7F"/>
<path d="M5.11822 268.458H25.2482V174.168H25.6312L56.4607 268.458H80.5212L111.883 174.168H112.251V268.458H135.943V149.781H99.0534L69.4794 237.314H69.0965L40.778 149.781H5.11719L5.11822 268.458Z" fill="#243E7F"/>
<path d="M235.528 248.543C226.084 251.566 216.476 254.21 206.282 254.21C190.246 254.21 177.949 244.973 177.949 228.434V225.587H242.12V218.639C242.12 190.002 223.054 177.891 198.994 177.891C168.164 177.891 153.016 197.291 153.016 224.321C153.016 251.377 170.826 270.601 202.024 270.601C214.32 270.601 223.764 269.376 233.222 267.221L235.528 248.543ZM177.949 213.652C178.85 202.099 186.152 193.012 198.994 193.012C212.71 193.012 218.401 201.036 218.401 213.652H177.949Z" fill="#243E7F"/>
<path d="M334.227 268.459H359.174V149.77H334.227V268.459Z" fill="#243E7F"/>
<path d="M390.528 268.458H415.503V180.026H390.528V268.458ZM390.172 165.08H415.665V148.719H390.172V165.08Z" fill="#243E7F"/>
<path d="M499.616 148.358C492.328 146.408 485.191 145.512 476.443 145.512C466.999 145.512 450.594 147.829 450.594 166.342V180.048H440.086V197.459H450.594V268.452H475.542V197.459H496.068V180.048H474.3V175.239C474.3 169.353 474.49 161.887 485.709 161.887C490.882 161.887 496.232 163.482 501.213 165.251L499.616 148.358Z" fill="#243E7F"/>
<path d="M590.927 248.543C581.483 251.566 571.847 254.21 561.68 254.21C545.644 254.21 533.348 244.973 533.348 228.434V225.587H597.518V218.639C597.518 190.002 578.453 177.891 554.392 177.891C523.563 177.891 508.414 197.291 508.414 224.321C508.414 251.377 526.224 270.601 557.422 270.601C569.718 270.601 579.149 269.376 588.62 267.221L590.927 248.543ZM533.348 213.652C534.248 202.099 541.564 193.012 554.392 193.012C568.108 193.012 573.826 201.036 573.826 213.652H533.348Z" fill="#243E7F"/>
<path d="M682.687 248.192C675.918 251.393 668.412 253.164 660.947 253.164C644.024 253.164 635.304 242.115 634.58 225.767C633.68 208.152 642.059 195.331 660.251 195.331C668.085 195.331 675.918 197.281 683.411 200.495L681.282 181.285C672.725 178.957 663.977 177.895 655.065 177.895C621.383 177.895 609.633 199.08 609.633 222.553C609.633 254.773 627.62 270.604 655.966 270.604C664.345 270.604 672.343 269.527 680.381 267.58L682.687 248.192Z" fill="#243E7F"/>
<path d="M761.508 268.459H785.227V201.921C785.227 181.649 765.439 177.902 749.744 177.902C736.765 177.902 723.896 180.026 711.449 183.052L709.47 199.592C720.334 195.327 731.934 192.139 743.876 192.139C750.468 192.139 760.28 193.379 760.28 202.997C760.28 220.422 699.672 210.109 699.672 244.277C699.672 262.07 712.692 270.598 732.63 270.598C735.865 270.598 743.507 269.521 749.062 268.992L752.965 253.679C748.339 255.301 743.698 256.379 738.867 256.379C731.757 256.379 723.364 254.227 723.364 245.697C723.364 230.03 752.965 230.398 761.508 222.755L761.508 268.459Z" fill="#243E7F"/>
<path d="M837.043 180.034H813.352V268.466H838.299V223.644C838.299 205.647 847.211 197.84 860.04 197.84C863.411 197.84 866.467 198.373 870.22 199.242L868.064 178.779C865.567 178.246 863.055 177.895 860.408 177.895C849.34 177.895 842.23 183.426 837.412 191.777L837.045 191.43L837.043 180.034Z" fill="#243E7F"/>
<path d="M963.022 248.543C953.605 251.566 943.957 254.21 933.817 254.21C917.74 254.21 905.471 244.973 905.471 228.434V225.587H969.627V218.639C969.627 190.002 950.548 177.891 926.502 177.891C895.658 177.891 880.523 197.291 880.523 224.321C880.523 251.377 898.333 270.601 929.531 270.601C941.828 270.601 951.272 269.376 960.716 267.221L963.022 248.543ZM905.471 213.652C906.344 202.099 913.687 193.012 926.502 193.012C940.204 193.012 945.936 201.036 945.936 213.652H905.471Z" fill="#243E7F"/>
<path d="M936.228 53.2427C936.228 53.2427 928.654 27.0168 919.633 25.5729C898.561 22.2092 878.963 118.31 925.842 140.435C1008.26 140.435 1047.45 -69.9978 936.228 53.2427ZM924.314 143.16C873.504 118.773 884.846 20.5597 907.787 14.5788C926.757 9.63336 936.706 45.5186 936.706 45.5186C1061.51 -84.9425 1033.43 144.618 924.314 143.16Z" fill="#7B6744"/>
</svg>
