<svg width="1024" height="219" viewBox="0 0 1024 219" fill="none" xmlns="http://www.w3.org/2000/svg">
<g clip-path="url(#clip0_1077_29139)">
<path d="M361.449 126.139L355.346 143.455H354.837C353.82 139.551 351.955 133.609 348.904 126.478L316.183 44.1413H284.141V175.372H305.333V94.3924C305.333 89.2994 305.333 83.5273 305.163 76.3971C304.994 72.832 304.655 70.1157 304.485 68.0785H304.994C306.011 73.1715 307.198 76.9064 308.045 79.2831L347.378 175.032H362.297L401.29 78.4343C402.138 76.2273 402.986 71.8134 403.833 68.0785H404.342C403.833 77.7552 403.494 86.4134 403.325 91.6762V174.862H425.873V43.8017H395.017L361.449 126.139ZM447.235 80.811H469.274V174.862H447.235V80.811ZM458.424 41.0855C454.694 41.0855 451.643 42.4436 449.1 44.8203C446.556 47.1971 445.2 50.2529 445.2 53.9878C445.2 57.5529 446.556 60.6087 449.1 62.9855C451.643 65.3622 454.694 66.5506 458.424 66.5506C462.154 66.5506 465.375 65.1924 467.749 62.9855C470.292 60.6087 471.648 57.5529 471.648 53.9878C471.648 50.4227 470.292 47.3669 467.749 44.8203C465.545 42.4436 462.323 41.0855 458.424 41.0855ZM547.431 79.9622C543.362 79.1134 539.123 78.6041 535.055 78.6041C525.052 78.6041 515.897 80.811 508.268 85.225C500.639 89.639 494.535 95.7506 490.636 103.39C486.567 111.199 484.533 120.197 484.533 130.553C484.533 139.551 486.567 147.53 490.466 154.83C494.366 161.96 499.791 167.732 507.081 171.637C514.032 175.541 522.17 177.578 531.325 177.578C541.836 177.578 550.821 175.372 557.942 171.297L558.111 171.127V150.755L557.264 151.434C554.043 153.811 550.313 155.848 546.583 157.037C542.684 158.395 539.123 159.074 536.072 159.074C527.256 159.074 520.305 156.527 515.388 150.925C510.302 145.492 507.759 138.023 507.759 128.685C507.759 119.009 510.302 111.369 515.558 105.767C520.813 100.165 527.764 97.2785 536.241 97.2785C543.362 97.2785 550.652 99.6552 557.264 104.409L558.111 105.088V83.5273L557.942 83.3576C555.06 82.1692 551.839 80.811 547.431 79.9622ZM620.162 79.2831C614.737 79.2831 609.651 80.9808 605.243 84.5459C601.513 87.6017 598.97 92.0157 596.766 97.2785H596.596V80.811H574.556V174.862H596.596V126.818C596.596 118.669 598.292 111.878 602.021 106.955C605.751 101.862 610.498 99.3157 616.262 99.3157C618.297 99.3157 620.331 99.825 622.874 100.165C625.248 100.844 626.943 101.523 628.13 102.372L628.978 103.051V80.9808L628.469 80.811C626.943 79.7924 623.892 79.2831 620.162 79.2831ZM680.178 78.7738C664.75 78.7738 652.374 83.3576 643.727 92.3552C634.911 101.353 630.673 113.746 630.673 129.365C630.673 143.965 635.081 155.848 643.558 164.506C652.035 172.995 663.563 177.409 677.974 177.409C693.062 177.409 705.1 172.825 713.746 163.658C722.562 154.49 726.8 142.267 726.8 127.158C726.8 112.218 722.731 100.334 714.424 91.6762C706.456 83.018 694.758 78.7738 680.178 78.7738ZM697.809 151.095C693.741 156.358 687.298 158.904 679.33 158.904C671.362 158.904 664.919 156.358 660.342 150.755C655.764 145.492 653.56 137.853 653.56 128.176C653.56 118.16 655.934 110.52 660.342 105.088C664.919 99.6552 671.192 96.939 679.16 96.939C686.959 96.939 693.062 99.4855 697.47 104.748C701.878 110.011 704.252 117.651 704.252 127.667C703.913 137.853 702.048 145.832 697.809 151.095ZM775.966 119.858C769.015 116.972 764.607 114.765 762.572 112.897C760.877 111.199 760.029 108.823 760.029 105.767C760.029 103.22 761.047 100.674 763.59 98.9762C766.133 97.2785 769.015 96.4296 773.253 96.4296C776.983 96.4296 780.882 97.1087 784.612 98.1273C788.342 99.1459 791.733 100.674 794.445 102.711L795.293 103.39V82.6785L794.784 82.5087C792.241 81.4901 788.851 80.4715 784.782 79.6227C780.713 78.9436 776.983 78.6041 773.931 78.6041C763.42 78.6041 754.774 81.1506 747.992 86.7529C741.211 92.0157 737.99 99.1459 737.99 107.465C737.99 111.878 738.668 115.783 740.194 119.009C741.719 122.234 743.923 125.29 746.975 127.837C750.027 130.213 754.435 132.93 760.538 135.476C765.624 137.683 769.523 139.381 771.897 140.739C774.27 142.097 775.796 143.625 776.983 144.813C777.831 146.172 778.339 147.869 778.339 150.076C778.339 156.358 773.592 159.413 763.929 159.413C760.199 159.413 756.3 158.734 751.722 157.206C747.145 155.678 742.906 153.472 739.346 150.925L738.498 150.246V171.806L739.007 171.976C742.228 173.504 746.127 174.523 750.874 175.711C755.621 176.56 759.86 177.239 763.59 177.239C774.949 177.239 784.273 174.692 790.885 169.09C797.666 163.658 801.227 156.697 801.227 147.699C801.227 141.418 799.531 135.816 795.802 131.572C790.885 127.497 784.782 123.253 775.966 119.858ZM859.378 78.7738C843.95 78.7738 831.574 83.3576 822.927 92.3552C814.281 101.353 809.873 113.746 809.873 129.365C809.873 143.965 814.281 155.848 822.758 164.506C831.235 172.995 842.763 177.409 857.174 177.409C872.262 177.409 884.3 172.825 892.946 163.658C901.762 154.49 906 142.267 906 127.158C906 112.218 901.931 100.334 893.624 91.6762C885.656 83.018 873.958 78.7738 859.378 78.7738ZM876.84 151.095C872.771 156.358 866.329 158.904 858.36 158.904C850.223 158.904 843.95 156.358 839.372 150.755C834.795 145.492 832.591 137.853 832.591 128.176C832.591 118.16 834.964 110.52 839.372 105.088C843.95 99.6552 850.223 96.939 858.191 96.939C865.82 96.939 872.093 99.4855 876.501 104.748C880.909 110.011 883.282 117.651 883.282 127.667C883.282 137.853 881.078 145.832 876.84 151.095ZM1023.83 98.9762V80.811H1001.62V52.9692L1000.94 53.139L979.918 59.4203L979.41 59.5901V80.811H946.18V68.9273C946.18 63.4948 947.537 59.2506 949.91 56.5343C952.284 53.818 955.844 52.4599 960.252 52.4599C963.304 52.4599 966.525 53.139 970.085 54.6669L970.933 55.1762V35.9924L970.424 35.8227C967.372 34.8041 963.303 34.125 958.048 34.125C951.436 34.125 945.672 35.6529 940.416 38.1994C935.161 41.0855 931.261 44.9901 928.379 50.2529C925.497 55.3459 923.971 61.118 923.971 67.739V80.811H908.543V98.8064H923.971V174.862H946.18V98.9762H979.41V147.36C979.41 167.223 988.734 177.239 1007.38 177.239C1010.43 177.239 1013.66 176.73 1016.71 176.22C1019.93 175.541 1022.3 174.692 1023.66 174.013L1023.83 173.844V155.678L1022.98 156.358C1021.62 157.206 1020.44 157.885 1018.4 158.395C1016.71 158.904 1015.18 159.074 1013.99 159.074C1009.59 159.074 1006.54 158.055 1004.33 155.509C1002.3 153.132 1001.28 149.227 1001.28 143.455V98.9762H1023.83Z" fill="#737373"/>
<path d="M0 0H103.926V104.067H0V0Z" fill="#F25022"/>
<path d="M114.773 0H218.699V104.067H114.773V0Z" fill="#7FBA00"/>
<path d="M0 114.934H103.926V219.001H0V114.934Z" fill="#00A4EF"/>
<path d="M114.773 114.934H218.699V219.001H114.773V114.934Z" fill="#FFB900"/>
</g>
<defs>
<clipPath id="clip0_1077_29139">
<rect width="1024" height="219" fill="white"/>
</clipPath>
</defs>
</svg>
