<svg width="1024" height="421" viewBox="0 0 1024 421" fill="none" xmlns="http://www.w3.org/2000/svg">
<g clip-path="url(#clip0_1077_29126)">
<mask id="mask0_1077_29126" style="mask-type:luminance" maskUnits="userSpaceOnUse" x="0" y="0" width="1024" height="421">
<path d="M1024 0H0V421H1024V0Z" fill="white"/>
</mask>
<g mask="url(#mask0_1077_29126)">
<mask id="mask1_1077_29126" style="mask-type:luminance" maskUnits="userSpaceOnUse" x="0" y="-1" width="1024" height="422">
<path d="M843.349 -0.00390625C805.004 -0.00390625 798.713 25.7869 798.113 38.3783V318.145H825.369C847.241 318.441 852.338 304.651 852.338 296.858V295.956V294.755C869.407 312.751 892.777 322.947 919.445 322.947C977.266 322.947 1024 273.467 1024 208.399C1024 143.031 976.968 93.2518 919.445 93.2518C894.28 93.2518 871.513 102.551 855.031 119.04V-0.00144172H843.349V-0.00390625ZM855.034 208.694C855.034 173.611 880.199 145.427 911.357 145.427C942.514 145.427 967.682 172.717 967.682 208.694C967.682 243.779 942.514 270.769 911.357 270.769C880.199 270.769 855.034 242.883 855.034 208.694ZM169.269 123.536C153.39 104.346 129.121 92.3531 99.1654 92.3531C38.9478 92.3531 0 134.635 0 190.705V318.145H18.2728C30.855 317.244 55.4208 311.248 56.3201 274.667V189.505C56.3201 164.617 73.6974 147.527 99.1654 147.527C136.313 147.527 140.21 176.91 140.21 189.505V318.145H158.483C171.064 317.244 195.335 311.249 196.53 274.967V189.505C196.53 164.617 214.51 147.527 239.374 147.527C276.522 147.527 280.719 176.91 280.719 189.505V318.145H298.991C311.574 317.244 336.444 311.248 337.039 274.066V190.708C337.039 132.833 300.792 92.3556 239.075 92.3556C210.613 92.3531 185.749 104.346 169.269 123.536ZM558.141 208.101C558.141 274.066 607.574 323.242 668.683 323.242C729.803 323.242 779.841 274.066 779.841 208.101C779.841 142.128 729.803 92.0527 668.683 92.0527C607.866 92.3531 558.141 142.428 558.141 208.101ZM614.459 208.694C614.459 170.612 638.731 144.23 668.683 144.23C698.646 144.23 722.913 170.612 722.913 208.694C722.913 245.881 698.646 271.665 668.683 271.665C639.029 271.368 614.459 245.881 614.459 208.694ZM499.715 122.337L452.381 253.975L400.85 117.541C393.064 95.9528 372.689 97.1494 372.689 97.1494H328.651L416.134 311.249C416.134 310.949 416.134 310.949 415.833 310.646C415.833 310.646 416.134 311.248 416.134 311.552C416.429 311.85 416.429 312.448 416.429 312.448L416.134 311.249C419.13 319.943 418.229 324.741 415.533 333.139L413.733 338.539C403.551 363.725 389.168 370.624 358.913 369.121V369.419L380.181 421.001C419.43 420.097 448.787 407.506 468.56 358.327L573.717 97.1494H534.469C534.469 97.1494 534.469 97.1494 534.176 97.1494C531.475 97.1469 509.304 97.7476 499.715 122.337Z" fill="white"/>
</mask>
<g mask="url(#mask1_1077_29126)">
<path d="M843.349 -0.00390625C805.004 -0.00390625 798.713 25.7869 798.113 38.3783V318.145H825.369C847.241 318.441 852.338 304.651 852.338 296.858V295.956V294.755C869.407 312.751 892.777 322.947 919.445 322.947C977.266 322.947 1024 273.467 1024 208.399C1024 143.031 976.968 93.2518 919.445 93.2518C894.28 93.2518 871.513 102.551 855.031 119.04V-0.00144172H843.349V-0.00390625ZM855.034 208.694C855.034 173.611 880.199 145.427 911.357 145.427C942.514 145.427 967.682 172.717 967.682 208.694C967.682 243.779 942.514 270.769 911.357 270.769C880.199 270.769 855.034 242.883 855.034 208.694ZM169.269 123.536C153.39 104.346 129.121 92.3531 99.1654 92.3531C38.9478 92.3531 0 134.635 0 190.705V318.145H18.2728C30.855 317.244 55.4208 311.248 56.3201 274.667V189.505C56.3201 164.617 73.6974 147.527 99.1654 147.527C136.313 147.527 140.21 176.91 140.21 189.505V318.145H158.483C171.064 317.244 195.335 311.249 196.53 274.967V189.505C196.53 164.617 214.51 147.527 239.374 147.527C276.522 147.527 280.719 176.91 280.719 189.505V318.145H298.991C311.574 317.244 336.444 311.248 337.039 274.066V190.708C337.039 132.833 300.792 92.3556 239.075 92.3556C210.613 92.3531 185.749 104.346 169.269 123.536ZM558.141 208.101C558.141 274.066 607.574 323.242 668.683 323.242C729.803 323.242 779.841 274.066 779.841 208.101C779.841 142.128 729.803 92.0527 668.683 92.0527C607.866 92.3531 558.141 142.428 558.141 208.101ZM614.459 208.694C614.459 170.612 638.731 144.23 668.683 144.23C698.646 144.23 722.913 170.612 722.913 208.694C722.913 245.881 698.646 271.665 668.683 271.665C639.029 271.368 614.459 245.881 614.459 208.694ZM499.715 122.337L452.381 253.975L400.85 117.541C393.064 95.9528 372.689 97.1494 372.689 97.1494H328.651L416.134 311.249C416.134 310.949 416.134 310.949 415.833 310.646C415.833 310.646 416.134 311.248 416.134 311.552C416.429 311.85 416.429 312.448 416.429 312.448L416.134 311.249C419.13 319.943 418.229 324.741 415.533 333.139L413.733 338.539C403.551 363.725 389.168 370.624 358.913 369.121V369.419L380.181 421.001C419.43 420.097 448.787 407.506 468.56 358.327L573.717 97.1494H534.469C534.469 97.1494 534.469 97.1494 534.176 97.1494C531.475 97.1469 509.304 97.7476 499.715 122.337Z" fill="url(#paint0_linear_1077_29126)"/>
</g>
</g>
</g>
<defs>
<linearGradient id="paint0_linear_1077_29126" x1="0" y1="210.499" x2="1024" y2="210.499" gradientUnits="userSpaceOnUse">
<stop stop-color="#4E3197"/>
<stop offset="0.36" stop-color="#4E3197"/>
<stop offset="0.4557" stop-color="#5A2E96"/>
<stop offset="0.6409" stop-color="#822394"/>
<stop offset="0.8947" stop-color="#DC0A8C"/>
<stop offset="0.97" stop-color="#ED0D82"/>
<stop offset="1" stop-color="#ED0D82"/>
</linearGradient>
<clipPath id="clip0_1077_29126">
<rect width="1024" height="421" fill="white"/>
</clipPath>
</defs>
</svg>
