<svg width="1024" height="1024" viewBox="0 0 1024 1024" fill="none" xmlns="http://www.w3.org/2000/svg">
<path d="M508.377 83.5517L511.618 77.3477C515.869 78.8127 572.166 201.559 579.47 217.058L729.994 535.876C764.191 606.869 798.006 678.048 831.434 749.405C848.122 784.581 873.313 834.197 887.467 869.159C842.606 868.167 796.69 869.609 751.762 869.081C734.663 868.876 706.032 870.101 689.803 868.43C676.159 843.34 661.741 810.977 649.407 784.999L583.457 646.309L537.459 550.276C529.627 533.869 518.267 511.76 512.291 495.221C506.73 510.936 490.337 542.389 482.518 558.213C464.992 593.53 447.645 628.937 430.475 664.427L361.329 805.953C354.173 820.48 337.239 857.521 329.991 868.795C265.875 870.856 201.464 868.103 137.648 869.127C139.331 863.301 146.013 849.816 148.767 843.732C157.229 825.022 166.487 806.535 175.3 787.985C201.86 730.905 228.735 673.975 255.922 617.191L422.459 265.55C450.834 205.421 478.964 142.964 508.377 83.5517Z" fill="#0E71BA"/>
<path d="M503.254 743.594C537.838 739.057 569.536 763.446 574.015 798.039C578.488 832.632 554.035 864.285 519.438 868.695C484.927 873.096 453.374 848.725 448.911 814.223C444.448 779.721 468.761 748.122 503.254 743.594Z" fill="#F45128"/>
</svg>
