<svg width="1024" height="377" viewBox="0 0 1024 377" fill="none" xmlns="http://www.w3.org/2000/svg">
<g clip-path="url(#clip0_1077_29147)">
<path d="M459.147 317.074V340.78H418.914V317.074H407.18V376.999H418.914V351.179H459.147V376.999H470.882V317.074H459.147Z" fill="#5F5F5F"/>
<path d="M493.828 317.074V376.999H548.619V366.953H505.563V351.091H541.825V341.044H505.563V327.121H547.649V317.074H493.828Z" fill="#5F5F5F"/>
<path d="M596.614 326.504L609.143 353.206H583.997L596.614 326.504ZM589.909 317.074L560.352 376.999H572.792L579.145 363.164H613.731L619.995 376.999H632.347L603.32 317.074H589.909Z" fill="#5F5F5F"/>
<path d="M648.93 317.074V376.999H703.985V366.601H660.576V317.074H648.93Z" fill="#5F5F5F"/>
<path d="M699.844 317.074V327.121H726.754V376.999H738.4V327.121H765.222V317.074H699.844Z" fill="#5F5F5F"/>
<path d="M834.749 317.074V340.78H794.428V317.074H782.781V376.999H794.428V351.179H834.749V376.999H846.395V317.074H834.749Z" fill="#5F5F5F"/>
<path d="M156.079 201.28C156.079 163.562 129.169 145.937 93.3476 145.937C57.5261 145.937 30.6159 163.562 30.6159 201.28C30.6159 245.519 64.0551 257.592 93.3476 257.592C122.64 257.592 156.079 245.519 156.079 201.28ZM93.3476 119.676C162.344 119.676 186.695 160.125 186.695 203.042C186.695 235.472 167.549 283.853 93.3476 283.853C19.146 283.853 0 235.384 0 203.042C0 160.125 24.3515 119.676 93.3476 119.676Z" fill="#5F5F5F"/>
<path d="M437.624 123.551H407.008V280.061H437.624V123.551Z" fill="#5F5F5F"/>
<path d="M622.466 201.28C622.466 163.562 595.467 145.937 559.734 145.937C524.001 145.937 497.002 163.562 497.002 201.28C497.002 245.519 530.441 257.592 559.734 257.592C589.026 257.592 622.466 245.519 622.466 201.28ZM559.822 119.676C628.818 119.676 653.081 160.125 653.081 203.042C653.081 235.472 633.935 283.853 559.822 283.853C485.709 283.853 466.563 235.472 466.563 203.042C466.475 160.125 490.826 119.676 559.822 119.676Z" fill="#5F5F5F"/>
<path d="M679.992 123.465H712.284L817.014 236.53V123.465H846.394V279.975H818.337L709.373 162.945V279.975H679.992V123.465Z" fill="#5F5F5F"/>
<path d="M327.774 216.347C350.802 215.025 371.536 199.074 371.536 170.257C371.536 131.923 344.802 123.551 307.745 123.551H213.516V280.061H244.043V148.931H303.069C328.127 148.931 340.832 152.544 340.832 170.874C340.832 189.38 328.127 193.082 303.069 193.082H274.571L338.008 280.061H375.683L327.774 216.347Z" fill="#5F5F5F"/>
<path d="M878.598 56.9305C861.129 60.808 829.189 65.038 808.279 68.7393C797.515 70.678 788.868 72.7049 787.633 73.498C800.779 75.3487 826.278 73.498 847.629 77.9924C857.511 80.1074 881.686 83.6324 885.304 109.365C887.068 152.106 889.098 213.265 891.656 246.752C902.685 183.743 906.655 125.051 915.743 122.408C929.86 118.089 1004.94 179.248 1024.09 194.494C951.3 107.514 933.919 96.9394 934.801 85.8356C936.654 64.6855 991.092 53.053 1018.44 42.8304C1000.18 40.8917 961.005 48.7348 936.654 50.3211C924.743 51.2023 916.272 51.1142 915.302 43.9761C913.361 29.6116 912.126 14.6303 909.567 0.354044C903.567 -3.87597 900.568 27.761 895.274 44.4167C892.803 52.6123 888.833 53.8461 878.598 56.9305Z" fill="#FF5F00"/>
</g>
<defs>
<clipPath id="clip0_1077_29147">
<rect width="1024" height="377" fill="white"/>
</clipPath>
</defs>
</svg>
