<svg width="1024" height="279" viewBox="0 0 1024 279" fill="none" xmlns="http://www.w3.org/2000/svg">
<g clip-path="url(#clip0_1077_29142)">
<path d="M139.021 0C62.221 0 0 62.3187 0 139.152C0 215.986 62.221 278.392 139.021 278.392C215.821 278.392 278.042 216.073 278.042 139.152C278.042 62.2318 215.821 0 139.021 0Z" fill="#1E2851"/>
<path d="M171.041 74.0508H137.283L112.117 204.164H134.42L141.969 163.661H167.135C195.165 163.661 218.596 146.539 218.596 115.683C218.596 93.2592 204.017 74.0508 171.041 74.0508ZM165.4 143.844H145.874L155.594 94.1283H172.082C185.359 94.1283 196.38 101.169 196.38 116.466C196.293 134.457 182.235 143.844 165.4 143.844Z" fill="white"/>
<path d="M113.588 74.0508L88.4219 204.164H99.009L124.002 74.0508H113.588Z" fill="white"/>
<path d="M89.8137 74.0508L64.7344 204.164H75.2347L100.314 74.0508H89.8137Z" fill="white"/>
<path d="M509.738 161.052C509.738 176.697 501.407 186.518 488.564 186.518C476.155 186.518 468.865 178 468.865 163.833V113.074H447.344V167.918C447.344 191.559 460.534 206.422 482.056 206.422C494.725 206.422 504.184 200.685 509.738 192.081V204.162H531.26V113.074H509.738V161.052Z" fill="#1E2851"/>
<path d="M564.234 138.369C564.234 132.806 569.962 129.59 578.726 129.59C589.834 129.59 600.421 134.023 609.013 141.324V118.813C600.682 114.119 590.095 110.816 579.507 110.816C558.16 110.816 543.32 122.376 543.32 140.194C543.32 173.83 592.177 160.445 592.177 177.394C592.177 184.608 585.669 187.476 576.991 187.476C565.276 187.476 553.213 182.087 544.101 174.439V197.645C553.04 203.208 564.321 206.424 577.859 206.424C596.95 206.424 613.525 195.82 613.525 176.09C613.438 142.454 564.234 154.187 564.234 138.369Z" fill="#1E2851"/>
<path d="M672.885 110.903C660.042 110.903 650.583 116.64 645.029 125.244V74.0508H623.508V204.251H645.029V156.273C645.029 140.628 653.534 130.807 666.377 130.807C679.394 130.807 686.597 139.325 686.597 153.492V204.251H708.118V149.407C708.205 125.766 695.014 110.903 672.885 110.903Z" fill="#1E2851"/>
<path d="M773.553 110.902C760.883 110.902 749.428 116.813 742.746 126.113V113.075H721.398V242.928H742.746V191.734C749.428 201.034 760.97 206.423 773.553 206.423C798.632 206.423 817.897 185.389 817.897 158.619C817.984 131.501 798.632 110.902 773.553 110.902ZM769.127 186.954C753.68 186.954 741.792 174.525 741.792 158.706C741.792 142.887 753.68 130.458 769.127 130.458C784.574 130.458 796.376 142.887 796.376 158.706C796.376 174.525 784.487 186.954 769.127 186.954Z" fill="#1E2851"/>
<path d="M901.12 125.591C894.438 116.291 882.896 110.902 870.313 110.902C845.234 110.902 825.969 131.936 825.969 158.706C825.969 185.824 845.321 206.51 870.313 206.51C882.983 206.51 894.438 200.6 901.12 191.3V204.337H922.468V113.075H901.12V125.591ZM874.739 186.954C859.292 186.954 847.403 174.525 847.403 158.706C847.403 142.887 859.292 130.458 874.739 130.458C890.186 130.458 901.988 142.887 901.988 158.706C901.988 174.525 890.099 186.954 874.739 186.954Z" fill="#1E2851"/>
<path d="M1001.17 113.074L975.573 178.696L950.667 113.074H927.844L964.204 202.945L960.299 212.419C956.047 222.675 951.188 226.326 943.638 226.326C940.08 226.326 936.782 225.63 934.179 224.5V242.927C937.129 244.23 941.208 245.534 946.849 245.534C962.295 245.534 972.275 236.756 981.213 215.2L1023.39 113.074H1001.17Z" fill="#1E2851"/>
<path d="M389.03 74.0508H351.367V204.251H373.67V163.748H386.513C415.15 163.748 438.494 148.103 438.494 118.726C438.494 92.1293 419.316 74.0508 389.03 74.0508ZM388.162 143.844H373.67V94.1283H388.162C406.733 94.1283 415.671 103.776 415.671 119.247C415.671 133.241 406.212 143.844 388.162 143.844Z" fill="#1E2851"/>
<path d="M1017.49 193.213C1017.49 190.953 1015.75 189.562 1013.15 189.562H1008.12V200.948H1010.29V197.037H1012.63L1015.41 200.948H1018.01L1014.97 196.69C1016.36 196.255 1017.49 195.038 1017.49 193.213ZM1012.98 195.125H1010.2V191.562H1012.98C1014.37 191.562 1015.23 192.17 1015.23 193.387C1015.23 194.43 1014.45 195.125 1012.98 195.125Z" fill="#1E2851"/>
<path d="M1012.46 184.695C1006.38 184.695 1001.61 189.65 1001.61 195.56C1001.61 201.47 1006.38 206.424 1012.46 206.424C1018.53 206.424 1023.3 201.47 1023.3 195.56C1023.3 189.65 1018.53 184.695 1012.46 184.695ZM1012.37 205.381C1006.82 205.381 1002.65 201.035 1002.65 195.647C1002.65 190.258 1006.82 185.825 1012.37 185.825C1017.92 185.825 1022.09 190.171 1022.09 195.56C1022.09 200.949 1017.92 205.381 1012.37 205.381Z" fill="#1E2851"/>
</g>
<defs>
<clipPath id="clip0_1077_29142">
<rect width="1024" height="279" fill="white"/>
</clipPath>
</defs>
</svg>
