<svg width="1024" height="406" viewBox="0 0 1024 406" fill="none" xmlns="http://www.w3.org/2000/svg">
<g clip-path="url(#clip0_1077_29141)">
<mask id="mask0_1077_29141" style="mask-type:luminance" maskUnits="userSpaceOnUse" x="0" y="0" width="317" height="406">
<path d="M316.568 0H0V406H316.568V0Z" fill="white"/>
</mask>
<g mask="url(#mask0_1077_29141)">
<path d="M316.401 135.756V83.4596C316.401 83.4596 316.39 83.4462 316.368 83.42C315.455 82.2771 295.038 56.7063 264.265 37.1584C211.991 3.96482 158.743 0 158.281 0V46.7613C170.334 48.3868 226.945 57.9659 268.371 100.841V135.756H316.401Z" fill="#FFBE12"/>
<path d="M316.565 234.496V157.523H158.281V203.967H291.48L268.536 222.158V234.496C268.536 269.578 237.341 300.924 211.265 321.064C202.485 327.829 161.208 355.011 158.281 356.708V405.999C161.678 404.746 217.415 382.423 263.54 338.319C294.43 308.783 316.499 273.258 316.565 234.496Z" fill="#FFBE12"/>
<path d="M27.394 157.523L48.0281 142.258V100.842C89.2882 58.291 146.393 48.3869 158.28 46.7611V0C157.934 0 104.696 3.80623 52.315 37.0156C20.494 57.1965 0 83.4597 0 83.4597V203.967H158.28V157.523H27.394Z" fill="#FFBE12"/>
<path d="M158.28 406C158.289 406 158.28 356.709 158.28 356.709C158.24 356.729 158.208 356.744 158.183 356.757C158.146 356.777 158.125 356.787 158.115 356.787C158.115 356.78 157.331 356.267 155.941 355.354C147.899 350.081 119.591 331.519 105.66 321.026C76.0074 298.679 48.0281 271.068 48.0281 241.483L59.4211 225.727H0V241.483C0 278.957 21.9367 312.325 52.7436 340.238C83.3855 368.001 122.964 390.361 158.28 406Z" fill="#FFBE12"/>
</g>
<path d="M1024 50.75H394.094V355.25H1024V50.75Z" fill="white" fill-opacity="0.01"/>
<path d="M561.201 125.317C557.538 121.069 554.988 116.35 553.237 111.158C551.483 106.125 550.687 101.09 550.687 96.3709V93.854C550.687 88.6625 551.483 83.4713 553.237 78.2798C554.988 73.0886 557.696 68.5265 561.361 64.4363C565.023 60.3461 569.644 56.8852 575.06 54.5255C580.637 52.0086 587.009 50.75 594.656 50.75C602.46 50.75 609.471 52.1659 615.364 54.9975C621.417 57.8291 626.197 61.762 629.86 66.9532C633.525 71.9874 635.596 77.9652 636.232 84.5726H616.639C616.16 81.1117 614.728 78.2798 612.814 75.9202C610.743 73.5606 608.196 71.6727 605.17 70.4144C602.141 69.1558 598.638 68.5265 594.656 68.5265C590.831 68.5265 587.326 69.1558 584.299 70.4144C581.273 71.6727 578.726 73.5606 576.812 75.9202C574.741 78.2798 573.309 81.1114 572.194 84.4153C571.078 87.7188 570.599 91.3371 570.599 95.2699C570.599 99.2025 571.078 102.821 572.194 106.125C573.309 109.428 574.901 112.26 576.972 114.619C579.042 116.979 581.592 118.867 584.778 120.125C587.805 121.384 591.31 122.013 595.292 122.013C601.345 122.013 606.442 120.597 610.584 117.766C614.728 114.934 617.275 111.001 618.071 105.967H637.507C636.87 112.102 634.64 117.766 631.135 122.957C627.629 128.148 622.851 132.239 616.799 135.227C610.743 138.374 603.575 139.79 595.292 139.79C587.485 139.79 580.796 138.374 575.06 135.699C569.484 133.182 564.866 129.722 561.201 125.317ZM439.494 122.485C437.104 123.429 433.918 123.901 430.413 123.901C426.431 123.901 423.085 123.272 420.538 122.17C417.988 121.069 416.077 119.496 414.962 117.766C413.687 115.878 413.05 113.99 413.05 111.788H394.094C394.094 117.294 395.526 122.013 398.235 126.261C401.102 130.508 405.084 133.812 410.501 136.171C415.917 138.688 422.449 139.79 430.256 139.79C437.583 139.79 443.955 138.688 449.212 136.486C454.469 134.284 458.611 131.137 461.477 127.047C464.344 122.957 465.779 118.238 465.779 112.889C465.779 107.698 464.344 103.135 461.637 99.5172C458.93 95.899 455.105 92.9101 450.328 90.8651C445.547 88.8199 439.971 87.4042 433.599 86.9322L426.91 86.3029C422.925 85.9883 420.059 84.887 418.307 83.1567C416.553 81.4261 415.757 79.3811 415.757 77.0215C415.757 75.1336 416.236 73.4033 417.192 71.83C418.148 70.257 419.582 68.9984 421.493 68.2118C423.404 67.2679 425.795 66.9532 428.661 66.9532C431.688 66.9532 434.238 67.4252 436.149 68.5265C438.22 69.6277 439.654 70.8861 440.769 72.6166C441.725 74.347 442.361 76.2349 442.361 78.2798H461.318C461.318 72.774 460.043 68.0545 457.336 63.9643C454.786 59.8741 450.964 56.5705 446.186 54.3682C441.246 52.0086 435.513 50.9073 428.661 50.9073C422.13 50.9073 416.553 52.0086 411.775 54.0536C406.998 56.0985 403.333 59.245 400.626 63.1779C397.916 67.1105 396.641 71.83 396.641 77.3361C396.641 84.7297 399.191 90.7078 404.288 95.2699C409.385 99.8318 416.396 102.349 424.999 103.135L431.528 103.607C436.785 104.079 440.61 105.023 443 106.596C445.388 108.17 446.503 110.372 446.503 113.046C446.503 115.249 445.867 117.136 444.592 118.71C443.796 120.283 442.042 121.541 439.494 122.485ZM723.69 122.8C726.557 117.294 728.151 110.844 728.151 103.45V53.2669H708.556V103.922C708.556 107.698 707.919 111.001 706.485 113.675C705.05 116.35 702.979 118.395 700.272 119.968C697.563 121.384 694.22 122.17 690.235 122.17C686.253 122.17 682.907 121.384 680.2 119.968C677.491 118.552 675.42 116.35 673.988 113.675C672.553 111.001 671.757 107.698 671.757 104.079V53.2669H652.322V103.293C652.322 110.687 653.756 117.294 656.783 122.642C659.649 128.148 663.951 132.396 669.687 135.385C675.42 138.374 682.271 139.947 690.395 139.947C698.678 139.947 705.529 138.374 711.105 135.385C716.522 132.396 720.664 128.148 723.69 122.8ZM767.975 96.0563H784.065C786.932 96.0563 789.322 95.4272 791.393 94.326C793.464 93.2247 795.056 91.6517 796.331 89.6065C797.446 87.5615 798.085 85.2016 798.085 82.6847C798.085 80.0104 797.446 77.4935 796.331 75.6056C795.215 73.5606 793.464 71.9874 791.393 70.8861C789.322 69.7851 786.932 69.1558 784.065 69.1558H767.975V96.0563ZM813.536 98.5735C810.669 102.663 806.687 105.653 801.587 107.698L823.73 137.587H801.111L782.154 110.844H768.135V137.587H748.699V67.5825L737.866 53.4243H782.79C789.958 53.4243 796.171 54.5255 801.587 56.5705C806.844 58.6157 810.986 61.762 813.855 66.0095C816.722 70.0997 818.156 75.2909 818.156 81.5834V83.4713C817.837 89.4492 816.403 94.4833 813.536 98.5735ZM501.621 121.856V102.663H534.437V86.9322H501.621V75.2909L493.178 68.9984H536.191V53.2669H482.505V137.587H536.987V121.856H501.621ZM857.504 121.856V102.663H890.321V86.9322H857.504V75.2909L849.061 68.9984H892.232V53.2669H838.545V137.587H893.028V121.856H857.504Z" fill="#202A42"/>
<path d="M438.06 158.402C445.867 158.402 452.875 159.818 458.768 162.65C464.823 165.481 469.601 169.414 473.266 174.606C476.929 179.64 479 185.618 479.638 192.225H460.043C459.566 188.764 458.132 185.932 456.221 183.573C454.15 181.213 451.6 179.325 448.574 178.067C445.547 176.808 442.042 176.179 438.06 176.179C434.238 176.179 430.732 176.808 427.706 178.067C424.679 179.325 422.13 181.213 420.218 183.573C418.148 185.932 416.713 188.764 415.598 192.068C414.482 195.371 414.006 198.989 414.006 202.922C414.006 206.855 414.482 210.473 415.598 213.777C416.713 217.081 418.307 219.912 420.378 222.272C422.449 224.632 424.996 226.519 428.182 227.778C431.211 229.036 434.714 229.665 438.696 229.665C444.751 229.665 449.849 228.25 453.99 225.418C458.132 222.586 460.682 218.654 461.477 213.62H480.911C480.274 219.755 478.044 225.418 474.539 230.609C471.036 235.801 466.255 239.891 460.203 242.88C454.15 246.026 446.982 247.442 438.696 247.442C430.892 247.442 424.2 246.026 418.467 243.352C412.891 240.677 408.27 237.217 404.607 232.812C400.942 228.564 398.395 223.845 396.641 218.654C394.89 213.62 394.094 208.585 394.094 203.866V201.349C394.094 196.158 394.89 190.966 396.641 185.775C398.395 180.584 401.102 176.021 404.767 171.932C408.43 167.841 413.05 164.38 418.467 162.021C424.041 159.661 430.572 158.402 438.06 158.402ZM527.746 178.224C524.56 179.482 521.693 181.37 519.303 183.73C516.913 186.09 515.161 188.921 514.046 192.225C512.931 195.529 512.295 199.147 512.295 203.08C512.295 206.698 512.931 210.159 514.046 213.462C515.161 216.766 517.073 219.597 519.303 221.957C521.693 224.474 524.4 226.362 527.746 227.778C530.932 229.194 534.597 229.823 538.739 229.823C542.88 229.823 546.543 229.194 549.889 227.778C553.235 226.362 555.942 224.474 558.332 221.957C560.562 219.44 562.314 216.609 563.589 213.462C564.863 210.159 565.5 206.698 565.5 203.08C565.5 199.147 564.863 195.529 563.589 192.225C562.314 188.921 560.562 186.09 558.172 183.73C555.782 181.37 553.075 179.482 549.729 178.224C546.383 176.965 542.721 176.336 538.739 176.336C534.597 176.179 530.932 176.808 527.746 178.224ZM504.169 172.089C508.153 167.999 512.931 164.538 518.667 162.178C524.4 159.661 531.092 158.402 538.739 158.402C546.383 158.402 553.075 159.661 558.811 162.178C564.544 164.695 569.482 167.999 573.306 172.089C577.129 176.179 580.155 180.898 582.069 185.932C583.98 191.124 585.095 196.158 585.095 201.506V204.024C585.095 208.743 584.14 213.777 582.226 218.811C580.315 223.845 577.448 228.564 573.626 232.969C569.801 237.374 565.023 240.835 559.128 243.509C553.234 246.184 546.543 247.599 538.579 247.599C530.772 247.599 523.924 246.184 518.028 243.509C512.135 240.835 507.355 237.374 503.532 232.969C499.71 228.564 496.841 223.845 494.93 218.811C493.019 213.777 492.063 208.9 492.063 204.024V201.506C492.063 196.315 493.019 191.124 494.93 185.932C497.32 180.898 500.187 176.336 504.169 172.089ZM677.488 201.664V204.181C677.488 209.372 676.533 214.406 674.622 219.283C672.71 224.16 669.684 228.722 665.7 232.655C661.718 236.587 656.78 239.891 651.044 242.251C645.151 244.61 638.3 245.712 630.496 245.712H598.316V160.29H630.496C638.3 160.29 645.151 161.391 651.044 163.594C656.94 165.796 661.877 168.942 665.7 172.718C669.684 176.493 672.551 180.898 674.622 185.932C676.533 190.966 677.488 196.158 677.488 201.664ZM657.895 202.922C657.895 198.989 657.257 195.529 655.984 192.382C654.709 189.236 652.955 186.719 650.727 184.517C648.497 182.314 645.787 180.741 642.442 179.64C639.256 178.539 635.593 178.067 631.451 178.067H609.309L617.752 184.359V228.092H631.451C635.593 228.092 639.256 227.463 642.442 226.362C645.628 225.104 648.497 223.53 650.727 221.328C652.955 219.125 654.709 216.451 655.984 213.305C657.257 210.001 657.895 206.698 657.895 202.922ZM710.941 229.351V210.001H743.757V194.27H710.941V182.629L702.498 176.336H745.67V160.605H691.984V244.925H746.466V229.194H710.941V229.351Z" fill="#202A42"/>
<path d="M909.688 320.955C908.413 324.258 906.659 327.09 904.426 329.45C902.195 331.967 899.324 333.855 895.975 335.271C892.63 336.685 888.962 337.314 884.815 337.314C880.671 337.314 877.003 336.685 873.815 335.271C870.626 333.855 867.757 331.967 865.367 329.45C862.974 326.933 861.22 324.101 860.105 320.955C858.99 317.651 858.351 314.19 858.351 310.571C858.351 306.638 858.99 303.02 860.105 299.718C861.22 296.415 862.974 293.583 865.367 291.223C867.757 288.863 870.467 286.975 873.815 285.716C877.003 284.458 880.671 283.828 884.815 283.828C888.802 283.828 892.47 284.458 895.818 285.716C899.164 286.975 901.876 288.863 904.266 291.223C906.659 293.583 908.413 296.415 909.688 299.718C910.963 303.02 911.602 306.638 911.602 310.571C911.602 314.347 910.963 317.808 909.688 320.955ZM919.573 279.738C915.746 275.648 910.803 272.186 905.065 269.827C899.324 267.309 892.63 266.051 884.975 266.051C877.323 266.051 870.626 267.309 864.888 269.827C859.149 272.344 854.367 275.648 850.38 279.738C846.395 283.829 843.523 288.548 841.612 293.583C839.698 298.774 838.74 303.806 838.74 309.155V311.673C838.74 316.392 839.698 321.427 841.612 326.461C843.523 331.495 846.395 336.213 850.22 340.618C854.047 345.023 858.83 348.484 864.728 351.159C870.626 353.833 877.323 355.249 885.294 355.249C893.106 355.249 899.962 353.833 905.861 351.159C911.761 348.484 916.544 345.023 920.369 340.618C924.196 336.213 927.065 331.653 928.979 326.461C930.89 321.427 931.848 316.55 931.848 311.673V309.155C931.848 303.964 930.893 298.774 928.819 293.583C926.267 288.548 923.398 283.986 919.573 279.738ZM803.189 352.732H822.638V268.411H803.189V352.732ZM548.581 316.235L559.102 284.143H563.406L574.249 316.235H548.581ZM545.709 268.411L517.012 352.732H536.463L543.319 331.81H579.509L586.525 352.732H606.771L577.119 268.411H545.709ZM483.215 337.471H480.186L465.837 271.714H445.747L433.472 337.471H430.284L414.181 268.568H394.094L415.456 352.889H445.111L455.792 302.076L467.272 352.889H497.404L516.376 268.568H497.404L483.215 337.471ZM640.411 284.458H656.514C659.383 284.458 661.776 285.087 663.847 286.188C665.92 287.29 667.514 288.863 668.789 290.908C669.905 292.953 670.543 295.313 670.543 297.988C670.543 300.66 669.905 302.862 668.789 304.908C667.674 306.953 665.92 308.526 663.847 309.627C661.776 310.729 659.383 311.358 656.514 311.358H640.411V284.458ZM686.007 313.718C688.879 309.627 690.314 304.436 690.314 298.302V296.415C690.314 290.279 688.879 285.087 686.007 280.839C683.138 276.749 679.154 273.602 673.732 271.4C668.47 269.355 662.093 268.253 654.92 268.253H609.96L620.801 282.413V352.417H640.252V325.674H654.281L673.253 352.417H695.892L673.732 322.528C679.154 320.797 683.138 317.808 686.007 313.718ZM732.402 284.458H748.504C751.373 284.458 753.766 285.087 755.837 286.188C757.91 287.29 759.505 288.863 760.78 290.908C761.897 292.953 762.533 295.313 762.533 297.988C762.533 300.66 761.897 302.862 760.78 304.908C759.664 306.953 757.91 308.526 755.837 309.627C753.766 310.729 751.373 311.358 748.504 311.358H732.402V284.458ZM778 313.718C780.869 309.627 782.304 304.436 782.304 298.302V296.415C782.304 290.279 780.869 285.087 778 280.839C775.128 276.749 771.144 273.602 765.722 271.4C760.463 269.355 754.085 268.253 746.91 268.253H702.11L712.951 282.413V352.417H732.402V325.674H746.431L765.403 352.417H788.042L765.882 322.528C771.144 320.797 775.128 317.808 778 313.718ZM968.358 284.458H984.46C987.329 284.458 989.722 285.087 991.793 286.188C993.866 287.29 995.461 288.863 996.735 290.908C997.851 292.953 998.489 295.313 998.489 297.988C998.489 300.66 997.851 302.862 996.735 304.908C995.62 306.953 993.866 308.526 991.793 309.627C989.722 310.729 987.329 311.358 984.46 311.358H968.358V284.458ZM1013.95 313.718C1016.83 309.627 1018.26 304.436 1018.26 298.302V296.415C1018.26 290.279 1016.83 285.087 1013.95 280.839C1011.08 276.749 1007.1 273.602 1001.68 271.4C996.416 269.355 990.039 268.253 982.866 268.253H938.066L948.907 282.413V352.417H968.358V325.674H982.387L1001.36 352.417H1024L1001.84 322.528C1007.1 320.797 1011.08 317.808 1013.95 313.718Z" fill="#202A42"/>
</g>
<defs>
<clipPath id="clip0_1077_29141">
<rect width="1024" height="406" fill="white"/>
</clipPath>
</defs>
</svg>
