<svg width="1024" height="137" viewBox="0 0 1024 137" fill="none" xmlns="http://www.w3.org/2000/svg">
<g clip-path="url(#clip0_1077_29140)">
<mask id="mask0_1077_29140" style="mask-type:luminance" maskUnits="userSpaceOnUse" x="0" y="0" width="1024" height="137">
<path d="M1024 0H0V137H1024V0Z" fill="white"/>
</mask>
<g mask="url(#mask0_1077_29140)">
<path d="M57.8135 106.288C53.8417 108.271 48.2947 109.821 43.8893 109.821C35.9226 109.821 31.2889 106.06 31.2889 96.7818V66.0757H59.3659V43.5536H31.4942V17.2929H1.20312V99.8819C1.20312 123.293 15.3557 135.443 39.027 135.443C49.6415 135.443 57.6082 132.571 64.9126 129.038L57.8365 106.288H57.8135ZM210.205 43.5764V50.6431C202.901 44.4654 193.405 40.932 181.466 40.932C156.928 40.932 136.361 60.149 136.361 88.1877C136.361 116.227 156.928 135.443 181.466 135.443C193.405 135.443 202.924 131.91 210.205 125.732V132.799H239.629V43.5764H210.205ZM187.63 111.371C174.801 111.371 165.282 102.093 165.282 88.1877C165.282 74.2822 174.573 65.0044 187.63 65.0044C199.568 65.0044 210.411 74.5102 210.411 88.1877C210.182 102.093 199.568 111.371 187.63 111.371ZM321.44 1.60938V48.6598C314.135 42.2543 304.64 38.721 292.702 38.721C268.163 38.721 247.595 58.3709 247.595 87.0935C247.595 115.816 268.163 135.466 292.702 135.466C304.64 135.466 314.16 131.933 321.44 125.527V132.822H350.864V1.60938H321.44ZM298.66 110.71C285.831 110.71 276.311 101.204 276.311 87.0707C276.311 72.9374 285.603 63.4316 298.66 63.4316C310.598 63.4316 321.44 73.1425 321.44 87.0707C321.44 100.999 310.598 110.71 298.66 110.71ZM454.132 88.1877C453.47 59.0319 432.904 40.932 407.018 40.932C381.134 40.932 358.809 60.149 358.809 88.1877C358.809 116.227 380.698 135.443 407.018 135.443C426.922 135.443 443.061 127.054 451.256 109.821L425.166 104.532C420.303 111.371 413.228 112.693 407.246 112.693C397.523 112.693 389.989 106.06 387.569 95.4595H454.156V91.5535V89.7177L454.132 88.1877ZM387.775 78.0209C390.423 68.9708 398.823 63.8874 407.018 63.8874C415.212 63.8874 422.723 68.3098 425.371 78.0209H387.775ZM136.338 40.932H135.448C119.971 40.932 109.79 48.8878 102.714 60.149V42.2543H72.6281V135.466H102.919V106.31C102.919 82.238 114.196 71.6379 135.219 71.4101L136.315 40.932H136.338Z" fill="#4854D3"/>
<path d="M584.842 40.9766C570.026 40.9766 558.75 47.1543 551.217 56.4321C544.803 46.4933 533.527 40.9766 520.264 40.9766C508.098 40.9766 498.806 45.171 492.187 52.0097V43.6209H462.102V135.055H492.187V90.4434C492.187 75.1931 499.492 67.26 510.31 67.26C519.375 67.26 526.449 73.8938 526.449 84.2656V135.283H556.535V90.4434C556.535 75.1931 563.84 67.26 575.116 67.26C583.972 67.26 591.05 73.8938 591.05 84.2656V135.283H621.135V77.8601C621.135 55.7711 604.996 40.9766 584.864 40.9766H584.842ZM724.38 88.2323C723.719 59.0765 703.153 40.9766 677.266 40.9766C651.38 40.9766 629.055 60.1933 629.055 88.2323C629.055 116.271 650.946 135.488 677.266 135.488C697.171 135.488 713.31 127.099 721.504 109.865L695.414 104.577C690.552 111.415 683.474 112.738 677.494 112.738C667.771 112.738 660.238 106.104 657.818 95.504H724.38V88.2093V88.2323ZM658.046 78.0652C660.694 69.0153 669.094 63.9319 677.289 63.9319C685.483 63.9319 692.766 68.3543 695.642 78.0652H658.046Z" fill="#F9AF2C"/>
<path d="M923.997 109.484C915.376 108.123 906.596 108.141 897.983 109.539L897.532 109.612C888.782 111.066 880.32 113.92 872.479 118.063C858.537 124.371 868.223 140.223 879.154 133.97C892.045 126.532 905.986 121.943 921.704 122.715C931.978 123.47 932.429 110.642 923.997 109.484Z" fill="#4854D3"/>
<path d="M754.998 132.573C760.863 126.116 765.662 118.769 769.216 110.808L769.4 110.394C772.974 102.288 775.218 93.6595 776.049 84.8406C778.415 69.733 759.824 69.1353 759.069 81.6867C758.239 96.5096 754.464 110.689 745.165 123.396C738.903 131.562 749.4 138.973 754.991 132.592" fill="#4854D3"/>
<path d="M1018.69 51.6566L1018.44 51.5923L1014.76 50.7556C1012.42 50.2313 1009.05 49.505 1004.99 48.7417C1002.96 48.3463 1000.75 47.9693 998.406 47.583C996.067 47.197 993.583 46.8383 991.04 46.4614C988.499 46.0844 985.8 45.7901 983.076 45.5417C980.349 45.2934 977.598 45.0544 974.788 44.843C971.981 44.6314 969.264 44.5211 966.501 44.4568C963.74 44.3924 961.069 44.3741 958.463 44.3555H957.875C959.046 48.2262 959.36 52.3054 958.794 56.3095H959.061C961.52 56.1715 964.07 55.9875 966.657 55.9325C969.244 55.8772 971.888 55.8221 974.521 55.8221C977.155 55.8221 979.808 55.8681 982.404 56.0059C984.999 56.1438 987.569 56.2635 990.045 56.4288C992.522 56.5945 994.925 56.8151 997.201 57.0634C999.474 57.3118 1001.62 57.5324 1003.65 57.7991C1007.61 58.2955 1010.91 58.8014 1013.22 59.1784L1016.9 59.7667H1016.99C1018.05 59.9556 1019.14 59.7276 1020.04 59.1304C1020.93 58.5335 1021.56 57.6136 1021.79 56.5634C1022.02 55.5131 1021.84 54.414 1021.28 53.4961C1020.72 52.5782 1019.82 51.9125 1018.78 51.6382" fill="#F9AF2C"/>
<path d="M957.866 44.3583C955.186 35.5401 948.106 28.1837 937.847 24.9564C898.567 12.6071 846.137 10.7588 812.125 25.8758C797.999 32.1653 786.27 43.871 781.647 59.8982C778.495 70.7743 778.94 82.376 782.921 92.9781C786.9 103.58 794.2 112.617 803.734 118.744C813.269 124.871 824.528 127.761 835.841 126.985C847.151 126.208 857.908 121.807 866.514 114.435C883.29 99.9619 896.735 84.1553 931.475 81.0748C945.426 79.8335 954.422 72.4773 957.903 60.4592C958.309 59.1071 958.616 57.7273 958.824 56.3304C959.392 52.3265 959.079 48.2464 957.903 44.3766" fill="#4854D3"/>
<path d="M946.67 56.9986C945.798 60.0106 944.051 62.6968 941.65 64.7173C939.249 66.7378 936.302 68.0019 933.181 68.3495C930.063 68.6974 926.908 68.1134 924.12 66.6715C921.332 65.2293 919.034 62.994 917.52 60.2482C916.004 57.5023 915.337 54.3694 915.604 51.2453C915.871 48.1212 917.06 45.1466 919.022 42.6972C920.982 40.2481 923.625 38.4343 926.616 37.4856C929.61 36.5366 932.816 36.4953 935.832 37.3667C939.877 38.5351 943.289 41.26 945.322 44.9413C947.356 48.623 947.841 52.96 946.67 56.9986Z" fill="white"/>
<path d="M940.737 46.546C939.263 45.2335 937.362 44.4983 935.387 44.477C933.413 44.4555 931.497 45.1496 929.995 46.43C928.493 47.7107 927.509 49.4912 927.22 51.4423C926.933 53.3931 927.362 55.3822 928.427 57.0414C929.495 58.7006 931.129 59.9172 933.026 60.4664C934.922 61.0154 936.955 60.8596 938.746 60.0278C940.534 59.196 941.962 57.7445 942.766 55.942C943.567 54.1397 943.687 52.1084 943.104 50.2242C943.067 50.9613 942.815 51.6717 942.379 52.2672C941.943 52.8627 941.34 53.3172 940.647 53.5743C939.953 53.8312 939.201 53.8797 938.481 53.7133C937.761 53.5469 937.107 53.1734 936.597 52.6386C936.088 52.1038 935.747 51.4315 935.617 50.7052C935.485 49.9786 935.571 49.23 935.865 48.5518C936.156 47.8739 936.639 47.2963 937.256 46.8907C937.876 46.4851 938.599 46.2693 939.336 46.2703C939.816 46.2727 940.289 46.363 940.737 46.5369" fill="#333333"/>
</g>
</g>
<defs>
<clipPath id="clip0_1077_29140">
<rect width="1024" height="137" fill="white"/>
</clipPath>
</defs>
</svg>
