<svg width="1024" height="509" viewBox="0 0 1024 509" fill="none" xmlns="http://www.w3.org/2000/svg">
<g clip-path="url(#clip0_1077_29135)">
<path d="M433.336 103.836H446.899C449.612 103.836 452.324 104.515 454.359 105.872C456.393 107.229 458.427 109.265 459.106 111.98L485.553 183.919L512.001 111.98C512.679 109.265 514.713 107.229 516.748 105.872C518.782 104.515 521.495 103.836 524.208 103.836H537.092C537.77 103.836 538.449 103.836 538.449 104.515C539.127 104.515 539.127 105.193 539.805 105.872C539.805 106.551 540.483 106.551 540.483 107.229C540.483 107.908 540.483 108.587 540.483 108.587L497.76 212.423C497.76 213.101 497.082 213.78 496.404 213.78C495.725 214.459 495.047 214.459 494.369 214.459H476.059C475.381 214.459 474.703 214.459 474.025 213.78C473.347 213.101 473.347 213.101 472.668 212.423L429.945 108.587C429.945 107.908 429.945 107.908 429.945 107.229C429.945 106.551 429.945 106.551 430.623 105.872C430.623 105.193 431.302 105.193 431.98 104.515C432.658 103.836 432.658 103.836 433.336 103.836Z" fill="white"/>
<path d="M639.491 166.953H561.504C564.217 184.598 577.101 194.778 593.377 194.778C598.802 194.778 603.549 194.099 608.296 192.063C613.043 190.027 617.112 187.313 621.181 183.919C621.859 183.241 622.537 183.241 623.215 183.241C623.893 183.241 624.571 183.241 625.25 183.919L635.422 192.742C636.1 193.421 636.778 194.099 636.778 194.778C636.778 195.457 636.778 196.135 636.1 196.814C630.675 202.922 623.893 207.673 616.434 210.387C608.974 213.781 600.836 215.138 592.699 214.459C560.826 214.459 535.734 191.385 535.734 157.451V154.737C535.734 124.197 560.826 99.0859 592.02 100.443C634.066 102.479 643.56 138.449 642.881 163.559C642.881 164.238 642.203 164.917 641.525 165.595C641.525 166.953 640.847 166.953 639.491 166.953ZM618.468 150.665C616.434 134.377 606.94 122.161 589.986 122.161C574.389 122.161 563.538 133.698 561.504 150.665H618.468Z" fill="white"/>
<path d="M650.344 158.809C650.344 150.665 651.7 143.199 654.413 136.413C657.125 129.626 661.872 122.839 666.619 118.089C672.044 112.659 678.148 108.587 685.607 105.873C692.389 103.158 700.527 101.801 707.986 101.801C715.446 101.801 723.583 103.158 731.043 105.873C738.503 108.587 744.606 113.338 750.031 118.767C750.709 119.446 750.709 120.125 750.709 120.803C750.709 121.482 750.709 122.161 750.031 122.839L738.503 135.055C738.503 135.055 737.825 135.734 737.146 135.734C736.468 135.734 736.468 135.734 735.79 135.734C735.112 135.734 735.112 135.734 734.434 135.734C733.756 135.734 733.756 135.055 733.078 135.055C729.687 131.662 725.618 128.947 721.549 126.911C716.802 124.875 712.055 124.197 707.308 124.197C688.998 124.197 675.435 139.806 675.435 158.809V159.487C675.435 179.169 688.998 194.778 708.664 194.778C713.411 194.778 718.158 193.421 722.905 192.063C727.652 190.027 731.721 187.313 735.112 183.919C735.79 183.241 736.468 183.241 737.146 183.241C737.825 183.241 738.503 183.241 739.181 183.919L750.031 194.778C750.709 195.457 750.709 196.135 750.709 196.814C750.709 197.493 750.709 198.171 750.031 198.85C744.606 204.958 737.825 209.709 730.365 212.423C722.905 215.138 714.768 217.174 706.63 216.495C699.17 216.495 691.711 215.138 684.929 212.423C678.148 209.709 671.366 205.637 665.941 200.207C660.516 194.778 656.447 188.67 653.734 181.883C651.7 173.739 650.344 166.274 650.344 158.809Z" fill="white"/>
<path d="M770.374 182.562V124.876H759.524C758.845 124.876 758.845 124.876 758.167 124.876C757.489 124.876 757.489 124.197 756.811 124.197C756.811 124.197 756.133 123.518 756.133 122.84C756.133 122.161 756.133 122.161 756.133 121.482V105.873C756.133 105.194 756.133 104.516 756.811 103.837C757.489 103.158 758.167 103.158 758.845 103.158H769.696V76.0115C769.696 75.3329 769.696 74.6542 770.374 73.9755C771.052 73.2969 771.73 73.2969 772.408 73.2969H781.224C784.615 73.2969 788.006 74.6542 790.718 77.3689C793.431 80.0835 794.787 82.7982 794.787 86.8702V103.837H821.235C821.913 103.837 822.591 103.837 823.269 104.516C823.947 105.194 823.947 105.873 823.947 106.552V122.161C823.947 122.84 823.947 122.84 823.947 123.518C823.947 124.197 823.269 124.197 823.269 124.876C823.269 124.876 822.591 125.554 821.913 125.554C821.235 125.554 821.235 125.554 820.557 125.554H794.109V179.169C794.109 188.67 798.856 192.742 807.672 192.742C811.741 192.742 815.132 192.064 819.2 190.706C819.879 190.706 819.879 190.706 820.557 190.706C821.235 190.706 821.235 190.706 821.913 191.385C822.591 191.385 822.591 192.064 822.591 192.742C822.591 193.421 823.269 193.421 823.269 194.1V207.673C823.269 208.352 823.269 209.03 822.591 209.03C822.591 209.709 821.913 209.709 821.235 210.388C814.453 213.781 807.672 215.138 800.212 215.138C783.937 214.46 770.374 206.316 770.374 182.562Z" fill="white"/>
<path d="M832.086 158.807C832.086 143.197 838.189 128.267 849.04 117.408C859.89 106.549 874.809 100.441 890.407 100.441C906.004 100.441 920.923 106.549 931.773 117.408C942.624 128.267 949.405 143.197 949.405 158.807V159.485C949.405 166.951 948.049 174.416 944.658 181.881C941.946 188.668 937.198 195.455 931.773 200.205C926.348 205.635 919.567 209.707 912.785 212.421C905.326 215.136 897.866 216.493 890.407 216.493C882.947 216.493 875.487 215.136 868.028 212.421C861.246 209.707 854.465 205.635 849.04 200.205C843.614 194.776 839.546 188.668 836.155 181.881C833.442 173.737 832.086 166.272 832.086 158.807ZM924.314 158.807C924.314 139.125 910.073 123.516 890.407 123.516C870.74 123.516 857.177 139.125 857.177 158.128V158.807C857.177 177.809 871.418 194.097 891.085 194.097C911.429 193.419 924.314 177.809 924.314 158.807Z" fill="white"/>
<path d="M984.671 171.025V209.709C984.671 210.387 984.671 210.387 984.671 211.066C984.671 211.745 983.993 211.745 983.993 212.423C983.993 213.102 983.315 213.102 982.637 213.102C981.958 213.102 981.958 213.102 981.28 213.102H962.97C962.292 213.102 961.614 213.102 960.936 212.423C960.258 211.745 960.258 211.066 960.258 210.387V106.551C960.258 105.873 960.936 105.194 960.936 104.515C961.614 103.837 962.292 103.837 962.97 103.837H975.855C978.568 103.837 980.602 104.515 982.637 106.551C984.671 108.587 985.349 110.623 985.349 113.338V128.269C992.131 112.659 1003.66 101.801 1021.29 101.801C1021.97 101.801 1021.97 101.801 1022.65 101.801C1023.33 101.801 1023.33 102.479 1024 102.479C1024 102.479 1024.68 103.158 1024.68 103.837C1024.68 104.515 1024.68 104.515 1024.68 105.194V116.731C1024.68 119.446 1024 122.839 1021.97 124.875C1019.93 126.911 1017.22 128.947 1014.51 129.626C1002.3 130.983 984.671 139.806 984.671 171.025Z" fill="white"/>
<path d="M322.797 0C219.041 0 195.306 381.411 188.524 381.411C186.49 381.411 144.445 361.051 92.906 151.343C84.0901 115.373 71.2053 84.8333 40.6887 88.2267C8.8159 92.2987 0 137.091 0 181.204C0 228.032 31.1947 509 151.226 509C206.834 509 221.076 457.421 223.11 450.635C223.11 450.635 223.11 449.956 223.788 449.956H224.466C234.638 451.313 347.889 458.1 375.693 82.7973C378.405 42.0773 363.486 0 322.797 0ZM150.548 452.671C133.595 454.707 103.756 425.524 77.9868 321.688V321.009C77.9868 321.009 77.9868 321.009 78.6649 320.331H79.343C79.343 320.331 79.343 320.331 80.0212 321.009C90.1934 343.405 121.388 405.164 166.146 433.668C166.146 433.668 166.146 433.668 166.146 434.347C166.146 434.347 166.146 434.347 166.146 435.025C166.146 437.74 161.399 451.313 150.548 452.671ZM252.948 367.837C252.27 367.837 252.27 367.837 252.27 367.837C252.27 367.837 252.27 367.837 251.592 367.159V366.48C257.017 336.619 301.775 73.296 316.694 73.296C331.613 73.9747 300.419 312.865 252.948 367.837Z" fill="url(#paint0_linear_1077_29135)"/>
</g>
<defs>
<linearGradient id="paint0_linear_1077_29135" x1="187.822" y1="508.999" x2="187.822" y2="0" gradientUnits="userSpaceOnUse">
<stop stop-color="#0DE839"/>
<stop offset="0.08" stop-color="#0DE642"/>
<stop offset="0.21" stop-color="#0DE259"/>
<stop offset="0.37" stop-color="#0DDA80"/>
<stop offset="0.56" stop-color="#0DD0B5"/>
<stop offset="0.72" stop-color="#0DC6E8"/>
<stop offset="1" stop-color="#1F79FF"/>
</linearGradient>
<clipPath id="clip0_1077_29135">
<rect width="1024" height="509" fill="white"/>
</clipPath>
</defs>
</svg>
