<svg width="1024" height="452" viewBox="0 0 1024 452" fill="none" xmlns="http://www.w3.org/2000/svg">
<path d="M871.596 0H43.7453C19.5926 0 0 19.5842 0 43.7404V408.26C0 432.416 19.5891 452 43.7453 452H871.596C887.963 452 902.964 442.866 910.474 428.322L1019.13 246.065C1022.33 239.862 1024 232.982 1024 226.002C1024 219.021 1022.33 212.142 1019.13 205.938L910.474 23.6785C906.792 16.5453 901.216 10.5626 894.359 6.38605C887.501 2.20949 879.626 0.000117114 871.596 0Z" fill="#40BA58"/>
<path d="M951.064 226.003C951.064 231.804 948.759 237.366 944.655 241.468C940.552 245.569 934.987 247.874 929.184 247.874C923.381 247.874 917.816 245.569 913.713 241.468C909.61 237.366 907.305 231.804 907.305 226.003C907.305 220.203 909.61 214.64 913.713 210.539C917.816 206.437 923.381 204.133 929.184 204.133C934.987 204.133 940.552 206.437 944.655 210.539C948.759 214.64 951.064 220.203 951.064 226.003ZM214.247 179.646H246.537C248.694 179.646 250.108 181.898 249.166 183.836L165.392 356.017C163.798 359.292 159.128 359.299 157.528 356.024L73.2352 183.839C73.0172 183.395 72.916 182.902 72.9413 182.407C72.9666 181.913 73.1176 181.433 73.3799 181.013C73.6422 180.593 74.0073 180.247 74.4407 180.007C74.874 179.767 75.3614 179.642 75.8567 179.643H108.188C109.328 179.643 110.359 180.304 110.837 181.338L161.484 291.034L211.591 181.345C211.825 180.837 212.199 180.407 212.67 180.105C213.141 179.804 213.688 179.646 214.247 179.646ZM401.697 301.457L423.495 314.132C423.835 314.331 424.131 314.595 424.367 314.91C424.602 315.225 424.772 315.584 424.867 315.966C424.961 316.348 424.977 316.745 424.915 317.133C424.853 317.521 424.714 317.893 424.505 318.227C405.018 348.797 377.504 364.082 341.95 364.082C315.941 364.082 294.949 354.683 278.974 335.876C263.368 317.572 255.562 293.016 255.562 262.214C255.562 251.33 257.917 239.886 262.628 227.89C271.291 205.747 285.845 190.346 306.284 181.683C317.057 177.111 328.949 174.822 341.954 174.822C379.35 174.822 404.493 190.533 417.378 221.95C423.44 236.672 426.229 250.712 425.734 264.07L425.461 271.832C425.434 272.587 425.116 273.302 424.572 273.827C424.028 274.353 423.302 274.646 422.546 274.647H290.679C290.679 291.471 295.566 305.449 305.352 316.582C315.756 328.213 329.253 334.024 345.852 334.024C366.775 334.024 387.143 320.376 397.693 302.549C397.884 302.214 398.14 301.92 398.444 301.684C398.749 301.448 399.097 301.275 399.469 301.173C399.841 301.072 400.229 301.045 400.611 301.093C400.994 301.142 401.363 301.266 401.697 301.457ZM391.925 248.856C390.068 235.744 385.05 225.167 376.879 217.126C368.206 208.589 357.368 204.321 344.367 204.321C330.492 204.321 318.914 208.313 309.626 216.29C300.338 224.27 294.515 235.123 292.163 248.856H391.925ZM460.052 179.646H488.212C489.826 179.646 491.13 180.953 491.13 182.56V205.065C504.258 184.9 522.649 174.822 546.307 174.822C587.796 174.822 608.542 200.24 608.542 251.081V355.041C608.542 355.815 608.235 356.557 607.687 357.104C607.14 357.651 606.398 357.958 605.624 357.958H577.276C576.503 357.958 575.761 357.651 575.214 357.105C574.666 356.559 574.359 355.817 574.358 355.044V250.34C574.358 235.123 571.695 224.055 566.37 217.126C560.298 209.087 549.894 205.065 535.159 205.065C505.808 205.065 491.13 223.56 491.13 260.542V355.044C491.129 355.817 490.822 356.557 490.275 357.104C489.729 357.65 488.988 357.957 488.215 357.958H460.055C459.672 357.959 459.292 357.884 458.938 357.737C458.584 357.591 458.262 357.377 457.991 357.106C457.719 356.835 457.504 356.514 457.357 356.16C457.21 355.807 457.134 355.427 457.133 355.044V182.56C457.133 180.953 458.441 179.646 460.052 179.646ZM788.517 87.0508H816.865C818.476 87.0508 819.783 88.3575 819.783 89.9645V355.044C819.783 355.817 819.475 356.559 818.927 357.105C818.38 357.651 817.638 357.958 816.865 357.958H788.517C787.744 357.958 787.002 357.651 786.455 357.105C785.908 356.559 785.6 355.817 785.599 355.044V329.012C770.116 352.393 749.803 364.086 724.664 364.086C696.675 364.086 674.816 353.632 659.087 332.727C645.212 314.296 638.279 293.572 638.279 270.563C638.279 252.626 641.747 236.423 648.683 221.95C656.36 205.87 667.446 193.747 681.936 185.583C694.691 178.407 708.44 174.818 723.179 174.818C735.44 174.818 747.516 178.162 759.405 184.839C771.297 191.519 780.028 200.179 785.599 210.817V89.9679C785.599 88.3575 786.906 87.0508 788.517 87.0508ZM781.544 269.805C781.544 244.083 772.635 225.836 754.814 215.065C746.076 209.8 736.153 207.166 725.033 207.166C702.191 207.166 686.155 218.357 676.952 240.729C673.028 250.172 671.014 260.299 671.027 270.525C671.027 291.703 678.379 308.578 693.094 321.14C701.225 328.084 711.632 331.55 724.316 331.55C748.953 331.55 765.993 320.844 775.448 299.424C779.509 290.212 781.544 280.338 781.544 269.805Z" fill="white"/>
</svg>
