<svg width="1024" height="193" viewBox="0 0 1024 193" fill="none" xmlns="http://www.w3.org/2000/svg">
<g clip-path="url(#clip0_1077_29121)">
<path d="M136.224 139.732L98.5558 22.9027C93.1378 5.14667 84.1078 0 70.1759 0H0C5.41799 2.316 9.02998 16.4693 9.02998 16.4693L43.0859 133.813C46.9559 148.481 59.3399 156.201 73.0139 156.201H147.318C142.158 155.429 136.224 139.732 136.224 139.732Z" fill="#DA1710"/>
<path d="M248.196 139.732L285.863 22.9027C291.539 5.14667 300.569 0 314.243 0H384.419C379.001 2.316 375.131 16.4693 375.131 16.4693L341.591 133.813C337.721 148.481 325.337 156.201 311.663 156.201H237.102C242.52 155.429 248.196 139.732 248.196 139.732Z" fill="#DA1710"/>
<path d="M233.747 1.03125H151.188V156.461H233.747V1.03125Z" fill="#DA1710"/>
<path d="M413.577 76.6864C417.705 72.3117 422.865 70.253 429.057 70.253C434.733 70.253 439.635 72.3117 443.247 76.1717C446.859 80.0317 448.665 86.7224 448.665 95.7291H406.095C407.127 87.4944 409.449 81.061 413.577 76.6864ZM480.656 134.072C466.983 137.932 454.857 139.99 444.021 139.99C435.507 139.99 428.799 138.961 423.897 136.645C418.995 134.329 414.867 131.241 412.029 127.381C409.191 123.521 407.385 118.117 406.611 111.169H481.172C480.914 88.7811 476.27 73.5984 466.983 65.3637C457.953 57.129 445.569 53.0117 430.347 53.0117C417.963 53.0117 407.385 55.3277 398.871 59.9597C390.357 64.5917 383.907 70.7677 379.263 79.0024C374.877 86.9797 372.555 95.729 372.555 104.993C372.555 115.286 375.135 124.55 380.553 133.3C385.713 142.049 393.453 148.225 402.999 152.342C412.803 156.46 424.155 158.518 437.055 158.518C450.729 158.518 465.177 156.717 480.656 152.857V134.072Z" fill="#231F20"/>
<path d="M493.297 153.115V133.043C509.293 138.704 523.225 141.278 534.577 141.278C540.769 141.278 545.413 140.248 549.025 138.19C552.637 136.131 554.443 133.3 554.443 130.212C554.443 127.382 553.153 124.808 550.315 123.007C547.735 121.206 543.349 119.147 537.931 117.346L527.095 113.743C515.743 109.883 507.487 105.766 502.069 101.134C496.651 96.7589 494.071 90.8402 494.071 83.3775C494.071 74.6282 498.199 67.4229 506.455 61.7615C514.711 56.1002 527.095 53.2695 543.865 53.2695C553.669 53.2695 565.279 54.5562 578.953 56.8722V75.6575C565.795 72.0549 554.959 70.5109 546.445 70.5109C539.737 70.5109 534.577 71.5402 531.223 73.3415C527.869 75.1429 526.063 77.7162 526.063 80.8042C526.063 83.1202 527.095 85.4362 529.417 87.2375C531.481 89.0389 535.351 90.8402 541.027 92.6415L550.573 95.7295C566.053 100.619 576.373 105.508 581.275 110.14C585.919 114.772 588.499 120.434 588.499 126.867C588.499 135.359 584.113 142.822 575.341 149.255C566.569 155.688 553.927 158.776 537.157 158.776C522.709 158.776 508.261 156.975 493.297 153.115Z" fill="#231F20"/>
<path d="M667.186 155.943C659.446 157.744 653.254 158.773 648.868 158.773C638.29 158.773 630.034 157.487 624.1 154.913C618.166 152.34 613.78 148.995 610.942 144.62C608.104 140.245 606.556 134.069 606.556 125.577V72.5668H593.398V55.3254H606.814V38.0841L639.322 34.9961V55.3254H665.122V72.5668H639.322V121.975C639.322 129.18 640.87 134.069 643.966 136.643C647.062 139.216 651.448 140.503 657.382 140.503C660.22 140.503 663.574 139.988 667.186 139.216V155.943Z" fill="#231F20"/>
<path d="M715.172 90.0682C719.3 85.1789 723.428 81.5762 728.072 78.7455C732.716 75.9149 737.36 74.6282 742.004 74.6282C749.486 74.6282 755.162 77.4589 759.29 82.8629C763.418 88.2669 765.224 95.7295 765.224 105.251C765.224 114.515 763.16 122.75 759.032 129.698C754.904 136.903 748.454 140.506 739.682 140.506C735.554 140.506 731.684 139.734 727.814 138.19C723.944 136.646 719.816 133.815 715.172 129.44V90.0682ZM715.172 193.002V145.91C719.558 149.512 723.428 152.343 726.782 153.887C730.136 155.431 733.49 156.718 737.102 157.49C740.714 158.262 744.584 158.776 748.97 158.776C764.966 158.776 777.608 153.372 786.38 142.822C795.41 132.271 799.796 118.89 799.796 103.192C799.796 88.2669 795.668 76.1722 787.67 66.9082C779.672 57.6442 768.32 53.2695 753.614 53.2695C744.842 53.2695 737.102 55.0709 730.652 58.6735C724.202 62.2762 718.784 67.6802 714.656 74.8855V55.3282H682.148V193.002H715.172Z" fill="#231F20"/>
<path d="M865.074 137.674C861.204 139.218 857.334 139.99 853.464 139.99C849.336 139.99 845.466 138.704 842.37 136.388C839.274 133.814 837.726 130.726 837.726 126.866C837.726 122.234 840.306 118.374 845.466 115.286C850.626 112.198 858.366 110.654 868.944 110.654H876.684V130.984C872.814 133.814 868.944 136.13 865.074 137.674ZM878.232 145.652C880.554 151.056 883.908 154.401 888.294 156.202C892.68 158.004 897.84 158.776 903.774 158.776C909.192 158.776 915.126 158.004 922.092 156.202L921.576 140.762C919.77 141.02 918.222 141.02 917.19 141.02C915.126 141.02 913.062 140.505 910.998 139.218C908.934 137.932 907.902 134.586 907.902 129.182V84.6637C907.902 76.1717 905.838 69.9957 901.71 65.6211C897.582 61.5037 891.906 58.1584 884.94 56.0997C877.974 54.041 869.976 53.0117 860.946 53.0117C846.498 53.0117 831.792 55.3277 817.086 59.9597V78.7451C829.986 72.8264 842.628 69.7384 855.012 69.7384C861.204 69.7384 866.364 70.7677 870.492 72.8264C874.62 74.885 876.684 79.0024 876.684 85.4357V94.4424H867.912C846.24 94.4424 830.502 97.7877 820.956 104.478C811.152 111.169 806.508 119.404 806.508 129.44C806.508 137.674 809.862 144.365 816.312 150.026C822.762 155.688 831.276 158.518 842.112 158.518C846.24 158.518 850.11 158.004 853.98 157.232C857.592 156.46 861.204 155.173 864.816 153.629C868.17 152.085 872.298 149.254 876.942 145.394H878.232V145.652Z" fill="#231F20"/>
<path d="M1024 154.144C1010.59 157.232 998.201 158.776 986.849 158.776C966.467 158.776 950.987 153.63 940.925 143.594C930.605 133.3 925.445 120.948 925.445 106.023C925.445 90.5829 930.863 77.7162 941.699 67.9375C952.535 58.1589 968.531 53.2695 989.687 53.2695C999.491 53.2695 1010.59 54.5562 1023.23 57.3869V77.2015C1010.07 73.5989 999.749 71.7975 992.009 71.7975C980.915 71.7975 972.917 75.4002 967.757 82.3482C962.597 89.5535 960.017 97.2735 960.017 105.766C960.017 112.199 961.565 118.375 964.403 124.294C967.241 129.955 971.369 134.072 976.787 136.646C981.947 139.219 987.881 140.506 994.589 140.506C1004.14 140.506 1013.94 138.962 1024 135.616V154.144Z" fill="#231F20"/>
</g>
<defs>
<clipPath id="clip0_1077_29121">
<rect width="1024" height="193" fill="white"/>
</clipPath>
</defs>
</svg>
