<svg width="1024" height="209" viewBox="0 0 1024 209" fill="none" xmlns="http://www.w3.org/2000/svg">
<path d="M316.077 39.4336H305.422V169.684H316.077V39.4336Z" fill="#125430"/>
<path d="M293.582 123.383C293.582 152.456 277.685 171.772 253.839 171.772C229.648 171.772 213.578 152.652 213.578 123.383C213.578 93.72 229.476 74.7969 254.035 74.7969C278.226 74.7969 293.582 93.72 293.582 123.383ZM225.169 123.579C225.169 145.968 237.055 162.703 253.666 162.703C270.277 162.703 281.991 145.943 281.991 123.383C281.991 100.601 270.45 83.8652 253.839 83.8652C236.539 83.8652 225.169 100.233 225.169 123.579Z" fill="#125430"/>
<path d="M519.374 123.383C519.374 152.456 503.476 171.772 479.628 171.772C455.437 171.772 439.367 152.652 439.367 123.383C439.367 93.72 455.265 74.7969 479.826 74.7969C503.991 74.7969 519.374 93.72 519.374 123.383ZM450.96 123.579C450.96 145.968 462.871 162.703 479.456 162.703C496.068 162.703 507.781 145.943 507.781 123.383C507.781 100.601 496.24 83.8652 479.628 83.8652C462.303 83.8652 450.96 100.233 450.96 123.579Z" fill="#125430"/>
<path d="M205.613 123.383C205.613 152.456 189.716 171.772 165.87 171.772C141.679 171.772 125.609 152.652 125.609 123.383C125.609 93.72 141.507 74.7969 166.066 74.7969C190.257 74.7969 205.613 93.72 205.613 123.383ZM137.2 123.579C137.2 145.968 149.086 162.703 165.697 162.703C182.308 162.703 194.022 145.943 194.022 123.383C194.022 100.601 182.456 83.8652 165.87 83.8652C148.569 83.8652 137.2 100.233 137.2 123.579Z" fill="#125430"/>
<path d="M636.761 77.0843V81.4833C636.563 85.5137 636.761 89.7161 636.219 93.7218C642.198 82.2451 652.928 75.7329 665.451 75.7329C685.954 75.7329 693.309 90.8465 694.393 110.163C694.763 114.562 694.961 122.033 694.961 126.432V169.66H684.328V126.432C684.328 121.075 684.13 112.031 683.786 107.632C682.508 92.8865 675.247 84.8501 663.46 84.8501C653.814 84.8501 644.93 91.166 640.203 101.119C638.409 104.756 637.669 108.394 637.127 116.233C636.933 119.109 636.761 124.908 636.761 126.432V169.66H626.203V39.4102H636.761V77.0843Z" fill="#125430"/>
<path d="M752.588 87.9205C745.427 85.4628 742.056 84.75 734.918 84.4798C724.312 84.0372 716.733 90.8692 716.733 98.709C716.733 117.829 760.219 115.74 760.219 145.206C760.219 160.713 747.3 171.403 728.397 171.403C720.425 171.403 713.706 170.076 705.734 166.808L706.497 156.314C714.468 160.713 720.597 162.335 727.687 162.335C739.717 162.335 748.552 154.372 748.552 145.181C748.552 122.99 706.104 126.823 706.104 98.881C706.104 84.5287 717.424 75.0673 735.116 75.3622C741.933 75.4603 745.132 75.657 753.451 78.5323L752.588 87.9205Z" fill="#125430"/>
<path d="M387.394 76.7383C387.394 76.7383 400.34 129.305 403.02 141.617C404.324 147.614 406.271 156.412 406.271 156.412C406.271 156.412 408.289 147.614 409.889 141.642C413.211 129.256 427.999 76.7629 427.999 76.7629H439.417L412.471 169.609H399.922C399.922 169.609 385.746 108.269 384.098 100.724C383.261 96.9392 382.102 91.1641 382.102 91.1641C382.102 91.1641 380.948 96.9392 380.11 100.724C378.462 108.269 364.287 169.609 364.287 169.609H351.736L324.789 76.7629H336.208C336.208 76.7629 350.973 129.256 354.32 141.642C355.919 147.614 357.937 156.412 357.937 156.412C357.937 156.412 359.857 147.614 361.186 141.617C363.893 129.305 376.814 76.7383 376.814 76.7383H387.394Z" fill="#125430"/>
<path d="M68.2653 62.7082C68.2653 62.7082 85.664 125.966 88.5924 136.902C90.2413 142.996 92.8006 153.761 92.8006 153.761C92.8006 153.761 95.0646 142.972 96.5905 136.828C99.2727 125.99 115.564 62.6836 115.564 62.6836H126.638L99.0757 169.636H86.9929C86.9929 169.636 66.7398 92.2481 65.78 88.2913C64.8203 84.3345 63.3437 76.6918 63.3437 76.6918C63.3437 76.6918 61.8918 84.3102 60.9074 88.2913C59.9477 92.2481 39.6942 169.636 39.6942 169.636H27.6113L0 62.7082H11.074C11.074 62.7082 27.3406 126.015 30.023 136.852C31.5488 142.996 33.8128 153.785 33.8128 153.785C33.8128 153.785 36.3967 143.021 38.021 136.926C40.9495 125.99 58.3478 62.7329 58.3478 62.7329H68.2653V62.7082Z" fill="#125430"/>
<path d="M530.836 169.683V76.9101H539.869V98.1187C539.869 98.1187 544.914 78.3846 572.992 76.9347C576.905 76.738 581.999 76.8612 581.999 76.8612V53.5144L592.556 49.4102V76.8854H614.262V86.2979H592.556C592.556 86.2979 592.556 133.139 592.556 142.699C592.556 156.019 596.716 160.639 605.82 160.639C610.865 160.639 614.998 158.771 614.998 158.771L616.131 167.938C616.131 167.938 610.887 169.658 605.326 169.658C602.471 169.658 594.006 170.051 588.199 164.203C584.334 160.295 582.021 153.955 582.021 142.158C582.021 131.394 582.047 85.9049 582.021 85.9049C578.332 85.8803 570.432 85.438 564.034 87.1089C555.468 89.3456 541.442 98.2419 541.442 120.434C541.442 128.494 541.442 169.683 541.442 169.683H530.836Z" fill="#125430"/>
<path d="M950.569 175.73C945.378 175.73 940.456 175.091 935.829 173.911C928.175 184.405 918.331 193.474 906.914 199.691C917.005 205.196 928.325 208.44 940.407 208.44C986.696 208.44 1018.22 160.37 1021.93 119.477C1020.46 124.883 1010.91 175.73 950.569 175.73Z" fill="url(#paint0_linear_1077_29120)"/>
<path d="M962.086 47.9609C939.812 47.9609 929.086 60.863 929.086 60.863C952.07 63.1978 980.32 79.3931 980.32 112.914C980.32 145.477 958.935 160.295 941.464 165.235C939.741 168.209 937.797 171.256 935.727 174.058C939.838 175.311 945.377 175.876 950.568 175.876C1010.93 175.876 1020.46 124.882 1021.91 119.476C1022.15 116.723 1022.28 114.044 1022.28 111.366C1022.28 65.5322 987.233 47.9609 962.086 47.9609Z" fill="url(#paint1_linear_1077_29120)"/>
<path d="M863.208 175.729C876.026 175.729 887.227 171.821 896.181 165.555C893.105 166.464 889.316 167.226 885.526 167.226C868.499 167.226 833.455 154.643 833.455 112.914C833.455 79.3684 861.683 63.1732 884.667 60.863C884.667 60.863 873.937 47.9609 851.667 47.9609C826.515 47.9609 791.445 65.5322 791.445 111.39C791.445 114.044 791.569 116.748 791.815 119.5C793.34 124.907 802.694 175.729 863.208 175.729Z" fill="url(#paint2_linear_1077_29120)"/>
<path d="M886.024 168.088C889.814 168.088 893.185 167.523 896.19 165.557C900.297 162.682 903.967 159.29 907.065 155.555C904.95 152.901 895.057 139.556 895.057 121.714C895.057 105.028 904.015 97.9007 906.968 95.9838C900.816 91.4127 893.899 90.0859 889.937 90.0859C883.588 90.0859 866.438 94.4357 862.375 113.998V113.973C862.375 113.998 862.375 114.022 862.375 114.022C862.229 114.809 862.106 115.595 861.983 116.357C861.564 119.625 861.344 123.214 861.344 127.17C861.344 142.849 868.504 157.767 873.721 166.344C878.3 167.572 882.556 168.088 886.024 168.088Z" fill="url(#paint3_linear_1077_29120)"/>
<path d="M907.207 74.5781C879.253 74.5781 865.963 95.0989 862.421 113.973C866.479 94.4107 883.536 90.5524 888.432 90.3065C894.46 90.0116 900.391 91.5109 907.013 95.9588C913.707 100.948 919.488 109.377 919.488 122.82C919.488 134.297 915.033 146.044 907.11 155.53C897.218 167.376 881.936 175.707 863.258 175.707C802.718 175.707 793.368 124.884 791.914 119.453C795.633 160.322 827.156 208.417 873.445 208.417C918.651 208.417 953.202 162.853 953.202 124.688C953.153 98.2444 938.118 74.5781 907.207 74.5781Z" fill="url(#paint4_linear_1077_29120)"/>
<path d="M908.048 59.0209C908.048 59.0209 898.402 49.7558 897.737 37.1487C897.247 27.9574 900.962 13.9248 915.53 6.13437C949.591 -12.0761 979.22 14.4163 975.774 31.57C975.774 31.57 950.402 20.0441 927.022 33.831C909.845 43.9561 908.048 59.0209 908.048 59.0209Z" fill="url(#paint5_linear_1077_29120)"/>
<defs>
<linearGradient id="paint0_linear_1077_29120" x1="1003.06" y1="169.962" x2="930.345" y2="152.972" gradientUnits="userSpaceOnUse">
<stop offset="0.1209" stop-color="#488F49"/>
<stop offset="0.5091" stop-color="#84AF4C"/>
<stop offset="0.835" stop-color="#AFC64F"/>
<stop offset="1" stop-color="#C0CF50"/>
</linearGradient>
<linearGradient id="paint1_linear_1077_29120" x1="975.685" y1="12.9653" x2="975.685" y2="177.052" gradientUnits="userSpaceOnUse">
<stop stop-color="#599E47"/>
<stop offset="0.1098" stop-color="#72AA49"/>
<stop offset="0.2899" stop-color="#94BA4C"/>
<stop offset="0.461" stop-color="#ACC54E"/>
<stop offset="0.6179" stop-color="#BBCD50"/>
<stop offset="0.7473" stop-color="#C0CF50"/>
</linearGradient>
<linearGradient id="paint2_linear_1077_29120" x1="843.845" y1="13.0019" x2="843.845" y2="176.918" gradientUnits="userSpaceOnUse">
<stop stop-color="#599E47"/>
<stop offset="0.1098" stop-color="#72AA49"/>
<stop offset="0.2899" stop-color="#94BA4C"/>
<stop offset="0.461" stop-color="#ACC54E"/>
<stop offset="0.6179" stop-color="#BBCD50"/>
<stop offset="0.7473" stop-color="#C0CF50"/>
</linearGradient>
<linearGradient id="paint3_linear_1077_29120" x1="884.234" y1="89.4944" x2="884.234" y2="170.238" gradientUnits="userSpaceOnUse">
<stop offset="0.1868" stop-color="#488F49"/>
<stop offset="0.5651" stop-color="#93B74D"/>
<stop offset="0.7802" stop-color="#C0CF50"/>
</linearGradient>
<linearGradient id="paint4_linear_1077_29120" x1="853.051" y1="199.918" x2="913.288" y2="-27.6177" gradientUnits="userSpaceOnUse">
<stop offset="0.0549" stop-color="#488F49"/>
<stop offset="0.1089" stop-color="#5C9A4A"/>
<stop offset="0.2383" stop-color="#87B14D"/>
<stop offset="0.3549" stop-color="#A6C14E"/>
<stop offset="0.4534" stop-color="#B9CB50"/>
<stop offset="0.522" stop-color="#C0CF50"/>
</linearGradient>
<linearGradient id="paint5_linear_1077_29120" x1="896.971" y1="65.8033" x2="966.662" y2="-3.08394" gradientUnits="userSpaceOnUse">
<stop stop-color="#7BAB43"/>
<stop offset="0.4315" stop-color="#9ABB49"/>
<stop offset="1" stop-color="#C0CF50"/>
</linearGradient>
</defs>
</svg>
