<svg width="1024" height="484" viewBox="0 0 1024 484" fill="none" xmlns="http://www.w3.org/2000/svg">
<g clip-path="url(#clip0_1077_29320)">
<path fill-rule="evenodd" clip-rule="evenodd" d="M717.592 238.293H697.79C693.795 238.293 691.617 240.495 691.617 244.537V313.58C683.919 302.351 671.548 296.131 656.37 296.131C621.413 296.131 600.57 321.348 600.57 364.908C600.57 408.444 621.292 433.636 656.249 433.636C671.742 433.636 684.403 427.102 692.149 415.921L694.328 425.843C694.982 429.57 697.427 431.434 701.155 431.434H717.568C721.562 431.434 723.741 429.28 723.741 425.238V244.537C723.765 240.471 721.635 238.293 717.592 238.293ZM662.785 409.629C645.5 409.629 634.026 395.037 634.026 368.61V361.157C634.026 334.779 645.428 320.138 662.785 320.138C682.248 320.138 692.174 334.125 692.174 364.932C692.174 395.739 682.272 409.629 662.785 409.629Z" fill="#0057AE"/>
<path fill-rule="evenodd" clip-rule="evenodd" d="M757.146 333.448C762.108 310.458 783.121 296.156 810.67 296.156C845.941 296.156 863.564 314.524 863.588 346.516V425.215C863.588 429.208 861.458 431.41 857.415 431.41H841.002C837.274 431.41 834.781 429.547 834.176 425.82L832.312 415.898C824.613 427.078 811.904 433.612 796.145 433.612C769.855 433.612 752.57 418.003 752.57 393.755C752.57 365.465 772.372 350.872 814.156 350.872H831.44V345.887C831.44 328.778 824.299 320.066 810.718 320.066C799.873 320.066 793.7 324.736 790.601 334.707C789.342 338.772 787.164 340.297 783.774 340.297H762.713C758.404 340.297 756.226 337.514 757.146 333.448ZM805.15 409.654C820.91 409.654 831.44 400.071 831.44 377.033V372.677H815.342C795.83 372.677 785.977 379.211 785.953 392.569C785.977 403.144 793.7 409.654 805.15 409.654Z" fill="#0057AE"/>
<path d="M39.8684 431.459C36.1645 431.459 33.9858 429.911 32.7754 426.184C18.2021 385.77 8.32521 345.622 -0.00237104 305.208C-0.946484 301.167 0.917538 298.359 5.22658 298.359H25.3435C29.0716 298.359 31.5166 300.223 32.1702 303.635C37.3991 332.264 43.6206 361.788 51.9724 390.731L76.0836 303.635C77.0035 300.223 79.4727 298.359 83.1765 298.359H110.411C114.114 298.359 116.584 300.223 117.504 303.635L141.615 390.731C149.967 361.812 156.188 332.264 161.417 303.635C162.022 300.223 164.54 298.359 168.244 298.359H188.361C192.67 298.359 194.51 301.142 193.59 305.208C185.262 345.622 175.385 385.77 160.812 426.184C159.553 429.911 157.423 431.459 153.719 431.459H131.06C127.671 431.459 124.887 429.911 123.967 426.184L96.7572 330.376L69.5474 426.184C68.6275 429.911 65.8436 431.459 62.4545 431.459H39.8684Z" fill="#0057AE"/>
<path fill-rule="evenodd" clip-rule="evenodd" d="M273.985 296.207C236.243 296.207 209.953 323.577 209.953 364.935C209.953 406.293 236.243 433.663 273.985 433.663C311.725 433.663 338.015 405.978 338.015 364.935C338.015 323.892 311.725 296.207 273.985 296.207ZM304.584 368.638C304.584 396.008 292.528 411.568 273.985 411.568C255.441 411.568 243.386 396.008 243.386 368.638V361.184C243.386 333.814 255.441 318.253 273.985 318.253C292.528 318.253 304.584 333.814 304.584 361.184V368.638Z" fill="#0057AE"/>
<path d="M933.016 428.607C913.214 394.727 896.099 351.215 885.302 305.211C884.382 300.831 886.561 298.363 890.894 298.387H911.011C914.715 298.387 917.208 300.25 917.813 303.977C924.301 336.332 934.517 367.744 947.492 393.856C958.943 365.227 969.473 335.389 975.041 303.977C975.67 300.25 978.14 298.387 981.843 298.387H1002.57C1006.87 298.387 1009.05 301.194 1007.79 305.526C993.56 362.444 973.153 411.861 955.529 449.806C944.079 474.369 930.764 484.025 906.653 484.025C902.03 484.025 897.115 483.081 893.073 482.162C889.369 481.242 887.844 478.725 887.844 475.313V460.382C887.844 456.026 890.361 454.453 894.67 455.711C898.374 456.631 902.078 457.236 905.467 457.236C919.701 457.236 924.664 447.919 933.016 428.607Z" fill="#0057AE"/>
<path d="M397.443 315.161C404.246 304.247 416.301 296.793 430.221 296.793C435.474 296.793 440.098 298.051 443.826 300.859C445.084 301.802 446.004 303.061 446.004 304.924V323.292C446.004 327.624 444.165 328.882 439.517 327.019C435.74 325.422 432.036 324.817 427.727 324.817C408.893 324.817 398.048 338.199 398.048 357.511L398.072 425.319C398.072 429.312 395.942 431.466 391.899 431.466H372.049C368.054 431.466 365.876 429.336 365.876 425.271L365.852 304.585C365.852 300.592 367.982 298.39 372.025 298.39H388.438C392.48 298.39 394.659 300.568 395.264 303.98L397.443 315.161Z" fill="#0057AE"/>
<path d="M583.041 424.036C569.461 396.061 556.461 376.773 538.208 359.035L580.911 306.158C584.01 301.778 582.485 298.365 577.522 298.365H555.275C552.176 298.365 549.392 299.575 547.528 301.778L504.22 357.123V244.569C504.22 240.502 502.041 238.324 497.999 238.324H478.196C474.202 238.324 472.023 240.526 472.023 244.569V425.27C472.023 429.287 474.154 431.465 478.196 431.465H497.999C501.993 431.465 504.172 429.312 504.172 425.27L504.22 364.335C523.393 382.969 536.683 402.861 547.795 427.739C549.053 429.941 552.104 431.465 555.202 431.465H579.628C584.567 431.49 585.511 429.021 583.041 424.036Z" fill="#0057AE"/>
<path d="M283.914 126.316C344.579 65.5736 425.289 32.1292 511.179 32.1292C596.9 32.1292 677.512 65.501 738.129 126.098C772.795 160.752 798.528 201.916 814.239 246.855C814.917 248.791 816.709 250.074 818.766 250.074H842.587C845.831 250.074 848.179 246.928 847.162 243.83C830.193 191.438 800.925 143.449 760.861 103.374C694.192 36.703 605.518 0.0078125 511.227 0.0078125C416.768 0.0078125 327.924 36.7998 261.183 103.616C221.191 143.643 192.02 191.559 175.099 243.83C174.106 246.928 176.43 250.074 179.698 250.074H203.519C205.577 250.074 207.368 248.767 208.046 246.855C223.684 202.037 249.345 160.922 283.914 126.316Z" fill="#FC5B05"/>
</g>
<defs>
<clipPath id="clip0_1077_29320">
<rect width="1024" height="484" fill="white"/>
</clipPath>
</defs>
</svg>
