<svg width="1024" height="277" viewBox="0 0 1024 277" fill="none" xmlns="http://www.w3.org/2000/svg">
<g clip-path="url(#clip0_1077_29324)">
<path d="M719.993 0.00029593C694.327 0.00029593 666.966 19.951 652.975 63.3819V26.1028C652.975 11.7093 641.278 0 626.902 0C612.525 0 600.829 11.7093 600.829 26.1028L600.828 250.897C600.828 265.291 612.524 277 626.901 277C641.278 277 652.974 265.291 652.974 250.897V145.312C652.974 94.5297 681.617 64.4088 725.601 54.5369C739.658 51.3817 748.389 40.7599 748.389 26.8151C748.389 11.0266 736.713 0.00029593 719.993 0.00029593Z" fill="#13B5EA"/>
<path d="M885.658 0C809.379 0 747.32 62.1307 747.32 138.5C747.32 214.868 809.379 277 885.658 277C961.938 277 1024 214.869 1024 138.5C1024 62.1299 961.938 0 885.658 0ZM885.658 224.814C838.12 224.814 799.445 186.093 799.445 138.5C799.445 90.9064 838.12 52.186 885.658 52.186C933.197 52.186 971.872 90.9061 971.872 138.5C971.872 186.094 933.197 224.814 885.658 224.814Z" fill="#13B5EA"/>
<path d="M885.66 104.004C866.66 104.004 851.203 119.479 851.203 138.501C851.203 157.523 866.66 172.998 885.66 172.998C904.66 172.998 920.117 157.523 920.117 138.501C920.117 119.479 904.66 104.004 885.66 104.004Z" fill="#13B5EA"/>
<path d="M422.497 0C346.185 0 284.102 62.1307 284.102 138.5C284.102 215.559 344.35 276.999 427.686 276.999C468.361 276.999 501.939 264.618 530.338 239.148C533.405 236.075 538.634 229.419 538.634 219.908C538.634 205.512 527.935 194.656 513.746 194.656C506.427 194.656 502.295 196.758 497.632 200.389C477.124 217.299 454.591 225.53 428.774 225.53C384.741 225.53 348.764 199.595 338.912 160.503L530.113 160.503C547.741 160.435 560.523 146.204 560.523 126.615C560.523 79.2449 514.135 0 422.497 0ZM338.836 116.421C348.093 78.1917 381.127 50.9156 422.497 50.9156C463.27 50.9156 496.6 75.2984 506.079 116.421H338.836Z" fill="#13B5EA"/>
<path d="M276.674 25.782C276.674 11.5146 265.123 0 250.924 0C244.045 0 237.578 2.68172 232.715 7.55154L138.337 102.036L43.9597 7.55154C39.0958 2.68201 32.629 0 25.7505 0C11.5509 0 0 11.5146 0 25.782C0 32.6686 2.678 39.1429 7.54185 44.0119L101.919 138.497L7.54185 232.98C2.67859 237.85 0 244.324 0 251.211C0 265.473 11.5201 276.993 25.7511 276.993C32.629 276.993 39.0964 274.311 43.9603 269.441L138.337 174.957L232.714 269.441C237.578 274.311 244.045 276.993 250.923 276.993C265.154 276.993 276.674 265.473 276.674 251.211C276.674 244.324 273.995 237.85 269.132 232.98L174.755 138.496L269.132 44.0116C273.996 39.1426 276.674 32.6689 276.674 25.782Z" fill="#13B5EA"/>
</g>
<defs>
<clipPath id="clip0_1077_29324">
<rect width="1024" height="277" fill="white"/>
</clipPath>
</defs>
</svg>
